<svg id="Layer_1" data-name="Layer 1" xmlns="http://www.w3.org/2000/svg" viewBox="0 0 730.27 227.71"><path d="M107.63,50" style="fill:#cdd6ed;stroke:#ed1c24;stroke-miterlimit:10"/><path d="M263.32,29.67a25,25,0,0,0-7.8-15.49,3.6,3.6,0,0,0-4.93,0,3.54,3.54,0,0,0-.91.56c-12.68,10.31-17.92,26-15.43,42a3.61,3.61,0,0,0,3.48,2.65,23.65,23.65,0,0,0,11.92-3.42,12,12,0,0,0,3.16-2,8.76,8.76,0,0,0,1.52-.94,11.84,11.84,0,0,0,2-2.24l1.79-1.68a3.45,3.45,0,0,0,.81-1.28l.07-.11C262.33,42,264.05,36.36,263.32,29.67Z" style="fill:#cdd6ed"/><path d="M236.9,14a5,5,0,0,0,1-.76c.28-.19.55-.4.84-.57a13,13,0,0,1,3-1.44c.62-.19,1.25-.33,1.85-.58.26-.12.52-.25.77-.39s.38-.22.44-.19a1.31,1.31,0,0,0,1.09-.13,3.16,3.16,0,0,0,1.64-.77c.18-.16.08-.3-.1-.37l-2.58-1c0-.06-.06-.12-.18-.15-.4-.12-.79-.24-1.18-.38a1.5,1.5,0,0,0-.84,0c-.22-.07-.44-.12-.67-.17a32,32,0,0,0-4.79-.27,3.15,3.15,0,0,0-.61.06,3.28,3.28,0,0,0-1.21-.11,26.26,26.26,0,0,0-19.58,10.85A26.75,26.75,0,0,0,211.2,29c-.47,3-1,7.61.43,10.52a12.29,12.29,0,0,0,1,2.67c.51,1,1,2,1.52,3.07.86,1.72,1.64,3.61,3.12,4.9.32.28.77-.12.58-.43V47.07c.23-1.12.42-2.25.54-3.39a5.77,5.77,0,0,1,.34-1.7,1.14,1.14,0,0,0,.14-.74,3.81,3.81,0,0,0,.15-.44,41.1,41.1,0,0,1,6.64-14.66,58.58,58.58,0,0,1,5.12-5.78,25.9,25.9,0,0,0,2-2.33l.06-.05a2,2,0,0,0,.23-.28l.08-.08c.11-.12.21-.25.31-.37s.35-.47.51-.71A31.83,31.83,0,0,1,236.9,14Z" style="fill:#cdd6ed"/><path d="M261.22,6.79h-.86a.81.81,0,0,0-.31,0l-9.55-.16h-1c-.29,0-.67,0-.77.33a.87.87,0,0,0,.32.76,2.89,2.89,0,0,0,.72.42,5.37,5.37,0,0,0,1.86.3,12.87,12.87,0,0,1,1.63.17l.16.07h0a.37.37,0,0,0,.18.05l.54.15c.39.11.8.18,1.18.31a1.63,1.63,0,0,1,.91.86h0a11.71,11.71,0,0,1,.36,2.21,10.55,10.55,0,0,0,.54,2.2c.12.31.35.63.74.56a1,1,0,0,0,.68-.69c.31-.7.58-1.43.82-2.16h0c.27-.73.54-1.46.82-2.2a10.65,10.65,0,0,1,.53-1.25,3.36,3.36,0,0,0,.41-.77c.07-.14.17-.26.25-.4a.72.72,0,0,0,.11-.47A.39.39,0,0,0,261.22,6.79Z" style="fill:#cdd6ed"/><text transform="translate(290 31.62)" style="isolation:isolate;font-size:36.84172439575195px;fill:#cdd6ed;font-family:ArialMT, Arial">InsideOut</text><text transform="translate(290 56.62)" style="isolation:isolate;font-size:18.059667587280273px;fill:#cdd6ed;font-family:ArialMT, Arial">DEVELOPMENT</text><text transform="translate(425 49.62)" style="isolation:isolate;font-size:6.501480579376221px;fill:#cdd6ed;font-family:ArialMT, Arial">TM</text><text transform="translate(10 206.62)" style="isolation:isolate;font-size:100px;fill:#00e696;font-family:'Varela Round', sans-serif">COMMUNITIES</text></svg>