<svg id="Layer_1" data-name="Layer 1" xmlns="http://www.w3.org/2000/svg" viewBox="0 0 686.78 197.49"><path d="M83.63,33.38" transform="translate(0 0)" style="fill:#cdd6ed;stroke:#ed1c24;stroke-miterlimit:10"/><g style="isolation:isolate"><text transform="translate(0 86.4)" style="isolation:isolate;font-size:100px;fill:#00e696;font-family:'Varela Round', sans-serif">OSRS</text><text transform="translate(0 190)" style="isolation:isolate;font-size:100px;fill:#00e696;font-family:'Varela Round', sans-serif">TRACKER</text></g><path d="M683.36,117.5l-14,25.9c-4.08,7.6-4.08,7.55-11.67,11.11-10.53,4.93-21,10-31.5,15a10.61,10.61,0,0,1-4.57,1c-12.37.09-24.75,0-37.12.36a10.06,10.06,0,0,1-4.91-1.06q-18.71-9.12-37.44-18.18a6.63,6.63,0,0,1-3.26-3.18c-6.08-12-12.25-24-18.4-35.92a11,11,0,0,1-1.26-5.22q.1-17.1,0-34.2A10.25,10.25,0,0,1,520.52,68c5.51-10.26,11-20.55,16.22-30.94A16.83,16.83,0,0,1,545,28.69C557,23,568.75,16.93,580.63,11a5.75,5.75,0,0,1,2.6-.68q19.2-.15,38.41-.37a5.73,5.73,0,0,1,2.75.67c13.73,6.86,27.34,14,41.21,20.53a2.74,2.74,0,0,1,1.29,1.45q9.61,19.45,19.24,38.92a5.77,5.77,0,0,1,.64,3c-.47,12.31-.46,24.62-.64,36.93a8.82,8.82,0,0,1-.41,1.76A10.29,10.29,0,0,1,683.36,117.5Z" transform="translate(0 0)" style="fill:#00e696"/><path d="M602.47,165.64c-5.83,0-11.67-.12-17.47,0-2.41.07-4.25-1.14-6.16-2-11.35-5.31-22.65-10.68-34-16a4.92,4.92,0,0,1-2.4-2.36q-8.87-17.44-17.83-34.84a6,6,0,0,1-.72-2.95V74.21a5.5,5.5,0,0,1,.49-2.62Q533.24,54.13,542,36.64a5.52,5.52,0,0,1,2.81-2.72q18.64-8.84,37.26-17.74a5.93,5.93,0,0,1,2.62-.55h35.54a5.53,5.53,0,0,1,2.44.5q18.85,9.07,37.75,18.05a4.06,4.06,0,0,1,2,1.92q9,17.81,18,35.49A5.2,5.2,0,0,1,681,74V107.6a5.34,5.34,0,0,1-.6,2.6q-9,17.49-17.92,35a5.13,5.13,0,0,1-2.54,2.47q-18.59,8.73-37.16,17.54a5.4,5.4,0,0,1-2.45.42Z" transform="translate(0 0)" style="fill:#ccd6f6"/><path d="M569.28,127.13c-2.62,2.44-5.27,4.84-7.84,7.33-.82.8-1.39,1.13-2.37.21-1.13-1-3.33-1.56-3.41-2.95-.07-1.23,1.88-2.19,2.93-3.27,1.9-2,3.83-3.89,5.75-5.83,1.52-2.54,3.88-4.29,5.95-6.3.57-.55,1.22-1,1.77-1.58l9-9c3.37-3.4,6.71-6.85,10.3-10.17-6.29-.19-12.53-.24-18.77-.14-4.13,0-8.26.07-12.4,0-3.2.1-6.41,0-9.62,0a2.91,2.91,0,0,1-2.06-.55c-3.71,0-7.43-.09-11.15,0-1.41,0-1.8-.42-1.72-1.77a36.45,36.45,0,0,0,0-5.12c-.11-1.48.32-2,1.89-2,3.66.1,7.32,0,11,0a3,3,0,0,1,2.06-.52c3.2,0,6.4-.07,9.59,0,4.14-.07,8.27,0,12.4,0,6.49.14,13,0,19.57-.13-3.9-3.46-7.45-7.19-11.15-10.76a66,66,0,0,1-5.38-5.2,41.06,41.06,0,0,0-3.92-3.54c-1.9-2.12-4.14-3.87-6.18-5.83a3.83,3.83,0,0,1-1.28-1.72c-2.11-2.61-4.85-4.57-7.17-7-.71-.72-.81-1.14,0-1.85a32.52,32.52,0,0,0,3.23-3.2c.89-1,1.5-.8,2.35.06,2.3,2.32,4.69,4.56,7,6.84,1.62.73,2.56,2.22,3.8,3.37s2.5,2.49,3.77,3.72c3.32,2.78,6.23,6,9.37,9,3.45,3.39,6.8,6.87,10.52,10.12.21-6,.28-11.93.17-17.86,0-4.6-.07-9.21,0-13.81-.09-2.71,0-5.42,0-8.14a2.67,2.67,0,0,1,.54-2c0-3.28.08-6.56,0-9.85,0-1.29.4-1.67,1.66-1.62,2.49.08,5,.07,7.48,0,1.14,0,1.46.39,1.45,1.48v10a2.43,2.43,0,0,1,.58,2c0,2.71.07,5.42,0,8.13.07,4.73.08,9.45,0,14.18.08,6,0,11.94,0,17.92a2.39,2.39,0,0,1-.17,1.24,7.53,7.53,0,0,0-.28,3.43,3.58,3.58,0,0,1-1.43,3.16c-2.24,1.78-4.25,3.84-6.55,5.54-1.69,1.25-2.58,2.68-2.3,4.8a4.43,4.43,0,0,1-.14,1.81,3.38,3.38,0,0,1-1.09,1.42c-3.86,3.25-7.1,7.25-11,10.47-2.86,2.62-5.42,5.56-8.45,8-2.25,2.45-4.92,4.47-7.25,6.85A1.89,1.89,0,0,1,569.28,127.13Z" transform="translate(0 0)" style="fill:#3c8962"/><path d="M597.86,100v-.37c-.42-3.1.21-5.61,3.14-7.46,2.13-1.34,3.81-3.37,5.84-4.91a3,3,0,0,0,1.3-2.74c0-1.18-.38-2.43.31-3.56.7.67.52,1.55.56,2.37.08,2.15.12,2.2,2.28,2.21q.72,0,1.44,0,10.66-.14,21.32,0c4.4-.07,8.8-.08,13.2,0,4.12-.1,8.25,0,12.37,0a2.71,2.71,0,0,1,1.89.51c2.55,0,5.1.07,7.65,0,1.06,0,1.55.24,1.5,1.41q-.12,3,0,6c.05,1.18-.46,1.41-1.51,1.4H661.5a2.81,2.81,0,0,1-2,.55c-4.06,0-8.11.07-12.17,0-4.38.07-8.77.08-13.16,0-6.75.12-13.5,0-20.25.09-1.15,0-2.28-.13-3.43-.11s-1.42.43-1.45,1.42c0,1.27.13,2.53.11,3.8-.15,6.14,0,12.28-.09,18.42.07,4.26.08,8.51,0,12.77.09,3.09,0,6.18,0,9.27a2.6,2.6,0,0,1-.59,2c0,3.28-.08,6.57,0,9.85,0,1.16-.29,1.62-1.52,1.58-2.56-.08-5.12-.06-7.67,0-1,0-1.36-.36-1.35-1.37v-10a2.72,2.72,0,0,1-.55-2c0-3.09-.07-6.17,0-9.25-.07-4.28-.08-8.55,0-12.83-.11-5.58,0-11.16,0-16.75A4.11,4.11,0,0,1,597.86,100Z" transform="translate(0 0)" style="fill:#2d7251"/><path d="M647.26,94.9H661.5V106a2.9,2.9,0,0,1-1,2.39q-8.67,7.81-17.29,15.68c-.66.31-1-.21-1.38-.56q-3.69-3.61-7.3-7.29a1.8,1.8,0,0,1-.69-1.42,9.63,9.63,0,0,1,3.16-3.46c3-2.51,5.51-5.45,8.52-7.9a3.92,3.92,0,0,0,1.31-3.23C646.88,98.45,646.33,96.6,647.26,94.9Z" transform="translate(0 0)" style="fill:#00e696"/><path d="M661.51,86H647.27c-.89-1.27-.58-2.75-.43-4.07a7.88,7.88,0,0,0-3-7.34c-2.71-2.35-5.28-4.86-8-7.23a4.55,4.55,0,0,1-1.6-2c.16-1.64,1.57-2.36,2.56-3.33,1.65-1.58,3.42-3,5-4.67.37-.38.75-.81,1.39-.67,5.86,5.4,11.71,10.81,17.6,16.17a2.24,2.24,0,0,1,.69,1.94C661.5,78.6,661.51,82.32,661.51,86Z" transform="translate(0 0)" style="fill:#00e696"/><path d="M608.45,143.11v-11.3c1.54-.87,3.22-.46,4.81-.41a5.16,5.16,0,0,0,4.33-1.82c2.78-3.06,6.1-5.57,8.94-8.58a4.68,4.68,0,0,1,2.27-1.46,1.57,1.57,0,0,1,1.28.57c2.32,2.48,5,4.52,7.39,7,.4.42.95.81.75,1.54q-7.51,6.9-15,13.83a2.61,2.61,0,0,1-2,.66Q614.85,143.1,608.45,143.11Z" transform="translate(0 0)" style="fill:#00e696"/><path d="M638.22,128.64c-2.83-3.23-6.18-5.92-9.25-8.9-2.25-1.24-3.92-3.14-5.72-4.91-1-1-2-2-3-2.92-3.64-3.09-6.77-6.71-10.42-9.79-.53-.45-1.21-.87-1.06-1.75-.69-1.52-.25-3.12-.33-4.69a.7.7,0,0,1,.6-.79.61.61,0,0,1,.19,0c1.45.07,2.93-.32,4.33.33,1-.13,1.39.65,1.92,1.18,3.47,3.42,6.89,6.89,10.35,10.31,2.21,2.3,4.8,4.21,6.94,6.59a4,4,0,0,1,1.22,1.75c3,3.1,6,6.2,9.21,9.06l6.47,6.4c-1.6,1.13-3.13,2.17-4.61,3.28-.83.62-1.31.09-1.86-.42Z" transform="translate(0 0)" style="fill:#17543a"/><path d="M643.21,56.78c-2.92,2.82-6.11,5.36-8.78,8.43-.32,1.18-1.48,1.56-2.23,2.32-2.21,2.26-4.47,4.47-6.68,6.72-4,3.4-7.57,7.34-11.54,10.8a14.9,14.9,0,0,1-1.49,1c-4,0-4,0-4-4V81l.4-.7a2.26,2.26,0,0,1,.88-1.34c3.38-3.32,6.62-6.77,10.11-10,3.28-2.82,6.18-6,9.26-9,2.34-2.28,4.62-4.62,7-6.92a3.12,3.12,0,0,1,1.76-1.19,36.75,36.75,0,0,0,4.5-4.23c.74-.76,1.23-1,2-.05a37.52,37.52,0,0,0,3.24,3.19c.69.63.73,1.06,0,1.72C646.08,53.83,644.66,55.32,643.21,56.78Z" transform="translate(0 0)" style="fill:#17543a"/><path d="M572.24,115l-7.9,7.64c-4.93-4.69-9.84-9.4-14.8-14.06a3.13,3.13,0,0,1-1.09-2.53V94.9h11.7a3.25,3.25,0,0,1,.45,2.79c-.48,3.27.74,5.64,3.21,7.76,2.66,2.29,5,4.91,7.49,7.44C571.85,113.43,572.8,113.9,572.24,115Z" transform="translate(0 0)" style="fill:#00e696"/><path d="M637.81,51.79l-8.44,8.35c-1,.49-1.5-.27-2-.81-3.2-3.36-6.89-6.2-10-9.64a4.8,4.8,0,0,0-3.88-1.59c-1.67,0-3.41.49-5-.42V37.54H621.1a3,3,0,0,1,2.23,1C628.11,42.93,633,47.38,637.81,51.79Z" transform="translate(0 0)" style="fill:#00e696"/><path d="M597.85,131.83v11.29H587.47a2.58,2.58,0,0,1-2-.56q-8.07-7.74-16.17-15.44c2.39-2.9,5.41-5.14,8.09-7.74,1-.19,1.41.59,2,1.12,3,3,6.09,6,9,9.05a5.58,5.58,0,0,0,4.51,1.84C594.51,131.38,596.25,130.9,597.85,131.83Z" transform="translate(0 0)" style="fill:#00e696"/><path d="M560.16,86h-11.7V74.93a3.13,3.13,0,0,1,1.06-2.55c4.52-4.23,9-8.5,13.47-12.76.44-.42.83-.88,1.25-1.33,2.58,2.4,5.39,4.57,7.66,7.3-.17.84-.85,1.31-1.4,1.86-2.83,2.86-5.66,5.72-8.54,8.52a4,4,0,0,0-1.33,3.24c.07,1.65,0,3.29,0,4.94A2.37,2.37,0,0,1,560.16,86Z" transform="translate(0 0)" style="fill:#00e696"/><path d="M597.83,37.5V47.66c-.77.7-1.73.46-2.61.47-6.15.12-4.16-.75-8.64,3.63-2.58,2.51-5.06,5.08-7.58,7.62-.53.52-1,1.3-1.94,1.11a91.54,91.54,0,0,1-7.34-7.27c4.71-4.5,9.46-9,14.11-13.53a6.35,6.35,0,0,1,5.27-2.21C592,37.67,594.91,37.5,597.83,37.5Z" transform="translate(0 0)" style="fill:#00e696"/><path d="M577,60.46c3.89-3.82,7.8-7.61,11.63-11.48a3.85,3.85,0,0,1,3.18-1.33c2,.1,4,0,6,0V61.92a1.32,1.32,0,0,1-1.15.44c-2.07-.29-3.41.81-4.69,2.22s-2.63,2.7-4,4c-.5.48-1,1.17-1.86.71Z" transform="translate(0 0)" style="fill:#56b583"/><path d="M608.45,47.68c5.4-1,9.44,1,12.91,5.21,1.95,2.39,4.53,4.35,6.76,6.57a1.91,1.91,0,0,0,1.25.68c-3,3.14-6,6.19-9.22,9.1-1.58-.08-2.2-1.58-3.36-2.27A8.48,8.48,0,0,1,615,65.22c-1.53-1.69-3.08-3.3-5.68-2.89a1.11,1.11,0,0,1-.8-.38Q608.46,54.81,608.45,47.68Z" transform="translate(0 0)" style="fill:#56b583"/><path d="M560.16,86c0-2.36.09-4.73,0-7.1a3.81,3.81,0,0,1,1.35-3.17c3.54-3.33,6.76-7,10.41-10.17,2.88,1.92,5,4.68,7.52,7L581,74c.54,1-.31,1.45-.81,2-1.58,1.66-3.2,3.3-4.87,4.88-1.18,1.12-2.19,2.26-2,4.06a1.34,1.34,0,0,1-.43,1.15Z" transform="translate(0 0)" style="fill:#56b583"/><path d="M597.85,131.83c-2.61,0-5.51.61-7.75-.32s-3.82-3.44-5.69-5.27l-7-6.85,8.41-8.06c.72-.18,1.14.32,1.55.74,1.67,1.68,3.44,3.25,5.17,4.85,1.13,1,2.21,1.85,3.83,1.66a1.73,1.73,0,0,1,1.52.45Z" transform="translate(0 0)" style="fill:#56b583"/><path d="M572.24,115c0-.78-.62-1.15-1.08-1.61-3.25-3.27-6.5-6.55-9.8-9.78a3.44,3.44,0,0,1-1.21-2.87c.09-1.94,0-3.88,0-5.83H573c.16.19.37.39.34.63-.31,2.53,1.4,3.94,2.93,5.52s3.63,3,4.77,5.19A116.77,116.77,0,0,1,572.24,115Z" transform="translate(0 0)" style="fill:#56b583"/><path d="M573,86.08c-.43-2.59.61-4.48,2.59-6.11a59.71,59.71,0,0,0,4.53-4.47c.42-.42,1-.78.94-1.48,1,.91,2,1.76,2.9,2.74,2.9,3.19,5.74,6.43,8.31,9.32Z" transform="translate(0 0)" style="fill:#4ea778"/><path d="M597.85,119c-3.74,1-5.68-1.87-8-3.84-1.42-1.21-2.72-2.57-4.08-3.86,2.23-2.16,4.43-4.34,6.68-6.46,1.76-1.67,3.6-3.25,5.4-4.87Z" transform="translate(0 0)" style="fill:#4ea778"/><path d="M581,106.21c-2.5-2.44-5-4.85-7.49-7.34-1.11-1.13-.33-2.67-.55-4h19.43l.21.41C588.44,98.61,585,102.7,581,106.21Z" transform="translate(0 0)" style="fill:#4ea778"/><path d="M586.14,69.29c1.44-.42,2.11-1.76,3.16-2.66a12.21,12.21,0,0,0,1.93-1.94,6.32,6.32,0,0,1,6.61-2.76V80.7A144.82,144.82,0,0,1,586.14,69.29Z" transform="translate(0 0)" style="fill:#4ea778"/><path d="M608.47,62c2.77-.51,4.79.56,6.61,2.67a52.8,52.8,0,0,0,5.07,4.62l-11.3,11c-.61-.53-.37-1.25-.37-1.89C608.46,72.9,608.47,67.38,608.47,62Z" transform="translate(0 0)" style="fill:#4ea778"/><path d="M625.25,74a90.54,90.54,0,0,1,9.18-8.77c1.85,2.19,4.18,3.86,6.21,5.86.34.34.79.57,1.1.93,1.78,2,4.68,3.39,5.36,6s.16,5.32.17,8H634.11a1.08,1.08,0,0,1-.43-1c.3-2.13-.81-3.43-2.37-4.69-1.83-1.46-3.29-3.35-5.17-4.79A1.42,1.42,0,0,1,625.25,74Z" transform="translate(0 0)" style="fill:#56b583"/><path d="M634,115.05l-8.37-8.12c-.19-.89.54-1.28,1-1.8,1.59-1.83,3.61-3.21,5.32-4.92a4.45,4.45,0,0,0,1.66-3.81,1.62,1.62,0,0,1,.45-1.51h13.16a24.55,24.55,0,0,0,0,4.2c.53,3-1.29,4.61-3.24,6.39A125.22,125.22,0,0,0,634,115.05Z" transform="translate(0 0)" style="fill:#56b583"/><path d="M620.55,111.69l8.42,8a96.48,96.48,0,0,0-10.51,9.7c-1.76,1.81-3.53,2.7-6,2.41a33.36,33.36,0,0,0-4,0v-12.8a1.21,1.21,0,0,1,1-.4c2.27.32,3.72-.94,5.12-2.46s3-2.58,4.41-4C619.37,111.7,619.86,111.25,620.55,111.69Z" transform="translate(0 0)" style="fill:#56b583"/><path d="M625.25,74c2.09,2,4,4.32,6.33,6s2.77,3.61,2.53,6.08H612.49C616.65,82,620.8,77.81,625.25,74Z" transform="translate(0 0)" style="fill:#4ea778"/><path d="M634.1,94.89c.84,3.82-1.76,5.84-4.2,7.88a32,32,0,0,0-4.23,4.16L615.33,96.82c-.56-.55-1.15-1.07-1.72-1.6.42-.51,1-.34,1.53-.34C621.46,94.87,627.78,94.89,634.1,94.89Z" transform="translate(0 0)" style="fill:#4ea778"/><path d="M620.55,111.69c-2.19,1.11-3.8,3-5.44,4.67-1.92,2-3.87,3.16-6.65,2.65V102.26c0-.64-.25-1.36.36-1.89l9.69,9.25C619.22,110.29,619.87,111,620.55,111.69Z" transform="translate(0 0)" style="fill:#4ea778"/></svg>