<svg id="Layer_1" data-name="Layer 1" xmlns="http://www.w3.org/2000/svg" viewBox="0 0 676.5 210.28"><path d="M107.63,50" transform="translate(-24 -8.71)" style="fill:#cdd6ed;stroke:#ed1c24;stroke-miterlimit:10"/><text transform="translate(0 94.3)" style="isolation:isolate;font-size:100px;fill:#00e696;font-family:'Varela Round', sans-serif"><tspan style="letter-spacing:0.01220703125em">WORDLE </tspan><tspan x="0" y="100">CLONE</tspan></text><rect x="478.5" y="1" width="31" height="31" style="fill:#ccc;stroke:#ccc;stroke-miterlimit:10;stroke-width:2px"/><rect x="520" y="1" width="31" height="31" style="fill:#c9b458;stroke:#c9b458;stroke-miterlimit:10;stroke-width:2px"/><rect x="561.5" y="1" width="31" height="31" style="fill:#c9b458;stroke:#c9b458;stroke-miterlimit:10;stroke-width:2px"/><rect x="603" y="1" width="31" height="31" style="fill:#00e696;stroke:#00e696;stroke-miterlimit:10;stroke-width:2px"/><rect x="644.5" y="1" width="31" height="31" style="fill:#00e696;stroke:#00e696;stroke-miterlimit:10;stroke-width:2px"/><rect x="478.5" y="45.32" width="31" height="31" style="fill:#00e696;stroke:#00e696;stroke-miterlimit:10;stroke-width:2px"/><rect x="520" y="45.32" width="31" height="31" style="fill:#00e696;stroke:#00e696;stroke-miterlimit:10;stroke-width:2px"/><rect x="561.5" y="45.32" width="31" height="31" style="fill:#00e696;stroke:#00e696;stroke-miterlimit:10;stroke-width:2px"/><rect x="603" y="45.32" width="31" height="31" style="fill:#00e696;stroke:#00e696;stroke-miterlimit:10;stroke-width:2px"/><rect x="644.5" y="45.32" width="31" height="31" style="fill:#00e696;stroke:#00e696;stroke-miterlimit:10;stroke-width:2px"/><rect x="478.5" y="89.64" width="31" height="31" style="fill:none;stroke:#00e696;stroke-miterlimit:10;stroke-width:2px"/><rect x="520" y="89.64" width="31" height="31" style="fill:none;stroke:#00e696;stroke-miterlimit:10;stroke-width:2px"/><rect x="561.5" y="89.64" width="31" height="31" style="fill:none;stroke:#00e696;stroke-miterlimit:10;stroke-width:2px"/><rect x="603" y="89.64" width="31" height="31" style="fill:none;stroke:#00e696;stroke-miterlimit:10;stroke-width:2px"/><rect x="644.5" y="89.64" width="31" height="31" style="fill:none;stroke:#00e696;stroke-miterlimit:10;stroke-width:2px"/><rect x="478.5" y="133.96" width="31" height="31" style="fill:none;stroke:#00e696;stroke-miterlimit:10;stroke-width:2px"/><rect x="520" y="133.96" width="31" height="31" style="fill:none;stroke:#00e696;stroke-miterlimit:10;stroke-width:2px"/><rect x="561.5" y="133.96" width="31" height="31" style="fill:none;stroke:#00e696;stroke-miterlimit:10;stroke-width:2px"/><rect x="603" y="133.96" width="31" height="31" style="fill:none;stroke:#00e696;stroke-miterlimit:10;stroke-width:2px"/><rect x="644.5" y="133.96" width="31" height="31" style="fill:none;stroke:#00e696;stroke-miterlimit:10;stroke-width:2px"/><rect x="478.5" y="178.28" width="31" height="31" style="fill:none;stroke:#00e696;stroke-miterlimit:10;stroke-width:2px"/><rect x="520" y="178.28" width="31" height="31" style="fill:none;stroke:#00e696;stroke-miterlimit:10;stroke-width:2px"/><rect x="561.5" y="178.28" width="31" height="31" style="fill:none;stroke:#00e696;stroke-miterlimit:10;stroke-width:2px"/><rect x="603" y="178.28" width="31" height="31" style="fill:none;stroke:#00e696;stroke-miterlimit:10;stroke-width:2px"/><rect x="644.5" y="178.28" width="31" height="31" style="fill:none;stroke:#00e696;stroke-miterlimit:10;stroke-width:2px"/><text transform="translate(483.66 71.44)" style="font-size:31px;fill:#fff;font-family:MyriadPro-Regular, Myriad Pro">H</text><text transform="translate(532 71.44)" style="font-size:31px;fill:#fff;font-family:MyriadPro-Regular, Myriad Pro">I</text><text transform="translate(568.07 71.44)" style="font-size:31px;fill:#fff;font-family:MyriadPro-Regular, Myriad Pro">R</text><text transform="translate(609.61 71.44)" style="font-size:31px;fill:#fff;font-family:MyriadPro-Regular, Myriad Pro">E</text><text transform="translate(650.14 71.44)" style="font-size:31px;fill:#fff;font-family:MyriadPro-Regular, Myriad Pro">D</text><text transform="translate(650.26 27.74)" style="font-size:31px;fill:#fff;font-family:MyriadPro-Regular, Myriad Pro">D</text><text transform="translate(610.29 27.74)" style="font-size:31px;fill:#fff;font-family:MyriadPro-Regular, Myriad Pro">E</text><text transform="translate(526.71 27.74)" style="font-size:31px;fill:#fff;font-family:MyriadPro-Regular, Myriad Pro">R</text><text transform="translate(573.21 27.74)" style="font-size:31px;fill:#fff;font-family:MyriadPro-Regular, Myriad Pro">I</text><text transform="translate(486.01 27.74)" style="font-size:31px;fill:#fff;font-family:MyriadPro-Regular, Myriad Pro">T</text></svg>