<?xml version="1.0" encoding="UTF-8" standalone="no"?>
<svg
   xmlns:dc="http://purl.org/dc/elements/1.1/"
   xmlns:cc="http://creativecommons.org/ns#"
   xmlns:rdf="http://www.w3.org/1999/02/22-rdf-syntax-ns#"
   xmlns:svg="http://www.w3.org/2000/svg"
   xmlns="http://www.w3.org/2000/svg"
   xmlns:sodipodi="http://sodipodi.sourceforge.net/DTD/sodipodi-0.dtd"
   xmlns:inkscape="http://www.inkscape.org/namespaces/inkscape"
   width="2791.592"
   height="3520.655"
   viewBox="0 0 738.608 931.507"
   version="1.1"
   id="svg32"
   sodipodi:docname="about-me-drawing.svg"
   inkscape:version="1.0.2-2 (e86c870879, 2021-01-15)">
  <metadata
     id="metadata38">
    <rdf:RDF>
      <cc:Work
         rdf:about="">
        <dc:format>image/svg+xml</dc:format>
        <dc:type
           rdf:resource="http://purl.org/dc/dcmitype/StillImage" />
      </cc:Work>
    </rdf:RDF>
  </metadata>
  <defs
     id="defs36">
    <clipPath
       clipPathUnits="userSpaceOnUse"
       id="clipPath934">
      <path
         id="path936"
         style="fill:#ff0000;fill-opacity:1;fill-rule:nonzero;stroke:none;stroke-width:0.264583"
         d="M 304.28904,165.57342 V 776.82675 H 636.2286 V 165.57342 Z m 220.15668,554.09299 c 0.0495,-2e-5 0.0991,0.0488 0.0992,0.14677 0,0.0624 0,0.12478 0.003,0.18708 0,0.0548 -0.007,0.10912 -0.009,0.16381 0,0.0138 0.003,0.0273 0,0.0408 0,0.006 -0.007,0.0101 -0.0114,0.0151 0.0402,0.0613 0.0319,0.0371 0.0475,0.12714 0,0.003 -0.003,0.003 -0.003,0.004 0.003,0.0177 0.003,0.0359 0.004,0.0537 0.004,0.0222 0.043,0.17007 0.046,0.1814 0.022,0.0703 0.0287,0.081 0.0367,0.16536 0.003,0.0328 -0.006,0.0866 0,0.11935 0.007,0.043 0.0437,0.0786 0.0377,0.12558 0,0.0456 0.0243,0.0842 0.0305,0.12972 0.003,0.0159 -0.003,0.0325 0,0.0486 0.0143,0.17113 0.0281,0.22844 0.0584,0.41029 h -0.003 c 0.0322,0.19341 -0.16261,0.2259 -0.19481,0.0325 -0.0301,-0.18044 -0.0461,-0.24818 -0.0605,-0.42116 -0.003,-0.0233 0.003,-0.0469 0,-0.0703 0,0 -0.005,0.004 -0.005,0.003 -0.007,-0.0143 -0.0119,-0.0291 -0.0151,-0.0444 -0.004,-0.0214 -0.006,-0.0435 -0.009,-0.0651 -0.0254,-0.0678 -0.0338,-0.11588 -0.0388,-0.19328 -0.003,-0.0254 0.003,-0.051 0,-0.0765 -0.004,-0.0391 -0.0146,-0.0657 -0.0269,-0.10075 -0.0228,-0.0925 -0.0554,-0.18285 -0.0584,-0.27906 0,-0.0169 0.006,-0.0333 0.005,-0.0501 -0.003,-0.0206 -0.008,0.023 -0.008,0.0233 -0.0493,-0.11213 -0.022,-0.22646 -0.0212,-0.34261 -0.003,-0.0616 -0.003,-0.1233 -0.003,-0.185 -1.1e-4,-0.098 0.0492,-0.14724 0.0987,-0.14729 z m 0.40772,0.85784 c 0.0486,-0.003 0.10036,0.0412 0.10853,0.13747 0.007,0.0865 0.0164,0.17307 0.0228,0.25993 0.0586,0.17515 0.0788,0.2295 0.13179,0.41444 0.007,0.0251 0.0103,0.0506 0.0185,0.0755 0.005,0.004 0.0114,0.009 0.0151,0.0119 0.004,0.003 -0.0111,-1.3e-4 -0.013,-0.004 0,-0.003 -2.2e-4,-0.005 -0.003,-0.008 -0.0227,-0.0185 -0.0538,-0.045 -0.0444,-0.0279 0.0306,0.0557 0.0796,0.0992 0.11938,0.14883 0.0169,0.11673 0.0582,0.22751 0.11007,0.33279 0.0305,0.0478 0.0416,0.10472 0.061,0.15708 0.0101,0.0259 0.0271,0.0487 0.0341,0.0755 0.007,0.0254 0.009,0.0521 0.014,0.078 -0.014,0.0893 -0.0164,0.17812 -0.0124,0.26821 0.003,0.0626 0,0.12541 0,0.18809 0,0.0371 2e-5,0.074 0,0.11112 -0.006,0.0782 -0.0387,0.17325 -0.0491,0.24236 -0.0293,0.19384 -0.20844,0.19579 -0.19844,0 0.004,-0.0835 0.0357,-0.16126 0.0496,-0.24236 v -0.11215 c 2.6e-4,-0.0598 0.003,-0.11952 0,-0.17931 -0.003,-0.0834 -0.0122,-0.17849 0.0135,-0.25839 0.003,-0.003 0.007,-0.006 0.006,-0.009 -0.004,-0.0135 -0.0127,-0.0238 -0.0185,-0.0367 -0.0281,-0.0643 -0.0433,-0.13364 -0.077,-0.19534 -0.0552,-0.11438 -0.10303,-0.23366 -0.12091,-0.36018 0.0233,-0.004 0.0818,0.0101 0.0698,-0.0103 -0.0183,-0.0306 -0.0713,-0.0172 -0.0992,-0.0393 -0.005,-0.003 -0.007,-0.008 -0.01,-0.0119 0,0.12848 0.003,0.25643 0.003,0.38497 -1.1e-4,0.0143 -0.003,0.0294 0,0.0434 0.007,0.0331 0.0214,0.0246 0.0294,0.0553 0.0233,0.0858 0.0214,0.15545 0.0156,0.24236 -0.004,0.0421 -0.005,0.0527 -0.006,0.0806 0.0119,0.0111 0.0241,0.023 0.0362,0.0341 0.005,0.022 0.0101,0.0432 0.0151,0.0651 0.0444,0.19092 -0.2681,-0.18254 -0.19791,0 0.005,0.0114 0.009,0.023 0.0135,0.0346 -0.0719,-0.0541 -0.0683,-0.13742 -0.0569,-0.22841 0.003,-0.0332 0.0151,-0.10414 0.005,-0.14004 -0.0164,-0.0584 -0.0637,-0.11409 -0.0496,-0.18759 0,-0.17717 -0.003,-0.3546 -0.003,-0.53176 0.003,-0.0767 0.0103,-0.1509 0.0124,-0.22736 0.003,-0.0684 -0.003,-0.13687 -0.007,-0.20516 -0.01,-0.034 -0.0106,-0.0624 -0.006,-0.0868 -0.006,-0.0616 -0.0111,-0.12314 -0.0161,-0.18447 -0.008,-0.097 0.037,-0.14986 0.0858,-0.15505 z m 0.0383,1.94976 c 0.0122,0.009 0.022,0.0193 0.0398,0.0265 0.0145,0.006 -0.0265,-0.0164 -0.0398,-0.0243 z"
         sodipodi:nodetypes="ccccccsccccccccsccccccsccccccccccccscccccccsccsccccccscsccccccccccccssccccccccscccccscccscc" />
    </clipPath>
  </defs>
  <sodipodi:namedview
     pagecolor="#ffffff"
     bordercolor="#666666"
     borderopacity="1"
     objecttolerance="10"
     gridtolerance="10"
     guidetolerance="10"
     inkscape:pageopacity="0"
     inkscape:pageshadow="2"
     inkscape:window-width="1278"
     inkscape:window-height="1368"
     id="namedview34"
     showgrid="false"
     inkscape:zoom="0.29524249"
     inkscape:cx="1344.9569"
     inkscape:cy="940.11505"
     inkscape:window-x="-7"
     inkscape:window-y="0"
     inkscape:window-maximized="0"
     inkscape:current-layer="layer2" />
  <g
     inkscape:groupmode="layer"
     id="layer1"
     inkscape:label="Layer 1"
     style="display:inline"
     sodipodi:insensitive="true" />
  <g
     inkscape:groupmode="layer"
     id="layer2"
     inkscape:label="Layer 2"
     style="display:inline">
    <path
       d="m 425.382,186.566 c 2.118,1.77 18.552,-5.887 4.646,-7.041 -1.542,-0.128 -4.783,0.798 -7.26,0.831 M 181.175,551.004 c 0,0 -31.943,28.616 -29.947,42.503 1.996,13.887 18.61,51.167 63.01,25.162 m 426.698,160.214 c 0,0 13.793,-5.688 17.387,-15.788 m 47.028,-4.55 c 0,0 -5.902,23.487 -21.075,27.274 -15.172,3.787 -29.612,13.005 -48.945,9.028 M 231.086,561.104 c 0,0 -7.587,16.412 -7.587,22.303 0,5.892 0.4,26.932 0.4,26.932 0,0 -2.952,11.19 -9.662,8.33 m -21.483,-81.551 c 0,0 -3.594,3.366 -11.58,13.886 m 446.995,200.02 c 0,0 11.232,-3.6 8.433,-8.697 m -186.707,-623.5 c -0.4,2.105 -0.4,20.62 -0.4,20.62 0,0 -25.554,-0.42 -27.55,2.105 V 120.09 c 0,0 25.554,-3.787 27.95,-1.262 z m 31.307,-8.033 c 0,0 -27.003,-24.934 -64.691,-1.507 m 95.537,44.069 c -12.913,-7.974 -34.203,2.503 -34.203,2.503 0,0 -6.956,-48.804 14.9,-58.346 7.774,-3.394 23.38,-16.89 38.412,-0.466 m -117.18,61.02 c 0,0 51.428,-5.73 63.868,-2.208 m -26.317,55.024 c 0,0 7.2,-8.034 10.73,0.298 3.529,8.332 -2.683,5.951 -2.683,5.951 0,0 -6.493,-1.934 -9.034,0.298 -2.542,2.231 -11.718,6.695 -13.13,0.148 -1.41,-6.546 -0.564,-29.458 0.707,-34.814 1.27,-5.356 -0.141,-5.803 -0.141,-5.803 m -18.917,-7.885 -0.726,-2.054 m 12.994,8.195 1.143,-2.57 c 0,0 -4.482,-5.022 -13.411,-3.571 m 1.713,5.646 c 0,0 2.769,-3.713 10.555,0.495 m 222.289,247.246 c 0,0 0.713,-63.771 -24.442,-91.966 -25.155,-28.194 -8.385,-31.981 -37.533,-45.448 0,0 -5.99,-16.411 -18.767,-21.04 0,0 -20.25,-22.069 -35.194,-30.924 m 167.106,505.82 c 0,0 2.648,-46.928 -1.345,-43.14 M 677.09,507.24 c 0,0 13.177,15.149 9.583,34.927 -0.798,2.104 11.58,6.733 14.774,56.81 3.194,50.077 -3.27,53.923 1.996,96.788 M 657.126,425.602 c 0,0 9.583,3.787 19.964,81.638 m -41.526,38.715 c 0,0 3.993,1.683 3.993,7.574 0,5.892 4.392,38.294 11.58,62.28 7.187,23.987 19.565,52.603 19.165,71.96 -0.399,19.358 -2.219,25.546 -2.219,25.546 M 604.693,460.13 c 0,0 13.303,37.43 30.871,85.825 M 605.633,419.254 c 0,0 35.521,-10.906 51.493,6.348 m -370.88,-94.24 c 0,0 -30.404,38.271 -41.584,52.579 -11.18,14.308 -16.77,19.357 -16.77,19.357 0,0 -7.586,11.362 -12.378,28.195 -4.791,16.833 -13.176,53.443 -22.76,105.625 M 336.299,386.466 c 0,0 -41.726,34.507 -50.11,39.556 -8.386,5.05 -9.584,14.308 -9.584,14.308 0,0 -15.971,42.923 -23.158,53.864 -7.188,10.942 -19.965,57.231 -22.36,66.91 m 134.36,196.626 c 0,0 -9.783,-17.78 -25.355,-12.73 -15.572,5.05 -33.928,19.699 -35.137,26.09 l -1.59,6.4 m 309.239,-48.256 c 0,0 16.88,-4.014 23.999,13.093 M 524.1,719.826 c 0,0 -5.063,46.727 -2.678,48.228 m 84.316,-35.515 c 0,0 -4.076,10.793 -0.447,16.421 m 37.945,-8.27 -6.635,1.637 M 564.29,714.912 c 0,0 31.654,-10.226 48.312,14.322 0,0 -7.623,4.761 -13.835,4.761 -6.211,0 -15.105,-4.314 -16.516,-1.19 -1.412,3.125 -5.93,5.951 -6.494,10.564 -0.565,4.612 -0.141,13.39 -0.141,13.39 0,0 24.822,-10.512 33.457,-7.142 8.634,3.371 19.095,1.408 19.095,1.408 m -85.483,14.207 1.4,-35.01 m -169.462,45.96 c 0,0 -5.186,-14.034 -9.178,-18.452 m 46.504,17.668 -1.086,-8.095 c 0,0 -22.66,-0.42 -25.654,0.737 0,0 -0.898,-7.154 -10.68,-16.097 -9.783,-8.942 -16.87,-19.988 -29.448,-19.988 m 0,0 c -35.038,2.104 -41.127,23.986 -41.127,23.986 l -5.49,10.205 c 0,0 -14.652,-2.912 -12.467,11.642 m 75.255,-383.748 -0.203,5.684 m 126.178,92.366 c 0,0 34.854,34.595 36.961,14.038 m -36.96,-14.038 c 0,0 1.796,-21.04 27.95,-69.224 m 0,0 17.169,-28.826 c 0,0 8.784,-14.938 25.354,-14.307 16.57,0.631 34.738,9.679 34.738,9.679 0,0 13.776,17.463 13.177,31.14 -0.6,13.676 -1.398,68.803 -1.398,68.803 0,0 -3.793,38.925 -6.987,57.02 -3.194,18.095 1.198,24.828 -5.79,45.659 -6.987,20.83 -13.975,56.6 -13.975,56.6 0,0 -10.98,35.348 -11.979,45.027 -0.998,9.678 -1.197,21.25 -1.197,21.25 0,0 -15.772,8.838 -19.565,14.519 -3.794,5.68 -14.175,0 -14.175,0 0,0 -6.788,-7.364 -6.588,-10.73 0.2,-3.367 1.597,-63.334 1.597,-63.334 m 0,0 c 0.998,-5.68 0.798,-43.764 0.798,-43.764 0,0 -5.59,-59.756 -4.192,-77.851 1.397,-18.095 3.593,-63.964 10.58,-74.905 m -178.149,185.128 24.626,18.125 c 0,0 21.362,12.625 50.51,7.365 0,0 13.775,-7.575 24.356,0.42 10.581,7.996 52.107,9.68 71.473,-14.518 M 469.285,527.028 c 0,0 -24.001,-14.023 -37.567,-4.597 m 55.511,-30.34 c 0,0 -23.158,33.665 -25.954,67.75 M 413.46,490.775 c 0,0 10.083,5.944 33.84,70.54 m -37.207,-71.53 c 0,0 7.061,-3.165 0.772,8.092 M 535.948,206.27 v -7.736 c 0,0 12.423,-13.688 6.776,-36.303 -5.647,-22.615 -14.117,2.976 -14.117,2.976 m 13.552,-18.45 c 0,0 5.083,13.689 4.518,17.26 -0.288,1.821 0.182,13.157 -0.91,20.366 -1.048,6.92 -1.798,13.142 -9.819,21.887 m -7.34,-41.063 c 0,0 -9.036,5.95 -12.988,18.448 m -60.139,83.615 c 0,0 0.283,18.151 17.505,16.366 17.223,-1.785 47.151,-41.361 47.151,-41.361 0,0 3.388,-14.58 3.388,-35.707 M 419.06,169.076 c 0,0 2.54,9.522 6.494,17.854 3.952,8.331 1.976,23.507 9.317,33.922 7.34,10.414 11.858,33.326 20.61,46.419 m 12.988,26.185 c -5.364,-4.76 -3.106,-9.522 -3.106,-9.522 m 51.104,32.137 c 0,0 -18.635,10.712 -47.998,-22.615 m 72.843,-34.22 c 0,0 -13.552,19.938 -24.845,56.835 m 19.481,-109.8 c 0,0 0.847,30.351 5.364,52.966 m -25.692,-75.58 c 0,0 -8.47,-13.688 -10.165,-29.757 l -19.763,7.142 c 0,0 -6.776,3.57 -22.587,4.166 -15.811,0.595 -53.362,0 -81.032,7.736 -4.818,1.348 -4.57,-0.793 -1.268,-2.7 3.372,-1.948 9.88,-3.689 12.717,-4.946 10.333,-4.58 20.456,-7.232 20.456,-7.232 0,0 -3.953,-23.21 3.388,-52.37 7.34,-29.161 49.776,-38.99 49.776,-38.99 0,0 34.925,-6.835 54.689,15.78 19.764,22.614 20.328,64.273 20.328,64.273 0,0 -10.164,5.356 -36.704,7.141 m 138.911,593.932 c 1.694,-7.141 -1.13,-7.141 -1.13,-7.141 0,0 9.036,-23.21 24.846,-27.376 m -23.716,41.658 v -7.141 c 0,0 -117.453,24.4 -201.025,26.78 -83.572,2.381 -306.62,5.357 -311.137,5.952 -4.518,0.595 -58.862,-6.789 -44.677,29.932 m 547.804,-15.65 c 0,0 -166.015,41.66 -370.428,52.371 C 60.49,857.93 77.995,794.251 99.453,792.467 c 21.457,-1.786 364.216,7.14 544.913,-37.494 0,0 -0.565,6.547 -2.823,12.498 -2.26,5.951 -9.035,4.761 -7.906,7.737 1.13,2.975 1.694,3.57 6.212,3.57 4.517,0 1.694,4.166 -8.47,3.571 -10.165,-0.595 -5.083,10.117 -1.13,10.117 3.953,0 5.082,2.38 5.082,2.38 z m 70.585,-48.204 -1.13,-7.737 8.47,-0.595 c 0,0 3.953,-2.38 12.424,4.761 m -19.764,3.57 19.764,-3.57 -20.329,15.473 z M 334.64,401.472 c 4.85,-1.223 21.322,-5.221 32.701,0.355 11.38,5.575 27.152,8.416 34.838,43.028 7.686,34.612 8.684,53.023 8.684,53.023 0,0 -24.588,31.224 -37.299,28.236 m -72.477,235.158 3.666,-63.613 c 0,0 -4.592,-61.018 -7.986,-77.85 -3.394,-16.833 -6.737,-32.956 -6.455,-54.083 0.283,-21.127 12.988,-87.483 16.658,-99.386 3.67,-11.902 5.647,-53.263 27.67,-64.868 m 49.571,54.219 c 0,0 4.991,42.081 -3.793,55.547 -8.784,13.466 -12.777,35.77 -11.58,52.392 1.198,16.622 -5.39,48.183 -6.987,53.864 -1.597,5.681 -7.986,22.935 -9.583,42.502 -1.597,19.568 -8.385,29.457 -7.187,71.96 m -8.784,-345.49 c 4.591,-2.734 15.173,-16.621 19.764,-13.044 4.592,3.577 5.59,7.574 5.191,20.62 m -39.53,-97.63 c 0,0 -36.878,32.615 -35.536,35.56 1.667,3.654 37.284,19.577 50.11,54.495 m 97.81,-166.767 -66.066,32 c 0,0 -16.171,1.79 -46.317,44.712"
       fill="none"
       stroke="#00e696"
       stroke-width="0.753"
       opacity="0.629"
       id="path2"
       sodipodi:nodetypes="csccscccccccsccccccccccccccccsccccccccccccccccccccccccccsccccsccccccccscccccccccsccccccccccccsccccccccccccccccccccccccccscccsccccccsccccccccccccccccccccsccccccccscccccccccccccccccccccccccccccccccscccccccssscccccccccccscccccccccscsscccccccccc" />
    <path
       d="m 552.91494,721.71418 c 4.91558,-3.64281 5.63555,-3.94925 8.11844,-4.85877 1.27212,-0.466 2.79383,-1.33575 3.21705,-3.30115 0.74852,-3.47607 0.40169,-10.07648 0.40169,-13.56344 0,-6.052 3.70713,-20.63383 7.28013,-33.56983 3.573,-12.936 7.94505,-28.14687 9.37405,-34.69387 1.429,-6.546 4.4219,-21.23104 7.4049,-32.36004 1.38662,-5.17288 4.4573,-11.35299 5.80478,-20.14395 1.11513,-7.27505 0.71357,-15.46099 1.60899,-24.50656 0.91314,-9.22443 2.74152,-18.67918 3.6308,-28.95253 1.23133,-14.22485 3.79947,-28.615 4.44451,-43.07578 0.43924,-9.84697 0.23176,-20.89725 0.56493,-29.81941 l 0.20179,-36.05785 -2.22527,-9.70543 c -3.30078,-6.65297 -5.97365,-13.1562 -10.2022,-17.12665 -3.00953,-2.82584 -7.16636,-3.76067 -11.27646,-5.29827 -8.13068,-3.04042 -18.94597,-5.19421 -26.86982,-4.63773 -5.5709,0.39123 -8.89118,2.66028 -12.40056,4.57287 -10.619,5.788 -40.84963,60.37476 -50.18163,90.38676 -3.78,12.153 -6.80657,16.32409 -0.38768,20.19913 3.52199,4.10114 11.57178,10.69822 18.32648,14.29814 4.87333,2.59725 9.03455,3.10269 10.51482,2.50421 0.81538,-0.32995 2.46632,-0.8882 3.25715,-3.49373 1.04031,-3.42753 1.17082,-9.5878 1.7219,-15.35483 1.85313,-19.39299 5.07437,-34.52705 7.77237,-34.52705 0.43301,0 -0.70957,1.40162 -0.92105,2.70917 -0.16394,1.0137 -1.0448,2.28047 -1.53986,3.91932 -0.44876,1.48561 -0.49577,3.30521 -0.97818,4.99461 -3.19974,11.20381 -4.48508,31.03485 -5.87472,52.1338 -0.47707,7.2435 -0.98328,12.43036 -0.81953,18.69789 0.35162,13.45765 0.52165,26.9555 1.48709,40.20989 1.854,25.449 2.39338,54.54337 1.29942,87.58437 -1.05503,31.8653 -2.25931,45.03761 -1.18524,50.74492 0.40414,2.14745 2.25996,4.25956 3.15477,5.69898 3.25302,5.23239 9.48158,11.19549 14.49573,6.70625 1.88939,-1.69161 4.41463,-5.59594 10.78041,-10.31344 z m 119.8512,67.72305 c 19.35,-6.504 23.37327,-10.81643 29.51727,-23.50843 4.296,-8.875 3.60884,-33.83179 2.12784,-68.31179 -0.875,-20.373 -2.10904,-39.64771 -2.46904,-65.83371 -0.667,-48.64 -5.31221,-70.2713 -12.69621,-82.1473 -1.812,-2.915 -3.296,-8.878 -3.296,-13.249 0,-4.371 -2.417,-13.247 -5.372,-19.723 -2.954,-6.476 -5.74568,-24.57399 -8.46168,-40.28399 -2.10382,-12.1657 -5.3172,-25.79332 -7.42099,-33.86865 -3.21513,-12.34117 -7.33278,-16.63294 -11.99627,-20.99782 -5.45205,-5.10295 -24.27597,-6.64081 -37.28897,-4.06781 l -9.77709,1.80827 -0.0812,21.90203 c -0.0226,6.0945 -1.09987,13.81583 -0.53866,18.39777 1.2022,9.81522 5.70184,16.48082 14.49569,41.08235 7.554,21.131 14.11282,41.35309 15.87582,44.25309 1.32019,2.17038 3.40402,5.43393 4.50994,7.65566 0.37178,0.74689 0.0973,1.25328 0.0973,1.95422 0,10.856 7.80069,52.39974 15.35369,75.40074 12.003,36.551 15.89216,53.13914 14.11816,70.59514 -1.01,9.939 -2.53,13.83579 -4.464,13.83579 -1.613,0 -6.97298,4.85898 -12.04798,10.93498 -8.5,10.179 -8.21783,11.78294 -8.21783,24.33794 0,10.181 -5.7768,17.56541 -9.2748,22.25241 -7.101,9.514 5.21388,10.87647 15.34088,0.81047 5.144,-5.113 8.04702,-10.06759 7.60302,-7.63859 -1.032,5.647 -21.67241,17.88871 -28.06041,17.88871 -7.194,0 -6.4429,7.06549 0.8831,10.00049 8.842,3.543 23.35245,2.63303 41.54045,-3.47997 z M 207.45892,622.25731 c 6.033,-2.324 12.30908,-4.36876 13.40108,-6.18576 3.19176,1.71549 4.21571,-9.54267 2.02,-21.61455 0.028,-11.982 4.01531,-16.38313 13.08512,-53.57488 6.808,-21.49 15.52011,-43.35996 18.53911,-48.87496 3.019,-5.514 10.23,-21.66296 16.025,-36.15896 l 10.08893,-24.78773 20.04207,-15.8392 c 10.777,-8.095 25.71547,-20.87854 29.91047,-24.57554 6.995,-6.163 4.70153,-6.75093 2.06653,-12.03793 -5.964,-11.97 -17.15207,-24.75211 -31.11607,-35.25411 L 286.246,331.362 l -8.97447,10.99804 c -3.423,4.317 -17.40596,21.68592 -31.34596,39.14392 -29.155,36.51 -28.95877,35.92941 -43.13877,104.33441 -4.477,21.6 -7.5268,45.21963 -8.1458,48.10863 -0.62,2.888 -12.88555,14.76196 -23.42455,26.65996 -10.54,11.898 -19.16288,25.12712 -19.98488,28.57712 -1.985,8.336 8.73031,27.87431 17.85631,33.73931 8.584,5.517 23.70704,4.98392 38.37104,-0.66608 z M 309.592,744.458 c 4.044,-4.709 23.19013,-10.55592 33.08913,-12.78592 5.62,-1.266 0.9181,-2.16796 2.3171,-18.39696 1.978,-22.928 10.27604,-75.36712 13.09104,-83.16112 5.197,-14.39 9.62108,-37.69377 11.24108,-65.55877 1.504,-25.878 2.20992,-32.42807 8.40192,-47.26607 6.301,-15.103 9.61443,-17.28657 9.84943,-38.00357 0.245,-21.615 -3.6097,-25.85559 -1.7127,-14.86459 2.701,15.65 -2.47551,39.90635 -7.91451,51.14135 -2.398,4.954 -4.36,10.29512 -4.36,11.04812 0,3.03 19.06845,-8.09659 29.18245,-18.41259 12.567,-12.818 8.71229,-15.79927 2.07729,-50.11427 -4.79,-24.768 -11.75831,-38.79408 -18.95531,-45.46808 -8.795,-8.157 -22.78392,-13.51792 -34.25992,-13.51792 -25.78617,-0.51809 -35.52109,11.33894 -45.22027,69.86035 -12.7478,76.91562 -20.78939,96.92363 -13.99839,130.94563 5.983,29.974 12.51639,95.23657 10.97939,123.55557 -0.787,14.48 -2.26824,35.28756 -1.64924,35.28756 0.618,0 5.74851,-11.85172 7.84251,-14.28772 z M 518.86971,307.90871 c 8.2399,-27.99189 13.64674,-33.73739 17.81474,-41.18039 7.44493,-6.1281 4.56723,-10.16873 1.39749,-28.9971 -3.292,-27.668 -3.58368,-35.71377 0.78932,-44.52977 7.15642,-5.83101 5.31262,-26.54435 2.41135,-35.1253 -2.28914,-6.77052 -5.00612,-5.27183 -8.75471,0.21707 -1.789,2.618 -7.96313,12.50843 -10.43113,15.78143 -4.47003,6.94522 -2.57264,3.99536 -4.08635,6.11783 -3.1,4.55 -2.6579,4.76026 -7.0799,-5.47574 -2.545,-5.892 -4.65,-12.74542 -4.677,-15.03642 -0.06,-5.054 -0.92978,-5.67368 -13.04978,-0.93768 -5.436,2.124 -21.21774,6.33736 -35.65274,7.81336 l -26.245,2.685 2.08,5.894 c 1.712,4.852 2.473,5.273 4.306,2.38 1.505,-2.375 0.69006,2.97484 -0.20094,15.84684 -1.07935,15.59196 -0.96218,24.1211 2.45543,26.9135 2.02557,1.65503 6.79409,-0.96299 11.79551,-3.90034 4.2801,-0.50166 8.37512,0.69868 10.05445,0.0363 2.38445,-0.94047 1.18647,-3.86563 -0.18867,-5.51774 -1.753,-2.97 -4.9083,-4.07894 -8.3213,-1.10894 -3.431,2.987 -2.83548,4.23436 -1.85748,1.11436 1.487,-4.745 7.74978,-4.04242 10.17878,-0.005 3.445,5.73 3.10822,7.14742 -2.55178,7.14742 -4.375,0 -14.113,3.175 -18.841,6.143 -1.062,0.666 11.281,32.656 14.597,37.83 1.655,2.583 3.009,6.434 3.009,8.558 0,5.158 7.164,11.742 12.778,11.742 10.37,0 43.132,-29.97 48.24,-44.128 1.224,-3.395 2.226,-11.994 2.226,-19.11 0,-7.674 0.992,-12.938 2.438,-12.938 1.03299,0 -0.24516,3.50909 -0.43819,7.89877 -0.40866,9.29364 -1.47015,24.1894 -4.19033,29.71397 -3.05,6.197 -22.23,26.09516 -33.51,35.00516 -3.584,2.83 -8.95374,4.82916 -12.51274,4.82916 -3.56,0 -6.99696,-0.36944 -7.89677,0.33539 -5.28646,4.14089 18.26201,25.26064 27.20925,29.37333 10.362,5.648 21.94278,9.30982 24.30278,2.77682 z m -69.98655,-69.23265 c -1.84,-1.23 1.65381,0.0971 11.73381,-0.88986 17.377,-1.702 20.49622,-2.70246 11.71022,1.00154 -6.77,2.854 -19.49003,2.53132 -23.44403,-0.11168 z M 459.482,180.91 c -0.742,-0.782 -0.803,-2.925 -0.135,-4.76 1.925,-5.286 23.32,-3.907 23.32,1.503 0,3.542 -20.219,6.383 -23.185,3.257 z"
       fill="#ccd6f6"
       stroke="#00e696"
       stroke-width="0.753"
       opacity="0.629"
       id="path4"
       sodipodi:nodetypes="sssssccsssscccscscccscssssscsscsscssccsccsccssccssccsscsscscscsccccccccccccsccccccccccscccccccssccscscsccssccscccccccccccscsccccsccsscsssccssccsscsscsscs"
       style="stroke:none" />
    <path
       d="m 472.747,283.18 c 5.778,-0.686 12.744,-4.95 22.244,-13.611 5.653,-5.154 15.394,-15.82 22.152,-24.253 2.94,-3.67 2.644,-2.936 3.623,-8.953 1.167,-7.169 1.852,-14.347 2.19,-22.934 0.11,-2.777 0.198,-5.523 0.197,-6.102 v -1.052 l -0.39,0.64 c -0.97,1.597 -1.356,4.57 -1.594,12.3 -0.337,10.93 -1.255,17.186 -3.081,20.997 -3.773,7.872 -14.858,20.3 -27.271,30.574 -6.77,5.604 -12.72,9.431 -17.024,10.95 -1.642,0.58 -2.018,0.638 -3.634,0.555 -3.114,-0.16 -6.16,-1.773 -8.989,-4.76 -2.3,-2.427 -3.178,-4.262 -3.509,-7.328 -0.279,-2.587 -1.384,-5.574 -3.122,-8.436 -3.184,-5.244 -14.431,-34.257 -14.431,-37.227 0,-0.389 0.296,-0.637 1.547,-1.298 5.04,-2.664 12.286,-4.928 16.72,-5.225 l 2.196,-0.146 -1.497,-0.393 c -1.969,-0.517 -5.86,-0.724 -6.889,-0.367 -0.42,0.147 -1.415,0.732 -2.212,1.302 -2.926,2.092 -7.057,3.374 -9.403,2.917 -3.596,-0.7 -4.253,-3.204 -4.255,-16.212 0,-9.609 0.53,-18.088 1.41,-22.514 0.41,-2.053 0.555,-4.382 0.301,-4.814 -0.092,-0.158 -0.439,0.102 -0.988,0.74 -0.722,0.842 -0.922,0.964 -1.372,0.845 -0.67,-0.177 -1.313,-1.3 -2.272,-3.967 l -0.735,-2.046 -0.445,1.012 c -0.244,0.557 -0.587,1.07 -0.76,1.14 -0.173,0.07 -0.885,-0.145 -1.582,-0.478 -2.719,-1.299 -5.804,-1.657 -7.458,-0.865 -0.453,0.217 -0.881,0.492 -0.951,0.611 -0.176,0.3 1.474,4.89 1.806,5.024 0.148,0.06 1.635,-0.101 3.304,-0.357 2.665,-0.409 3.251,-0.436 4.799,-0.227 2.08,0.281 3.822,0.917 4.242,1.55 0.166,0.25 0.301,0.78 0.301,1.181 0,0.594 -0.175,0.907 -0.948,1.691 -1.507,1.53 -5.265,3.28 -7.587,3.534 -0.576,0.063 -1.048,0.16 -1.048,0.217 0,0.057 0.22,0.748 0.49,1.536 0.645,1.883 1.366,5.614 2.112,10.927 0.825,5.877 1.453,9.093 2.385,12.203 1.019,3.402 1.967,5.433 4.074,8.726 2.864,4.478 5.055,9.395 8.908,19.995 3.79,10.427 5.256,14.118 7.401,18.645 1.273,2.686 3.303,6.421 3.875,7.13 0.14,0.174 0.315,0.884 0.389,1.578 0.249,2.345 0.936,4.828 1.95,7.049 0.881,1.926 1.23,2.439 2.731,4.007 1.919,2.005 3.368,2.884 5.845,3.545 1.802,0.481 4.398,0.666 6.258,0.445 z M 432.026,171.512 c 0,-0.07 -0.177,-0.602 -0.387,-1.18 -0.336,-0.924 -0.363,-1.061 -0.22,-1.123 0.09,-0.039 6.07,-0.669 13.289,-1.4 12.414,-1.256 20.29,-2.107 20.513,-2.216 0.055,-0.027 -0.619,-0.027 -1.497,0.008 -1.579,0.052 -5.896,0.158 -15.123,0.368 -9.975,0.228 -18.7,0.605 -25.654,1.109 l -3.11,0.222 -0.965,0.067 0.212,0.62 0.212,0.62 0.852,-0.083 c 1.385,-0.134 3.747,-0.075 4.945,0.124 2.168,0.36 4.367,1.231 6.086,2.412 0.469,0.322 0.85,0.527 0.847,0.456 z m 198.511,577.642 c 1.756,-0.85 3.849,-2.323 4.65,-3.272 1.339,-1.588 1.357,-1.925 0.228,-4.226 -4.981,-10.152 -16.243,-14.719 -25.288,-10.254 -3.24,1.6 -4.09,2.488 -4.741,4.96 -0.929,3.524 -1.034,9.349 -0.192,10.66 0.972,1.514 10.933,3.716 16.722,3.696 3.541,-0.013 6.536,-0.555 8.62,-1.564 z m -284.558,26.878 c 14.348,-0.257 26.356,-0.75 26.684,-1.097 0.948,-1 -5.665,-14.016 -10.013,-19.71 -5.303,-6.944 -12.42,-10.862 -18.381,-10.118 -8.339,1.04 -23.19,9.408 -32.059,18.06 -4.858,4.741 -6.447,7.178 -7.395,11.346 l -0.526,2.314 7.8,-0.164 c 4.292,-0.09 19.542,-0.375 33.89,-0.631 z m 239.438,-23.643 c 3.733,-1.316 9.345,-2.838 12.47,-3.382 l 5.68,-0.99 -0.356,-3.48 c -0.196,-1.913 -0.008,-5.075 0.417,-7.027 l 0.773,-3.547 -3.357,0.485 c -1.886,0.272 -6.082,-0.11 -9.577,-0.871 -3.421,-0.746 -6.485,-1.356 -6.809,-1.356 -0.323,0 -2.143,1.943 -4.043,4.318 -2.608,3.26 -3.622,5.375 -4.135,8.627 -0.79,5 -0.2,9.815 1.187,9.697 0.53,-0.045 4.017,-1.159 7.75,-2.474 z m -53.64998,13.88907 c 5.349,-0.694 10.27807,-1.22796 10.47607,-1.45896 0.197,-0.231 0.50598,-8.36014 0.82298,-17.10514 L 544.085,730.222 c -6.84254,7.90713 -19.83288,-8.48198 -19.70619,-9.90204 -0.692,2.216 -3.62993,37.83991 -3.37993,41.89191 l 0.42312,5.84213 z"
       fill="#ccd6f6"
       stroke="#00e696"
       stroke-width="0.753"
       opacity="0.629"
       id="path6"
       sodipodi:nodetypes="ccccccccccccscccscccscccccccccccssscccccscsscccccccccccccscscccccccccccccsccscccccccccccccccccccccccsscsccccccccc"
       style="stroke:none"
       clip-path="url(#clipPath934)" />
    <path
       d="m 255.207,846.945 c 106.124,-4.73 237.223,-21.905 346.574,-45.403 23.643,-5.081 30.73,-6.737 31.27,-7.306 0.195,-0.205 -0.87,-0.616 -2.368,-0.912 -3.245,-0.642 -5.143,-2.64 -5.8,-6.104 -0.723,-3.806 0.961,-5.01 7.787,-5.569 7.774,-0.636 10.364,-1.723 5.479,-2.299 -2.9,-0.342 -3.797,-0.87 -4.792,-2.822 -1.132,-2.223 -1.112,-2.473 0.27,-3.367 5.536,-3.576 6.549,-4.639 7.757,-8.14 0.715,-2.071 1.506,-4.91 1.758,-6.31 l 0.459,-2.544 -20.507,4.323 c -60.173,12.687 -137.659,21.485 -236.123,26.809 -65.306,3.53 -110.086,4.67 -203.237,5.174 -50.472,0.273 -83.268,0.768 -85.543,1.292 -2.401,0.553 -4.546,1.786 -6.14,3.528 -6.591,7.202 -5.25,15.69 3.853,24.371 14.023,13.374 46.098,22.126 91.593,24.992 12.26,0.773 52.95,0.945 67.71,0.287 z"
       fill="#ccd6f6"
       stroke="#00e696"
       stroke-width="0.753"
       opacity="0.629"
       id="path8" />
    <path
       d="m 255.207,846.945 c 106.124,-4.73 237.223,-21.905 346.574,-45.403 23.643,-5.081 30.73,-6.737 31.27,-7.306 0.195,-0.205 -0.87,-0.616 -2.368,-0.912 -3.245,-0.642 -5.143,-2.64 -5.8,-6.104 -0.723,-3.806 0.961,-5.01 7.787,-5.569 7.774,-0.636 10.364,-1.723 5.479,-2.299 -2.9,-0.342 -3.797,-0.87 -4.792,-2.822 -1.132,-2.223 -1.112,-2.473 0.27,-3.367 5.536,-3.576 6.549,-4.639 7.757,-8.14 0.715,-2.071 1.506,-4.91 1.758,-6.31 l 0.459,-2.544 -20.507,4.323 c -60.173,12.687 -137.659,21.485 -236.123,26.809 -65.306,3.53 -110.086,4.67 -203.237,5.174 -50.472,0.273 -83.268,0.768 -85.543,1.292 -2.401,0.553 -4.546,1.786 -6.14,3.528 -6.591,7.202 -5.25,15.69 3.853,24.371 14.023,13.374 46.098,22.126 91.593,24.992 12.26,0.773 52.95,0.945 67.71,0.287 z"
       fill="#ccd6f6"
       stroke="#00e696"
       stroke-width="0.753"
       opacity="0.629"
       id="path10" />
    <path
       d="m 86.963,802.316 c 0.18,-2.339 4.379,-7.449 7.649,-9.31 2.254,-1.284 10.19,-1.462 88.324,-1.987 94.216,-0.633 139.841,-1.768 199.244,-4.96 111.234,-5.976 190.57,-15.482 258.339,-30.956 2.41,-0.55 2.83,-1.012 3.045,-3.344 0.138,-1.488 0.008,-2.705 -0.296,-2.705 -0.3,0 -9.577,1.685 -20.614,3.745 -60.163,11.23 -112.66,18.402 -157.023,21.452 -20.592,1.416 -135.213,3.798 -285.89,5.941 -34.478,0.49 -66.002,1.261 -70.053,1.712 -11.956,1.333 -20.146,5.56 -22.531,11.629 -0.52,1.323 -0.81,4.26 -0.642,6.526 0.167,2.267 0.369,3.282 0.448,2.257 z M 713.838,751 c 4.032,-3.08 7.19,-5.748 7.018,-5.93 -0.173,-0.182 -2.597,0.08 -5.388,0.583 -8.996,1.62 -8.459,1.267 -9.073,5.975 -0.307,2.347 -0.407,4.425 -0.223,4.619 0.184,0.193 3.633,-2.168 7.666,-5.247 z m 1.946,-6.826 c 3.844,-0.731 6.988,-1.594 6.988,-1.916 0,-0.323 -1.222,-1.199 -2.716,-1.946 -2.836,-1.418 -7.282,-1.733 -11.601,-0.823 -2.272,0.479 -2.513,0.81 -2.296,3.15 0.294,3.175 0.681,3.237 9.625,1.535 z"
       fill="#ccd6f6"
       stroke="#00e696"
       stroke-width="0.753"
       opacity="0.629"
       id="path12" />
    <path
       d="m 426.24,139.584 c 0.189,-0.2 5.28,-0.459 11.312,-0.577 l 10.97,-0.214 v -6.038 c 0,-3.322 0.236,-7.858 0.525,-10.08 l 0.526,-4.041 -10.309,0.547 c -5.669,0.301 -11.655,0.79 -13.302,1.088 l -2.995,0.54 v 9.57 c 0,8.717 0.13,9.568 1.464,9.568 0.805,0 1.619,-0.163 1.808,-0.363 z"
       fill="#ccd6f6"
       stroke="#00e696"
       stroke-width="0.753"
       opacity="0.629"
       id="path18" />
    <path
       d="m 486.054,152.099 c 7.383,-2.403 19.028,-2.77 23.815,-0.752 2.782,1.173 3.899,1.173 11.396,0 4.571,-0.716 10.917,-2.114 14.101,-3.106 l 5.79,-1.804 -0.008,-3.454 c -0.013,-8.93 -3.835,-27.89 -7.739,-38.382 -3.484,-9.364 -9.776,-14.408 -18.07,-14.487 -5.303,-0.05 -8.466,1.015 -18.15,6.112 -13.24,6.968 -17.08,13.541 -19.154,32.782 -0.998,9.254 -0.28,25.306 1.124,25.145 0.496,-0.056 3.598,-0.98 6.892,-2.052 z"
       fill="#00e696"
       stroke="#00e696"
       stroke-width="0.753"
       opacity="0.629"
       id="path20" />
    <path
       d="m 482.017,107.238 c 1.764,-4.49 7.323,-9.134 16.384,-13.688 7.63,-3.835 9.533,-4.447 14.842,-4.771 4.99,-0.305 6.782,-0.05 9.916,1.412 2.104,0.98 3.982,1.783 4.173,1.783 0.924,0 -5.414,-8.234 -8.997,-11.69 -8.99,-8.671 -19.845,-12.658 -36.278,-13.324 -12.017,-0.487 -15.372,0.125 -27.932,5.097 -15.478,6.127 -28.83,17.105 -33.525,27.563 -1.333,2.97 -2.423,5.857 -2.424,6.416 0,0.643 1.981,0.08 5.39,-1.534 18.545,-8.776 40.727,-7.351 55.409,3.56 l 2.104,1.563 z"
       fill="#00e696"
       stroke="#00e696"
       stroke-width="0.753"
       opacity="0.629"
       id="path22" />
    <path
       d="m 429.356,155.76 c 3.733,-0.434 15.951,-0.856 27.151,-0.937 l 20.364,-0.148 -0.235,-13.972 c -0.18,-10.686 0.077,-15.436 1.09,-20.199 2.117,-9.937 2.118,-9.933 -2.708,-13.004 -7.198,-4.58 -13.79,-6.46 -24.229,-6.91 -8.365,-0.36 -10.064,-0.174 -16.712,1.836 -4.07,1.23 -9.583,3.453 -12.25,4.94 l -4.85,2.703 -0.947,5.47 c -1.75,10.101 -2.702,24.665 -2.158,32.99 l 0.54,8.25 4.077,-0.114 c 2.244,-0.063 7.133,-0.47 10.867,-0.905 z m -7.986,-24.932 v -11.644 l 9.782,-0.99 c 11.08,-1.122 17.386,-1.232 18.593,-0.327 0.52,0.39 0.712,4.527 0.52,11.224 l -0.304,10.605 -11.877,0.565 c -6.533,0.31 -12.697,0.91 -13.697,1.334 -1,0.424 -2.089,0.794 -2.418,0.824 -0.33,0.029 -0.6,-5.187 -0.6,-11.591 z"
       fill="#00e696"
       stroke="#00e696"
       stroke-width="0.753"
       opacity="0.629"
       id="path24" />
    <path
       d="m 391.024,170.158 c 11.722,-2.659 26.72,-4.102 52.307,-5.033 13.615,-0.495 27.63,-1.396 31.144,-2 3.514,-0.606 11.674,-3.038 18.135,-5.406 6.46,-2.368 12.3,-4.306 12.977,-4.306 0.677,0 1.23,-0.351 1.23,-0.781 0,-0.43 -1.886,-1.025 -4.192,-1.323 -4.566,-0.59 -14.185,1.155 -20.67,3.752 -3.105,1.244 -4.857,1.39 -10.014,0.84 -7.006,-0.749 -32.593,0.35 -48.974,2.103 -9.62,1.03 -12.254,1.697 -24.465,6.2 -7.526,2.775 -14.713,5.633 -15.971,6.351 -2.28,1.302 -2.28,1.306 -0.291,1.224 1.098,-0.045 5.05,-0.775 8.784,-1.621 z m 100.348,503.035 c 12.095,-2.433 22.457,-7.4 29.408,-14.096 l 4.174,-4.02 0.56,-19.173 c 0.464,-15.85 0.282,-22.53 -1.045,-38.531 -3.453,-41.616 -3.826,-56.538 -1.975,-79.003 l 0.545,-6.623 -1.806,1.019 c -4.613,2.601 -16.306,-3.52 -29.647,-15.521 l -4.27,-3.841 -3.47,5.694 c -5.127,8.415 -14.074,28.117 -16.92,37.256 -1.368,4.398 -3.08,11.5 -3.803,15.781 -0.723,4.282 -1.632,7.785 -2.018,7.785 -1.503,0 2.047,-18.01 5.426,-27.523 l 1.854,-5.22 -6.139,-2.484 c -8.721,-3.532 -12.208,-4.386 -18.09,-4.434 -5.958,-0.048 -10.807,1.365 -10.807,3.149 0,0.677 0.716,2.71 1.592,4.52 2.252,4.654 12.782,31.63 12.782,32.747 0,2.023 -1.335,0.757 -2.348,-2.228 -7.83,-23.058 -27.87,-65.016 -31.052,-65.016 -0.354,0 -1.245,1.33 -1.98,2.957 -1.65,3.646 -12.825,16.022 -19.31,21.383 -6.744,5.578 -9.88,7.43 -14.842,8.769 -4.122,1.112 -4.364,1.331 -5.343,4.858 -2.209,7.951 -3.38,19.195 -3.382,32.49 -0.008,20.48 -3.157,41.15 -9.583,62.836 -1.766,5.96 -3.424,12.24 -3.684,13.957 l -0.474,3.12 11.594,8.505 c 13.733,10.074 15.925,11.316 24.645,13.973 14.27,4.346 29.773,4.806 40.15,1.191 2.877,-1.002 7.088,-1.702 10.418,-1.73 4.89,-0.041 6.29,0.33 11.18,2.969 3.075,1.659 7.028,3.447 8.784,3.974 5.081,1.524 22.324,1.829 28.876,0.51 z"
       fill="#00e696"
       stroke="#00e696"
       stroke-width="0.753"
       opacity="0.629"
       id="path26" />
    <path
       d="m 471.884,518.686 c 1.579,-3.7 5.487,-11.37 8.685,-17.043 4.411,-7.827 6.252,-12.079 7.628,-17.623 4.524,-18.23 17.777,-47.235 34.374,-75.234 11.364,-19.17 14.876,-23.42 22.438,-27.156 4.05,-2.002 5.423,-2.232 12.917,-2.165 9.197,0.081 16.695,1.787 28.449,6.47 6.246,2.49 6.934,3.009 9.91,7.48 4.183,6.285 8.787,16.578 9.332,20.864 0.5,3.926 0.325,3.885 9.407,2.156 12.35,-2.352 27.332,-1.122 34.99,2.87 l 3.154,1.645 -0.554,-8.997 c -1.639,-26.615 -6.427,-48.951 -13.838,-64.544 -3.526,-7.42 -6.37,-11.792 -11.948,-18.365 -6.218,-7.328 -9.935,-13.344 -14.582,-23.598 -4.476,-9.878 -6.919,-12.48 -15.96,-17.006 -4.333,-2.17 -5.21,-3.046 -7.648,-7.638 -3.388,-6.386 -8.636,-12.19 -13.253,-14.66 -1.916,-1.024 -6.905,-5.314 -11.086,-9.533 -7.999,-8.071 -18.844,-17.52 -23.194,-20.206 l -2.581,-1.594 0.543,4.54 c 0.299,2.496 1.093,8.023 1.766,12.28 l 1.222,7.743 -4.488,8.036 c -5.892,10.553 -10.767,21.612 -16.323,37.036 -4.416,12.259 -4.604,12.603 -7.284,13.344 -10.012,2.771 -25.059,-3.329 -37.652,-15.263 -8.916,-8.45 -11.81,-12.353 -11.846,-15.975 -0.025,-2.556 -0.479,-3.403 -2.565,-4.788 -3.352,-2.226 -5.924,-6.382 -6.615,-10.689 -0.308,-1.922 -1.59,-5.26 -2.849,-7.416 -1.259,-2.156 -4.98,-11 -8.27,-19.653 -3.29,-8.652 -6.919,-17.418 -8.065,-19.479 -2.08,-3.741 -2.086,-3.745 -4.612,-2.598 -1.391,0.632 -16.185,7.76 -32.875,15.84 -16.69,8.08 -31.542,15.12 -33.004,15.645 -8.351,3 -25.038,18.831 -37.113,35.21 -4.157,5.637 -9.448,11.365 -15.898,17.207 -11.71,10.606 -25.42,24.434 -25.372,25.589 0.02,0.463 4.36,3.871 9.645,7.574 17.903,12.544 29.74,25.223 36.689,39.297 3.727,7.55 2.821,7.456 9.552,1 7.838,-7.518 12.085,-8.74 15.501,-4.463 2.804,3.512 3.257,5.68 3.261,15.592 l 0.008,8.503 3.993,1.48 c 19.014,7.047 28.77,16.794 34.291,34.26 2.51,7.938 7.043,29.672 8.983,43.072 1.152,7.958 1.75,10.144 2.958,10.826 3.537,1.994 8.832,9.936 15.444,23.163 l 4.606,9.215 2.795,-1.064 c 6.432,-2.45 19.045,-0.936 28.356,3.404 2.521,1.175 4.838,2.136 5.148,2.136 0.31,0 1.855,-3.027 3.434,-6.727 z"
       fill="#2b4366"
       stroke="#00e696"
       stroke-width="0.753"
       opacity="0.629"
       id="path28" />
    <path
       d="m 459.87974,176.06294 c 0.2545,-0.88833 1.93073,-1.83564 3.28013,-2.05204 0.825,-0.286 3.4584,-0.76608 5.5804,-0.76108 2.594,0.005 5.08025,0.049 8.16525,0.86298 2.32729,0.24954 5.192,2.15488 4.95976,2.48006 -2.77103,-1.20104 -8.82228,-2.73217 -16.75999,-0.7511 -1.95089,0.4869 -6.43581,1.90063 -5.22555,0.22118 z m -35.86066,5.41712 c -0.224,-0.362 -0.30308,-0.28014 -0.44808,-0.78414 -0.105,-0.365 -0.348,0.14708 3.073,-0.35892 1.969,-0.29 2.828,-0.358 3.744,-0.295 1.597,0.111 3.006,0.435 3.88,0.893 0.625,0.327 0.728,0.438 0.763,0.818 0.054,0.586 -6.03795,-1.10643 -7.30295,-0.27443 -0.91136,-0.009 -3.33478,0.42622 -3.70897,0.001 z"
       fill="#ccd6f6"
       opacity="0.629"
       id="path30"
       sodipodi:nodetypes="cccccsccscccsccc" />
    <path
       style="fill:#a0a0a0;stroke:none;stroke-width:0.0560097"
       d="m 457.78344,240.71577 c -2.73238,-0.16236 -5.041,-0.54228 -6.79313,-1.11791 -0.9434,-0.30993 -0.70157,-0.16459 -1.30421,-0.55799 -0.42444,-0.27708 -0.12671,-0.74317 0.0481,-0.81025 0.0485,-0.0186 0.15137,-0.0738 1.66627,-0.0542 5.03245,0.0652 6.16572,-0.0168 18.71943,-1.35312 4.50554,-0.47962 4.66731,-0.7262 5.10863,-0.60792 0.34097,0.0914 0.68588,0.97819 -0.40465,1.50675 -0.97719,0.47366 -2.30087,0.97393 -3.194,1.30583 -2.20575,0.81971 -4.73435,1.32513 -8.03738,1.60652 -1.20999,0.10308 -4.64111,0.15167 -5.80909,0.0823 z"
       id="path940"
       sodipodi:nodetypes="ssssssssssss" />
    <path
       style="fill:#ccd6f6;fill-opacity:0.07228915;stroke:none;stroke-width:0.896157"
       d="m 650.77622,736.95071 c 11.03991,-5.01047 23.27783,-15.93134 29.31316,-26.15846 8.05048,-13.64185 9.79252,-24.10424 8.56343,-51.43039 -0.48611,-10.8076 -1.32062,-42.83823 -1.85446,-71.17919 -0.53545,-28.42661 -1.40051,-53.73877 -1.92949,-56.45784 -0.87026,-4.47334 -5.80355,-19.33245 -7.88448,-23.74814 -0.46456,-0.98578 -1.69084,-7.63974 -2.72508,-14.78659 -5.06525,-35.00224 -12.21162,-61.98364 -17.80834,-67.23607 -6.01202,-5.64219 -14.96299,-8.93721 -24.27811,-8.93721 -6.00632,0 -6.08769,0.0323 -6.60585,2.62308 -0.28854,1.4427 -1.01481,16.66617 -1.61393,33.82991 -0.81726,23.41306 -0.84019,34.84391 -0.0919,45.77004 0.99423,14.51603 1.01529,14.61319 6.49793,29.9717 3.02526,8.47466 6.42334,16.50522 7.55129,17.8457 1.61338,1.91741 2.18678,4.03061 2.68822,9.90727 1.93421,22.66795 7.91327,48.62687 18.78194,81.54446 10.60786,32.12768 11.68284,37.6203 11.01499,56.28084 -0.29177,8.15213 -0.79452,15.71429 -1.11723,16.8048 -0.34101,1.15237 -2.23095,2.77868 -4.51268,3.88327 -4.46813,2.16297 -13.58165,11.67119 -16.93156,17.66483 -3.47454,6.21663 -3.18648,6.58948 2.9421,3.80799 z"
       id="path1012" />
    <path
       style="fill:#ccd6f6;fill-opacity:0.07228915;stroke:none;stroke-width:0.896157"
       d="m 651.85503,414.10432 c -5.3e-4,-2.58766 -0.63025,-10.14898 -1.39922,-16.80293 -3.42381,-29.62636 -10.57273,-50.3882 -22.5598,-65.5179 -7.78284,-9.82324 -10.24882,-13.67486 -15.7154,-24.54582 -5.47581,-10.88933 -7.53331,-13.24624 -15.42228,-17.66661 -3.12928,-1.75339 -6.18412,-4.29739 -7.33809,-6.111 -5.58734,-8.78116 -8.47325,-12.09308 -14.40953,-16.53668 -3.57343,-2.67486 -6.49714,-4.68342 -6.49714,-4.46345 0,0.21996 3.64837,6.75551 8.10749,14.52341 4.45912,7.76794 12.64928,23.19709 18.20036,34.28703 21.66806,43.28839 31.04616,71.51261 31.04616,93.43623 v 9.36406 l 7.15221,0.59648 c 3.93372,0.32805 9.68033,1.38901 12.77023,2.35767 3.08991,0.96867 5.71883,1.76639 5.84205,1.77277 0.12322,0.006 0.22355,-2.10561 0.22296,-4.69326 z"
       id="path1014" />
    <path
       style="fill:#ccd6f6;fill-opacity:0.07228915;stroke:none;stroke-width:0.896157"
       d="m 322.53394,339.89546 c 21.34887,-21.4946 45.94716,-42.82526 55.1816,-47.85129 8.01336,-4.36139 12.04336,-4.94781 34.08205,-4.95937 21.87872,-0.0114 25.8267,-0.64633 30.34523,-4.87958 1.2392,-1.16094 4.74361,-3.35397 7.78756,-4.87337 l 5.53445,-2.76251 -0.93106,-3.38127 c -0.51208,-1.85971 -1.84796,-5.196 -2.96866,-7.41398 -1.12067,-2.21799 -4.75271,-10.8883 -8.07117,-19.26736 -6.91113,-17.45048 -9.04611,-21.95583 -10.40429,-21.95583 -0.53023,0 -15.64583,7.05723 -33.59019,15.68273 -17.94437,8.62551 -32.96501,15.68274 -33.37921,15.68274 -0.41421,0 -3.53838,1.9701 -6.94267,4.37801 -7.34941,5.19836 -19.98306,18.01486 -28.81094,29.22785 -3.4924,4.43598 -14.49684,16.05021 -24.45436,25.8094 l -18.10457,17.74402 3.8259,2.86759 c 2.10426,1.57718 7.60791,5.7913 12.23034,9.36471 4.62243,3.57344 8.49964,6.49714 8.616,6.49714 0.11634,0 4.64064,-4.45934 10.05399,-9.90963 z"
       id="path1016" />
    <path
       style="fill:#ccd6f6;fill-opacity:0.07228915;stroke:none;stroke-width:0.896157"
       d="m 189.88752,626.14968 c 7.15331,-1.04878 12.07609,-2.32752 11.64506,-3.02496 -0.26247,-0.42465 0.72734,-2.67144 2.19954,-4.99287 6.23805,-9.83639 11.56809,-28.76197 16.62568,-59.03365 1.72561,-10.32827 4.5656,-24.2411 6.31116,-30.91739 8.98327,-34.35902 34.52777,-101.94278 42.58274,-112.66238 5.83669,-7.76748 29.66949,-27.20481 50.09261,-40.85408 3.71745,-2.48447 6.9089,-4.64008 7.09218,-4.79029 0.56851,-0.46601 -8.47593,-11.33872 -13.03214,-15.66654 -5.45658,-5.18298 -10.38228,-9.06373 -20.01544,-15.76922 l -7.62201,-5.30559 -21.50307,27.27342 c -11.82669,15.00035 -24.14308,30.34565 -27.36973,34.10068 -10.20445,11.87537 -14.86122,19.78343 -19.18685,32.58276 -4.3857,12.97715 -16.06915,65.60203 -19.84812,89.4006 -1.21311,7.63974 -2.58556,15.30186 -3.04988,17.02697 -0.99515,3.69718 -9.20375,13.7867 -21.87277,26.88469 -9.91685,10.25264 -17.56236,20.47535 -19.90911,26.62017 -1.28719,3.3705 -1.34276,4.60404 -0.39769,8.82703 2.62882,11.74687 11.288,23.64775 20.23886,27.81563 4.53102,2.10981 12.06992,3.21061 17.01898,2.48502 z"
       id="path1018" />
    <path
       style="fill:#ccd6f6;fill-opacity:0.07228915;stroke:none;stroke-width:0.896157"
       d="m 334.95362,696.49929 c 0.40637,-2.03359 1.34366,-59.32003 3.29716,-201.51687 0.90471,-65.85754 0.90516,-65.8681 2.94111,-69.89191 4.28027,-8.45956 14.57778,-13.09143 31.6868,-14.25287 l 9.68246,-0.65728 -9.84894,-4.81912 c -9.0306,-4.41871 -10.47515,-4.85199 -17.38572,-5.21471 -26.86146,-1.40986 -35.92128,9.05511 -44.5019,51.40417 -1.79361,8.85214 -3.4085,16.33332 -3.58865,16.62481 -0.18019,0.29152 -2.1693,10.88983 -4.42029,23.55179 l -4.09271,23.02177 1.39824,11.4004 c 2.10434,17.15715 6.11693,40.2547 12.9562,74.5794 5.91699,29.69597 20.46892,96.87961 21.13204,97.56273 0.17606,0.1814 0.51094,-0.62515 0.7442,-1.79231 z"
       id="path1020" />
    <path
       style="fill:#ccd6f6;fill-opacity:0.07228915;stroke:none;stroke-width:0.896157"
       d="m 540.73272,730.91228 c 0.73932,-0.28239 3.50015,-2.47412 6.13515,-4.87053 2.635,-2.39641 6.62479,-5.43185 8.86622,-6.74542 l 4.07532,-2.38829 -0.52268,-22.91544 c -1.02611,-44.9876 -6.587,-73.45736 -20.35577,-104.21436 -4.47972,-10.00692 -13.98993,-27.58409 -14.92447,-27.58409 -0.57626,0 0.0874,11.38293 2.08987,35.84624 1.48717,18.16775 1.45762,22.70089 -0.59788,91.69612 -0.74263,24.9276 -0.68167,29.78956 0.39979,31.8809 1.57064,3.03729 8.10633,9.05413 9.83488,9.05413 0.6976,0 1.80544,0.16967 2.46184,0.37708 0.65643,0.20738 1.7984,0.14602 2.53773,-0.13634 z"
       id="path1022" />
    <path
       style="fill:#ccd6f6;fill-opacity:0.07228915;stroke:none;stroke-width:0.896157"
       d="m 524.60191,766.91341 c 0.73933,-0.16092 4.86209,-0.7592 9.16173,-1.32945 9.26011,-1.22817 8.4435,0.60814 9.10128,-20.46606 0.31969,-10.2429 0.17018,-13.52257 -0.58217,-12.77023 -1.53537,1.53538 -6.55555,1.21185 -9.56154,-0.61619 -1.47283,-0.89569 -3.87443,-3.13417 -5.33686,-4.9744 l -2.65896,-3.34587 -0.52384,3.85421 c -2.0142,14.81935 -3.04105,40.265 -1.616,40.04457 0.36968,-0.0572 1.27704,-0.23564 2.01636,-0.39658 z"
       id="path1024" />
    <path
       style="fill:#ccd6f6;fill-opacity:0.07228915;stroke:none;stroke-width:0.896157"
       d="m 592.48576,394.87661 c 3.84526,-0.74062 1.39886,-3.92723 -5.28393,-6.88266 -5.26115,-2.32674 -16.98772,-6.13418 -17.45463,-5.66727 -0.76463,0.76465 3.77756,8.08549 6.49926,10.47515 2.77162,2.43353 3.64648,2.69489 8.65315,2.58519 3.06339,-0.0671 6.47715,-0.29681 7.58615,-0.51041 z"
       id="path1026" />
    <path
       style="fill:#ccd6f6;fill-opacity:0.0562249;stroke:none;stroke-width:0.316839"
       d="m 525.19228,677.91529 c 0.11499,-3.96446 0.36674,-12.41407 0.55941,-18.77693 0.19269,-6.36288 0.27863,-11.85212 0.191,-12.19832 -0.0876,-0.34621 -0.1859,0.86762 -0.21836,2.69734 -0.0325,1.82976 -0.15595,3.57109 -0.2744,3.86964 -0.21632,0.54528 -0.19198,-1.16546 0.20389,-14.32531 0.11795,-3.92089 0.16716,-8.91112 0.1094,-11.08938 l -0.10504,-3.9605 -0.76205,2.98964 c -0.94747,3.71702 -3.03681,7.99841 -4.68284,9.5958 -3.00685,2.91807 -14.07679,6.62943 -26.7616,8.97224 -5.00092,0.92363 -4.4952,0.89194 -4.4952,0.28173 0,-0.33438 2.26201,-1.59891 6.89126,-3.85247 7.53193,-3.66657 9.79816,-5.0705 14.33696,-8.88167 3.07859,-2.58503 14.1023,-13.63454 15.05818,-15.09343 0.41897,-0.63941 0.52343,-1.52529 0.49798,-4.22254 -0.0177,-1.87735 -0.10825,-4.19753 -0.20114,-5.15599 -0.0929,-0.95842 -0.23694,-2.88324 -0.32015,-4.27733 -0.0832,-1.39409 -0.25807,-3.67533 -0.38859,-5.06942 l -0.23733,-2.53471 -0.56031,2.94865 c -0.66299,3.48912 -1.77943,6.59527 -3.12309,8.68921 -2.74405,4.27623 -11.65972,10.55021 -27.72017,19.50684 -8.03995,4.48371 -20.00182,10.59702 -20.44566,10.44909 -0.20439,-0.0681 1.7557,-1.74215 4.35579,-3.72005 10.49705,-7.98518 19.46704,-15.23939 22.73729,-18.38812 7.91049,-7.61662 15.18757,-17.75715 21.48574,-29.94016 1.31212,-2.53815 2.19808,-3.93586 2.30957,-3.64363 0.0995,0.26075 0.31621,1.32956 0.4816,2.37511 0.28652,1.81103 0.29361,1.77353 0.14954,-0.79208 -0.0832,-1.48122 -0.42577,-6.89917 -0.76134,-12.03989 -0.69239,-10.60729 -1.26444,-23.75608 -1.39912,-32.15917 -0.0503,-3.13671 -0.0737,-0.78417 -0.0521,5.22785 0.0217,6.01203 -0.067,10.36064 -0.19698,9.6636 -0.3625,-1.94419 -0.34811,-22.38016 0.0164,-23.29385 0.2749,-0.68908 0.32027,-0.59068 0.36803,0.79825 0.03,0.87132 0.45117,-3.76246 0.93602,-10.29727 0.48482,-6.53479 0.96655,-13.02208 1.0705,-14.41617 l 0.18902,-2.53471 -0.48252,1.90103 c -0.2654,1.04558 -0.49342,3.04165 -0.50668,4.43574 -0.0188,1.98112 -0.0683,2.2425 -0.22635,1.19679 -0.16473,-1.08992 -0.2903,-1.28169 -0.67746,-1.03457 -0.62289,0.39756 -1.03892,0.39558 -0.79209,-0.004 0.26199,-0.42391 0.12706,-0.4038 -1.30558,0.19482 -1.17811,0.49223 -2.17882,0.48664 -5.34805,-0.0299 -0.5228,-0.0852 -0.16635,0.11398 0.7921,0.44267 2.14451,0.73541 1.39322,0.85112 -0.96983,0.14936 -3.01498,-0.89535 -9.34979,-4.32707 -9.00814,-4.87992 0.0828,-0.13393 -0.19968,-0.47297 -0.62772,-0.75343 -0.91355,-0.59859 -1.24243,-0.65177 -0.93284,-0.15084 0.77724,1.25757 -8.12372,-5.65079 -13.50413,-10.48105 -1.96024,-1.75982 -3.60262,-3.16079 -3.64971,-3.11327 -0.0471,0.0475 -1.32475,2.15379 -2.83917,4.68059 -4.8042,8.01576 -12.29556,23.86965 -16.16912,34.21862 -2.37204,6.33741 -5.00195,17.44259 -6.35902,26.85213 -0.0953,0.66085 -0.32652,1.0297 -0.64537,1.0297 -0.39098,0 -0.45363,-0.21947 -0.29398,-1.0297 0.1116,-0.56637 0.20979,-1.52877 0.21823,-2.13869 0.0137,-0.99663 0.0396,-1.02872 0.255,-0.31683 0.1923,0.6355 0.31785,0.32229 0.63498,-1.5842 0.21738,-1.30696 0.74541,-4.14351 1.17334,-6.30343 0.42797,-2.1599 0.72835,-4.07641 0.66752,-4.25887 -0.0608,-0.18246 -0.36187,0.87188 -0.66902,2.34294 -0.69038,3.3065 -0.84683,3.86921 -1.02598,3.69009 -0.14819,-0.14819 1.41994,-7.47019 1.70056,-7.94049 0.0891,-0.14931 0.26347,-0.10726 0.38748,0.0934 0.12404,0.20068 0.55621,-0.88908 0.96041,-2.42166 0.40421,-1.5326 1.28164,-4.4156 1.94988,-6.4067 0.66823,-1.99109 1.14831,-3.68678 1.0669,-3.7682 -0.17674,-0.17674 -0.12155,-0.31914 -1.88148,4.85365 -0.77073,2.26539 -1.41226,3.96304 -1.42563,3.77257 -0.0132,-0.19048 0.54605,-2.10201 1.2431,-4.24784 0.69704,-2.14582 1.26735,-3.95041 1.26735,-4.01021 0,-0.0598 -2.2456,-0.11287 -4.9902,-0.11798 -4.88445,-0.009 -9.51749,-0.33983 -20.35713,-1.4533 l -5.38607,-0.55324 v -0.87249 c 0,-1.78774 0.45939,-2.34879 2.26581,-2.76731 3.25821,-0.75486 8.00534,-1.02722 11.74973,-0.67413 4.86868,0.45913 7.60569,1.0559 12.44053,2.7124 2.26541,0.77618 4.36843,1.49651 4.67339,1.60073 0.40687,0.13907 0.55446,0.0201 0.55446,-0.44664 0,-0.49919 -0.6409,-0.91721 -2.97694,-1.94173 -4.33893,-1.90288 -9.43213,-3.77245 -12.69894,-4.66137 -5.7063,-1.55271 -14.14035,-1.32996 -17.68463,0.46709 -1.58633,0.80434 -1.64909,0.88577 -1.62166,2.10408 0.0177,0.78729 0.66101,2.70753 1.69818,5.06941 2.30746,5.25468 8.32988,20.46559 8.16724,20.6282 -0.0732,0.0732 -1.39118,-3.04115 -2.92891,-6.92076 -1.53771,-3.87959 -4.03704,-9.94929 -5.55406,-13.48823 l -2.7582,-6.43443 0.74851,-0.49046 c 1.0564,-0.69217 4.28903,-1.99088 4.97787,-1.99985 0.51297,-0.007 0.52427,-0.0603 0.10184,-0.48279 -0.64397,-0.64397 -1.11565,-0.60359 -3.51992,0.30136 l -2.06332,0.77666 -4.11033,-8.14316 c -2.26068,-4.47874 -5.25336,-10.05782 -6.65036,-12.39801 -2.45287,-4.10888 -3.52552,-5.62878 -3.0788,-4.36253 0.1242,0.35197 0.0764,0.49363 -0.12467,0.36938 -0.17933,-0.11086 -0.2503,-0.4404 -0.15764,-0.73231 0.17828,-0.56171 -2.57657,-4.37491 -2.91568,-4.03582 -0.10266,0.10268 0.094,0.50691 0.4369,0.89831 1.57285,1.79501 1.29226,1.76435 -0.36483,-0.0399 l -1.85423,-2.01885 -0.38692,1.86044 c -0.21281,1.02322 -0.49533,2.13334 -0.62781,2.46687 -0.16907,0.42558 -0.13036,0.53814 0.12978,0.37735 1.35591,-0.83799 -1.011,2.98127 -4.59372,7.41244 -6.19964,7.66786 -17.33675,17.88094 -23.2621,21.33211 -1.56795,0.91321 -2.37887,1.1375 -1.3793,0.38145 0.82029,-0.62044 0.4119,-0.60486 -0.93096,0.0355 -0.60074,0.28649 -1.02584,0.69392 -0.94467,0.90546 0.1334,0.34764 -2.47208,1.33268 -4.95507,1.8733 -0.43563,0.0949 -1.22515,0.44006 -1.75445,0.76711 -0.87254,0.53914 -1.04076,0.93144 -1.80292,4.20468 -0.46231,1.98554 -0.98687,4.46553 -1.16565,5.51111 -0.99364,5.81081 -2.24653,22.30711 -2.24872,29.60813 -0.003,7.81897 -1.50606,23.21667 -2.40626,24.63941 -0.24421,0.38598 -0.44182,0.95629 -0.43915,1.26736 0.004,0.48106 0.0507,0.49459 0.31199,0.0904 0.18455,-0.28556 0.30906,-0.32464 0.31197,-0.0979 0.003,0.20754 -0.13149,0.46162 -0.29813,0.56462 -0.16666,0.10298 -0.2227,0.39656 -0.12454,0.65236 0.0982,0.25582 0.07,0.71464 -0.0625,1.0196 -0.13255,0.30495 -0.20748,0.81954 -0.16653,1.14355 0.0497,0.39285 -0.0543,0.50954 -0.31199,0.35026 -0.29068,-0.17963 -0.33277,0.0474 -0.16987,0.91588 0.13423,0.71546 0.0937,1.15475 -0.10662,1.15475 -0.19376,0 -0.24318,0.40055 -0.12333,0.99978 0.14156,0.70776 0.0944,0.93451 -0.16158,0.77634 -0.25476,-0.15745 -0.30445,0.0619 -0.16827,0.74282 0.14025,0.7013 0.0738,0.9676 -0.24239,0.97112 -0.34316,0.004 -0.33477,0.0701 0.0396,0.312 0.26138,0.16891 0.31679,0.30933 0.12314,0.31197 -0.20415,0.003 -0.28848,0.33772 -0.20069,0.79695 0.0833,0.43567 0.0161,0.79211 -0.14941,0.79211 -0.16547,0 -0.27784,0.31187 -0.24977,0.69305 0.0643,0.8735 -1.16649,6.96365 -2.2557,11.16111 -0.45609,1.75763 -0.89996,3.5165 -0.98639,3.90859 -0.0864,0.39208 -0.25274,0.71289 -0.3696,0.71289 -0.11687,0 -0.23448,0.29181 -0.26133,0.64849 -0.0269,0.35669 -0.83579,3.38646 -1.79758,6.73283 -2.23025,7.75965 -3.32685,12.32721 -3.43257,14.29743 l -0.0837,1.55945 8.55464,6.29309 c 14.57154,10.71931 18.44623,13.0913 24.92675,15.25951 15.28935,5.11538 31.45511,5.89285 42.97626,2.0669 1.10027,-0.36539 2.06007,-0.60473 2.13291,-0.53192 0.25266,0.25265 -4.14419,1.8914 -6.19284,2.30809 -2.7555,0.5605 -9.08304,1.11062 -12.72807,1.1066 -9.37708,-0.0103 -20.86423,-2.1785 -29.37659,-5.54461 -1.61513,-0.63868 -3.00401,-1.09384 -3.08637,-1.01148 -0.23109,0.23109 4.07495,1.93588 8.12086,3.21514 4.19955,1.32781 11.45024,2.84446 15.90869,3.32761 4.47177,0.48464 13.07047,0.40775 17.95439,-0.16049 3.31769,-0.38603 4.79777,-0.72269 6.81204,-1.54938 1.41539,-0.58092 3.05578,-1.15848 3.64533,-1.28349 0.68487,-0.14523 0.93006,-0.31496 0.67905,-0.47011 -0.54734,-0.33827 -0.13888,-0.52444 2.0301,-0.92517 2.1957,-0.40566 7.34153,-0.42469 8.25884,-0.0305 0.54996,0.23633 0.50808,0.27858 -0.31687,0.31978 -0.65347,0.0326 -0.31149,0.186 1.0944,0.4908 1.24272,0.26945 2.11717,0.32644 2.22911,0.14531 0.20246,-0.32761 3.27761,0.9812 3.62459,1.54262 0.13678,0.2213 0.008,0.27946 -0.35722,0.16151 -0.39568,-0.12772 -0.32779,0.0172 0.22117,0.47183 0.92157,0.76337 1.52498,0.88715 0.95051,0.19497 -0.59774,-0.72025 -0.2331,-0.5987 2.85224,0.95086 1.56178,0.78436 3.8758,1.77258 5.14231,2.19604 5.86782,1.96194 23.02789,2.22764 31.15515,0.48239 4.2803,-0.91916 10.94174,-3.17233 14.90255,-5.04063 5.50511,-2.59676 9.64984,-5.50953 14.62263,-10.27634 3.2053,-3.0725 2.88499,-2.19044 -0.38632,1.06389 -1.47587,1.4682 -2.61202,2.74084 -2.52479,2.82808 0.0872,0.0872 1.45143,-1.11718 3.03152,-2.67648 l 2.87293,-2.83506 -0.18532,3.00998 c -0.26072,4.23445 -0.63129,25.9808 -0.44275,25.9808 0.0856,0 0.24977,-3.24364 0.36478,-7.20808 z M 448.40109,666.7467 c 0,-0.17426 0.0629,-0.31684 0.13973,-0.31684 0.0768,0 0.22783,0.14258 0.33554,0.31684 0.10769,0.17425 0.0448,0.31684 -0.13972,0.31684 -0.18455,0 -0.33555,-0.14259 -0.33555,-0.31684 z m 76.77547,-11.78246 c 0.10115,-0.25275 0.17621,-0.17767 0.19143,0.19143 0.0138,0.33401 -0.0611,0.52115 -0.16642,0.41584 -0.10528,-0.10527 -0.11653,-0.37854 -0.0251,-0.60727 z M 404.30498,602.66599 c -5.66394,-7.63593 -10.15709,-15.40656 -12.04563,-20.83216 l -1.0477,-3.00998 0.0323,-8.0794 c 0.0233,-5.81858 0.28236,-11.13811 0.92599,-19.01034 1.04581,-12.79116 1.14652,-19.29062 0.37443,-24.16859 -0.6663,-4.20965 -0.70366,-6.24798 -0.11445,-6.24798 0.94324,0 2.37569,2.53802 3.93411,6.97048 1.61507,4.59356 1.7045,5.83528 1.59859,22.19569 -0.11388,17.58739 -0.19243,16.92519 3.24858,27.38963 3.26351,9.92463 4.91157,16.88275 5.51583,23.28768 0.10686,1.13268 0.26844,2.66541 0.35906,3.40601 0.0906,0.74062 0.0439,1.34657 -0.10372,1.34657 -0.14766,0 -1.35249,-1.46143 -2.67737,-3.24761 z m 43.65481,-7.44572 c -0.10266,-1.002 -0.33935,-3.81791 -0.52596,-6.25755 -0.63551,-8.30795 -1.07471,-10.49367 -3.80339,-18.92714 -1.40457,-4.34107 -2.50976,-8.01682 -2.456,-8.16838 0.0538,-0.15152 1.01976,0.41654 2.14662,1.26238 l 2.04883,1.53789 1.77742,5.33559 1.77742,5.33557 -0.14425,10.85173 c -0.13637,10.2588 -0.39884,13.1468 -0.82069,9.02991 z m 18.18429,-0.64683 c 0,-1.50831 0.94703,-8.19787 1.9367,-13.68047 2.69719,-14.94195 9.11281,-39.79348 12.01399,-46.53747 0.3809,-0.88543 1.00889,-1.73069 1.46863,-1.97673 0.71702,-0.38375 0.85381,-0.3628 1.27529,0.19518 0.77155,1.02151 0.35237,5.86029 -0.96076,11.09002 -1.56787,6.24422 -6.47359,23.20423 -11.13933,38.51065 -2.17845,7.14666 -3.96084,13.05904 -3.96084,13.1386 0,0.0796 -0.14258,0.14467 -0.31684,0.14467 -0.17425,0 -0.31684,-0.39801 -0.31684,-0.88445 z m -6.48719,-4.26418 c -0.1171,-1.96043 -0.16682,-7.91306 -0.11046,-13.22803 l 0.10245,-9.6636 2.06655,-2.53471 c 2.02491,-2.48361 3.98971,-5.63454 5.97644,-9.58437 1.07553,-2.13826 1.95524,-2.75535 1.12919,-0.79211 -1.78435,4.24087 -5.55498,14.88816 -5.97496,16.87169 -0.69217,3.26927 -1.33596,8.49022 -1.98273,16.07958 -0.30073,3.5288 -0.64731,6.41599 -0.77018,6.41599 -0.12284,0 -0.31919,-1.60398 -0.4363,-3.56444 z m 63.58625,-10.6933 0.005,-1.10895 0.26215,1.26736 c 0.14417,0.69704 0.25614,1.55252 0.24881,1.90103 -0.0109,0.5125 -0.0618,0.4822 -0.26699,-0.15841 -0.13952,-0.43566 -0.25149,-1.29114 -0.24881,-1.90103 z m -0.34843,-3.96049 c -0.022,-0.52205 0.0274,-0.54997 0.28041,-0.15844 0.16894,0.26141 0.29512,0.903 0.28041,1.42579 -0.0262,0.93147 -0.0318,0.93464 -0.28041,0.15841 -0.13951,-0.43564 -0.26569,-1.07726 -0.28041,-1.42576 z m -103.38639,-1.66341 c -2.11305,-2.2655 -2.46785,-4.41318 -2.78739,-16.8717 -0.34343,-13.38911 -1.20198,-19.61264 -4.47347,-32.42769 -1.10591,-4.33213 -4.39264,-14.78288 -5.70418,-18.13756 -0.37769,-0.96605 -0.32771,-1.04881 3.52872,-5.84258 2.15151,-2.67449 3.96582,-4.7008 4.03175,-4.50298 0.066,0.19783 -1.51985,2.40467 -3.52399,4.90406 l -3.64389,4.54435 2.21199,6.55347 c 2.43999,7.22897 4.92626,16.627 6.11445,23.1126 1.40943,7.69311 1.82724,12.17052 2.09304,22.43001 0.25553,9.86267 0.51795,12.25752 1.5622,14.25777 0.74698,1.43079 1.67805,2.21787 2.62361,2.21787 1.12806,0 1.54774,-0.88252 2.34331,-4.92742 0.7289,-3.70594 0.72761,-11.24953 -0.003,-15.03344 -0.9143,-4.73795 -2.35421,-14.09648 -3.99738,-25.9808 -2.71211,-19.61534 -4.4163,-31.49334 -4.62537,-32.23838 -0.11152,-0.3974 -0.0598,-0.71289 0.11679,-0.71289 0.47593,0 0.56763,0.51326 2.29301,12.83198 4.20494,30.02241 5.46931,38.7266 6.1948,42.64685 1.14929,6.21027 1.46169,10.54796 1.06656,14.80984 -0.34404,3.71116 -1.28744,8.05313 -1.91365,8.80767 -0.64366,0.77555 -2.6034,0.52919 -3.50833,-0.44103 z m 103.45696,-0.79211 c 0.0879,-0.21781 0.15981,-0.0396 0.15981,0.39605 0,0.43566 -0.0719,0.61389 -0.15981,0.39606 -0.0879,-0.21784 -0.0879,-0.57428 0,-0.79211 z m -0.41413,-2.29706 c 0,-0.17429 0.13822,-0.10298 0.30713,0.1584 0.16894,0.26138 0.30713,0.61783 0.30713,0.79211 0,0.17426 -0.13819,0.10295 -0.30713,-0.15843 -0.16891,-0.26138 -0.30713,-0.61783 -0.30713,-0.79208 z m 0.0876,-1.97422 c 0.0803,-0.30829 0.15134,-0.13277 0.1578,0.39 0.006,0.52279 -0.0593,0.77501 -0.14608,0.56052 -0.0868,-0.21453 -0.0921,-0.64225 -0.0116,-0.95052 z m -0.35436,-3.57047 0.0154,-1.10895 0.24186,0.95051 c 0.13303,0.52279 0.2487,1.30697 0.25709,1.74263 0.0138,0.71874 -0.01,0.7334 -0.25709,0.1584 -0.14976,-0.3485 -0.26546,-1.13268 -0.25707,-1.74259 z m -0.30858,-5.70313 0.005,-1.10892 0.26215,1.26736 c 0.14417,0.69704 0.25615,1.55252 0.24882,1.90103 -0.0109,0.5125 -0.0618,0.4822 -0.26699,-0.15841 -0.13952,-0.43566 -0.25149,-1.29114 -0.24882,-1.90106 z m -75.45732,1.02974 c -0.74043,-1.61232 -1.97037,-5.20333 -1.83017,-5.34351 0.0764,-0.0764 0.5674,1.04114 1.09109,2.48346 0.52369,1.44233 1.10207,2.62242 1.28529,2.62242 0.50697,0 0.791,0.39294 0.55735,0.77103 -0.34195,0.55327 -0.67943,0.39018 -1.10356,-0.5334 z m -0.97914,-4.66435 c -0.74081,-1.99903 -1.45944,-3.56505 -1.59697,-3.48004 -0.13753,0.085 -0.35325,-0.0124 -0.47932,-0.21642 -0.14319,-0.23167 -0.0919,-0.28607 0.13652,-0.14489 0.45239,0.27958 0.46575,-0.14081 0.0401,-1.26042 -0.17915,-0.47117 -0.26929,-0.91305 -0.20037,-0.982 0.069,-0.0689 0.84053,1.76868 1.71463,4.08363 1.78168,4.71845 2.08698,5.63475 1.87743,5.63475 -0.0798,0 -0.75123,-1.63557 -1.49201,-3.63461 z m 15.85217,-1.91005 c 0,-0.60992 0.11396,-1.10895 0.25321,-1.10895 0.13928,0 0.19497,0.49903 0.12377,1.10895 -0.0712,0.60992 -0.18515,1.10892 -0.25323,1.10892 -0.068,0 -0.12375,-0.499 -0.12375,-1.10892 z m 0.595,-2.907 c 0.27614,-0.47488 0.33798,-0.48856 0.34589,-0.0766 0.0103,0.53359 -0.32293,1.01402 -0.54748,0.78947 -0.074,-0.0741 0.0167,-0.39487 0.20159,-0.71289 z m -19.22127,-0.77997 c 0.0791,-0.23731 0.22272,-0.0937 0.33477,0.33475 0.1378,0.52702 0.0966,0.65072 -0.13853,0.41561 -0.18413,-0.18413 -0.27242,-0.52179 -0.19624,-0.75036 z m -1.01775,-2.21197 c 0,-0.17426 0.14258,-0.22871 0.31684,-0.12102 0.17425,0.10771 0.31684,0.3384 0.31684,0.51266 0,0.17428 -0.14259,0.22873 -0.31684,0.12102 -0.17426,-0.10769 -0.31684,-0.33838 -0.31684,-0.51266 z m -1.57451,-4.23992 c 0,-0.17426 0.13822,-0.10298 0.30716,0.15843 0.16891,0.26138 0.30712,0.61783 0.30712,0.79208 0,0.17426 -0.13821,0.10298 -0.30712,-0.1584 -0.16894,-0.26141 -0.30716,-0.61786 -0.30716,-0.79211 z m -2.51725,-5.93313 c -8.8868,-20.98459 -20.19263,-43.1231 -22.7588,-44.56508 -0.42122,-0.2367 -0.74118,-0.14468 -1.31966,0.37944 -0.72404,0.65601 -0.75163,0.65902 -0.53227,0.0582 0.12724,-0.34851 0.31047,-1.02576 0.40717,-1.50498 0.0967,-0.47921 0.28731,-0.8713 0.42357,-0.8713 0.3455,0 2.5104,2.65071 3.95624,4.844 0.8876,1.34643 1.28712,1.7255 1.50278,1.42578 0.2069,-0.28757 0.23744,-0.235 0.10327,0.1778 -0.12423,0.38217 0.35623,1.49117 1.38088,3.18757 0.86427,1.43082 2.78736,4.94541 4.27356,7.81016 1.48619,2.86478 2.70483,5.02809 2.70811,4.80735 0.003,-0.22072 -0.78605,-1.98057 -1.75405,-3.91073 -0.96803,-1.93019 -1.64526,-3.43665 -1.50501,-3.34767 0.14029,0.089 1.88122,3.43072 3.86872,7.42607 l 3.61365,7.26427 1.45576,-0.54547 c 2.74686,-1.02918 3.03798,-0.9643 0.70028,0.15608 -1.28686,0.61674 -2.36612,1.12133 -2.39835,1.12133 -0.0322,0 -0.82616,-1.65981 -1.76424,-3.68848 -0.9381,-2.02867 -1.75106,-3.55216 -1.8066,-3.38553 -0.0556,0.16661 0.63071,1.86209 1.52501,3.7677 2.89033,6.15884 10.42755,24.04925 10.42755,24.75096 0,0.47879 -0.37775,-0.32827 -2.50757,-5.35745 z m 26.478,3.0679 c 0.10319,-0.2689 0.25557,-0.42095 0.33862,-0.3379 0.0831,0.083 0.057,0.30305 -0.0578,0.48892 -0.31242,0.50549 -0.49503,0.4073 -0.28078,-0.15102 z m 0.31158,-1.25368 c 0.10033,-0.2614 0.23841,-0.47527 0.30692,-0.47527 0.0685,0 0.12451,0.21387 0.12451,0.47527 0,0.26139 -0.13811,0.47525 -0.30689,0.47525 -0.16881,0 -0.22485,-0.21386 -0.12454,-0.47525 z m 57.55195,-11.16423 c 0.0728,-0.48162 0.13435,-0.16277 0.13673,0.70853 0.003,0.87133 -0.0572,1.26537 -0.13239,0.87567 -0.0752,-0.38968 -0.0772,-1.10257 -0.004,-1.5842 z m 0.38579,-5.78667 c 0.127,-2.2836 0.2994,-4.08353 0.38306,-3.99984 0.0837,0.0837 0.0488,2.0211 -0.0776,4.30538 -0.12634,2.28428 -0.29871,4.08421 -0.38309,3.99986 -0.0844,-0.0844 -0.0495,-2.02178 0.0776,-4.3054 z m 0.56245,-7.04398 c 0.0705,-0.56949 0.12967,-0.17995 0.13144,0.86564 0.003,1.04555 -0.0559,1.51148 -0.12819,1.03539 -0.0723,-0.47609 -0.0738,-1.33157 -0.003,-1.90103 z m -4.49654,-2.89161 c 0.0726,-0.0625 0.70231,-0.201 1.39935,-0.30784 0.86307,-0.13232 1.11575,-0.0976 0.79211,0.10872 -0.43288,0.27598 -2.49904,0.46373 -2.19146,0.19912 z m -94.56535,-7.34859 c -0.10821,-0.28197 -0.0551,-0.40915 0.12451,-0.29813 0.17227,0.10646 0.31322,0.32774 0.31322,0.4917 0,0.45577 -0.22712,0.35533 -0.43773,-0.19357 z m -0.82963,-1.40933 c -0.18653,-0.34851 -0.26786,-0.63368 -0.18071,-0.63368 0.0871,0 0.31102,0.28517 0.49755,0.63368 0.18651,0.34853 0.26784,0.63368 0.18071,0.63368 -0.0871,0 -0.31104,-0.28515 -0.49755,-0.63368 z"
       id="path1028" />
  </g>
  <path
     style="fill:#a0a0a0;stroke:none;stroke-width:0.0792097"
     d="m 428.02095,182.63419 c -0.10673,-0.023 -1.89764,0.57821 -2.46491,0.84154 -0.55195,0.25623 -0.71694,1.19478 -1.08588,0.34344 -0.54194,-1.25059 -1.07452,-2.96007 -1.07452,-3.03966 0,-0.14157 0.17367,-0.005 0.27196,0.21354 0.26223,0.58363 0.47461,0.69404 1.32681,0.68982 0.86167,-0.004 2.79043,-0.19606 3.19342,-0.31755 0.46947,-0.14155 2.08833,-0.0444 4.03968,0.24235 0.91488,0.13446 1.91061,0.25167 2.21274,0.26048 0.52403,0.0153 0.55195,0.007 0.60598,-0.18201 0.0518,-0.18098 0.0573,-0.17519 0.0645,0.0672 0.0114,0.38327 -0.18846,0.74558 -0.68551,1.24263 -1.17408,1.17408 -2.15415,2.02318 -4.45071,2.61441 -0.41206,0.10609 -0.326,-0.47571 -0.39669,-1.00745 -0.0784,-0.5893 -1.36232,-1.92682 -1.55692,-1.96878 z"
     id="path894"
     sodipodi:nodetypes="sssssssssssssss" />
  <path
     style="fill:#a0a0a0;stroke:none;stroke-width:0.0792097"
     d="m 461.8938,181.50378 c -1.29149,-0.26803 -2.03642,-0.66082 -2.29791,-1.20097 -0.34684,-0.71651 -0.3873,-1.90672 -0.10721,-3.15685 0.117,-0.52231 0.12592,-0.53562 0.27088,-0.40443 0.12832,0.11613 0.26689,0.12943 0.96274,0.0924 0.64532,-0.0343 1.22915,-0.14955 2.83268,-0.55912 3.9931,-1.01988 5.41642,-1.2401 8.40476,-1.30039 3.71425,-0.0749 6.38845,0.33348 9.32876,1.42473 0.61331,0.22762 0.67493,0.27086 0.81016,0.56858 0.0805,0.17723 0.14713,0.46279 0.14808,0.63459 0.003,0.27513 -0.0495,0.36198 -0.42812,0.72872 -1.69873,1.33813 -4.17182,1.98961 -6.63948,2.54842 -1.56985,0.3555 -3.10417,1.10694 -4.54308,0.57606 -0.85246,-2.51391 0.50823,0.72359 -0.99108,-3.19084 -1.41444,-1.06688 -3.07536,-3.13173 -6.43964,0.2215 -0.54809,0.65018 -1.27662,3.02029 -1.31154,3.01757 z"
     id="path896"
     sodipodi:nodetypes="cssssssssccscccc" />
</svg>
