<?xml version="1.0" encoding="UTF-8" standalone="no"?>
<svg
   xmlns:dc="http://purl.org/dc/elements/1.1/"
   xmlns:cc="http://creativecommons.org/ns#"
   xmlns:rdf="http://www.w3.org/1999/02/22-rdf-syntax-ns#"
   xmlns:svg="http://www.w3.org/2000/svg"
   xmlns="http://www.w3.org/2000/svg"
   xmlns:sodipodi="http://sodipodi.sourceforge.net/DTD/sodipodi-0.dtd"
   xmlns:inkscape="http://www.inkscape.org/namespaces/inkscape"
   width="2791.592"
   height="3520.655"
   viewBox="0 0 738.608 931.507"
   version="1.1"
   id="svg1103"
   sodipodi:docname="about-me-drawing.svg"
   inkscape:version="1.0.2-2 (e86c870879, 2021-01-15)">
  <metadata
     id="metadata1109">
    <rdf:RDF>
      <cc:Work
         rdf:about="">
        <dc:format>image/svg+xml</dc:format>
        <dc:type
           rdf:resource="http://purl.org/dc/dcmitype/StillImage" />
        <dc:title></dc:title>
      </cc:Work>
    </rdf:RDF>
  </metadata>
  <defs
     id="defs1107" />
  <sodipodi:namedview
     pagecolor="#ffffff"
     bordercolor="#666666"
     borderopacity="1"
     objecttolerance="10"
     gridtolerance="10"
     guidetolerance="10"
     inkscape:pageopacity="0"
     inkscape:pageshadow="2"
     inkscape:window-width="2560"
     inkscape:window-height="1377"
     id="namedview1105"
     showgrid="false"
     inkscape:zoom="0.14762125"
     inkscape:cx="1615.4078"
     inkscape:cy="1834.295"
     inkscape:window-x="-8"
     inkscape:window-y="-8"
     inkscape:window-maximized="1"
     inkscape:current-layer="layer1"
     inkscape:object-paths="true"
     inkscape:snap-nodes="false" />
  <g
     inkscape:groupmode="layer"
     id="layer1"
     inkscape:label="Current"
     style="display:inline">
    <path
       style="fill:#8892b0;stroke:none;stroke-width:1.1975;fill-opacity:0.93333334"
       d=""
       id="path1508"
       transform="matrix(0.26458343,0,0,0.26458343,-5.0522863e-4,0)" />
    <g
       id="g1574"
       transform="matrix(2.5204414,0,0,2.6563307,-559.501,-776.66609)">
      <path
         id="path1469"
         style="fill:none;stroke:#00e696;stroke-width:0.291042;stroke-linecap:butt;stroke-linejoin:miter;stroke-miterlimit:4;stroke-dasharray:none;stroke-opacity:1"
         d="m 390.75833,362.61768 c 0.84012,0.66617 7.36027,-2.21654 1.84324,-2.6509 -0.61198,-0.0482 -1.89762,0.30054 -2.88043,0.31299 m -95.85375,139.53392 c 0,0 -12.67357,10.77254 -11.88146,16.00039 0.79208,5.22785 7.38386,19.26223 24.99935,9.4727 m 169.29537,60.31401 c 0,0 5.47233,-2.14156 6.89812,-5.94363 m 18.65882,-1.7132 c 0,0 -2.34162,8.84209 -8.36155,10.26785 -6.01994,1.42578 -11.74888,4.89603 -19.41932,3.39852 M 313.66987,503.61578 c 0,0 -3.01,6.17834 -3.01,8.39624 0,2.21787 0.1584,10.13883 0.1584,10.13883 0,0 -1.17081,4.21238 -3.83299,3.13593 m -8.52369,-30.70092 c 0,0 -1.42581,1.26736 -4.5942,5.22783 m 177.34766,75.29952 c 0,0 4.45624,-1.3556 3.34576,-3.2743 m -74.07706,-234.7221 c -0.15841,0.79211 -0.15841,7.76256 -0.15841,7.76256 0,0 -10.13886,-0.1584 -10.93095,0.79211 l -10e-6,-8.0794 c 0,0 10.13886,-1.4258 11.08937,-0.47527 z m 12.42121,-3.02421 c 0,0 -10.71333,-9.38665 -25.66661,-0.5673 m 37.90505,16.58994 c -5.12321,-3.00194 -13.57028,0.9425 -13.57028,0.9425 0,0 -2.75995,-18.37285 5.91157,-21.96506 3.0846,-1.27781 9.27615,-6.35871 15.24021,-0.17536 m -46.49149,22.97121 c 0,0 20.40402,-2.15693 25.33971,-0.83079 m 1.42579,8.0794 c 0,0 -8.71305,-3.64366 -8.39624,0.95052 m 8.39624,-0.95052 c 0,0 -5.06944,2.69311 -8.39624,0.95052 m 7.12886,21.38664 c 0,0 -8.36525,3.35474 -11.88146,0.31684 m 11.88146,-0.31684 c 0,0 -11.08935,0.95052 -11.88146,0.31684 M 401.132,371.772 c 0,0 2.8565,-3.02453 4.25675,0.112 1.40026,3.13656 -1.06418,2.24041 -1.06418,2.24041 0,0 -2.57646,-0.72813 -3.58463,0.112 -1.00817,0.84016 -4.64881,2.52045 -5.20891,0.056 -0.56009,-2.46441 -0.22404,-11.08994 0.28007,-13.10628 0.50408,-2.01636 -0.056,-2.18437 -0.056,-2.18437 m -7.50535,-2.9685 -0.2881,-0.77338 m 5.15559,3.08515 0.45344,-0.96756 c 0,0 -1.77832,-1.89031 -5.32093,-1.34421 m 0.67969,2.12545 c 0,0 1.09863,-1.39787 4.1878,0.18632 m 88.19436,93.07812 c 0,0 0.28297,-24.00719 -9.69746,-34.6213 -9.98043,-10.6141 -3.32682,-12.03989 -14.89144,-17.10931 0,0 -2.37631,-6.17835 -7.44573,-7.92097 0,0 -8.03436,-8.30799 -13.96339,-11.6414 m 66.29996,190.42051 c 0,0 1.05082,-17.66642 -0.53338,-16.24066 m -10.45567,-70.97194 c 0,0 5.22782,5.70309 3.80206,13.14882 -0.31685,0.7921 4.59416,2.53471 5.86152,21.38664 1.26735,18.85193 -1.29758,20.29961 0.79209,36.4365 M 482.7035,452.60468 c 0,0 3.80206,1.42576 7.92099,30.7334 m -16.47564,14.57458 c 0,0 1.5842,0.63367 1.5842,2.85154 0,2.2179 1.74259,14.4162 4.59417,23.44612 2.85155,9.02991 7.76256,19.80243 7.60413,27.08974 -0.15841,7.28729 -0.88035,9.61692 -0.88035,9.61692 m -25.1503,-95.31396 c 0,0 5.27768,14.0914 12.24815,32.30964 m -11.87559,-47.69765 c 0,0 14.09346,-4.10554 20.43024,2.38967 M 335.55439,417.12761 c 0,0 -12.06254,14.40726 -16.49829,19.79354 -4.43574,5.38626 -6.65361,7.28729 -6.65361,7.28729 0,0 -3.00998,4.27733 -4.91101,10.61411 -1.90103,6.33677 -5.22785,20.11929 -9.02991,39.76331 m 56.95184,-56.7142 c 0,0 -16.55485,12.99039 -19.88167,14.89142 -3.32682,1.90106 -3.80206,5.38629 -3.80206,5.38629 0,0 -6.3368,16.15879 -9.18835,20.2777 -2.85155,4.1189 -7.92097,21.54505 -8.87148,25.18871 m 53.30816,74.02153 c 0,0 -3.88128,-6.69322 -10.05965,-4.79219 -6.17834,1.90103 -13.46092,7.41569 -13.9409,9.822 l -0.63055,2.40881 m 122.69226,-18.16589 c 0,0 6.69716,-1.5113 9.52164,4.92887 m -44.63546,-8.47093 c 0,0 -2.00854,17.59112 -1.06244,18.15592 m 33.45292,-13.36969 c 0,0 -1.61713,4.06303 -0.17721,6.18173 m 15.05466,-3.11314 -2.63247,0.61611 m -28.68984,-10.32079 c 0,0 12.55903,-3.84969 19.1682,5.39192 0,0 -3.02455,1.79232 -5.48898,1.79232 -2.46443,0 -5.99304,-1.62428 -6.55314,-0.44808 -0.5601,1.17621 -2.35241,2.24039 -2.57645,3.9767 -0.22404,1.7363 -0.056,5.04087 -0.056,5.04087 0,0 9.84844,-3.95741 13.27432,-2.68846 3.42588,1.26894 7.57613,0.52983 7.57613,0.52983 m -33.91603,5.3483 0.55581,-13.17951 m -67.23509,17.30175 c 0,0 -2.05754,-5.28304 -3.64173,-6.94645 m 18.45075,6.65149 -0.43053,-3.04744 c 0,0 -8.9903,-0.15844 -10.17844,0.27723 0,0 -0.35646,-2.69313 -4.23774,-6.05954 -3.88128,-3.36642 -6.69322,-7.52495 -11.68344,-7.52494 m 0,0 c -13.90132,0.79208 -16.3172,9.02991 -16.3172,9.02991 l -2.17828,3.84169 c 0,0 -5.81339,-1.0964 -4.94635,4.38261 m 29.85782,-144.46511 -0.0805,2.13966 m 50.06187,34.77209 c 0,0 13.82832,13.02364 14.66451,5.28447 m -14.66451,-5.28447 c 0,0 0.71292,-7.921 11.08938,-26.06002 m 0,0 6.81205,-10.85173 c 0,0 3.48522,-5.6239 10.05964,-5.38628 6.5744,0.23765 13.7825,3.64366 13.7825,3.64366 0,0 5.46547,6.57442 5.22785,11.72305 -0.23765,5.14864 -0.55449,25.90158 -0.55449,25.90158 0,0 -1.50498,14.65382 -2.77233,21.46587 -1.26735,6.81204 0.47527,9.34675 -2.29709,17.18853 -2.77233,7.84175 -5.54469,21.30741 -5.54469,21.30741 0,0 -4.35652,13.30725 -4.75258,16.9509 -0.39605,3.64366 -0.47524,8.00019 -0.47524,8.00019 0,0 -6.25758,3.32682 -7.76256,5.46547 -1.505,2.13865 -5.62391,0 -5.62391,0 0,0 -2.69314,-2.77233 -2.61392,-4.03969 0.0792,-1.26735 0.63367,-23.84214 0.63367,-23.84214 m 0,0 c 0.39606,-2.13868 0.31684,-16.47564 0.31684,-16.47564 0,0 -2.21787,-22.49559 -1.66341,-29.30761 0.55449,-6.81205 1.42579,-24.07979 4.19812,-28.19869 m -70.68298,69.69296 9.77066,6.82369 c 0,0 8.47546,4.75258 20.04008,2.77233 0,0 5.46547,-2.85154 9.66359,0.15843 4.19812,3.00998 20.67375,3.64365 28.3571,-5.46547 M 408.17632,490.7875 c 0,0 -9.52238,-5.27918 -14.90464,-1.73053 m 22.02429,-11.42201 c 0,0 -9.18832,12.67357 -10.29727,25.50555 m -18.97097,-26.00077 c 0,0 4.00034,2.23784 13.42631,26.55523 M 384.6919,476.76723 c 0,0 2.80143,-1.19171 0.30633,3.04602 m 49.62763,-109.77758 v -2.91248 c 0,0 4.92886,-5.15292 2.68847,-13.66639 -2.24038,-8.51348 -5.60098,1.12019 -5.60098,1.12019 m 5.37694,-6.94521 c 0,0 2.01638,5.15291 1.79232,6.49715 -0.1143,0.6858 0.0722,4.95323 -0.36101,7.66699 -0.4159,2.60541 -0.71334,4.94763 -3.89574,8.23977 m -2.91251,-15.4587 c 0,0 -3.58463,2.24039 -5.1529,6.94521 m -23.86016,31.47749 c 0,0 0.11203,6.83321 6.94521,6.16109 6.83319,-0.67212 18.70727,-15.57073 18.70727,-15.57073 0,0 1.34421,-5.48895 1.34421,-13.44235 m -41.44723,-14.11444 c 0,0 1.0082,3.5846 2.57646,6.72116 1.56827,3.13656 0.78415,8.84955 3.69666,12.77022 2.9125,3.92068 4.70482,12.54621 8.17742,17.47505 m 5.1529,9.85772 c -2.12836,-1.79232 -1.23222,-3.58463 -1.23222,-3.58463 m 20.27553,12.09813 c 0,0 -7.39328,4.0327 -19.04331,-8.5135 m 28.90103,-12.88225 c 0,0 -5.37692,7.50533 -9.85772,21.39575 m 7.72936,-41.33524 c 0,0 0.33604,11.42601 2.12836,19.93949 M 426.56045,361.5222 c 0,0 -3.36058,-5.15289 -4.0327,-11.20196 l -7.84138,2.68849 c 0,0 -2.68847,1.34423 -8.96157,1.56827 -6.27309,0.22404 -21.17169,0 -32.1496,2.91251 -1.9119,0.50724 -1.81343,-0.29878 -0.50335,-1.01661 1.33793,-0.73309 3.92026,-1.38863 5.04554,-1.86191 4.09962,-1.72426 8.11601,-2.72246 8.11601,-2.72246 0,0 -1.56827,-8.73752 1.34424,-19.71544 2.91251,-10.97791 19.74921,-14.67786 19.74921,-14.67786 0,0 13.85665,-2.57315 21.69802,5.94034 7.84137,8.51348 8.06542,24.19621 8.06542,24.19621 0,0 -4.03269,2.01632 -14.56254,2.68846 m 55.1136,223.59102 c 0.67212,-2.68846 -0.44807,-2.68846 -0.44807,-2.68846 0,0 3.58462,-8.73754 9.85771,-10.30581 m -9.40964,15.68273 v -2.68846 c 0,0 -46.60012,9.18559 -79.7579,10.08176 -33.15778,0.89615 -121.65322,2.01634 -123.44553,2.24039 -1.79232,0.22405 -23.35362,-2.55564 -17.72587,11.26837 m 217.34467,-5.89143 c 0,0 -65.86748,15.68274 -146.96964,19.71544 -81.10215,4.0327 -74.15691,-19.93949 -65.64344,-20.61161 8.51348,-0.67212 144.50521,2.68849 216.19771,-14.11446 0,0 -0.22404,2.46445 -1.12019,4.70484 -0.89616,2.24039 -3.58463,1.79231 -3.13656,2.91251 0.44808,1.12019 0.67213,1.34423 2.46444,1.34423 1.79231,0 0.67212,1.56827 -3.36059,1.34423 -4.0327,-0.22403 -2.01635,3.80867 -0.44808,3.80867 1.56828,0 2.01635,0.89615 2.01635,0.89615 z m 28.00489,-18.14716 -0.44807,-2.91251 3.36058,-0.22405 c 0,0 1.56829,-0.89617 4.92887,1.79231 m -7.84138,1.34425 7.84138,-1.34425 -8.0654,5.82502 z M 354.75592,443.52052 c 1.92482,-0.46061 8.45964,-1.96562 12.97459,0.13346 4.51496,2.09904 10.77252,3.16838 13.82211,16.19838 3.04958,13.03002 3.44561,19.96089 3.44561,19.96089 0,0 -9.75545,11.7547 -14.79876,10.62993 m -28.75573,88.52728 1.45451,-23.94755 c 0,0 -1.82182,-22.97084 -3.16839,-29.30761 -1.34657,-6.33678 -2.67303,-12.40661 -2.56101,-20.35999 0.11203,-7.95341 5.1529,-32.93376 6.60916,-37.41453 1.45624,-4.4808 2.24039,-20.05151 10.97791,-24.42026 m 19.66781,20.41116 c 0,0 1.98025,15.84196 -1.50497,20.91138 -3.48523,5.06941 -5.06942,13.46565 -4.59418,19.72323 0.47527,6.25756 -2.13865,18.13902 -2.77233,20.27771 -0.63368,2.13865 -3.16839,8.63386 -3.80209,16.00036 -0.63368,7.36651 -3.32679,11.08938 -2.85155,27.08975 m -3.4852,-130.06245 c 1.82179,-1.02973 6.01991,-6.25758 7.84175,-4.91101 1.82182,1.34657 2.21787,2.85155 2.05944,7.76256 m -15.68353,-36.75333 c 0,0 -14.63194,12.27811 -14.09933,13.38644 0.66126,1.37602 14.7925,7.37017 19.88166,20.51535 m 38.80668,-62.78078 -26.21234,12.0469 c 0,0 -6.41599,0.67328 -18.37667,16.83208" />
      <path
         style="fill:#8892b0;fill-opacity:0.933333;stroke:#00e696;stroke-width:0.291042;stroke-miterlimit:4;stroke-dasharray:none;stroke-opacity:1"
         d="m 441.491,563.69953 c 3.99148,-3.07303 4.25672,-3.53537 4.25672,-7.41913 0,-2.27801 1.15983,-8.12621 2.57741,-12.99594 1.41756,-4.86974 3.04121,-10.87042 3.60808,-13.33485 0.56687,-2.46441 1.99898,-7.90856 3.18243,-12.0981 2.55006,-9.02735 5.57705,-35.09713 6.34728,-54.66553 l 0.54673,-13.89042 -2.5496,-4.87673 c -2.24147,-4.28736 -3.08872,-5.06804 -7.01077,-6.45985 -5.49384,-1.94964 -11.34108,-2.08505 -14.7141,-0.34081 -4.21304,2.17866 -16.47833,23.06106 -20.18099,34.35938 -1.49934,4.57513 -1.49559,4.82958 0.0976,6.59001 2.4057,2.65827 9.09874,6.3862 10.50013,5.84843 0.74919,-0.2875 1.43362,-2.76738 1.81843,-6.58876 0.7352,-7.30057 2.10751,-12.84894 3.17804,-12.84894 0.42564,0 0.22167,1.83491 -0.45328,4.0776 -2.43102,8.07765 -3.38553,26.31057 -2.19152,41.86176 0.73559,9.58069 0.8868,20.62327 0.4527,33.06168 -0.57618,16.50982 -0.48136,18.93637 0.8174,20.91852 2.00422,3.05885 4.60421,2.73823 9.71731,-1.19832 z"
         id="path1480" />
      <path
         style="fill:#8892b0;fill-opacity:0.933333;stroke:#00e696;stroke-width:0.291042;stroke-miterlimit:4;stroke-dasharray:none;stroke-opacity:1"
         d="m 488.59815,589.06789 c 7.67739,-2.44832 8.65116,-3.14404 11.08887,-7.92237 1.70448,-3.341 1.78753,-4.55501 1.19989,-17.535 -0.34727,-7.67001 -0.74801,-22.01088 -0.89056,-31.8686 -0.26477,-18.31126 -1.61928,-27.9726 -4.54846,-32.44311 -0.71924,-1.0977 -1.30773,-3.3423 -1.30773,-4.98795 0,-1.64569 -0.95914,-4.98685 -2.1314,-7.42482 -1.17229,-2.43798 -3.01321,-9.27196 -4.09094,-15.18659 -2.10987,-11.57902 -4.04299,-16.92442 -7.10377,-19.64286 -2.16281,-1.9209 -9.69812,-2.90042 -14.86126,-1.9318 l -3.17809,0.59621 v 7.67567 c 0,7.20945 0.33099,8.55427 5.44901,22.13928 2.99697,7.95497 6.0215,15.35674 6.72119,16.44839 0.69966,1.09164 1.27214,2.84303 1.27214,3.89194 0,4.08684 3.80596,20.27442 6.80273,28.93355 4.76214,13.76011 5.94972,19.70951 5.24598,26.28099 -0.40071,3.74161 -1.00357,5.67235 -1.77115,5.67235 -0.64003,0 -2.81101,1.87151 -4.82447,4.15888 -3.3729,3.83183 -3.66077,4.56224 -3.66077,9.28879 0,3.83283 -0.46961,5.72693 -1.85735,7.49115 -2.8175,3.58185 0.0684,3.08287 4.08641,-0.70657 2.04089,-1.92482 3.14828,-2.52495 2.97223,-1.61073 -0.40945,2.126 -7.66575,7.36701 -10.19983,7.36701 -2.85424,0 -2.77844,1.60562 0.12801,2.71065 3.50835,1.33387 8.24325,0.90676 15.45932,-1.39446 z"
         id="path1482" />
      <path
         style="fill:#8892b0;fill-opacity:0.933333;stroke:#00e696;stroke-width:0.291042;stroke-miterlimit:4;stroke-dasharray:none;stroke-opacity:1"
         d="m 304.4738,525.96268 c 2.39329,-0.8749 4.70593,-2.15048 5.13916,-2.83461 0.43325,-0.68411 0.79391,-3.81445 0.80145,-6.9563 0.0108,-4.5108 1.04677,-8.80658 4.92474,-20.42161 2.70108,-8.09003 5.89106,-16.40771 7.08888,-18.48377 1.19782,-2.07605 4.05903,-8.23958 6.35823,-13.69677 l 4.18037,-9.92212 7.77407,-5.54087 c 4.27574,-3.04748 9.13598,-6.67939 10.80058,-8.07094 2.7753,-2.32008 2.93191,-2.71023 1.88667,-4.70051 -2.36636,-4.50599 -6.62766,-9.06526 -12.16793,-13.01872 l -5.7291,-4.08821 -2.46965,2.95511 c -1.35829,1.62528 -6.99501,8.33242 -12.52604,14.9047 -11.56714,13.74476 -12.02254,14.79095 -17.64859,40.54272 -1.77644,8.13126 -3.43085,15.67387 -3.67649,16.76136 -0.24562,1.08749 -3.86784,5.64187 -8.0494,10.12087 -4.18153,4.47898 -7.86953,9.20637 -8.19555,10.50529 -0.78759,3.13801 2.75273,9.81856 6.37337,12.02651 3.40571,2.0769 9.31693,2.04483 15.13523,-0.0822 z"
         id="path1484" />
      <path
         style="fill:#8892b0;fill-opacity:0.933333;stroke:#00e696;stroke-width:0.291042;stroke-miterlimit:4;stroke-dasharray:none;stroke-opacity:1"
         d="m 344.81782,572.64118 c 1.6043,-1.77274 6.62308,-4.14266 10.55061,-4.98211 2.22938,-0.47649 2.40864,-0.90046 2.96386,-7.01019 0.78441,-8.63132 3.98794,-28.11934 5.10472,-31.05352 2.06203,-5.41766 3.63966,-14.69631 4.28236,-25.1862 0.59685,-9.74202 1.05444,-12.0391 3.51107,-17.62525 2.50032,-5.68548 2.83689,-7.43546 2.93019,-15.23466 0.0973,-8.13706 0.16777,-8.46845 0.92048,-4.33057 1.07175,5.89171 0.17338,14.2638 -1.9844,18.49345 -0.95147,1.86505 -1.72995,3.62286 -1.72995,3.90629 0,1.14027 4.27646,-1.78314 8.28945,-5.66672 4.98597,-4.82518 5.05656,-5.35742 2.42406,-18.27536 -1.90016,-9.32424 -3.95386,-14.43578 -6.80948,-16.9485 -3.48954,-3.07049 -9.21748,-5.2573 -13.77056,-5.2573 -9.81978,0 -12.50903,3.96584 -17.31905,25.54045 -6.40194,28.715 -7.35957,39.43957 -4.66532,52.24756 2.37368,11.28416 4.0771,32.47883 3.46713,43.1398 -0.31189,5.45105 -0.36634,9.911 -0.12097,9.911 0.24535,0 1.12546,-0.75068 1.9558,-1.66817 z"
         id="path1486" />
      <path
         style="fill:#8892b0;fill-opacity:0.933333;stroke:#00e696;stroke-width:0.291042;stroke-miterlimit:4;stroke-dasharray:none;stroke-opacity:1"
         d="m 426.84411,409.19254 c 2.19535,-5.76792 5.60321,-13.35644 7.25657,-16.15866 1.72519,-2.92394 1.7957,-3.72754 0.93173,-10.61782 -1.30606,-10.41599 -1.17049,-14.75682 0.56454,-18.07583 2.94074,-5.62547 1.13887,-16.20942 -2.01393,-11.82956 -0.70958,0.98576 -2.09108,2.80049 -3.06993,4.03271 -0.97888,1.23221 -2.35898,3.04691 -3.0669,4.0327 -1.22983,1.71257 -1.36876,1.6129 -3.12314,-2.24039 -1.00981,-2.218 -1.84489,-4.73842 -1.85571,-5.60099 -0.0238,-1.90268 0.19669,-1.8972 -4.61182,-0.11441 -2.15675,0.79962 -8.60706,1.90863 -14.33407,2.46444 l -10.41273,1.01055 0.82507,2.21882 c 0.67932,1.82687 0.9811,1.98517 1.70834,0.89617 0.59703,-0.89403 0.71377,1.00071 0.36023,5.84658 -0.65344,8.95641 -0.20111,9.71828 5.21433,8.78234 3.28708,-0.56808 3.98222,-0.98403 3.3483,-2.00353 -0.69519,-1.11805 -1.00417,-1.11805 -2.35828,0 -1.36155,1.12416 -1.5022,1.11689 -1.11422,-0.0576 0.59008,-1.78642 3.46793,-2.28021 4.43114,-0.76031 1.36692,2.15696 0.84066,3.44876 -1.40499,3.44876 -1.73582,0 -5.59975,1.19529 -7.47546,2.31249 -0.42138,0.25096 4.47585,12.29371 5.79144,14.24176 0.65656,0.97224 1.19377,2.422 1.19377,3.2217 0,1.94183 2.84264,4.42026 5.06982,4.42026 4.11419,0 17.11273,-11.2825 19.13917,-16.61248 0.48586,-1.27791 0.88339,-4.51519 0.88339,-7.19399 0,-2.88896 0.3936,-4.87051 0.96748,-4.87051 1.27733,0 0.12978,11.27649 -1.45915,14.33849 -1.21052,2.33281 -8.81976,9.94297 -13.29558,13.2972 -1.4219,1.06561 -3.74071,1.93746 -5.1529,1.93746 -1.41219,0 -2.56762,0.3519 -2.56762,0.78203 0,1.17298 7.46723,7.82418 10.60691,9.44775 4.11149,2.12616 8.08805,1.86348 9.0242,-0.59611 z m -26.63604,-26.54012 c -0.73001,-0.46289 1.28477,-0.97727 5.28384,-1.34893 6.89465,-0.6408 8.69783,-0.24209 5.21179,1.15237 -2.68624,1.0745 -8.92675,1.19139 -10.49563,0.19656 z m 4.07951,-22.16397 c -0.29464,-0.29462 -0.31872,-1.10117 -0.0535,-1.79229 0.76351,-1.98964 9.25203,-1.47048 9.25203,0.56584 0,1.33366 -8.0218,2.40321 -9.19853,1.22645 z"
         id="path1488" />
      <path
         style="fill:#8892b0;fill-opacity:0.933333;stroke:#00e696;stroke-width:0.291042;stroke-miterlimit:4;stroke-dasharray:none;stroke-opacity:1"
         d="m 409.55064,398.98899 c 2.29212,-0.25861 5.05601,-1.86341 8.82529,-5.12427 2.2428,-1.94027 6.10764,-5.95522 8.7888,-9.13006 1.16681,-1.38168 1.04905,-1.10559 1.43751,-3.3704 0.46291,-2.69891 0.73491,-5.40115 0.86905,-8.63386 0.0434,-1.04558 0.0785,-2.07925 0.078,-2.29708 v -0.39606 l -0.15455,0.24114 c -0.3852,0.60103 -0.53803,1.71977 -0.63259,4.63027 -0.13367,4.11464 -0.49789,6.46972 -1.22238,7.90422 -1.49688,2.96381 -5.89486,7.64228 -10.81998,11.51009 -2.68629,2.1096 -5.047,3.55047 -6.75415,4.12242 -0.65162,0.21831 -0.80097,0.23992 -1.44185,0.20865 -1.23542,-0.0603 -2.44403,-0.66752 -3.56648,-1.79181 -0.91244,-0.91395 -1.26097,-1.6047 -1.39213,-2.75887 -0.11067,-0.97398 -0.54919,-2.0982 -1.23872,-3.17568 -1.26331,-1.97406 -5.72578,-12.89659 -5.72578,-14.01467 0,-0.14618 0.11745,-0.23966 0.61389,-0.48863 1.99927,-1.00264 4.8744,-1.85503 6.63382,-1.96668 l 0.8713,-0.0553 -0.59407,-0.14795 c -0.7811,-0.1945 -2.32529,-0.27236 -2.73304,-0.1378 -0.16663,0.055 -0.56168,0.27551 -0.87783,0.49004 -1.16078,0.78756 -2.80006,1.2701 -3.7305,1.0981 -1.42708,-0.26382 -1.68778,-1.20621 -1.68822,-6.10317 0,-3.61728 0.21044,-6.80948 0.55962,-8.47546 0.16203,-0.77303 0.21971,-1.6497 0.11924,-1.81226 -0.0368,-0.0596 -0.17436,0.0382 -0.39206,0.27866 -0.28657,0.31654 -0.36576,0.36277 -0.54464,0.31787 -0.26575,-0.0667 -0.52078,-0.48943 -0.90107,-1.4936 l -0.29165,-0.77013 -0.17658,0.38116 c -0.0971,0.20963 -0.23286,0.40275 -0.30165,0.42913 -0.0688,0.0265 -0.35124,-0.0546 -0.62767,-0.17989 -1.07863,-0.48908 -2.30267,-0.62386 -2.95897,-0.32583 -0.17979,0.0816 -0.3496,0.18518 -0.37735,0.2301 -0.0698,0.11298 0.58465,1.84053 0.71644,1.89111 0.0587,0.0225 0.64868,-0.0379 1.31104,-0.13424 1.05719,-0.15381 1.28981,-0.16426 1.90399,-0.0855 0.82561,0.10588 1.5162,0.34533 1.68307,0.58359 0.0657,0.0938 0.11949,0.29398 0.11949,0.44476 0,0.22342 -0.0696,0.34129 -0.37624,0.63659 -0.59801,0.57605 -2.08878,1.23487 -3.00998,1.3302 -0.22871,0.0238 -0.41585,0.0605 -0.41585,0.0818 0,0.0214 0.0875,0.28144 0.19455,0.57809 0.25572,0.7089 0.54176,2.1137 0.83762,4.11361 0.32734,2.21258 0.57668,3.42302 0.94636,4.59414 0.40423,1.28059 0.78036,2.04502 1.61618,3.28481 1.13641,1.68563 2.00573,3.53698 3.53449,7.52734 1.50381,3.92515 2.08518,5.31485 2.9364,7.01887 0.5052,1.01135 1.31059,2.4175 1.5375,2.68433 0.0556,0.0654 0.12496,0.33269 0.1542,0.59407 0.0987,0.8826 0.3715,1.81769 0.77401,2.65354 0.3493,0.72533 0.48786,0.91826 1.08331,1.50857 0.76123,0.75467 1.33636,1.08567 2.31907,1.33464 0.71475,0.18111 1.7449,0.25051 2.48259,0.1673 z"
         id="path1490" />
      <path
         style="fill:#8892b0;fill-opacity:0.933333;stroke:#00e696;stroke-width:0.291042;stroke-miterlimit:4;stroke-dasharray:none;stroke-opacity:1"
         d="m 393.39399,356.95049 c 0,-0.0267 -0.0701,-0.22683 -0.15348,-0.44466 -0.13298,-0.3475 -0.1437,-0.39931 -0.0872,-0.42262 0.0354,-0.0145 2.408,-0.25164 5.27243,-0.52673 4.92541,-0.47302 8.05046,-0.79346 8.1388,-0.83458 0.0217,-0.0101 -0.24556,-0.01 -0.59407,0.003 -0.62624,0.0198 -2.33921,0.0595 -6.00014,0.13885 -3.95775,0.0858 -7.4189,0.22773 -10.17847,0.4173 -0.46832,0.0322 -1.02363,0.0698 -1.234,0.0837 l -0.38248,0.0251 0.084,0.23328 0.084,0.23331 0.33814,-0.0311 c 0.54951,-0.0505 1.48682,-0.0283 1.96193,0.0466 0.86027,0.13554 1.73263,0.46368 2.41478,0.90831 0.18579,0.1211 0.33692,0.19831 0.33586,0.17156 z"
         id="path1492" />
      <path
         style="fill:#8892b0;fill-opacity:0.933333;stroke:#00e696;stroke-width:0.291042;stroke-miterlimit:4;stroke-dasharray:none;stroke-opacity:1"
         d="m 472.15444,574.40891 c 0.69705,-0.32009 1.52723,-0.87431 1.84487,-1.23161 0.53141,-0.59777 0.53866,-0.72469 0.0907,-1.59094 -1.97646,-3.82209 -6.44451,-5.54117 -10.03318,-3.86032 -1.28546,0.60206 -1.62256,0.93673 -1.88111,1.86748 -0.36844,1.32622 -0.41,3.51917 -0.0761,4.01267 0.38576,0.57013 4.33782,1.39907 6.63469,1.39163 1.40494,-0.005 2.593,-0.2091 3.42011,-0.58891 z"
         id="path1494" />
      <path
         style="fill:#8892b0;fill-opacity:0.933333;stroke:#00e696;stroke-width:0.291042;stroke-miterlimit:4;stroke-dasharray:none;stroke-opacity:1"
         d="m 359.25442,584.52727 c 5.69272,-0.0966 10.45689,-0.28236 10.58704,-0.41267 0.37605,-0.37658 -2.24732,-5.27677 -3.97253,-7.4203 -2.10395,-2.61408 -4.92811,-4.08911 -7.29296,-3.80902 -3.30827,0.39182 -9.20096,3.54177 -12.71929,6.79913 -1.92781,1.78481 -2.55796,2.70209 -2.93418,4.2711 l -0.20891,0.8713 3.0952,-0.0619 c 1.70239,-0.034 7.75291,-0.14097 13.44563,-0.23762 z"
         id="path1496" />
      <path
         style="fill:#8892b0;fill-opacity:0.933333;stroke:#00e696;stroke-width:0.291042;stroke-miterlimit:4;stroke-dasharray:none;stroke-opacity:1"
         d="m 454.25302,575.62668 c 1.48122,-0.49535 3.70745,-1.06823 4.94718,-1.27304 l 2.25404,-0.37243 -0.14131,-1.31003 c -0.0777,-0.72051 -0.003,-1.91103 0.16528,-2.6456 l 0.30665,-1.33553 -1.33178,0.18253 c -0.7484,0.10258 -2.41292,-0.041 -3.79981,-0.32784 -1.35742,-0.28073 -2.57302,-0.51041 -2.70137,-0.51041 -0.12835,0 -0.85024,0.73157 -1.6042,1.62573 -1.03468,1.22709 -1.437,2.02343 -1.64063,3.24761 -0.31313,1.88235 -0.0792,3.69493 0.47112,3.65048 0.20995,-0.0169 1.59361,-0.43614 3.07483,-0.93147 z"
         id="path1498" />
      <path
         style="fill:#8892b0;fill-opacity:0.933333;stroke:#00e696;stroke-width:0.291042;stroke-miterlimit:4;stroke-dasharray:none;stroke-opacity:1"
         d="m 432.92262,580.7079 c 2.12207,-0.26141 3.9224,-0.54655 4.00074,-0.63367 0.0783,-0.0871 0.24532,-2.85208 0.37105,-6.14429 l 0.22863,-5.98586 -0.72022,0.18833 c -0.39611,0.10361 -1.44386,0.0358 -2.32831,-0.15076 -1.2536,-0.26437 -1.90622,-0.6477 -2.96027,-1.73881 -0.84452,-0.87421 -1.4025,-1.24672 -1.48629,-0.99225 -0.27459,0.83397 -1.16581,12.82288 -1.06664,14.34836 l 0.103,1.5842 z"
         id="path1500" />
      <path
         style="fill:#8892b0;fill-opacity:0.933333;stroke:#00e696;stroke-width:0.291042;stroke-miterlimit:4;stroke-dasharray:none;stroke-opacity:1"
         d="m 323.24006,611.22337 c 42.10536,-1.78073 94.11979,-8.24641 137.50526,-17.09267 9.38083,-1.91276 12.19256,-2.53601 12.40663,-2.75008 0.0775,-0.0775 -0.34512,-0.23215 -0.93924,-0.34362 -1.28768,-0.24156 -2.04074,-0.99338 -2.30162,-2.29785 -0.28654,-1.43275 0.38161,-1.88611 3.08965,-2.09635 3.08462,-0.23947 4.11213,-0.64857 2.17384,-0.86548 -1.1508,-0.1288 -1.50643,-0.32753 -1.90105,-1.06246 -0.44932,-0.8368 -0.44133,-0.93107 0.10726,-1.26735 2.19617,-1.34628 2.59813,-1.74652 3.07753,-3.06438 0.28366,-0.77981 0.59756,-1.84886 0.69755,-2.37567 l 0.18179,-0.95779 -8.13628,1.62771 c -23.87371,4.77613 -54.6168,8.08798 -93.68288,10.09219 -25.91069,1.3293 -43.67752,1.75851 -80.63554,1.948 -20.02499,0.10268 -33.03726,0.28916 -33.93994,0.48644 -0.95247,0.20814 -1.80353,0.67207 -2.43604,1.32789 -2.61509,2.71142 -2.08265,5.90682 1.52881,9.17501 5.56356,5.03473 18.28954,8.32948 36.3399,9.40843 4.86466,0.29078 21.00845,0.3557 26.86437,0.10803 z"
         id="path1502" />
      <path
         style="fill:#ccd6f6;fill-opacity:1;stroke:#00e696;stroke-width:0.291042;stroke-miterlimit:4;stroke-dasharray:none;stroke-opacity:1"
         d="m 323.24006,611.22337 c 42.10536,-1.78073 94.11979,-8.24641 137.50526,-17.09267 9.38083,-1.91276 12.19256,-2.53601 12.40663,-2.75008 0.0775,-0.0775 -0.34512,-0.23215 -0.93924,-0.34362 -1.28768,-0.24156 -2.04074,-0.99338 -2.30162,-2.29785 -0.28654,-1.43275 0.38161,-1.88611 3.08965,-2.09635 3.08462,-0.23947 4.11213,-0.64857 2.17384,-0.86548 -1.1508,-0.1288 -1.50643,-0.32753 -1.90105,-1.06246 -0.44932,-0.8368 -0.44133,-0.93107 0.10726,-1.26735 2.19617,-1.34628 2.59813,-1.74652 3.07753,-3.06438 0.28366,-0.77981 0.59756,-1.84886 0.69755,-2.37567 l 0.18179,-0.95779 -8.13628,1.62771 c -23.87371,4.77613 -54.6168,8.08798 -93.68288,10.09219 -25.91069,1.3293 -43.67752,1.75851 -80.63554,1.948 -20.02499,0.10268 -33.03726,0.28916 -33.93994,0.48644 -0.95247,0.20814 -1.80353,0.67207 -2.43604,1.32789 -2.61509,2.71142 -2.08265,5.90682 1.52881,9.17501 5.56356,5.03473 18.28954,8.32948 36.3399,9.40843 4.86466,0.29078 21.00845,0.3557 26.86437,0.10803 z"
         id="path1504" />
      <path
         style="fill:#ccd6f6;fill-opacity:1;stroke:#00e696;stroke-width:0.291042;stroke-miterlimit:4;stroke-dasharray:none;stroke-opacity:1"
         d="m 256.48831,594.42221 c 0.0716,-0.88042 1.73731,-2.80408 3.0349,-3.50493 0.8944,-0.48308 4.04276,-0.55026 35.04292,-0.74785 37.38103,-0.23823 55.48296,-0.6658 79.05133,-1.86716 44.13265,-2.24965 75.61001,-5.82856 102.49745,-11.65382 0.95594,-0.20711 1.12266,-0.38079 1.20822,-1.25881 0.0546,-0.56017 0.003,-1.01854 -0.11744,-1.01854 -0.11923,0 -3.79963,0.63455 -8.1787,1.4101 -23.86992,4.22744 -44.69833,6.92738 -62.29982,8.07572 -8.17013,0.53303 -53.64641,1.42976 -113.4284,2.2366 -13.67954,0.18463 -26.18683,0.47472 -27.79399,0.64464 -4.7439,0.50154 -7.99309,2.09267 -8.93958,4.37763 -0.20632,0.49814 -0.32086,1.60375 -0.25456,2.45698 0.0663,0.85323 0.14626,1.23547 0.17767,0.84944 z"
         id="path1506" />
      <path
         style="fill:#ccd6f6;fill-opacity:1;stroke:#00e696;stroke-width:0.291042;stroke-miterlimit:4;stroke-dasharray:none;stroke-opacity:1"
         d="m 505.20472,575.10381 c 1.59986,-1.15927 2.85285,-2.16379 2.78438,-2.23223 -0.0684,-0.0685 -1.03037,0.0303 -2.1376,0.21949 -3.5691,0.60984 -3.35614,0.47676 -3.59992,2.24936 -0.1215,0.88329 -0.16124,1.66563 -0.0883,1.73855 0.0729,0.0729 1.44155,-0.81592 3.04143,-1.97517 z"
         id="path1510" />
      <path
         style="fill:#ccd6f6;fill-opacity:1;stroke:#00e696;stroke-width:0.291042;stroke-miterlimit:4;stroke-dasharray:none;stroke-opacity:1"
         d="m 505.97702,572.53421 c 1.52479,-0.27536 2.77233,-0.60003 2.77233,-0.72152 0,-0.12153 -0.48493,-0.45104 -1.0776,-0.73229 -1.12511,-0.5339 -2.88912,-0.65267 -4.60277,-0.30996 -0.9013,0.18026 -0.9969,0.30467 -0.91091,1.18555 0.11674,1.19575 0.2703,1.21898 3.81895,0.57822 z"
         id="path1512" />
      <path
         style="fill:#000000;stroke:#00e696;stroke-width:0.291042;stroke-miterlimit:4;stroke-dasharray:none;stroke-opacity:1"
         d="m 446.78288,578.64418 c 2.61392,-0.43252 4.39616,-0.82333 3.96049,-0.86847 -1.40541,-0.14557 -0.97274,-5.7599 0.62339,-8.08932 1.4074,-2.05396 1.44341,-2.06505 6.29915,-1.94024 6.10574,0.15692 7.45585,-0.72922 4.62907,-3.03827 -3.00056,-2.45105 -7.49178,-3.69676 -12.01812,-3.33343 -3.11769,0.25027 -4.68461,0.79462 -7.53401,2.61734 -1.99697,1.27746 -3.87213,3.02331 -4.21455,3.92398 -0.3393,0.89241 -0.6169,3.88528 -0.6169,6.65075 v 5.02817 l 2.05946,-0.082 c 1.13268,-0.0451 4.19809,-0.43593 6.81202,-0.86847 z"
         id="path1518" />
      <path
         style="fill:#000000;stroke:#00e696;stroke-width:0.291042;stroke-miterlimit:4;stroke-dasharray:none;stroke-opacity:1"
         d="m 450.05591,578.43177 c 1.8733,-0.29199 6.54272,-1.05037 10.37648,-1.68529 l 6.97045,-1.15438 -1.25386,-0.19296 c -0.68963,-0.10612 -1.73437,-0.33893 -2.32166,-0.51731 -2.27082,-0.68972 -4.98108,-0.26562 -10.79548,1.68934 -2.18996,0.73633 -2.60366,0.92271 -2.39189,1.07754 0.15499,0.11335 0.19275,0.22635 0.0956,0.28638 -0.0882,0.0545 -1.18618,0.28255 -2.43988,0.50671 -2.85616,0.5107 -2.87039,0.51406 -2.20028,0.51779 0.30496,0.003 2.08717,-0.23582 3.9605,-0.52782 z"
         id="path1520" />
      <path
         style="fill:#000000;stroke:#00e696;stroke-width:0.291042;stroke-miterlimit:4;stroke-dasharray:none;stroke-opacity:1"
         d="m 475.77265,574.06538 c 1.6497,-0.31774 1.69005,-0.33579 1.78221,-0.79653 0.14814,-0.74076 0.11139,-1.29974 -0.10375,-1.57729 -0.18182,-0.23458 -0.29202,-0.23487 -1.34657,-0.003 l -1.14853,0.25217 v 0.55467 c 0,0.45088 -0.1339,0.68295 -0.71567,1.2404 -0.82624,0.79168 -0.84463,0.78771 1.53231,0.32988 z"
         id="path1522" />
      <path
         style="fill:#000000;stroke:#00e696;stroke-width:0.291042;stroke-miterlimit:4;stroke-dasharray:none;stroke-opacity:1"
         d="m 339.45133,584.92036 2.71637,-0.0508 0.34708,-1.30328 c 0.47432,-1.78102 0.84894,-2.36149 2.61192,-4.04689 2.56198,-2.44927 7.27543,-5.31865 10.85622,-6.60889 1.69292,-0.61 3.83572,-0.71406 5.33033,-0.25887 1.9749,0.60148 3.60807,1.8651 5.3454,4.13594 0.63747,0.8332 1.44529,2.02158 1.79518,2.64081 0.64513,1.14175 1.97342,3.9629 2.17482,4.61915 l 0.11012,0.35877 3.27581,-0.0831 c 1.80168,-0.0457 5.04827,-0.12631 7.21463,-0.17912 l 3.93885,-0.096 -0.10271,-0.81336 c -0.0565,-0.44733 -0.14581,-1.05579 -0.19849,-1.35207 l -0.0958,-0.53875 -4.61167,0.10261 c -2.5364,0.0564 -4.80682,0.14661 -5.04534,0.20037 -0.33615,0.0758 -0.45495,0.0314 -0.52829,-0.19754 -0.69329,-2.16413 -1.55932,-3.2775 -5.43849,-6.99188 -4.54525,-4.35221 -5.62986,-5.17602 -7.77809,-5.90799 -2.51254,-0.85609 -8.42145,0.0862 -12.06704,1.92434 -2.92635,1.4755 -5.29212,3.76084 -6.35019,6.13429 -0.1955,0.4386 -0.81349,1.6052 -1.37329,2.59247 l -1.01783,1.79504 -1.35847,0.007 c -1.0781,0.006 -1.49435,0.0784 -2.01679,0.35202 -1.12628,0.58981 -1.71773,1.69966 -1.60809,3.01763 0.0566,0.68014 -0.32403,0.62632 3.87385,0.54779 z"
         id="path1524" />
      <path
         style="fill:#000000;stroke:#00e696;stroke-width:0.291042;stroke-miterlimit:4;stroke-dasharray:none;stroke-opacity:1"
         d="m 430.87131,580.89666 c 3.87262,-0.51459 5.79885,-0.81349 5.90468,-0.91631 0.14719,-0.14295 0.37195,-3.75756 0.52316,-8.41293 l 0.1106,-3.40601 -1.48699,-0.0135 c -2.02046,-0.0183 -2.85692,-0.35918 -4.48974,-1.83015 -1.25984,-1.13496 -1.26016,-1.13512 -1.37311,-0.71287 -0.30676,1.1471 -1.11641,13.28021 -0.97666,14.63591 0.0966,0.93673 -0.0159,0.89548 1.78806,0.65577 z"
         id="path1526" />
      <path
         style="fill:#000000;stroke:#00e696;stroke-width:0.291042;stroke-miterlimit:4;stroke-dasharray:none;stroke-opacity:1"
         d="m 436.12498,367.56296 c 1.56898,-2.32648 2.13784,-4.69104 2.36839,-9.84446 0.18291,-4.08851 0.14976,-4.43355 -0.67434,-7.02168 l -0.86672,-2.72187 -1.01082,0.42235 c -1.44539,0.60391 -7.36682,1.7022 -10.45898,1.93987 l -2.6334,0.20244 0.27088,1.46201 c 0.37634,2.03128 1.3997,4.94768 2.44512,6.9682 l 0.88175,1.70413 0.98756,-1.74988 c 0.54316,-0.96242 1.68865,-2.44216 2.54553,-3.28832 0.85688,-0.84614 1.9181,-2.25134 2.35823,-3.12264 1.03781,-2.05441 1.84352,-2.76773 2.9794,-2.63769 1.12056,0.1283 1.82547,1.45397 2.52188,4.74274 0.82076,3.87607 0.15666,7.69922 -1.94311,11.18616 -0.69588,1.15563 -1.09863,2.19774 -1.04084,2.69315 0.0863,0.73975 0.19367,0.66071 1.26947,-0.93451 z"
         id="path1528" />
      <path
         style="fill:#ccd6f6;fill-opacity:1;stroke:#00e696;stroke-width:0.291042;stroke-miterlimit:4;stroke-dasharray:none;stroke-opacity:1"
         d="m 391.09831,344.93078 c 0.0751,-0.0751 2.09497,-0.17285 4.48855,-0.21719 l 4.35197,-0.0806 v -2.27328 c 0,-1.25031 0.0939,-2.95791 0.20852,-3.79463 l 0.20852,-1.52135 -4.0898,0.20611 c -2.24938,0.11335 -4.62447,0.29768 -5.27794,0.40963 l -1.18814,0.20354 v 3.6022 c 0,3.28181 0.0516,3.6022 0.58087,3.6022 0.31949,0 0.64233,-0.0615 0.71745,-0.13661 z"
         id="path1530" />
      <path
         style="fill:#00e696;fill-opacity:1;stroke:#00e696;stroke-width:0.291042;stroke-miterlimit:4;stroke-dasharray:none;stroke-opacity:1"
         d="m 414.83027,349.64201 c 2.92892,-0.90445 7.5495,-1.04286 9.4486,-0.28297 1.10371,0.44161 1.54675,0.44153 4.52138,0 1.81375,-0.26972 4.33145,-0.79595 5.59483,-1.16941 l 2.29709,-0.67905 -0.003,-1.3004 c -0.005,-3.36178 -1.52154,-10.4992 -3.07046,-14.44925 -1.38232,-3.52518 -3.87858,-5.42388 -7.16976,-5.45346 -2.10384,-0.0191 -3.35855,0.382 -7.20061,2.30071 -5.25302,2.62335 -6.77683,5.09784 -7.59971,12.34107 -0.39577,3.48369 -0.11105,9.52678 0.446,9.46627 0.19701,-0.0214 1.42754,-0.36912 2.7345,-0.77272 z"
         id="path1532" />
      <path
         style="fill:#00e696;fill-opacity:1;stroke:#00e696;stroke-width:0.291042;stroke-miterlimit:4;stroke-dasharray:none;stroke-opacity:1"
         d="m 413.22822,332.75375 c 0.70001,-1.68994 2.90563,-3.43836 6.50045,-5.15294 3.02707,-1.44378 3.78261,-1.67424 5.88899,-1.79616 1.97948,-0.11459 2.69081,-0.0185 3.93417,0.5315 0.83479,0.36928 1.57983,0.67141 1.65563,0.67141 0.36642,0 -2.14797,-3.09994 -3.56979,-4.40114 -3.56674,-3.26416 -7.87334,-4.76488 -14.39341,-5.01571 -4.76785,-0.18343 -6.09902,0.0471 -11.08219,1.91882 -6.14085,2.30658 -11.43855,6.43943 -13.30103,10.37638 -0.52888,1.11794 -0.96171,2.2049 -0.96184,2.41543 -1.6e-4,0.2421 0.78595,0.0298 2.13842,-0.5775 7.3579,-3.30388 16.15861,-2.76752 21.98373,1.33982 l 0.83471,0.58857 z"
         id="path1534" />
      <path
         style="fill:#00e696;fill-opacity:1;stroke:#00e696;stroke-width:0.291042;stroke-miterlimit:4;stroke-dasharray:none;stroke-opacity:1"
         d="m 392.3347,351.02043 c 1.48122,-0.16356 6.32887,-0.32234 10.77252,-0.35287 l 8.0794,-0.0555 -0.0932,-5.25995 c -0.0713,-4.02293 0.0305,-5.81123 0.43288,-7.60412 0.83963,-3.74084 0.83995,-3.73936 -1.07487,-4.89551 -2.85567,-1.72426 -5.47097,-2.432 -9.61292,-2.60146 -3.31902,-0.13579 -3.99302,-0.0655 -6.63067,0.69106 -1.61486,0.46321 -3.80191,1.30016 -4.86011,1.85986 l -1.924,1.01767 -0.37592,2.05944 c -0.69411,3.80251 -1.0722,9.28526 -0.85638,12.41878 l 0.21395,3.10634 1.61811,-0.0432 c 0.88995,-0.0238 2.83004,-0.17698 4.31125,-0.34055 z m -3.16838,-9.38607 v -4.38356 l 3.88128,-0.37267 c 4.39613,-0.42209 6.89782,-0.46379 7.37664,-0.12292 0.20648,0.14697 0.28254,1.70431 0.20637,4.22516 l -0.12065,3.9924 -4.71241,0.21265 c -2.59184,0.11694 -5.03725,0.34306 -5.4342,0.50247 -0.39699,0.15941 -0.82871,0.29887 -0.95941,0.30993 -0.1307,0.0111 -0.23762,-1.95252 -0.23762,-4.36346 z"
         id="path1536" />
      <path
         style="fill:#00e696;fill-opacity:1;stroke:#00e696;stroke-width:0.291042;stroke-miterlimit:4;stroke-dasharray:none;stroke-opacity:1"
         d="m 377.12642,356.44045 c 4.6509,-1.00071 10.60149,-1.54395 20.75297,-1.89452 5.40211,-0.18656 10.96262,-0.52554 12.35671,-0.75327 1.39409,-0.22775 4.6319,-1.14348 7.19516,-2.03496 2.56323,-0.89149 4.88011,-1.6209 5.14864,-1.6209 0.2685,0 0.48818,-0.13231 0.48818,-0.29403 0,-0.16174 -0.74853,-0.38592 -1.66338,-0.49818 -1.81155,-0.2223 -5.62783,0.43511 -8.20071,1.41274 -1.2322,0.46818 -1.9271,0.52345 -3.97323,0.31599 -2.77982,-0.28186 -12.93133,0.13174 -19.43077,0.79169 -3.8169,0.38756 -4.86174,0.63878 -9.70661,2.33394 -2.98611,1.04479 -5.83766,2.12088 -6.33677,2.39128 -0.9044,0.48998 -0.9048,0.49155 -0.11541,0.46067 0.43563,-0.0169 2.004,-0.29173 3.48522,-0.61045 z"
         id="path1538" />
      <path
         style="fill:#00e696;fill-opacity:1;stroke:#00e696;stroke-width:0.291042;stroke-miterlimit:4;stroke-dasharray:none;stroke-opacity:1"
         d="m 416.93993,545.81287 c 4.79883,-0.9161 8.91003,-2.78583 11.6681,-5.30654 l 1.65593,-1.51344 0.2223,-7.21808 c 0.18375,-5.96662 0.11181,-8.48151 -0.41495,-14.50539 -1.36998,-15.66649 -1.51799,-21.28417 -0.78359,-29.7414 l 0.21651,-2.49322 -0.7167,0.38357 c -1.83015,0.97946 -6.46962,-1.32525 -11.76238,-5.84304 l -1.69397,-1.44595 -1.37684,2.14387 c -2.03424,3.16754 -5.58435,10.58463 -6.71303,14.02536 -0.54306,1.65547 -1.22222,4.32879 -1.50921,5.94071 -0.287,1.61193 -0.64731,2.93077 -0.80066,2.93077 -0.59648,0 0.81227,-6.77987 2.15289,-10.36114 l 0.73554,-1.96493 -2.43554,-0.93565 c -3.46041,-1.32937 -4.84368,-1.65102 -7.17751,-1.66894 -2.36369,-0.0182 -4.28792,0.5138 -4.28792,1.18536 0,0.25482 0.28427,1.02053 0.63172,1.70157 0.89379,1.75199 5.07137,11.90734 5.07137,12.32808 0,0.76147 -0.52951,0.28469 -0.9316,-0.83881 -3.1065,-8.6804 -11.0572,-24.47582 -12.32003,-24.47582 -0.14028,0 -0.49395,0.50088 -0.78587,1.1131 -0.6545,1.37247 -5.08823,6.03144 -7.6608,8.04995 -2.67608,2.09974 -3.92015,2.79707 -5.88873,3.30089 -1.63568,0.4186 -1.73148,0.50123 -2.12016,1.82899 -0.87616,2.9932 -1.34051,7.22619 -1.34175,12.23145 -0.003,7.70935 -1.25262,15.49067 -3.80207,23.655 -0.70059,2.24362 -1.35834,4.60796 -1.46166,5.25407 l -0.18785,1.17473 4.59973,3.20148 c 5.44893,3.79249 6.31859,4.26033 9.77834,5.26024 5.66187,1.63637 11.81259,1.80954 15.92948,0.44852 1.14136,-0.37732 2.8121,-0.64053 4.13353,-0.65119 1.94014,-0.0156 2.49561,0.1243 4.43575,1.1176 1.21983,0.62452 2.78818,1.29778 3.48522,1.49611 2.01592,0.57362 8.85701,0.68834 11.45641,0.19212 z"
         id="path1540" />
      <path
         style="fill:#2b4366;fill-opacity:1;stroke:#00e696;stroke-width:0.291042;stroke-miterlimit:4;stroke-dasharray:none;stroke-opacity:1"
         d="m 409.20804,487.64719 c 0.62642,-1.39287 2.17701,-4.28009 3.4458,-6.41599 1.75032,-2.94659 2.48044,-4.54713 3.02638,-6.63427 1.7951,-6.86282 7.05314,-17.78218 13.63833,-28.3227 4.5085,-7.21652 5.9019,-8.81666 8.90233,-10.22322 1.6071,-0.75337 2.15146,-0.83994 5.12493,-0.81499 3.64879,0.0306 6.62382,0.6727 11.28723,2.43607 2.47814,0.93705 2.75101,1.13247 3.93161,2.81554 1.65981,2.36622 3.48654,6.24099 3.70295,7.85455 0.19822,1.47783 0.1288,1.46273 3.73218,0.81167 4.89969,-0.88527 10.84419,-0.42252 13.88249,1.08071 l 1.25132,0.6191 -0.21979,-3.38704 c -0.65011,-10.0194 -2.55016,-18.42828 -5.4904,-24.29841 -1.39888,-2.79284 -2.52762,-4.43902 -4.74038,-6.91343 -2.46701,-2.75879 -3.94193,-5.02357 -5.78533,-8.8836 -1.77597,-3.71878 -2.74516,-4.69869 -6.3322,-6.40224 -1.71939,-0.81658 -2.06761,-1.14654 -3.03453,-2.87554 -1.3444,-2.40401 -3.42633,-4.58904 -5.25807,-5.51844 -0.76033,-0.38579 -2.73971,-2.00092 -4.39862,-3.58918 -3.17365,-3.03848 -7.47644,-6.59514 -9.20247,-7.60673 l -1.02389,-0.60004 0.21548,1.70899 c 0.11848,0.93996 0.43373,3.02049 0.70051,4.62341 l 0.48509,2.91444 -1.7806,3.02543 c -2.33804,3.97273 -4.27196,8.13602 -6.47647,13.94255 -1.7521,4.61483 -1.82663,4.7444 -2.88983,5.02356 -3.97225,1.04304 -9.94231,-1.25336 -14.9386,-5.74611 -3.53779,-3.1813 -4.68585,-4.65027 -4.70008,-6.01396 -0.0101,-0.96221 -0.19003,-1.28093 -1.01791,-1.80255 -1.3299,-0.83797 -2.35032,-2.40255 -2.62422,-4.02371 -0.12226,-0.72369 -0.63097,-1.98001 -1.13048,-2.7918 -0.49951,-0.8118 -1.97607,-4.14113 -3.28126,-7.39855 -1.30519,-3.25739 -2.745,-6.55725 -3.19961,-7.33298 -0.82552,-1.40865 -0.82783,-1.40989 -1.83012,-0.97806 -0.55195,0.23778 -6.42149,2.92105 -13.04341,5.96278 -6.62194,3.04173 -12.51445,5.6922 -13.09444,5.88992 -3.3132,1.1294 -9.93387,7.0892 -14.72468,13.25486 -1.64917,2.12244 -3.7487,4.27863 -6.30762,6.47783 -4.64574,3.99269 -10.08555,9.19837 -10.06644,9.63321 0.008,0.17426 1.72968,1.45746 3.82677,2.85155 7.10314,4.72202 11.79974,9.49521 14.5563,14.79365 1.47883,2.8425 1.11956,2.80681 3.78979,0.37667 3.11012,-2.83046 4.79509,-3.29079 6.15029,-1.68024 1.11231,1.32191 1.29231,2.13847 1.294,5.8697 l 0.003,3.20096 1.5842,0.55713 c 7.54388,2.65306 11.41429,6.32214 13.6052,12.89757 0.99565,2.9881 2.79397,11.17019 3.56383,16.21476 0.4572,2.99593 0.69419,3.81876 1.1738,4.07543 1.40306,0.75089 3.5039,3.74079 6.12725,8.72019 l 1.82739,3.46896 1.10895,-0.40071 c 2.55217,-0.92221 7.55651,-0.35219 11.25049,1.28145 1.00033,0.44239 1.91939,0.80434 2.0424,0.80434 0.123,0 0.73617,-1.13962 1.36257,-2.53249 z"
         id="path1542" />
    </g>
    <path
       style="fill:#ccd6f6;fill-opacity:1;stroke:none;stroke-width:0.134845"
       d="m 464.8076,180.80865 c -1.087,-0.14553 -2.61298,-0.56911 -3.50162,-0.97201 -0.59499,-0.26974 -0.63593,-0.321 -0.63593,-0.7959 0,-0.75053 0.34486,-2.01187 0.72232,-2.64205 0.4527,-0.7558 1.39483,-1.44556 2.49578,-1.8272 0.82503,-0.28599 1.16234,-0.31823 3.28379,-0.31388 2.5945,0.005 3.68015,0.16179 6.76456,0.97497 1.96872,0.51904 6.30485,1.99363 6.30485,2.14409 0,0.053 -0.91563,0.47875 -2.0348,0.94621 -5.07884,2.12141 -9.70691,2.98002 -13.39895,2.48577 z"
       id="path1632" />
    <path
       style="fill:#ccd6f6;fill-opacity:1;stroke:none;stroke-width:0.134845"
       d="m 425.66044,186.03166 c -0.22464,-0.36132 -1.94432,-4.384 -2.08928,-4.88725 -0.10521,-0.3652 -0.34828,-0.30137 3.07305,-0.80703 1.96876,-0.29098 2.82819,-0.35873 3.74351,-0.29514 1.59744,0.11099 3.00618,0.43501 3.88074,0.89262 0.62448,0.32671 0.72793,0.43774 0.76295,0.81855 0.0539,0.58602 -0.60557,1.35738 -1.87105,2.18866 -1.8471,1.21331 -5.17059,2.42357 -6.65541,2.42357 -0.52825,0 -0.6723,-0.057 -0.84451,-0.33398 z"
       id="path1634" />
  </g>
</svg>
