<svg xmlns="http://www.w3.org/2000/svg" width="2791.592" height="3520.655" viewBox="0 0 738.608 931.507"><path d="M425.382 186.566c2.118 1.77 18.552-5.887 4.646-7.041-1.542-.128-4.783.798-7.26.831M181.175 551.004s-31.943 28.616-29.947 42.503c1.996 13.887 18.61 51.167 63.01 25.162m426.698 160.214s13.793-5.688 17.387-15.788m47.028-4.55s-5.902 23.487-21.075 27.274c-15.172 3.787-29.612 13.005-48.945 9.028M231.086 561.104s-7.587 16.412-7.587 22.303c0 5.892.4 26.932.4 26.932s-2.952 11.19-9.662 8.33m-21.483-81.551s-3.594 3.366-11.58 13.886m446.995 200.02s11.232-3.6 8.433-8.697m-186.707-623.5c-.4 2.105-.4 20.62-.4 20.62s-25.554-.42-27.55 2.105V120.09s25.554-3.787 27.95-1.262zm31.307-8.033s-27.003-24.934-64.691-1.507m95.537 44.069c-12.913-7.974-34.203 2.503-34.203 2.503s-6.956-48.804 14.9-58.346c7.774-3.394 23.38-16.89 38.412-.466m-117.18 61.02s51.428-5.73 63.868-2.208m3.594 21.462s-21.961-9.679-21.163 2.525m21.163-2.525s-12.778 7.154-21.163 2.525m17.968 56.81s-21.084 8.911-29.946.841m29.946-.841s-27.95 2.525-29.946.841m3.23-26.614s7.2-8.034 10.73.298c3.529 8.332-2.683 5.951-2.683 5.951s-6.493-1.934-9.034.298c-2.542 2.231-11.718 6.695-13.13.148-1.41-6.546-.564-29.458.707-34.814 1.27-5.356-.141-5.803-.141-5.803m-18.917-7.885l-.726-2.054m12.994 8.195l1.143-2.57s-4.482-5.022-13.411-3.571m1.713 5.646s2.769-3.713 10.555.495m222.289 247.246s.713-63.771-24.442-91.966c-25.155-28.194-8.385-31.981-37.533-45.448 0 0-5.99-16.411-18.767-21.04 0 0-20.25-22.069-35.194-30.924m167.106 505.82s2.648-46.928-1.345-43.14M677.09 507.24s13.177 15.149 9.583 34.927c-.798 2.104 11.58 6.733 14.774 56.81 3.194 50.077-3.27 53.923 1.996 96.788m-46.317-270.163s9.583 3.787 19.964 81.638m-41.526 38.715s3.993 1.683 3.993 7.574c0 5.892 4.392 38.294 11.58 62.28 7.187 23.987 19.565 52.603 19.165 71.96-.399 19.358-2.219 25.546-2.219 25.546m-63.39-253.185s13.303 37.43 30.871 85.825m-29.931-126.701s35.521-10.906 51.493 6.348m-370.88-94.24s-30.404 38.271-41.584 52.579c-11.18 14.308-16.77 19.357-16.77 19.357s-7.586 11.362-12.378 28.195c-4.791 16.833-13.176 53.443-22.76 105.625m143.545-150.652s-41.726 34.507-50.11 39.556c-8.386 5.05-9.584 14.308-9.584 14.308s-15.971 42.923-23.158 53.864c-7.188 10.942-19.965 57.231-22.36 66.91m134.36 196.626s-9.783-17.78-25.355-12.73c-15.572 5.05-33.928 19.699-35.137 26.09l-1.59 6.4m309.239-48.256s16.88-4.014 23.999 13.093M524.1 719.826s-5.063 46.727-2.678 48.228m84.316-35.515s-4.076 10.793-.447 16.421m37.945-8.27l-6.635 1.637m-72.311-27.415s31.654-10.226 48.312 14.322c0 0-7.623 4.761-13.835 4.761-6.211 0-15.105-4.314-16.516-1.19-1.412 3.125-5.93 5.951-6.494 10.564-.565 4.612-.141 13.39-.141 13.39s24.822-10.512 33.457-7.142c8.634 3.371 19.095 1.408 19.095 1.408m-85.483 14.207l1.4-35.01m-169.462 45.96s-5.186-14.034-9.178-18.452m46.504 17.668l-1.086-8.095s-22.66-.42-25.654.737c0 0-.898-7.154-10.68-16.097-9.783-8.942-16.87-19.988-29.448-19.988m0 0c-35.038 2.104-41.127 23.986-41.127 23.986l-5.49 10.205s-14.652-2.912-12.467 11.642m75.255-383.748l-.203 5.684m126.178 92.366s34.854 34.595 36.961 14.038m-36.96-14.038s1.796-21.04 27.95-69.224m0 0l17.169-28.826s8.784-14.938 25.354-14.307c16.57.631 34.738 9.679 34.738 9.679s13.776 17.463 13.177 31.14c-.6 13.676-1.398 68.803-1.398 68.803s-3.793 38.925-6.987 57.02c-3.194 18.095 1.198 24.828-5.79 45.659-6.987 20.83-13.975 56.6-13.975 56.6s-10.98 35.348-11.979 45.027c-.998 9.678-1.197 21.25-1.197 21.25s-15.772 8.838-19.565 14.519c-3.794 5.68-14.175 0-14.175 0s-6.788-7.364-6.588-10.73c.2-3.367 1.597-63.334 1.597-63.334m0 0c.998-5.68.798-43.764.798-43.764s-5.59-59.756-4.192-77.851c1.397-18.095 3.593-63.964 10.58-74.905M354.596 643.974l24.626 18.125s21.362 12.625 50.51 7.365c0 0 13.775-7.575 24.356.42 10.581 7.996 52.107 9.68 71.473-14.518m-56.276-128.338s-24.001-14.023-37.567-4.597m55.511-30.34s-23.158 33.665-25.954 67.75m-47.815-69.066s10.083 5.944 33.84 70.54m-37.207-71.53s7.061-3.165.772 8.092M535.948 206.27v-7.736s12.423-13.688 6.776-36.303c-5.647-22.615-14.117 2.976-14.117 2.976m13.552-18.45s5.083 13.689 4.518 17.26c-.288 1.821.182 13.157-.91 20.366-1.048 6.92-1.798 13.142-9.819 21.887m-7.34-41.063s-9.036 5.95-12.988 18.448m-60.139 83.615s.283 18.151 17.505 16.366c17.223-1.785 47.151-41.361 47.151-41.361s3.388-14.58 3.388-35.707M419.06 169.076s2.54 9.522 6.494 17.854c3.952 8.331 1.976 23.507 9.317 33.922 7.34 10.414 11.858 33.326 20.61 46.419m12.988 26.185c-5.364-4.76-3.106-9.522-3.106-9.522m51.104 32.137s-18.635 10.712-47.998-22.615m72.843-34.22s-13.552 19.938-24.845 56.835m19.481-109.8s.847 30.351 5.364 52.966m-25.692-75.58s-8.47-13.688-10.165-29.757l-19.763 7.142s-6.776 3.57-22.587 4.166c-15.811.595-53.362 0-81.032 7.736-4.818 1.348-4.57-.793-1.268-2.7 3.372-1.948 9.88-3.689 12.717-4.946 10.333-4.58 20.456-7.232 20.456-7.232s-3.953-23.21 3.388-52.37c7.34-29.161 49.776-38.99 49.776-38.99s34.925-6.835 54.689 15.78c19.764 22.614 20.328 64.273 20.328 64.273s-10.164 5.356-36.704 7.141m138.911 593.932c1.694-7.141-1.13-7.141-1.13-7.141s9.036-23.21 24.846-27.376m-23.716 41.658v-7.141s-117.453 24.4-201.025 26.78c-83.572 2.381-306.62 5.357-311.137 5.952-4.518.595-58.862-6.789-44.677 29.932m547.804-15.65s-166.015 41.66-370.428 52.371C60.49 857.93 77.995 794.251 99.453 792.467c21.457-1.786 364.216 7.14 544.913-37.494 0 0-.565 6.547-2.823 12.498-2.26 5.951-9.035 4.761-7.906 7.737 1.13 2.975 1.694 3.57 6.212 3.57 4.517 0 1.694 4.166-8.47 3.571-10.165-.595-5.083 10.117-1.13 10.117 3.953 0 5.082 2.38 5.082 2.38zm70.585-48.204l-1.13-7.737 8.47-.595s3.953-2.38 12.424 4.761m-19.764 3.57l19.764-3.57-20.329 15.473zM334.64 401.472c4.85-1.223 21.322-5.221 32.701.355 11.38 5.575 27.152 8.416 34.838 43.028 7.686 34.612 8.684 53.023 8.684 53.023s-24.588 31.224-37.299 28.236m-72.477 235.158l3.666-63.613s-4.592-61.018-7.986-77.85c-3.394-16.833-6.737-32.956-6.455-54.083.283-21.127 12.988-87.483 16.658-99.386 3.67-11.902 5.647-53.263 27.67-64.868m49.571 54.219s4.991 42.081-3.793 55.547c-8.784 13.466-12.777 35.77-11.58 52.392 1.198 16.622-5.39 48.183-6.987 53.864-1.597 5.681-7.986 22.935-9.583 42.502-1.597 19.568-8.385 29.457-7.187 71.96m-8.784-345.49c4.591-2.734 15.173-16.621 19.764-13.044 4.592 3.577 5.59 7.574 5.191 20.62m-39.53-97.63s-36.878 32.615-35.536 35.56c1.667 3.654 37.284 19.577 50.11 54.495m97.81-166.767l-66.066 32s-16.171 1.79-46.317 44.712" fill="none" stroke="#00e696" stroke-width=".753" opacity=".629"/><path d="M553.251 720.706c10.06-8.163 10.729-9.39 10.729-19.707 0-6.052 2.923-21.586 6.496-34.522 3.573-12.936 7.665-28.875 9.094-35.422 1.429-6.546 5.038-21.007 8.021-32.136 6.428-23.98 14.057-93.23 15.998-145.21l1.378-36.898-6.426-12.954c-5.65-11.388-7.785-13.462-17.67-17.16-13.847-5.178-28.585-5.538-37.086-.905-10.619 5.788-41.533 61.258-50.865 91.27-3.78 12.153-3.77 12.83.246 17.506 6.063 7.06 22.933 16.963 26.465 15.535 1.888-.764 3.613-7.351 4.583-17.502 1.853-19.393 5.312-34.131 8.01-34.131 1.073 0 .559 4.874-1.142 10.831-6.128 21.457-8.533 69.89-5.524 111.2 1.854 25.449 2.235 54.781 1.141 87.822-1.452 43.855-1.213 50.301 2.06 55.566 5.052 8.126 11.605 7.274 24.492-3.183zM671.982 788.093c19.35-6.504 21.805-8.352 27.949-21.044 4.296-8.875 4.505-12.1 3.024-46.58-.875-20.373-1.885-58.467-2.245-84.653-.667-48.64-4.08-74.304-11.464-86.18-1.812-2.915-3.296-8.878-3.296-13.249s-2.417-13.247-5.372-19.723c-2.954-6.476-7.594-24.63-10.31-40.34-5.319-30.758-10.19-44.957-17.905-52.178-5.452-5.103-24.444-7.705-37.457-5.132l-8.01 1.584v20.39c0 19.15.834 22.722 13.733 58.808 7.554 21.131 15.177 40.793 16.94 43.693 1.764 2.9 3.207 7.552 3.207 10.338 0 10.856 9.593 53.856 17.146 76.857 12.003 36.551 14.996 52.355 13.222 69.811-1.01 9.939-2.53 15.068-4.464 15.068-1.613 0-7.085 4.971-12.16 11.047-8.5 10.179-9.226 12.119-9.226 24.674 0 10.181-1.184 15.213-4.682 19.9-7.101 9.514.173 8.188 10.3-1.878 5.144-5.113 7.935-6.707 7.491-4.278-1.032 5.647-19.32 19.569-25.708 19.569-7.194 0-7.003 4.265.323 7.2 8.842 3.543 20.776 2.409 38.964-3.704zM207.907 620.465c6.033-2.324 11.861-5.713 12.953-7.53 1.092-1.817 2.001-10.132 2.02-18.478.028-11.982 2.639-23.393 12.413-54.247 6.808-21.49 14.848-43.584 17.867-49.099 3.019-5.514 10.23-21.887 16.025-36.383l10.537-26.356 19.594-14.719c10.777-8.095 23.027-17.742 27.222-21.439 6.995-6.163 7.39-7.199 4.755-12.486-5.964-11.97-16.704-24.08-30.668-34.582l-14.44-10.86-6.225 7.85c-3.423 4.317-17.63 22.134-31.57 39.592-29.155 36.51-30.303 39.29-44.483 107.695-4.477 21.6-8.647 41.635-9.266 44.524-.62 2.888-9.749 14.986-20.288 26.884-10.54 11.898-19.835 24.455-20.657 27.905-1.985 8.336 6.938 26.082 16.064 31.947 8.584 5.517 23.483 5.432 38.147-.218zM309.592 744.458c4.044-4.709 16.693-11.004 26.592-13.234 5.62-1.266 6.071-2.392 7.47-18.621 1.978-22.928 10.052-74.695 12.867-82.489 5.197-14.39 9.173-39.038 10.793-66.903 1.504-25.878 2.658-31.98 8.85-46.818 6.301-15.103 7.15-19.751 7.385-40.468.245-21.615.423-22.495 2.32-11.504 2.701 15.65.437 37.89-5.002 49.125-2.398 4.954-4.36 9.623-4.36 10.376 0 3.03 10.779-4.736 20.893-15.052 12.567-12.818 12.745-14.231 6.11-48.546-4.79-24.768-9.966-38.346-17.163-45.02-8.795-8.157-23.232-13.966-34.708-13.966-24.75 0-31.528 10.535-43.652 67.844-16.135 76.277-18.549 104.765-11.758 138.787 5.983 29.974 10.276 86.275 8.739 114.594-.787 14.48-.924 26.326-.305 26.326.618 0 2.836-1.994 4.93-4.43zM516.335 310.285c5.533-15.322 14.122-35.48 18.29-42.923 4.348-7.767 4.525-9.902 2.348-28.205-3.292-27.668-2.95-39.199 1.423-48.015 7.412-14.943 2.87-43.058-5.076-31.423-1.789 2.618-5.27 7.439-7.738 10.712-2.467 3.273-5.946 8.094-7.73 10.712-3.1 4.55-3.45 4.285-7.872-5.951-2.545-5.892-4.65-12.587-4.677-14.878-.06-5.054.496-5.04-11.624-.304-5.436 2.124-21.693 5.07-36.128 6.546l-26.245 2.685 2.08 5.894c1.712 4.852 2.473 5.273 4.306 2.38 1.505-2.375 1.799 2.658.908 15.53-1.647 23.792-.507 25.816 13.142 23.33 8.285-1.51 10.037-2.614 8.44-5.323-1.753-2.97-2.532-2.97-5.945 0-3.431 2.987-3.786 2.967-2.808-.153 1.487-4.745 8.74-6.057 11.169-2.02 3.445 5.73 2.118 9.162-3.542 9.162-4.375 0-14.113 3.175-18.841 6.143-1.062.666 11.281 32.656 14.597 37.83 1.655 2.583 3.009 6.434 3.009 8.558 0 5.158 7.164 11.742 12.778 11.742 10.37 0 43.132-29.97 48.24-44.128 1.224-3.395 2.226-11.994 2.226-19.11 0-7.674.992-12.938 2.438-12.938 3.22 0 .327 29.954-3.678 38.088-3.05 6.197-22.23 26.412-33.51 35.322-3.584 2.83-9.429 5.146-12.988 5.146-3.56 0-6.471.935-6.471 2.078 0 3.116 18.82 20.783 26.734 25.096 10.362 5.648 20.385 4.95 22.745-1.583zm-67.135-70.5c-1.84-1.23 3.238-2.596 13.318-3.583 17.377-1.702 21.922-.643 13.136 3.061-6.77 2.854-22.5 3.165-26.454.522zm10.282-58.875c-.742-.782-.803-2.925-.135-4.76 1.925-5.286 23.32-3.907 23.32 1.503 0 3.542-20.219 6.383-23.185 3.257z" fill="#ccd6f6" stroke="#00e696" stroke-width=".753" opacity=".629"/><path d="M472.747 283.18c5.778-.686 12.744-4.95 22.244-13.611 5.653-5.154 15.394-15.82 22.152-24.253 2.94-3.67 2.644-2.936 3.623-8.953 1.167-7.169 1.852-14.347 2.19-22.934.11-2.777.198-5.523.197-6.102v-1.052l-.39.64c-.97 1.597-1.356 4.57-1.594 12.3-.337 10.93-1.255 17.186-3.081 20.997-3.773 7.872-14.858 20.3-27.271 30.574-6.77 5.604-12.72 9.431-17.024 10.95-1.642.58-2.018.638-3.634.555-3.114-.16-6.16-1.773-8.989-4.76-2.3-2.427-3.178-4.262-3.509-7.328-.279-2.587-1.384-5.574-3.122-8.436-3.184-5.244-14.431-34.257-14.431-37.227 0-.389.296-.637 1.547-1.298 5.04-2.664 12.286-4.928 16.72-5.225l2.196-.146-1.497-.393c-1.969-.517-5.86-.724-6.889-.367-.42.147-1.415.732-2.212 1.302-2.926 2.092-7.057 3.374-9.403 2.917-3.596-.7-4.253-3.204-4.255-16.212 0-9.609.53-18.088 1.41-22.514.41-2.053.555-4.382.301-4.814-.092-.158-.439.102-.988.74-.722.842-.922.964-1.372.845-.67-.177-1.313-1.3-2.272-3.967l-.735-2.046-.445 1.012c-.244.557-.587 1.07-.76 1.14-.173.07-.885-.145-1.582-.478-2.719-1.299-5.804-1.657-7.458-.865-.453.217-.881.492-.951.611-.176.3 1.474 4.89 1.806 5.024.148.06 1.635-.101 3.304-.357 2.665-.409 3.251-.436 4.799-.227 2.08.281 3.822.917 4.242 1.55.166.25.301.78.301 1.181 0 .594-.175.907-.948 1.691-1.507 1.53-5.265 3.28-7.587 3.534-.576.063-1.048.16-1.048.217 0 .057.22.748.49 1.536.645 1.883 1.366 5.614 2.112 10.927.825 5.877 1.453 9.093 2.385 12.203 1.019 3.402 1.967 5.433 4.074 8.726 2.864 4.478 5.055 9.395 8.908 19.995 3.79 10.427 5.256 14.118 7.401 18.645 1.273 2.686 3.303 6.421 3.875 7.13.14.174.315.884.389 1.578.249 2.345.936 4.828 1.95 7.049.881 1.926 1.23 2.439 2.731 4.007 1.919 2.005 3.368 2.884 5.845 3.545 1.802.481 4.398.666 6.258.445zM432.026 171.512c0-.07-.177-.602-.387-1.18-.336-.924-.363-1.061-.22-1.123.09-.039 6.07-.669 13.289-1.4 12.414-1.256 20.29-2.107 20.513-2.216.055-.027-.619-.027-1.497.008-1.579.052-5.896.158-15.123.368-9.975.228-18.7.605-25.654 1.109l-3.11.222-.965.067.212.62.212.62.852-.083c1.385-.134 3.747-.075 4.945.124 2.168.36 4.367 1.231 6.086 2.412.469.322.85.527.847.456zM630.537 749.154c1.756-.85 3.849-2.323 4.65-3.272 1.339-1.588 1.357-1.925.228-4.226-4.981-10.152-16.243-14.719-25.288-10.254-3.24 1.6-4.09 2.488-4.741 4.96-.929 3.524-1.034 9.349-.192 10.66.972 1.514 10.933 3.716 16.722 3.696 3.541-.013 6.536-.555 8.62-1.564zM345.979 776.032c14.348-.257 26.356-.75 26.684-1.097.948-1-5.665-14.016-10.013-19.71-5.303-6.944-12.42-10.862-18.381-10.118-8.339 1.04-23.19 9.408-32.059 18.06-4.858 4.741-6.447 7.178-7.395 11.346l-.526 2.314 7.8-.164c4.292-.09 19.542-.375 33.89-.631zM585.417 752.389c3.733-1.316 9.345-2.838 12.47-3.382l5.68-.99-.356-3.48c-.196-1.913-.008-5.075.417-7.027l.773-3.547-3.357.485c-1.886.272-6.082-.11-9.577-.871-3.421-.746-6.485-1.356-6.809-1.356-.323 0-2.143 1.943-4.043 4.318-2.608 3.26-3.622 5.375-4.135 8.627-.79 5-.2 9.815 1.187 9.697.53-.045 4.017-1.159 7.75-2.474zM531.655 765.886c5.349-.694 9.886-1.452 10.084-1.683.197-.231.618-7.576.935-16.321l.576-15.9-1.815.5c-.998.275-3.64.095-5.868-.401-3.16-.702-4.805-1.72-7.462-4.619-2.128-2.322-3.535-3.312-3.746-2.636-.692 2.216-2.938 34.062-2.688 38.114l.26 4.209z" fill="#ccd6f6" stroke="#00e696" stroke-width=".753" opacity=".629"/><path d="M255.207 846.945c106.124-4.73 237.223-21.905 346.574-45.403 23.643-5.081 30.73-6.737 31.27-7.306.195-.205-.87-.616-2.368-.912-3.245-.642-5.143-2.64-5.8-6.104-.723-3.806.961-5.01 7.787-5.569 7.774-.636 10.364-1.723 5.479-2.299-2.9-.342-3.797-.87-4.792-2.822-1.132-2.223-1.112-2.473.27-3.367 5.536-3.576 6.549-4.639 7.757-8.14.715-2.071 1.506-4.91 1.758-6.31l.459-2.544-20.507 4.323c-60.173 12.687-137.659 21.485-236.123 26.809-65.306 3.53-110.086 4.67-203.237 5.174-50.472.273-83.268.768-85.543 1.292-2.401.553-4.546 1.786-6.14 3.528-6.591 7.202-5.25 15.69 3.853 24.371 14.023 13.374 46.098 22.126 91.593 24.992 12.26.773 52.95.945 67.71.287z" fill="#ccd6f6" stroke="#00e696" stroke-width=".753" opacity=".629"/><path d="M255.207 846.945c106.124-4.73 237.223-21.905 346.574-45.403 23.643-5.081 30.73-6.737 31.27-7.306.195-.205-.87-.616-2.368-.912-3.245-.642-5.143-2.64-5.8-6.104-.723-3.806.961-5.01 7.787-5.569 7.774-.636 10.364-1.723 5.479-2.299-2.9-.342-3.797-.87-4.792-2.822-1.132-2.223-1.112-2.473.27-3.367 5.536-3.576 6.549-4.639 7.757-8.14.715-2.071 1.506-4.91 1.758-6.31l.459-2.544-20.507 4.323c-60.173 12.687-137.659 21.485-236.123 26.809-65.306 3.53-110.086 4.67-203.237 5.174-50.472.273-83.268.768-85.543 1.292-2.401.553-4.546 1.786-6.14 3.528-6.591 7.202-5.25 15.69 3.853 24.371 14.023 13.374 46.098 22.126 91.593 24.992 12.26.773 52.95.945 67.71.287z" fill="#ccd6f6" stroke="#00e696" stroke-width=".753" opacity=".629"/><path d="M86.963 802.316c.18-2.339 4.379-7.449 7.649-9.31 2.254-1.284 10.19-1.462 88.324-1.987 94.216-.633 139.841-1.768 199.244-4.96 111.234-5.976 190.57-15.482 258.339-30.956 2.41-.55 2.83-1.012 3.045-3.344.138-1.488.008-2.705-.296-2.705-.3 0-9.577 1.685-20.614 3.745-60.163 11.23-112.66 18.402-157.023 21.452-20.592 1.416-135.213 3.798-285.89 5.941-34.478.49-66.002 1.261-70.053 1.712-11.956 1.333-20.146 5.56-22.531 11.629-.52 1.323-.81 4.26-.642 6.526.167 2.267.369 3.282.448 2.257zM713.838 751c4.032-3.08 7.19-5.748 7.018-5.93-.173-.182-2.597.08-5.388.583-8.996 1.62-8.459 1.267-9.073 5.975-.307 2.347-.407 4.425-.223 4.619.184.193 3.633-2.168 7.666-5.247zM715.784 744.174c3.844-.731 6.988-1.594 6.988-1.916 0-.323-1.222-1.199-2.716-1.946-2.836-1.418-7.282-1.733-11.601-.823-2.272.479-2.513.81-2.296 3.15.294 3.175.681 3.237 9.625 1.535z" fill="#ccd6f6" stroke="#00e696" stroke-width=".753" opacity=".629"/><path d="M566.59 760.404c6.587-1.149 11.08-2.187 9.981-2.307-3.542-.386-2.451-15.3 1.571-21.488 3.548-5.456 3.638-5.485 15.877-5.154 15.39.417 18.792-1.937 11.667-8.07-7.562-6.511-18.882-9.82-30.29-8.855-7.859.665-11.808 2.11-18.99 6.953-5.033 3.393-9.76 8.03-10.622 10.423-.855 2.37-1.555 10.32-1.555 17.667v13.356l5.19-.218c2.856-.12 10.582-1.158 17.17-2.307z" stroke="#00e696" stroke-width=".753" opacity=".629"/><path d="M574.839 759.84c4.721-.776 16.49-2.79 26.153-4.477l17.568-3.066-3.16-.513c-1.738-.282-4.371-.9-5.851-1.374-5.724-1.832-12.555-.705-27.21 4.488-5.52 1.956-6.562 2.45-6.028 2.862.39.301.485.601.24.76-.222.145-2.99.751-6.149 1.347-7.199 1.356-7.235 1.365-5.546 1.375.769.008 5.26-.626 9.982-1.402zM639.656 748.241c4.158-.844 4.26-.892 4.492-2.115.373-1.968.28-3.453-.261-4.19-.459-.623-.736-.624-3.394-.008l-2.895.67v1.473c0 1.198-.338 1.814-1.804 3.295-2.083 2.103-2.129 2.092 3.862.876zM296.066 777.076l6.847-.135.874-3.462c1.196-4.731 2.14-6.273 6.584-10.75 6.457-6.506 18.337-14.128 27.362-17.555 4.267-1.62 9.668-1.897 13.435-.688 4.977 1.598 9.094 4.954 13.473 10.986 1.606 2.214 3.642 5.37 4.524 7.015 1.626 3.033 4.974 10.527 5.482 12.27l.277.953 8.257-.22c4.54-.122 12.724-.336 18.184-.476l9.928-.255-.26-2.16a95.043 95.043 0 00-.5-3.592l-.241-1.431-11.624.272c-6.392.15-12.115.39-12.716.532-.847.202-1.147.084-1.332-.524-1.747-5.749-3.93-8.706-13.707-18.573-11.456-11.561-14.19-13.75-19.604-15.694-6.333-2.274-21.226.23-30.414 5.112-7.376 3.92-13.339 9.99-16.006 16.295-.492 1.165-2.05 4.264-3.461 6.886l-2.565 4.768-3.424.019c-2.718.016-3.767.208-5.084.935-2.838 1.567-4.329 4.515-4.053 8.016.143 1.807-.816 1.664 9.764 1.455zM526.485 766.388c9.76-1.367 14.616-2.161 14.882-2.434.371-.38.938-9.982 1.319-22.348l.279-9.047-3.748-.036c-5.093-.049-7.2-.955-11.316-4.862-3.176-3.015-3.177-3.015-3.461-1.893-.773 3.047-2.814 35.276-2.462 38.877.244 2.489-.04 2.379 4.507 1.742zM539.726 199.703c3.955-6.18 5.389-12.461 5.97-26.15.46-10.86.377-11.777-1.7-18.652l-2.184-7.23-2.548 1.121c-3.643 1.605-18.568 4.522-26.361 5.153l-6.638.538.683 3.884c.949 5.395 3.528 13.142 6.163 18.51l2.222 4.526 2.49-4.648c1.368-2.557 4.256-6.487 6.415-8.735 2.16-2.248 4.835-5.98 5.944-8.295 2.616-5.457 4.647-7.352 7.51-7.006 2.824.34 4.6 3.862 6.356 12.598 2.068 10.296.395 20.452-4.898 29.714-1.754 3.07-2.769 5.838-2.623 7.154.217 1.965.488 1.755 3.2-2.482z" stroke="#00e696" stroke-width=".753" opacity=".629"/><path d="M426.24 139.584c.189-.2 5.28-.459 11.312-.577l10.97-.214v-6.038c0-3.322.236-7.858.525-10.08l.526-4.041-10.309.547c-5.669.301-11.655.79-13.302 1.088l-2.995.54v9.57c0 8.717.13 9.568 1.464 9.568.805 0 1.619-.163 1.808-.363z" fill="#ccd6f6" stroke="#00e696" stroke-width=".753" opacity=".629"/><path d="M486.054 152.099c7.383-2.403 19.028-2.77 23.815-.752 2.782 1.173 3.899 1.173 11.396 0 4.571-.716 10.917-2.114 14.101-3.106l5.79-1.804-.008-3.454c-.013-8.93-3.835-27.89-7.739-38.382-3.484-9.364-9.776-14.408-18.07-14.487-5.303-.05-8.466 1.015-18.15 6.112-13.24 6.968-17.08 13.541-19.154 32.782-.998 9.254-.28 25.306 1.124 25.145.496-.056 3.598-.98 6.892-2.052z" fill="#00e696" stroke="#00e696" stroke-width=".753" opacity=".629"/><path d="M482.017 107.238c1.764-4.49 7.323-9.134 16.384-13.688 7.63-3.835 9.533-4.447 14.842-4.771 4.99-.305 6.782-.05 9.916 1.412 2.104.98 3.982 1.783 4.173 1.783.924 0-5.414-8.234-8.997-11.69-8.99-8.671-19.845-12.658-36.278-13.324-12.017-.487-15.372.125-27.932 5.097-15.478 6.127-28.83 17.105-33.525 27.563-1.333 2.97-2.423 5.857-2.424 6.416 0 .643 1.981.08 5.39-1.534 18.545-8.776 40.727-7.351 55.409 3.56l2.104 1.563z" fill="#00e696" stroke="#00e696" stroke-width=".753" opacity=".629"/><path d="M429.356 155.76c3.733-.434 15.951-.856 27.151-.937l20.364-.148-.235-13.972c-.18-10.686.077-15.436 1.09-20.199 2.117-9.937 2.118-9.933-2.708-13.004-7.198-4.58-13.79-6.46-24.229-6.91-8.365-.36-10.064-.174-16.712 1.836-4.07 1.23-9.583 3.453-12.25 4.94l-4.85 2.703-.947 5.47c-1.75 10.101-2.702 24.665-2.158 32.99l.54 8.25 4.077-.114c2.244-.063 7.133-.47 10.867-.905zm-7.986-24.932v-11.644l9.782-.99c11.08-1.122 17.386-1.232 18.593-.327.52.39.712 4.527.52 11.224l-.304 10.605-11.877.565c-6.533.31-12.697.91-13.697 1.334-1 .424-2.089.794-2.418.824-.33.029-.6-5.187-.6-11.591z" fill="#00e696" stroke="#00e696" stroke-width=".753" opacity=".629"/><path d="M391.024 170.158c11.722-2.659 26.72-4.102 52.307-5.033 13.615-.495 27.63-1.396 31.144-2 3.514-.606 11.674-3.038 18.135-5.406 6.46-2.368 12.3-4.306 12.977-4.306.677 0 1.23-.351 1.23-.781 0-.43-1.886-1.025-4.192-1.323-4.566-.59-14.185 1.155-20.67 3.752-3.105 1.244-4.857 1.39-10.014.84-7.006-.749-32.593.35-48.974 2.103-9.62 1.03-12.254 1.697-24.465 6.2-7.526 2.775-14.713 5.633-15.971 6.351-2.28 1.302-2.28 1.306-.291 1.224 1.098-.045 5.05-.775 8.784-1.621zM491.372 673.193c12.095-2.433 22.457-7.4 29.408-14.096l4.174-4.02.56-19.173c.464-15.85.282-22.53-1.045-38.531-3.453-41.616-3.826-56.538-1.975-79.003l.545-6.623-1.806 1.019c-4.613 2.601-16.306-3.52-29.647-15.521l-4.27-3.841-3.47 5.694c-5.127 8.415-14.074 28.117-16.92 37.256-1.368 4.398-3.08 11.5-3.803 15.781-.723 4.282-1.632 7.785-2.018 7.785-1.503 0 2.047-18.01 5.426-27.523l1.854-5.22-6.139-2.484c-8.721-3.532-12.208-4.386-18.09-4.434-5.958-.048-10.807 1.365-10.807 3.149 0 .677.716 2.71 1.592 4.52 2.252 4.654 12.782 31.63 12.782 32.747 0 2.023-1.335.757-2.348-2.228-7.83-23.058-27.87-65.016-31.052-65.016-.354 0-1.245 1.33-1.98 2.957-1.65 3.646-12.825 16.022-19.31 21.383-6.744 5.578-9.88 7.43-14.842 8.769-4.122 1.112-4.364 1.331-5.343 4.858-2.209 7.951-3.38 19.195-3.382 32.49-.008 20.48-3.157 41.15-9.583 62.836-1.766 5.96-3.424 12.24-3.684 13.957l-.474 3.12 11.594 8.505c13.733 10.074 15.925 11.316 24.645 13.973 14.27 4.346 29.773 4.806 40.15 1.191 2.877-1.002 7.088-1.702 10.418-1.73 4.89-.041 6.29.33 11.18 2.969 3.075 1.659 7.028 3.447 8.784 3.974 5.081 1.524 22.324 1.829 28.876.51z" fill="#00e696" stroke="#00e696" stroke-width=".753" opacity=".629"/><path d="M471.884 518.686c1.579-3.7 5.487-11.37 8.685-17.043 4.411-7.827 6.252-12.079 7.628-17.623 4.524-18.23 17.777-47.235 34.374-75.234 11.364-19.17 14.876-23.42 22.438-27.156 4.05-2.002 5.423-2.232 12.917-2.165 9.197.081 16.695 1.787 28.449 6.47 6.246 2.49 6.934 3.009 9.91 7.48 4.183 6.285 8.787 16.578 9.332 20.864.5 3.926.325 3.885 9.407 2.156 12.35-2.352 27.332-1.122 34.99 2.87l3.154 1.645-.554-8.997c-1.639-26.615-6.427-48.951-13.838-64.544-3.526-7.42-6.37-11.792-11.948-18.365-6.218-7.328-9.935-13.344-14.582-23.598-4.476-9.878-6.919-12.48-15.96-17.006-4.333-2.17-5.21-3.046-7.648-7.638-3.388-6.386-8.636-12.19-13.253-14.66-1.916-1.024-6.905-5.314-11.086-9.533-7.999-8.071-18.844-17.52-23.194-20.206l-2.581-1.594.543 4.54c.299 2.496 1.093 8.023 1.766 12.28l1.222 7.743-4.488 8.036c-5.892 10.553-10.767 21.612-16.323 37.036-4.416 12.259-4.604 12.603-7.284 13.344-10.012 2.771-25.059-3.329-37.652-15.263-8.916-8.45-11.81-12.353-11.846-15.975-.025-2.556-.479-3.403-2.565-4.788-3.352-2.226-5.924-6.382-6.615-10.689-.308-1.922-1.59-5.26-2.849-7.416-1.259-2.156-4.98-11-8.27-19.653-3.29-8.652-6.919-17.418-8.065-19.479-2.08-3.741-2.086-3.745-4.612-2.598-1.391.632-16.185 7.76-32.875 15.84s-31.542 15.12-33.004 15.645c-8.351 3-25.038 18.831-37.113 35.21-4.157 5.637-9.448 11.365-15.898 17.207-11.71 10.606-25.42 24.434-25.372 25.589.02.463 4.36 3.871 9.645 7.574 17.903 12.544 29.74 25.223 36.689 39.297 3.727 7.55 2.821 7.456 9.552 1 7.838-7.518 12.085-8.74 15.501-4.463 2.804 3.512 3.257 5.68 3.261 15.592l.008 8.503 3.993 1.48c19.014 7.047 28.77 16.794 34.291 34.26 2.51 7.938 7.043 29.672 8.983 43.072 1.152 7.958 1.75 10.144 2.958 10.826 3.537 1.994 8.832 9.936 15.444 23.163l4.606 9.215 2.795-1.064c6.432-2.45 19.045-.936 28.356 3.404 2.521 1.175 4.838 2.136 5.148 2.136.31 0 1.855-3.027 3.434-6.727z" fill="#2b4366" stroke="#00e696" stroke-width=".753" opacity=".629"/><path d="M464.808 180.809c-1.087-.146-2.613-.57-3.502-.972-.595-.27-.636-.321-.636-.796 0-.75.345-2.012.722-2.642.453-.756 1.395-1.446 2.496-1.828.825-.286 1.162-.318 3.284-.313 2.594.005 3.68.161 6.765.975 1.968.519 6.304 1.993 6.304 2.144 0 .053-.915.478-2.034.946-5.08 2.121-9.707 2.98-13.4 2.486zM425.66 186.032c-.224-.362-1.944-4.384-2.089-4.888-.105-.365-.348-.301 3.073-.807 1.969-.29 2.828-.358 3.744-.295 1.597.111 3.006.435 3.88.893.625.327.728.438.763.818.054.586-.605 1.358-1.87 2.19-1.848 1.212-5.171 2.423-6.656 2.423-.528 0-.672-.057-.845-.334z" fill="#ccd6f6" opacity=".629"/></svg>