<svg id="svg32" xmlns="http://www.w3.org/2000/svg" xmlns:xlink="http://www.w3.org/1999/xlink" viewBox="0 0 2427.81 2961.06"><defs><clipPath id="clip-path" transform="translate(-320.49 -247.03)"><path d="M1150.07,625.79V2936H2404.64V625.79ZM1982.16,2720c.19,0,.37.18.37.55s0,.47,0,.71,0,.41,0,.62a.75.75,0,0,1,0,.15s0,0,0,.06c.15.23.12.14.18.48,0,0,0,0,0,0a1.27,1.27,0,0,1,0,.2l.17.68a2,2,0,0,1,.14.63c0,.12,0,.33,0,.45s.17.3.15.48a4.85,4.85,0,0,0,.11.49c0,.06,0,.12,0,.18.06.65.11.86.22,1.55h0c.12.73-.61.85-.74.12a15.53,15.53,0,0,1-.22-1.59,2.43,2.43,0,0,1,0-.27l0,0a.58.58,0,0,1-.06-.17,2.13,2.13,0,0,1,0-.25,2.16,2.16,0,0,1-.15-.73c0-.09,0-.19,0-.29a2.11,2.11,0,0,0-.1-.38,4.79,4.79,0,0,1-.22-1.05c0-.07,0-.13,0-.19s0,.08,0,.09a2.86,2.86,0,0,1-.08-1.3c0-.23,0-.46,0-.7s.19-.55.38-.55Zm1.54,3.24c.18,0,.38.16.41.52l.09,1c.22.66.29.87.49,1.57,0,.09,0,.19.07.28l.06,0s0,0,0,0a0,0,0,0,0,0,0c-.09-.07-.2-.17-.17-.1a4.8,4.8,0,0,0,.45.56,4.35,4.35,0,0,0,.42,1.26,3,3,0,0,1,.23.59c0,.1.1.19.13.29a2.5,2.5,0,0,1,0,.29,5.81,5.81,0,0,0,0,1c0,.23,0,.47,0,.71v.42c0,.29-.14.65-.18.91-.11.74-.79.74-.75,0a5.66,5.66,0,0,1,.19-.91v-.43c0-.22,0-.45,0-.67a2.92,2.92,0,0,1,.05-1,.05.05,0,0,0,0,0,.54.54,0,0,0-.07-.13c-.11-.25-.16-.51-.29-.74a4.65,4.65,0,0,1-.46-1.36c.09,0,.31,0,.27,0s-.27-.07-.38-.15a.1.1,0,0,1,0-.05c0,.49,0,1,0,1.46a.86.86,0,0,0,0,.16c0,.13.09.1.12.21a2.86,2.86,0,0,1,.06.92c0,.16,0,.2,0,.3l.14.13.06.25c.16.72-1-.69-.75,0,0,0,0,.09,0,.13-.27-.21-.26-.52-.22-.86a1.58,1.58,0,0,0,0-.53c-.06-.22-.24-.43-.18-.71,0-.67,0-1.34,0-2,0-.29,0-.57,0-.86a6.78,6.78,0,0,0,0-.78.72.72,0,0,1,0-.32l-.06-.7c0-.37.14-.57.33-.59Zm.14,7.37.15.1c.06,0-.1-.06-.15-.09Z" style="fill:none"/></clipPath></defs><g id="layer2"><path id="path2" d="M1607.74,705.13c8,6.69,70.12-22.25,17.56-26.61-5.82-.48-18.07,3-27.44,3.14M684.76,2082.53S564,2190.69,571.57,2243.18s70.34,193.38,238.15,95.1m1612.72,605.53s52.13-21.5,65.71-59.67m177.74-17.2s-22.3,88.77-79.65,103.08-111.92,49.16-185,34.12M873.4,2120.71s-28.68,62-28.68,84.29,1.51,101.79,1.51,101.79-11.15,42.29-36.51,31.49m-81.2-308.23s-13.58,12.72-43.77,52.48m1689.43,756s42.45-13.6,31.88-32.87M1700.39,449.11c-1.51,8-1.51,77.93-1.51,77.93s-96.58-1.58-104.13,8V453.88s96.59-14.31,105.64-4.77Zm118.33-30.36s-102.06-94.24-244.5-5.7M1935.3,579.61c-48.8-30.14-129.27,9.46-129.27,9.46s-26.29-184.45,56.31-220.52c29.39-12.82,88.37-63.83,145.18-1.76M1564.64,597.42S1759,575.76,1806,589.07m-99.47,208s27.22-30.37,40.56,1.12-10.14,22.5-10.14,22.5-24.54-7.31-34.15,1.12-44.29,25.31-49.62.56-2.13-111.34,2.67-131.58-.53-21.93-.53-21.93m-71.5-29.8-2.74-7.77m49.11,31,4.32-9.72s-16.94-19-50.69-13.49m6.47,21.34s10.47-14,39.9,1.87m840.14,934.47s2.7-241-92.38-347.59-31.69-120.87-141.85-171.77c0,0-22.64-62-70.93-79.52,0,0-76.54-83.41-133-116.88m631.58,1911.76s10-177.36-5.08-163.05m-99.6-712.53s49.8,57.25,36.22,132c-3,8,43.77,25.45,55.84,214.72s-12.36,203.8,7.54,365.81m-175-1021.09s36.22,14.32,75.45,308.56m-156.95,146.32s15.09,6.36,15.09,28.63,16.6,144.73,43.77,235.39,74,198.81,72.44,272S2525,2696,2525,2696m-239.59-956.92s50.28,141.47,116.68,324.38M2289,1584.58s134.25-41.22,194.62,24M1081.88,1252.39S967,1397,924.71,1451.12s-63.38,73.16-63.38,73.16-28.68,42.94-46.79,106.56-49.8,202-86,399.21m542.53-569.39s-157.7,130.42-189.39,149.5-36.22,54.08-36.22,54.08-60.36,162.23-87.53,203.58-75.46,216.31-84.51,252.89m507.82,743.15s-37-67.2-95.83-48.11-128.23,74.45-132.8,98.6l-6,24.19m1168.77-182.38s63.8-15.17,90.71,49.48m-425.21-85s-19.13,176.61-10.12,182.28m318.67-134.23s-15.4,40.79-1.69,62.06m143.42-31.25-25.08,6.18M2132.75,2702s119.64-38.65,182.6,54.13c0,0-28.81,18-52.29,18s-57.09-16.3-62.43-4.49-22.41,22.49-24.54,39.92-.53,50.61-.53,50.61,93.81-39.73,126.45-27,72.17,5.32,72.17,5.32m-323.09,53.69,5.3-132.32M1415.9,2933.6s-19.6-53-34.69-69.74M1557,2930.64l-4.1-30.6s-85.64-1.59-97,2.79c0,0-3.39-27-40.37-60.84s-63.76-75.55-111.3-75.55m0,0c-132.42,8-155.44,90.66-155.44,90.66l-20.75,38.57s-55.37-11-47.12,44m284.43-1450.39-.76,21.49m476.89,349.1s131.73,130.75,139.69,53.05m-139.69-53.05s6.79-79.52,105.64-261.64m0,0,64.89-109s33.2-56.45,95.83-54.07,131.29,36.58,131.29,36.58,52.07,66,49.8,117.7-5.28,260-5.28,260-14.34,147.12-26.41,215.51,4.53,93.84-21.88,172.57-52.82,213.92-52.82,213.92-41.5,133.6-45.28,170.18-4.52,80.31-4.52,80.31-59.61,33.41-73.95,54.88-53.57,0-53.57,0-25.66-27.83-24.9-40.55,6-239.38,6-239.38m0,0c3.77-21.46,3-165.4,3-165.4s-21.13-225.85-15.84-294.24,13.58-241.76,40-283.11m-673.32,699.7,93.07,68.5s80.74,47.72,190.91,27.84c0,0,52.06-28.63,92,1.58s196.94,36.59,270.13-54.87m-212.69-485s-90.72-53-142-17.38m209.81-114.67s-87.53,127.24-98.1,256.06m-180.72-261s38.11,22.46,127.9,266.6M1550,1851.16s26.69-12,2.92,30.58M2025.63,779.6V750.36s46.95-51.73,25.61-137.2-53.35,11.24-53.35,11.24m51.22-69.73s19.21,51.74,17.07,65.24c-1.09,6.88.69,49.72-3.44,77-4,26.15-6.79,49.67-37.11,82.72m-27.74-155.2s-34.15,22.49-49.09,69.73m-227.3,316s1.07,68.61,66.16,61.86,178.21-156.33,178.21-156.33,12.81-55.1,12.81-134.95M1583.85,639s9.6,36,24.54,67.48,7.47,88.84,35.22,128.21,44.82,125.95,77.89,175.44m49.09,99c-20.27-18-11.74-36-11.74-36M1952,1194.6s-70.43,40.48-181.41-85.48M2045.9,979.79s-51.22,75.36-93.9,214.81m73.63-415s3.2,114.71,20.28,200.18M1948.8,694.14s-32-51.74-38.42-112.47l-74.69,27s-25.61,13.5-85.37,15.75-201.68,0-306.26,29.24c-18.21,5.09-17.28-3-4.8-10.21,12.75-7.36,37.35-13.94,48.07-18.69a577,577,0,0,1,77.31-27.34s-14.94-87.72,12.81-197.93,188.13-147.36,188.13-147.36,132-25.84,206.7,59.64,76.83,242.92,76.83,242.92-38.42,20.24-138.73,27m525,2244.78c6.4-27-4.27-27-4.27-27s34.15-87.72,93.91-103.47m-89.64,157.45v-27s-443.92,92.22-759.78,101.22-1158.88,20.24-1175.95,22.49S277.2,2924.5,330.81,3063.29m2070.44-59.15s-627.46,157.46-1400,197.94-706.42-200.19-625.32-206.93,1376.56,27,2059.51-141.71c0,0-2.14,24.74-10.67,47.24s-34.15,18-29.88,29.24,6.4,13.49,23.48,13.49,6.4,15.75-32,13.5-19.22,38.24-4.28,38.24,19.21,9,19.21,9ZM2668,2822l-4.27-29.24,32-2.25s14.94-9,47,18M2668,2822l74.7-13.49-76.84,58.48ZM1264.78,1517.37c18.33-4.62,80.59-19.73,123.6,1.35s102.62,31.8,131.67,162.62,32.82,200.4,32.82,200.4-92.93,118-141,106.72M1138,2877.25l13.85-240.43s-17.35-230.62-30.18-294.24-25.46-124.55-24.4-204.4,49.09-330.65,63-375.64,21.35-201.3,104.58-245.17m187.36,204.93s18.86,159-14.34,209.94-48.29,135.19-43.77,198-20.37,182.11-26.4,203.59-30.19,86.68-36.22,160.63-31.69,111.34-27.17,272m-33.19-1305.79c17.35-10.33,57.34-62.82,74.69-49.3s21.13,28.62,19.62,77.93m-149.4-369s-139.38,123.27-134.31,134.4c6.3,13.81,140.92,74,189.39,206m369.68-630.3L1391,951.31s-61.12,6.76-175.06,169" transform="translate(-320.49 -247.03)" style="fill:none;stroke:#00e696;stroke-miterlimit:15.118103981018066;stroke-width:2.845983153724262px;isolation:isolate;opacity:0.6290000081062317"/><path id="path4" d="M2089.76,2727.74c18.58-13.77,21.3-14.93,30.68-18.37,4.81-1.76,10.56-5,12.16-12.47,2.83-13.14,1.52-38.09,1.52-51.27,0-22.87,14-78,27.51-126.87s30-106.39,35.43-131.13,16.72-80.24,28-122.31c5.24-19.55,16.85-42.91,21.94-76.13,4.22-27.5,2.7-58.44,6.08-92.62,3.45-34.87,10.36-70.6,13.72-109.43,4.66-53.76,14.36-108.15,16.8-162.81,1.66-37.21.88-79,2.14-112.7l.76-136.28-8.41-36.68c-12.48-25.15-22.58-49.73-38.56-64.73-11.37-10.68-27.08-14.22-42.62-20-30.73-11.49-71.61-19.63-101.55-17.53-21.06,1.48-33.61,10.06-46.87,17.29-40.14,21.87-154.39,228.18-189.67,341.61-14.28,45.94-25.72,61.7-1.46,76.35,13.31,15.5,43.74,40.43,69.26,54,18.42,9.81,34.15,11.72,39.75,9.46,3.08-1.24,9.32-3.35,12.31-13.2,3.93-13,4.42-36.24,6.5-58,7-73.29,19.18-130.49,29.38-130.49,1.64,0-2.68,5.3-3.48,10.24-.62,3.83-4,8.62-5.82,14.81-1.7,5.62-1.87,12.49-3.7,18.88-12.09,42.34-17,117.3-22.2,197-1.8,27.38-3.72,47-3.1,70.67,1.33,50.86,2,101.88,5.62,152,7,96.19,9.05,206.15,4.91,331-4,120.44-8.54,170.22-4.48,191.79,1.53,8.12,8.54,16.1,11.93,21.54,12.29,19.78,35.83,42.31,54.78,25.35,7.14-6.4,16.69-21.15,40.75-39Zm453,256c73.13-24.58,88.34-40.88,111.56-88.85,16.24-33.55,13.64-127.87,8-258.19-3.3-77-8-149.85-9.33-248.82-2.52-183.83-20.08-265.59-48-310.48-6.85-11-12.46-33.55-12.46-50.07s-9.14-50.07-20.31-74.54-21.71-92.88-32-152.26c-8-46-20.09-97.49-28-128-12.16-46.64-27.72-62.86-45.35-79.36-20.6-19.29-91.75-25.1-140.93-15.37l-36.95,6.83-.31,82.78c-.08,23-4.16,52.22-2,69.54,4.55,37.09,21.56,62.29,54.79,155.27,28.55,79.86,53.34,156.29,60,167.25,5,8.21,12.87,20.54,17.05,28.94,1.41,2.82.37,4.73.37,7.38,0,41,29.48,198.05,58,285,45.36,138.15,60.06,200.84,53.36,266.82-3.82,37.56-9.56,52.29-16.87,52.29-6.1,0-26.36,18.37-45.54,41.33-32.13,38.47-31.06,44.53-31.06,92,0,38.48-21.83,66.39-35.05,84.1-26.84,36,19.7,41.11,58,3.06,19.44-19.32,30.41-38,28.73-28.87-3.9,21.35-81.91,67.61-106,67.61-27.19,0-24.35,26.71,3.34,37.8,33.41,13.39,88.26,10,157-13.15ZM784.1,2351.84c22.8-8.79,46.52-16.51,50.65-23.38,12.06,6.48,15.93-36.07,7.63-81.69.11-45.29,15.18-61.92,49.46-202.49,25.73-81.22,58.66-163.88,70.07-184.73s38.66-81.87,60.56-136.66l38.14-93.69,75.75-59.86c40.73-30.6,97.19-78.91,113-92.88,26.44-23.3,17.77-25.52,7.81-45.5-22.54-45.24-64.82-93.55-117.6-133.25l-57.73-45.32L1048,1294c-12.94,16.31-65.79,82-118.48,147.94-110.19,138-109.45,135.8-163,394.34-16.92,81.64-28.45,170.91-30.79,181.83s-48.7,55.79-88.53,100.76-72.43,95-75.53,108c-7.51,31.5,33,105.35,67.48,127.52,32.45,20.85,89.61,18.83,145-2.52Zm386,461.86c15.29-17.8,87.65-39.9,125.06-48.33,21.25-4.78,3.47-8.19,8.76-69.53,7.48-86.66,38.84-284.85,49.48-314.31,19.64-54.39,36.36-142.46,42.49-247.78,5.68-97.81,8.35-122.56,31.75-178.64,23.82-57.08,36.34-65.34,37.23-143.64.92-81.69-13.65-97.72-6.48-56.18,10.21,59.15-9.35,150.83-29.91,193.29-9.06,18.72-16.48,38.91-16.48,41.76,0,11.45,72.07-30.6,110.3-69.59,47.5-48.45,32.93-59.72,7.85-189.41-18.1-93.61-44.44-146.62-71.64-171.85-33.24-30.83-86.12-51.09-129.49-51.09-97.46-2-134.25,42.86-170.91,264-48.18,290.7-78.57,366.32-52.91,494.91,22.62,113.29,47.31,360,41.5,467-3,54.73-8.57,133.37-6.23,133.37s21.72-44.79,29.64-54Zm791-1649.95c31.15-105.8,51.58-127.51,67.33-155.64,28.14-23.16,17.27-38.44,5.29-109.6-12.45-104.57-13.55-135,3-168.3,27-22,20.08-100.33,9.11-132.76-8.65-25.59-18.92-19.92-33.09.82-6.76,9.9-30.09,47.28-39.42,59.65-16.89,26.25-9.72,15.1-15.44,23.12-11.72,17.2-10,18-26.76-20.69-9.62-22.27-17.58-48.18-17.68-56.83-.23-19.11-3.51-21.45-49.32-3.55-20.55,8-80.19,23.95-134.75,29.53l-99.2,10.15,7.87,22.28c6.47,18.34,9.34,19.93,16.27,9,5.69-9,2.61,11.25-.76,59.9-4.08,58.93-3.64,91.16,9.28,101.72,7.66,6.25,25.68-3.64,44.58-14.75,16.18-1.89,31.66,2.65,38,.14,9-3.55,4.49-14.61-.71-20.85-6.63-11.23-18.55-15.42-31.45-4.19s-10.72,16-7,4.21c5.62-17.94,29.29-15.28,38.47,0,13,21.66,11.75,27-9.64,27-16.54,0-53.34,12-71.21,23.22-4,2.52,42.63,123.42,55.17,143,6.25,9.76,11.37,24.32,11.37,32.35,0,19.49,27.07,44.37,48.29,44.37,39.2,0,163-113.27,182.33-166.78,4.62-12.83,8.41-45.33,8.41-72.22,0-29,3.75-48.9,9.21-48.9,3.91,0-.92,13.26-1.65,29.85-1.55,35.12-5.56,91.42-15.84,112.3-11.53,23.43-84,98.63-126.65,132.31-13.55,10.69-33.84,18.25-47.29,18.25s-26.45-1.4-29.85,1.27c-20,15.65,69,95.47,102.84,111,39.16,21.35,82.93,35.19,91.85,10.5ZM1696.57,902.08c-7-4.65,6.25.37,44.35-3.36,65.67-6.43,77.46-10.21,44.25,3.78-25.58,10.79-73.66,9.57-88.6-.42Zm40.06-218.33c-2.81-3-3-11-.51-18,7.27-20,88.13-14.76,88.13,5.68,0,13.39-76.41,24.13-87.62,12.31Z" transform="translate(-320.49 -247.03)" style="fill:#ccd6f6;isolation:isolate;opacity:0.6290000081062317"/><g style="clip-path:url(#clip-path)"><path id="path6" d="M1786.76,1070.29c21.84-2.6,48.17-18.71,84.07-51.45,21.37-19.48,58.19-59.79,83.73-91.66,11.11-13.87,10-11.1,13.69-33.84,4.41-27.1,7-54.22,8.28-86.68.41-10.5.75-20.87.74-23.06v-4L1975.8,782c-3.67,6-5.13,17.27-6,46.49-1.27,41.31-4.74,65-11.64,79.36-14.26,29.75-56.16,76.72-103.07,115.55-25.59,21.18-48.08,35.65-64.34,41.39-6.21,2.19-7.63,2.41-13.74,2.1-11.77-.61-23.28-6.71-34-18-8.7-9.18-12-16.11-13.27-27.7-1-9.78-5.23-21.07-11.8-31.88-12-19.82-54.54-129.48-54.54-140.71,0-1.47,1.12-2.4,5.85-4.9,19-10.07,46.43-18.63,63.19-19.75l8.3-.55-5.66-1.49c-7.44-2-22.14-2.73-26-1.38a46,46,0,0,0-8.36,4.92c-11.06,7.9-26.68,12.75-35.54,11-13.59-2.64-16.08-12.11-16.08-61.27,0-36.32,2-68.37,5.32-85.09,1.55-7.76,2.1-16.57,1.14-18.2-.35-.6-1.66.39-3.73,2.8-2.73,3.18-3.49,3.64-5.19,3.19-2.53-.67-5-4.91-8.58-15l-2.78-7.73-1.68,3.82c-.93,2.11-2.22,4-2.88,4.31s-3.34-.55-6-1.81c-10.27-4.91-21.93-6.26-28.18-3.27a12.23,12.23,0,0,0-3.6,2.31c-.66,1.14,5.57,18.48,6.83,19,.56.23,6.18-.38,12.49-1.35,10.07-1.54,12.28-1.65,18.13-.86,7.86,1.07,14.45,3.47,16,5.86a9.66,9.66,0,0,1,1.13,4.47c0,2.24-.66,3.42-3.58,6.39-5.69,5.78-19.9,12.39-28.67,13.35-2.18.24-4,.61-4,.82s.84,2.83,1.86,5.81c2.43,7.12,5.16,21.22,8,41.3,3.12,22.21,5.49,34.37,9,46.12,3.85,12.86,7.44,20.53,15.4,33,10.83,16.92,19.11,35.51,33.67,75.57,14.32,39.41,19.86,53.36,28,70.47,4.81,10.15,12.49,24.27,14.65,27,.53.66,1.19,3.34,1.47,6a87.67,87.67,0,0,0,7.37,26.64c3.33,7.28,4.65,9.22,10.32,15.15,7.25,7.58,12.73,10.9,22.09,13.4a71,71,0,0,0,23.65,1.68Zm-153.9-422.06a42,42,0,0,0-1.47-4.46c-1.27-3.49-1.37-4-.83-4.24.34-.15,22.94-2.53,50.23-5.29,46.92-4.75,76.68-8,77.53-8.38a39.59,39.59,0,0,0-5.66,0c-6,.2-22.29.6-57.16,1.39-37.7.87-70.68,2.29-97,4.2l-11.75.83-3.65.26.8,2.34.8,2.34,3.22-.31a91.38,91.38,0,0,1,18.69.47,58.6,58.6,0,0,1,23,9.12c1.78,1.21,3.22,2,3.21,1.72Zm750.27,2183.22c6.64-3.22,14.55-8.78,17.58-12.37,5.06-6,5.13-7.27.86-16-18.83-38.37-61.39-55.63-95.58-38.76-12.24,6.05-15.46,9.41-17.92,18.75-3.51,13.32-3.9,35.33-.72,40.29,3.67,5.72,41.32,14,63.2,14,13.38-.05,24.7-2.1,32.58-5.91ZM1307.64,2933c54.23-1,99.61-2.83,100.85-4.14,3.58-3.78-21.41-53-37.84-74.5-20.05-26.24-46.94-41-69.47-38.24-31.52,3.93-87.65,35.56-121.17,68.26-18.36,17.92-24.37,27.13-28,42.88l-2,8.75,29.48-.62c16.22-.34,73.86-1.42,128.09-2.39Zm905-89.36c14.11-5,35.32-10.72,47.13-12.78l21.47-3.74-1.35-13.15a101.41,101.41,0,0,1,1.58-26.56l2.92-13.41-12.69,1.84c-7.12,1-23-.42-36.19-3.3-12.93-2.82-24.51-5.12-25.74-5.12s-8.1,7.34-15.28,16.32c-9.86,12.32-13.69,20.31-15.63,32.6-3,18.9-.75,37.1,4.49,36.65,2-.17,15.18-4.38,29.29-9.35Zm-202.77,52.5c20.22-2.62,38.85-4.64,39.59-5.52s1.92-31.59,3.11-64.65l3.86-66.11c-25.87,29.89-75-32-74.48-37.42-2.62,8.37-13.72,143-12.78,158.33l1.6,22.08Z" transform="translate(-320.49 -247.03)" style="fill:#ccd6f6;isolation:isolate;opacity:0.6290000081062317"/></g><path id="path8" d="M964.56,3201.05c401.1-17.88,896.59-82.79,1309.89-171.6,89.36-19.2,116.14-25.46,118.18-27.61.74-.78-3.28-2.33-9-3.45-12.26-2.43-19.43-10-21.92-23.07-2.73-14.39,3.64-18.94,29.43-21.05,29.39-2.4,39.18-6.51,20.71-8.69-11-1.29-14.35-3.29-18.11-10.66-4.28-8.41-4.2-9.35,1-12.73,20.93-13.52,24.75-17.53,29.32-30.77a201.34,201.34,0,0,0,6.64-23.84l1.74-9.62L2355,2874.3c-227.42,47.95-520.28,81.2-892.43,101.32-246.83,13.35-416.07,17.65-768.14,19.56-190.76,1-314.71,2.9-323.31,4.88a45.08,45.08,0,0,0-23.21,13.34c-24.91,27.22-19.84,59.3,14.56,92.11,53,50.55,174.23,83.62,346.18,94.46,46.34,2.92,200.13,3.57,255.91,1.08Z" transform="translate(-320.49 -247.03)" style="fill:#ccd6f6;stroke:#00e696;stroke-miterlimit:15.118103981018066;stroke-width:2.845983153724262px;isolation:isolate;opacity:0.6290000081062317"/><path id="path10" d="M964.56,3201.05c401.1-17.88,896.59-82.79,1309.89-171.6,89.36-19.2,116.14-25.46,118.18-27.61.74-.78-3.28-2.33-9-3.45-12.26-2.43-19.43-10-21.92-23.07-2.73-14.39,3.64-18.94,29.43-21.05,29.39-2.4,39.18-6.51,20.71-8.69-11-1.29-14.35-3.29-18.11-10.66-4.28-8.41-4.2-9.35,1-12.73,20.93-13.52,24.75-17.53,29.32-30.77a201.34,201.34,0,0,0,6.64-23.84l1.74-9.62L2355,2874.3c-227.42,47.95-520.28,81.2-892.43,101.32-246.83,13.35-416.07,17.65-768.14,19.56-190.76,1-314.71,2.9-323.31,4.88a45.08,45.08,0,0,0-23.21,13.34c-24.91,27.22-19.84,59.3,14.56,92.11,53,50.55,174.23,83.62,346.18,94.46,46.34,2.92,200.13,3.57,255.91,1.08Z" transform="translate(-320.49 -247.03)" style="fill:#ccd6f6;stroke:#00e696;stroke-miterlimit:15.118103981018066;stroke-width:2.845983153724262px;isolation:isolate;opacity:0.6290000081062317"/><path id="path12" d="M328.68,3032.37c.68-8.84,16.55-28.15,28.91-35.18,8.52-4.86,38.51-5.53,333.82-7.51,356.1-2.4,528.54-6.69,753.05-18.75,420.41-22.59,720.27-58.51,976.4-117,9.11-2.08,10.7-3.82,11.51-12.64.52-5.62,0-10.22-1.12-10.22s-36.2,6.37-77.91,14.15c-227.39,42.45-425.8,69.55-593.47,81.08-77.83,5.35-511,14.36-1080.53,22.46-130.31,1.85-249.46,4.76-264.77,6.47-45.19,5-76.14,21-85.16,43.95-2,5-3.06,16.1-2.42,24.66s1.39,12.41,1.69,8.53ZM2698,2838.42c15.24-11.64,27.18-21.72,26.53-22.41s-9.82.3-20.37,2.2c-34,6.13-32,4.79-34.29,22.59-1.16,8.87-1.54,16.72-.84,17.46S2682.73,2850.06,2698,2838.42Zm7.36-25.79c14.52-2.77,26.41-6,26.41-7.25s-4.62-4.53-10.27-7.35c-10.72-5.36-27.52-6.55-43.84-3.11-8.59,1.81-9.5,3.06-8.68,11.9,1.11,12,2.57,12.24,36.38,5.81Z" transform="translate(-320.49 -247.03)" style="fill:#ccd6f6;stroke:#00e696;stroke-miterlimit:15.118103981018066;stroke-width:2.845983153724262px;isolation:isolate;opacity:0.6290000081062317"/><path id="path18" d="M1611,527.56c.71-.75,20-1.73,42.75-2.18l41.46-.81V501.75c0-12.55.89-29.7,2-38.1l2-15.27-39,2.07c-21.42,1.14-44,3-50.27,4.11l-11.32,2v36.17c0,33,.49,36.16,5.53,36.16,3,0,6.12-.61,6.83-1.37Z" transform="translate(-320.49 -247.03)" style="fill:#ccd6f6;stroke:#00e696;stroke-miterlimit:15.118103981018066;stroke-width:2.845983153724262px;isolation:isolate;opacity:0.6290000081062317"/><path id="path20" d="M1837.06,574.86c27.9-9.08,71.91-10.47,90-2.84,10.51,4.43,14.73,4.43,43.07,0,17.27-2.71,41.26-8,53.29-11.74l21.89-6.82,0-13.05c0-33.75-14.49-105.41-29.24-145.07-13.17-35.39-37-54.45-68.3-54.75-20-.19-32,3.83-68.6,23.1-50,26.33-64.55,51.18-72.39,123.9-3.77,35-1.06,95.64,4.25,95,1.87-.22,13.59-3.71,26-7.76Z" transform="translate(-320.49 -247.03)" style="fill:#00e696;stroke:#00e696;stroke-miterlimit:15.118103981018066;stroke-width:2.845983153724262px;isolation:isolate;opacity:0.6290000081062317"/><path id="path22" d="M1821.8,405.31c6.66-17,27.68-34.52,61.92-51.74,28.84-14.49,36-16.8,56.1-18,18.86-1.15,25.63-.19,37.47,5.34,8,3.7,15.06,6.74,15.78,6.74,3.49,0-20.47-31.12-34-44.18-34-32.78-75-47.85-137.11-50.36-45.42-1.84-58.1.47-105.57,19.26-58.5,23.16-109,64.65-126.71,104.18-5,11.22-9.16,22.13-9.16,24.25,0,2.43,7.49.3,20.37-5.8,70.09-33.17,153.93-27.79,209.42,13.45l8,5.91Z" transform="translate(-320.49 -247.03)" style="fill:#00e696;stroke:#00e696;stroke-miterlimit:15.118103981018066;stroke-width:2.845983153724262px;isolation:isolate;opacity:0.6290000081062317"/><path id="path24" d="M1622.76,588.7c14.11-1.64,60.29-3.24,102.62-3.54l77-.56-.89-52.81c-.68-40.39.29-58.34,4.12-76.34,8-37.56,8-37.54-10.24-49.15-27.2-17.31-52.11-24.42-91.57-26.12-31.61-1.36-38-.66-63.16,6.94-15.39,4.65-36.22,13.05-46.3,18.67L1576,416l-3.58,20.67c-6.62,38.18-10.21,93.22-8.16,124.69l2,31.18,15.41-.43c8.48-.24,27-1.78,41.07-3.42Zm-30.18-94.23v-44l37-3.74c41.88-4.24,65.71-4.66,70.27-1.24,2,1.48,2.7,17.11,2,42.42L1700.64,528l-44.89,2.14c-24.69,1.17-48,3.44-51.77,5a50.77,50.77,0,0,1-9.14,3.12c-1.24.11-2.26-19.61-2.26-43.81Z" transform="translate(-320.49 -247.03)" style="fill:#00e696;stroke:#00e696;stroke-miterlimit:15.118103981018066;stroke-width:2.845983153724262px;isolation:isolate;opacity:0.6290000081062317"/><path id="path26" d="M1477.89,643.12c44.3-10,101-15.51,197.69-19,51.46-1.87,104.43-5.27,117.71-7.55s44.12-11.49,68.54-20.44,46.49-16.27,49.05-16.27,4.65-1.33,4.65-3-7.13-3.88-15.84-5c-17.26-2.23-53.62,4.36-78.13,14.18-11.73,4.7-18.35,5.25-37.84,3.17-26.48-2.83-123.19,1.32-185.1,7.95-36.36,3.89-46.32,6.41-92.47,23.43-28.44,10.49-55.61,21.29-60.36,24-8.62,4.92-8.62,4.93-1.1,4.62,4.15-.17,19.08-2.93,33.2-6.12Zm379.27,1901.23c45.71-9.2,84.87-28,111.14-53.28l15.78-15.19,2.12-72.46c1.75-59.91,1.06-85.16-4-145.63-13-157.29-14.46-213.69-7.47-298.6l2.06-25L1970,1938c-17.44,9.83-61.63-13.3-112.06-58.66l-16.13-14.52-13.12,21.52c-19.38,31.81-53.19,106.27-64,140.81a553.94,553.94,0,0,0-14.37,59.65c-2.74,16.18-6.17,29.42-7.63,29.42-5.68,0,7.74-68.07,20.51-104l7-19.73-23.21-9.39c-33-13.35-46.14-16.58-68.37-16.76-22.52-.18-40.84,5.16-40.84,11.9,0,2.56,2.7,10.25,6,17.09,8.51,17.59,48.31,119.54,48.31,123.77,0,7.64-5,2.86-8.87-8.43-29.6-87.14-105.34-245.72-117.36-245.72-1.34,0-4.71,5-7.49,11.17-6.23,13.78-48.47,60.56-73,80.82-25.49,21.08-37.34,28.08-56.1,33.14-15.57,4.2-16.49,5-20.19,18.36-8.35,30-12.77,72.55-12.78,122.8,0,77.4-11.93,155.53-36.22,237.49-6.68,22.53-12.94,46.26-13.92,52.75l-1.8,11.79,43.82,32.15c51.91,38.07,60.19,42.77,93.15,52.81,53.93,16.42,112.53,18.16,151.75,4.5,10.87-3.79,26.79-6.43,39.37-6.54,18.48-.15,23.78,1.25,42.26,11.22,11.62,6.27,26.56,13,33.2,15,19.2,5.76,84.37,6.92,109.14,1.93Z" transform="translate(-320.49 -247.03)" style="fill:#00e696;stroke:#00e696;stroke-miterlimit:15.118103981018066;stroke-width:2.845983153724262px;isolation:isolate;opacity:0.6290000081062317"/><path id="path28" d="M1783.5,1960.39c6-14,20.74-43,32.82-64.42,16.68-29.58,23.63-45.65,28.84-66.6,17.09-68.9,67.18-178.53,129.91-284.35,43-72.46,56.23-88.52,84.81-102.64,15.3-7.57,20.49-8.44,48.82-8.18,34.76.3,63.1,6.75,107.52,24.45,23.61,9.41,26.21,11.37,37.46,28.27,15.81,23.76,33.21,62.66,35.27,78.86,1.89,14.84,1.23,14.68,35.55,8.15,46.68-8.89,103.3-4.24,132.25,10.84l11.92,6.22-2.1-34c-6.19-100.6-24.29-185-52.3-244-13.32-28-24.07-44.57-45.16-69.41-23.5-27.7-37.55-50.43-55.11-89.19-16.92-37.33-26.15-47.17-60.32-64.27-16.38-8.21-19.69-11.52-28.91-28.87-12.8-24.14-32.64-46.07-50.09-55.41-7.24-3.87-26.09-20.08-41.9-36-30.23-30.5-71.22-66.22-87.66-76.37l-9.75-6,2.05,17.16c1.13,9.43,4.13,30.32,6.67,46.41l4.62,29.26-17,30.38c-22.27,39.88-40.69,81.68-61.69,140-16.69,46.34-17.4,47.64-27.53,50.44-37.84,10.47-94.71-12.58-142.31-57.69-33.7-31.94-44.64-46.69-44.77-60.38-.1-9.66-1.81-12.86-9.7-18.09-12.67-8.42-22.39-24.12-25-40.4-1.16-7.27-6-19.88-10.77-28s-18.82-41.58-31.25-74.28-26.15-65.83-30.48-73.62c-7.87-14.14-7.89-14.16-17.44-9.82-5.25,2.39-61.17,29.33-124.25,59.87s-119.21,57.14-124.74,59.13c-31.56,11.34-94.63,71.17-140.27,133.07q-23.57,32-60.08,65c-44.26,40.08-96.08,92.35-95.9,96.71.08,1.75,16.48,14.63,36.46,28.63,67.66,47.41,112.4,95.33,138.66,148.52,14.09,28.54,10.66,28.18,36.1,3.78,29.63-28.41,45.68-33,58.59-16.87,10.6,13.28,12.31,21.47,12.33,58.93l0,32.14,15.09,5.6c71.86,26.63,108.73,63.47,129.6,129.48,9.49,30,26.62,112.15,34,162.79,4.36,30.08,6.62,38.34,11.18,40.92,13.37,7.54,33.38,37.55,58.37,87.55l17.41,34.82,10.57-4c24.31-9.26,72-3.53,107.17,12.87,9.53,4.44,18.28,8.07,19.46,8.07s7-11.44,13-25.42Z" transform="translate(-320.49 -247.03)" style="fill:#2b4366;stroke:#00e696;stroke-miterlimit:15.118103981018066;stroke-width:2.845983153724262px;isolation:isolate;opacity:0.6290000081062317"/><path id="path30" d="M1738.13,665.43c1-3.35,7.3-6.93,12.4-7.75,3.11-1.08,13.07-2.9,21.09-2.88,9.8,0,19.2.19,30.86,3.26,8.79,1,19.62,8.15,18.74,9.38-10.47-4.54-33.34-10.33-63.34-2.84-7.37,1.84-24.32,7.18-19.75.83Zm-135.54,20.48c-.84-1.37-1.14-1.06-1.69-3-.4-1.37-1.32.56,11.61-1.35,7.45-1.1,10.69-1.35,14.15-1.12,6,.42,11.37,1.65,14.67,3.38,2.36,1.23,2.75,1.65,2.88,3.09.21,2.22-22.82-4.18-27.6-1-3.44,0-12.6,1.61-14,0Z" transform="translate(-320.49 -247.03)" style="fill:#ccd6f6;isolation:isolate;opacity:0.6290000081062317"/><path id="path940" d="M1730.21,909.79c-10.33-.61-19.06-2-25.68-4.22-3.56-1.18-2.65-.63-4.93-2.11a1.77,1.77,0,0,1,.18-3.06c.19-.08.58-.28,6.3-.21,19,.25,23.31-.06,70.75-5.11,17-1.82,17.64-2.75,19.31-2.3,1.29.34,2.59,3.7-1.53,5.69-3.69,1.79-8.7,3.68-12.07,4.94-8.34,3.1-17.89,5-30.38,6.07-4.57.39-17.54.57-22,.31Z" transform="translate(-320.49 -247.03)" style="fill:#a0a0a0"/><path id="path1012" d="M2459.63,2785.32c41.72-18.93,88-60.21,110.79-98.86,30.42-51.56,37-91.1,32.36-194.38-1.83-40.85-5-161.91-7-269-2-107.44-5.29-203.11-7.29-213.38-3.29-16.91-21.93-73.07-29.8-89.76-1.75-3.72-6.39-28.87-10.3-55.89-19.14-132.29-46.15-234.26-67.3-254.12-22.73-21.32-56.56-33.77-91.76-33.77-22.71,0-23,.12-25,9.91-1.09,5.45-3.84,63-6.1,127.86-3.09,88.49-3.18,131.69-.35,173,3.76,54.86,3.84,55.23,24.56,113.28,11.43,32,24.28,62.38,28.54,67.45,6.1,7.24,8.27,15.23,10.16,37.44,7.31,85.68,29.91,183.79,71,308.2,40.09,121.43,44.15,142.19,41.63,212.72-1.1,30.81-3,59.39-4.22,63.51-1.29,4.36-8.44,10.5-17.06,14.68-16.89,8.17-51.33,44.11-64,66.76-13.13,23.5-12.05,24.91,11.12,14.39Z" transform="translate(-320.49 -247.03)" style="fill:#ccd6f6;fill-opacity:0.07228914648294449"/><path id="path1014" d="M2463.71,1565.12c0-9.78-2.39-38.36-5.29-63.51-12.94-112-40-190.44-85.27-247.63-29.41-37.12-38.73-51.68-59.4-92.77s-28.47-50.06-58.28-66.77c-11.83-6.63-23.38-16.24-27.74-23.1-21.12-33.18-32-45.7-54.46-62.5-13.51-10.11-24.56-17.7-24.56-16.87s13.79,25.54,30.65,54.9,47.8,87.67,68.78,129.58c81.9,163.61,117.34,270.29,117.34,353.15V1565l27,2.26c14.86,1.24,36.58,5.25,48.26,8.91s21.62,6.67,22.08,6.7.85-8,.84-17.74Z" transform="translate(-320.49 -247.03)" style="fill:#ccd6f6;fill-opacity:0.07228914648294449"/><path id="path1016" d="M1219,1284.64c80.69-81.24,173.66-161.86,208.56-180.85,30.28-16.49,45.52-18.7,128.81-18.75,82.69,0,97.61-2.44,114.69-18.44,4.69-4.39,17.93-12.67,29.44-18.42l20.91-10.44-3.52-12.78c-1.93-7-7-19.64-11.22-28s-18-41.15-30.5-72.82c-26.12-66-34.19-83-39.32-83-2,0-59.14,26.67-127,59.27s-124.59,59.27-126.16,59.27-13.37,7.45-26.24,16.55c-27.77,19.65-75.52,68.09-108.89,110.47-13.2,16.76-54.79,60.66-92.42,97.54l-68.43,67.07,14.46,10.84c8,6,28.75,21.89,46.22,35.39s32.13,24.56,32.57,24.56,17.54-16.86,38-37.46Z" transform="translate(-320.49 -247.03)" style="fill:#ccd6f6;fill-opacity:0.07228914648294449"/><path id="path1018" d="M717.69,2366.55c27-4,45.64-8.8,44-11.43-1-1.61,2.75-10.1,8.31-18.87,23.58-37.18,43.72-108.71,62.84-223.12,6.52-39,17.26-91.62,23.85-116.86,34-129.86,130.5-385.29,160.95-425.81,22.06-29.35,112.13-102.82,189.32-154.41,14-9.39,26.11-17.53,26.81-18.1,2.15-1.76-32-42.86-49.26-59.21-20.62-19.59-39.24-34.26-75.65-59.6l-28.8-20.06-81.28,103.08c-44.7,56.7-91.25,114.7-103.44,128.89-38.57,44.88-56.17,74.77-72.52,123.15-16.57,49-60.73,247.94-75,337.89-4.59,28.87-9.78,57.83-11.53,64.35-3.76,14-34.79,52.11-82.67,101.61-37.48,38.75-66.38,77.39-75.25,100.61-4.86,12.74-5.07,17.41-1.5,33.37,9.94,44.39,42.66,89.37,76.49,105.13,17.13,8,45.62,12.13,64.33,9.39Z" transform="translate(-320.49 -247.03)" style="fill:#ccd6f6;fill-opacity:0.07228914648294449"/><path id="path1020" d="M1266,2632.44c1.53-7.69,5.08-224.2,12.46-761.64,3.42-248.91,3.42-249,11.12-264.16,16.17-32,55.09-49.48,119.76-53.87l36.59-2.48-37.22-18.22c-34.13-16.7-39.59-18.34-65.71-19.71-101.53-5.32-135.77,34.23-168.2,194.29-6.78,33.45-12.88,61.73-13.56,62.83s-8.2,41.16-16.71,89l-15.47,87,5.29,43.09c8,64.84,23.12,152.14,49,281.87,22.36,112.24,77.36,366.16,79.87,368.74.66.69,1.93-2.36,2.81-6.77Z" transform="translate(-320.49 -247.03)" style="fill:#ccd6f6;fill-opacity:0.07228914648294449"/><path id="path1022" d="M2043.72,2762.5c2.79-1.07,13.22-9.35,23.18-18.41s25-20.53,33.51-25.49l15.41-9-2-86.61c-3.88-170-24.9-277.63-76.93-393.88-16.94-37.82-52.88-104.25-56.41-104.25-2.18,0,.33,43,7.9,135.48,5.62,68.66,5.51,85.8-2.26,346.57-2.81,94.21-2.58,112.59,1.51,120.49,5.93,11.48,30.64,34.22,37.17,34.22a36.8,36.8,0,0,1,9.3,1.43,17.12,17.12,0,0,0,9.59-.52Z" transform="translate(-320.49 -247.03)" style="fill:#ccd6f6;fill-opacity:0.07228914648294449"/><path id="path1024" d="M1982.75,2898.57c2.79-.61,18.37-2.87,34.63-5,35-4.64,31.91,2.3,34.39-77.35,1.21-38.71.65-51.11-2.2-48.26-5.8,5.8-24.77,4.58-36.13-2.33-5.57-3.39-14.65-11.85-20.17-18.8l-10-12.65-2,14.57c-7.62,56-11.5,152.18-6.11,151.35,1.39-.22,4.82-.89,7.62-1.5Z" transform="translate(-320.49 -247.03)" style="fill:#ccd6f6;fill-opacity:0.07228914648294449"/><path id="path1026" d="M2239.32,1492.45c14.53-2.8,5.28-14.85-20-26-19.89-8.79-64.21-23.18-66-21.42-2.89,2.89,14.27,30.56,24.56,39.59,10.48,9.2,13.78,10.19,32.71,9.78,11.57-.26,24.48-1.13,28.67-1.93Z" transform="translate(-320.49 -247.03)" style="fill:#ccd6f6;fill-opacity:0.07228914648294449"/><path id="path1028" d="M1985,2562.2c.43-15,1.39-46.92,2.11-71s1.06-44.79.73-46.1-.71,3.28-.83,10.19-.59,13.5-1,14.63c-.81,2.06-.72-4.41.77-54.15.45-14.82.64-33.68.42-41.91l-.4-15-2.88,11.3c-3.58,14.05-11.48,30.23-17.7,36.27-11.36,11-53.2,25.06-101.14,33.91-18.91,3.49-17,3.37-17,1.07,0-1.27,8.54-6,26-14.57,28.47-13.85,37-19.16,54.19-33.56,11.63-9.77,53.3-51.54,56.91-57.05,1.58-2.42,2-5.76,1.88-16-.06-7.09-.41-15.86-.76-19.49s-.89-10.89-1.21-16.16-1-13.89-1.47-19.16l-.89-9.58-2.12,11.14c-2.51,13.19-6.73,24.93-11.8,32.84-10.38,16.17-44.07,39.88-104.77,73.73-30.39,16.95-75.6,40-77.28,39.49-.77-.26,6.64-6.58,16.46-14.06,39.68-30.18,73.58-57.6,85.94-69.5,29.9-28.78,57.4-67.11,81.21-113.16,5-9.59,8.3-14.87,8.73-13.77a79.17,79.17,0,0,1,1.82,9c1.08,6.84,1.11,6.7.56-3-.31-5.6-1.61-26.08-2.88-45.51-2.61-40.09-4.78-89.79-5.28-121.55-.19-11.85-.28-3-.2,19.76s-.25,39.16-.75,36.53c-1.37-7.35-1.31-84.59.07-88,1-2.61,1.21-2.24,1.39,3,.11,3.3,1.7-14.22,3.54-38.91s3.65-49.22,4-54.49l.72-9.58-1.83,7.18a86.91,86.91,0,0,0-1.91,16.77c-.07,7.49-.26,8.48-.86,4.52-.62-4.12-1.1-4.84-2.56-3.91-2.35,1.51-3.93,1.5-3,0s.48-1.53-4.94.73c-4.45,1.86-8.23,1.84-20.21-.11-2-.32-.63.43,3,1.67,8.11,2.78,5.27,3.22-3.66.57-11.4-3.39-35.34-16.36-34.05-18.45.31-.5-.75-1.78-2.37-2.84-3.45-2.27-4.7-2.47-3.53-.57,2.94,4.75-30.7-21.36-51-39.62-7.41-6.65-13.61-11.94-13.79-11.76s-5,8.14-10.73,17.69c-18.16,30.29-46.47,90.21-61.11,129.33-9,24-18.91,65.92-24,101.49-.36,2.49-1.23,3.89-2.44,3.89-1.47,0-1.71-.83-1.11-3.89a54.46,54.46,0,0,0,.83-8.09c0-3.76.15-3.89,1-1.19.73,2.4,1.2,1.21,2.4-6,.82-4.94,2.82-15.66,4.44-23.83s2.75-15.4,2.52-16.09-1.37,3.29-2.53,8.85c-2.61,12.5-3.2,14.63-3.88,14s5.37-28.23,6.43-30c.34-.57,1-.41,1.46.35s2.11-3.36,3.63-9.15,4.85-16.69,7.37-24.22,4.34-13.93,4-14.24c-.67-.67-.46-1.2-7.11,18.35-2.92,8.56-5.34,15-5.39,14.26s2.06-8,4.7-16.06,4.79-14.93,4.79-15.16-8.49-.42-18.86-.44c-18.47,0-36-1.29-77-5.5l-20.35-2.09V1993c0-6.76,1.73-8.88,8.56-10.46,12.32-2.86,30.26-3.89,44.41-2.55,18.4,1.73,28.75,4,47,10.25l17.66,6c1.54.53,2.1.08,2.1-1.69s-2.42-3.46-11.25-7.34c-16.4-7.19-35.65-14.25-48-17.61-21.57-5.87-53.44-5-66.84,1.76-6,3-6.23,3.35-6.13,8,.07,3,2.5,10.24,6.42,19.16,8.72,19.86,31.48,77.35,30.87,78-.28.28-5.26-11.5-11.07-26.16s-15.26-37.6-21-51L1632.77,1975l2.83-1.85c4-2.62,16.21-7.53,18.82-7.56,1.93,0,2-.23.38-1.82-2.43-2.44-4.22-2.29-13.3,1.13l-7.8,2.94L1618.16,1937c-8.54-16.92-19.85-38-25.13-46.86-9.27-15.53-13.33-21.27-11.64-16.48.47,1.33.29,1.86-.47,1.39a2.51,2.51,0,0,1-.6-2.77c.68-2.12-9.73-16.53-11-15.25-.38.39.36,1.92,1.66,3.4,5.94,6.78,4.88,6.66-1.38-.15l-7-7.64-1.46,7a86.32,86.32,0,0,1-2.38,9.32c-.64,1.61-.49,2,.49,1.43,5.13-3.17-3.82,11.26-17.36,28-23.43,29-65.52,67.58-87.92,80.63-5.92,3.45-9,4.3-5.21,1.44,3.1-2.35,1.56-2.29-3.52.13-2.27,1.09-3.88,2.63-3.57,3.43.5,1.31-9.34,5-18.73,7.08a26.3,26.3,0,0,0-6.63,2.89c-3.3,2-3.93,3.53-6.81,15.9-1.75,7.5-3.73,16.87-4.41,20.83-3.75,22-8.49,84.31-8.5,111.9,0,29.55-5.69,87.75-9.09,93.13a10.92,10.92,0,0,0-1.66,4.79c0,1.81.19,1.86,1.18.34.7-1.08,1.17-1.23,1.18-.37a2.73,2.73,0,0,1-1.13,2.13,2.12,2.12,0,0,0-.47,2.47,5.94,5.94,0,0,1-.24,3.85,9.85,9.85,0,0,0-.63,4.32c.19,1.49-.2,1.93-1.18,1.33s-1.25.18-.64,3.46c.51,2.7.36,4.36-.4,4.36s-.92,1.52-.47,3.78c.54,2.68.36,3.53-.61,2.94s-1.15.23-.63,2.8.28,3.66-.92,3.67-1.26.27.15,1.18c1,.64,1.2,1.17.47,1.18s-1.09,1.28-.76,3,.06,3-.57,3-1.05,1.18-.94,2.62c.24,3.3-4.41,26.32-8.53,42.18-1.72,6.64-3.4,13.29-3.73,14.77s-1,2.7-1.39,2.7-.89,1.1-1,2.45-3.16,12.8-6.79,25.45c-8.43,29.32-12.58,46.59-13,54l-.31,5.9,32.33,23.78c55.07,40.52,69.72,49.48,94.21,57.68,57.79,19.33,118.89,22.27,162.43,7.81,4.16-1.38,7.79-2.29,8.06-2,1,.95-15.66,7.15-23.4,8.72-10.42,2.12-34.33,4.2-48.11,4.18-35.44,0-78.86-8.23-111-21-6.1-2.42-11.35-4.14-11.67-3.83-.87.88,15.41,7.32,30.7,12.16,15.87,5,43.27,10.75,60.13,12.57s49.4,1.54,67.85-.6c12.54-1.46,18.14-2.74,25.75-5.86a115.58,115.58,0,0,1,13.78-4.85c2.59-.55,3.51-1.19,2.56-1.78-2.06-1.28-.52-2,7.68-3.49s27.74-1.61,31.21-.12c2.08.89,1.92,1-1.2,1.21-2.47.12-1.17.7,4.14,1.85,4.7,1,8,1.24,8.43.55.76-1.23,12.38,3.71,13.69,5.83.52.84,0,1.06-1.35.61s-1.23.07.84,1.79c3.48,2.88,5.76,3.35,3.59.73s-.88-2.26,10.78,3.6a183.23,183.23,0,0,0,19.44,8.3c22.18,7.41,87,8.42,117.75,1.82,16.18-3.47,41.35-12,56.32-19.05,20.81-9.81,36.48-20.82,55.27-38.84,12.12-11.61,10.91-8.28-1.46,4-5.58,5.55-9.87,10.36-9.54,10.69s5.48-4.22,11.46-10.12l10.85-10.71-.7,11.38c-1,16-2.38,98.19-1.67,98.19.32,0,1-12.26,1.38-27.24ZM1694.75,2520c0-.66.23-1.2.52-1.2s.86.54,1.27,1.2.17,1.19-.53,1.19a1.23,1.23,0,0,1-1.26-1.19Zm290.17-44.54c.38-.95.67-.67.72.73s-.23,2-.63,1.57a2.43,2.43,0,0,1-.09-2.3Zm-456.84-197.66c-21.4-28.86-38.39-58.23-45.52-78.73l-4-11.38.12-30.54c.09-22,1.07-42.09,3.5-71.85,4-48.34,4.33-72.91,1.41-91.34-2.51-15.91-2.66-23.62-.43-23.62,3.57,0,9,9.6,14.87,26.35,6.1,17.36,6.44,22,6,83.89-.43,66.47-.73,64,12.28,103.52,12.33,37.51,18.56,63.81,20.85,88,.4,4.28,1,10.08,1.35,12.88s.17,5.09-.39,5.09-5.11-5.53-10.12-12.28Zm165-28.14c-.39-3.79-1.28-14.43-2-23.65-2.4-31.4-4.06-39.66-14.38-71.54-5.3-16.4-9.48-30.3-9.28-30.87s3.86,1.58,8.12,4.77l7.74,5.82,6.72,20.16,6.71,20.17-.54,41C1695.66,2254.3,1694.67,2265.21,1693.08,2249.65Zm68.73-2.44c0-5.7,3.58-31,7.32-51.71,10.19-56.47,34.44-150.4,45.4-175.89,1.44-3.35,3.82-6.54,5.55-7.47,2.71-1.45,3.23-1.37,4.82.74,2.92,3.86,1.34,22.15-3.63,41.91-5.92,23.6-24.46,87.7-42.1,145.55-8.23,27-15,49.36-15,49.66s-.54.55-1.2.55-1.19-1.51-1.19-3.34Zm-24.52-16.12c-.45-7.41-.63-29.91-.42-50l.39-36.52,7.81-9.58c7.65-9.39,15.08-21.3,22.59-36.22,4.06-8.09,7.39-10.42,4.26-3-6.74,16-21,56.27-22.58,63.77-2.62,12.36-5,32.09-7.49,60.77-1.14,13.34-2.45,24.25-2.91,24.25s-1.21-6.06-1.65-13.47Zm240.32-40.42,0-4.19,1,4.79a42.57,42.57,0,0,1,.94,7.19c0,1.93-.23,1.82-1-.6a28.69,28.69,0,0,1-.94-7.19Zm-1.31-15c-.09-2,.1-2.07,1.06-.59a11.69,11.69,0,0,1,1.06,5.38c-.1,3.53-.12,3.54-1.06.6a24.58,24.58,0,0,1-1.06-5.39Zm-390.76-6.28c-8-8.56-9.32-16.68-10.53-63.77-1.3-50.6-4.54-74.13-16.91-122.56-4.18-16.37-16.6-55.87-21.56-68.55-1.42-3.65-1.24-4,13.34-22.08,8.13-10.11,15-17.77,15.24-17s-5.75,9.09-13.32,18.53L1538,1911.15l8.36,24.77c9.22,27.32,18.62,62.84,23.11,87.35,5.32,29.08,6.9,46,7.91,84.78,1,37.27,1.95,46.32,5.9,53.88,2.82,5.41,6.34,8.39,9.92,8.39,4.26,0,5.85-3.34,8.85-18.63,2.76-14,2.75-42.52,0-56.82-3.45-17.9-8.89-53.27-15.11-98.19-10.25-74.14-16.69-119-17.48-121.85-.42-1.5-.22-2.69.44-2.69,1.8,0,2.15,1.94,8.67,48.5,15.89,113.47,20.67,146.37,23.41,161.18,4.35,23.47,5.53,39.87,4,56-1.31,14-4.87,30.43-7.24,33.28s-9.84,2-13.26-1.66Zm391-3c.33-.82.61-.15.61,1.5s-.28,2.32-.61,1.5A4.67,4.67,0,0,1,1976.56,2166.42Zm-1.56-8.68c0-.66.52-.39,1.16.6a7.21,7.21,0,0,1,1.16,3c0,.66-.52.39-1.16-.59A7.19,7.19,0,0,1,1975,2157.74Zm.33-7.46c.3-1.16.57-.5.59,1.47s-.22,2.93-.55,2.12a6.76,6.76,0,0,1,0-3.59Zm-1.34-13.49.06-4.2.91,3.6a35.38,35.38,0,0,1,1,6.58c.06,2.72,0,2.78-1,.6a20.23,20.23,0,0,1-1-6.58Zm-1.17-21.56,0-4.19,1,4.79a42.48,42.48,0,0,1,.94,7.18c0,1.94-.23,1.83-1-.59a28.69,28.69,0,0,1-.94-7.19Zm-285.19,3.89c-2.8-6.09-7.45-19.66-6.92-20.19.29-.29,2.15,3.93,4.13,9.38s4.16,9.91,4.85,9.91c1.92,0,3,1.49,2.11,2.92-1.29,2.09-2.57,1.47-4.17-2Zm-3.7-17.63c-2.8-7.55-5.52-13.47-6-13.15s-1.33-.05-1.81-.82-.35-1.08.52-.55q2.57,1.59.15-4.76c-.68-1.78-1-3.45-.76-3.71s3.18,6.68,6.48,15.43c6.74,17.84,7.89,21.3,7.1,21.3C1689.27,2115.23,1686.73,2109.05,1683.93,2101.49Zm59.91-7.22c0-2.3.43-4.19,1-4.19s.74,1.89.47,4.19-.7,4.2-1,4.2S1743.84,2096.58,1743.84,2094.27Zm2.25-11c1.05-1.8,1.28-1.85,1.31-.29,0,2-1.22,3.83-2.07,3C1745.05,2085.7,1745.39,2084.49,1746.09,2083.29Zm-72.65-2.95c.3-.9.85-.35,1.27,1.26.52,2,.36,2.46-.52,1.58a3.09,3.09,0,0,1-.75-2.84Zm-3.84-8.36c0-.66.54-.87,1.2-.46a2.65,2.65,0,0,1,1.19,1.94c0,.66-.54.86-1.19.46A2.63,2.63,0,0,1,1669.6,2072Zm-5.95-16c0-.65.52-.38,1.16.6a7.19,7.19,0,0,1,1.16,3c0,.66-.52.39-1.16-.6A7.19,7.19,0,0,1,1663.65,2056Zm-9.52-22.42c-33.58-79.31-76.32-163-86-168.43-1.6-.9-2.81-.55-5,1.43-2.74,2.48-2.84,2.49-2,.22a47.49,47.49,0,0,0,1.53-5.69c.37-1.81,1.09-3.29,1.61-3.29,1.3,0,9.48,10,15,18.31,3.35,5.08,4.86,6.52,5.68,5.38s.9-.88.39.68,1.35,5.63,5.22,12c3.26,5.41,10.53,18.7,16.15,29.52s10.22,19,10.24,18.17-3-7.48-6.63-14.78-6.22-13-5.69-12.65,7.11,13,14.62,28.07l13.66,27.45,5.5-2.06c10.38-3.89,11.48-3.64,2.65.59-4.87,2.33-9,4.24-9.07,4.24s-3.12-6.28-6.67-13.94-6.61-13.43-6.82-12.8,2.38,7,5.76,14.24c10.92,23.28,39.41,90.9,39.41,93.55C1663.61,2055.59,1662.18,2052.54,1654.13,2033.53Zm100.08,11.6c.39-1,1-1.6,1.28-1.28s.21,1.14-.22,1.85c-1.18,1.91-1.87,1.54-1.06-.57Zm1.17-4.74c.38-1,.91-1.8,1.16-1.8s.48.81.48,1.8-.53,1.79-1.16,1.79S1755,2041.37,1755.38,2040.39Zm217.52-42.2c.28-1.82.51-.61.52,2.68s-.22,4.78-.5,3.31a21.4,21.4,0,0,1,0-6Zm1.46-21.87c.48-8.63,1.13-15.43,1.45-15.12s.18,7.64-.29,16.28-1.13,15.43-1.45,15.11-.19-7.64.29-16.27Zm2.13-26.62c.26-2.16.49-.68.49,3.27s-.21,5.71-.48,3.91a31.85,31.85,0,0,1,0-7.18Zm-17-10.93a25.32,25.32,0,0,1,5.29-1.16c3.26-.51,4.22-.37,3,.41-1.64,1-9.45,1.75-8.29.75ZM1602.08,1911c-.41-1.06-.21-1.54.47-1.12a2.56,2.56,0,0,1,1.19,1.86C1603.74,1913.45,1602.88,1913.07,1602.08,1911Zm-3.13-5.32c-.71-1.32-1-2.4-.69-2.4s1.18,1.08,1.88,2.4,1,2.39.69,2.39S1599.65,1907,1599,1905.67Z" transform="translate(-320.49 -247.03)" style="fill:#ccd6f6;fill-opacity:0.05622490122914314"/></g><path id="path894" d="M1617.72,690.27a68.7,68.7,0,0,0-9.32,3.18c-2.08,1-2.71,4.52-4.1,1.3a98.74,98.74,0,0,1-4.06-11.49c0-.53.65,0,1,.81,1,2.2,1.8,2.62,5,2.61a79.47,79.47,0,0,0,12.07-1.21c1.77-.53,7.89-.16,15.27.92,3.45.51,7.22,1,8.36,1,2,0,2.09,0,2.29-.69s.22-.66.24.25c0,1.45-.71,2.82-2.59,4.7-4.43,4.44-8.14,7.64-16.82,9.88-1.56.4-1.23-1.8-1.5-3.81-.29-2.23-5.15-7.28-5.88-7.44Z" transform="translate(-320.49 -247.03)" style="fill:#a0a0a0"/><path id="path896" d="M1745.74,686c-4.88-1-7.7-2.5-8.68-4.54-1.31-2.71-1.47-7.21-.41-11.93.44-2,.48-2,1-1.53s1,.49,3.63.35c2.44-.13,4.65-.57,10.71-2.11,15.09-3.86,20.47-4.69,31.77-4.92,14-.28,24.14,1.26,35.25,5.39,2.32.86,2.56,1,3.07,2.14a7.33,7.33,0,0,1,.56,2.4c0,1-.19,1.37-1.62,2.76-6.42,5-15.77,7.52-25.1,9.63-5.93,1.34-11.73,4.18-17.17,2.18-3.22-9.51,1.92,2.73-3.74-12.06-5.35-4-11.63-11.84-24.34.83-2.07,2.46-4.83,11.42-5,11.41Z" transform="translate(-320.49 -247.03)" style="fill:#a0a0a0"/></svg>