<?xml version="1.0" encoding="UTF-8" standalone="no"?>
<svg
   xmlns:dc="http://purl.org/dc/elements/1.1/"
   xmlns:cc="http://creativecommons.org/ns#"
   xmlns:rdf="http://www.w3.org/1999/02/22-rdf-syntax-ns#"
   xmlns:svg="http://www.w3.org/2000/svg"
   xmlns="http://www.w3.org/2000/svg"
   xmlns:sodipodi="http://sodipodi.sourceforge.net/DTD/sodipodi-0.dtd"
   xmlns:inkscape="http://www.inkscape.org/namespaces/inkscape"
   width="252.46062mm"
   height="281.80835mm"
   viewBox="0 0 252.46062 281.80834"
   version="1.1"
   id="svg8"
   sodipodi:docname="background_drawing.svg"
   inkscape:version="1.0.2-2 (e86c870879, 2021-01-15)">
  <defs
     id="defs2" />
  <sodipodi:namedview
     id="base"
     pagecolor="#ffffff"
     bordercolor="#666666"
     borderopacity="1.0"
     inkscape:pageopacity="0.0"
     inkscape:pageshadow="2"
     inkscape:zoom="0.22610265"
     inkscape:cx="154.03901"
     inkscape:cy="564.94406"
     inkscape:document-units="mm"
     inkscape:current-layer="layer1"
     inkscape:document-rotation="0"
     showgrid="false"
     inkscape:window-width="1267"
     inkscape:window-height="1198"
     inkscape:window-x="1"
     inkscape:window-y="41"
     inkscape:window-maximized="0" />
  <metadata
     id="metadata5">
    <rdf:RDF>
      <cc:Work
         rdf:about="">
        <dc:format>image/svg+xml</dc:format>
        <dc:type
           rdf:resource="http://purl.org/dc/dcmitype/StillImage" />
      </cc:Work>
    </rdf:RDF>
  </metadata>
  <g
     inkscape:label="Layer 1"
     inkscape:groupmode="layer"
     id="layer1"
     transform="translate(26.048382,-73.928169)">
    <path
       style="fill:#00e696;fill-opacity:1;stroke-width:0.380473"
       id="path871"
       d="m -229.6344,414.0293 c 3.12933,-6.83039 6.68806,-7.30456 15.58594,-5.21954 0.80174,0.19217 3.22154,0.41471 2.40522,0.57646 -2.15314,0.42665 -4.48436,0.1423 -6.71925,0.27835 -0.56412,0.0344 -1.57438,-0.14549 -1.66411,0.23209 -0.0871,0.36628 0.97572,0.34978 1.49885,0.46332 2.38943,0.5187 4.96852,0.79533 7.41661,1.1152 7.1541,0.83183 14.4145,1.0183 21.65757,1.08423 0.84249,0.004 1.68499,0.007 2.5275,0.008 4.74158,0.009 7.30037,-0.091 -7.68368,0.74272 -1.19027,0.0663 -2.40212,-0.10587 -3.58285,0.0154 -0.46736,0.048 0.91606,0.16297 1.38354,0.21042 1.33928,0.13602 2.68786,0.22633 4.0318,0.3395 8.34926,0.60917 16.75049,0.41119 25.12284,0.21777 4.69449,-0.12183 9.39204,-0.15925 14.0895,-0.17313 4.07871,-0.006 8.15744,0 12.23615,0 4.08576,0.004 8.17153,0.004 12.25729,0.004 4.09565,2.2e-4 8.1913,1.9e-4 12.28696,1.9e-4 4.09616,-3e-5 8.19232,-3e-5 12.28849,-3e-5 4.09605,-4e-5 8.19209,-4e-5 12.288133,-4e-5 4.679803,-2.2375 11.525194,-0.97439 16.561082,-2.75623 3.705555,-1.31114 -0.374982,-1.34392 2.767368,-1.71794 7.351103,-0.87494 6.985737,-0.77425 12.861568,-0.98254 4.921974,0.7287 0.955815,1.13309 1.01455,2.41882 0.606351,0.17043 0.515303,0.17706 1.339206,0.20223 4.355653,0.13302 8.709832,0.36167 13.069917,0.3521 2.20134,-0.005 4.388811,-0.23958 6.578053,-0.39524 2.672765,-0.19007 2.040067,-0.18179 1.00893,-0.23158 -12.149764,-1.01519 10.999246,1.78712 12.125156,-2.64388 0.453307,-0.23584 -1.993057,-0.12923 -1.491393,-0.15134 3.847485,-0.1696 7.702068,-0.269 11.545447,-0.47683 0.0336,-0.004 8.495783,-0.80126 2.889085,-0.0394 -1.647649,0.30706 -10.252487,0.64911 -4.53584,-1.98426 6.055194,-0.10858 12.194419,0.85341 18.242877,1.06892 2.098925,0.0748 6.752462,-0.10338 9.53498,-0.20035 -0.353934,0.15384 -3.779248,0 -2.295432,-0.43541 12.658391,-1.0496 7.943914,-0.44076 16.551627,-1.66546 0.622021,-0.0885 2.463726,-0.4063 1.869759,-0.25336 -0.128461,0.0331 -0.802848,0.13577 -0.931397,0.15596 0.634991,0.94903 14.069454,-0.14787 17.841364,-0.44517 0.31018,-0.0243 1.24009,-0.0789 0.92802,-0.0866 -1.08812,-0.0266 -2.17451,0.0861 -3.263159,0.0989 -0.533569,-0.0285 -2.116111,0.0125 -1.600691,-0.0848 3.29584,-0.62229 6.70183,-0.94474 10.02192,-1.50517 1.20717,-0.20373 2.37598,-0.50137 3.54713,-0.78516 0.17844,-0.0433 0.65195,-0.1254 0.49135,-0.19342 -0.2275,-0.0963 -1.05872,0.11189 -0.80031,0.0625 2.91413,-0.55661 5.85103,-1.05735 8.77654,-1.58605 4.96763,-0.77856 12.21338,-2.30743 20.44127,-4.43181 0.69872,-0.17347 1.35766,-0.45666 2.09611,-0.52044 2.53879,-0.21924 -10.31674,2.45258 -3.56109,1.14946 2.17397,-0.41938 4.27371,-0.99794 6.42171,-1.47442 4.24133,-0.94085 8.62281,-1.56467 12.93529,-2.3443 3.39315,-0.4714 7.93322,-0.88089 9.93084,-3.13015 0.84046,-0.94632 -3.9331,1.27997 -4.8713,0.37651 -0.83292,-0.80208 2.21113,-1.27819 3.17406,-2.01093 0.12234,-0.0931 -0.36826,0.0106 -0.55238,0.0159 1.60671,-0.59894 3.2134,-1.19789 4.82012,-1.79682 -0.9834,-0.0216 -2.44147,0.50409 -2.95017,-0.0645 -0.54698,-0.61133 0.71614,-1.34419 1.09265,-2.01162 0.0417,-0.0738 0.20736,-0.28354 0.16101,-0.21087 -0.14718,0.23122 -0.83565,0.66522 -0.46422,0.68695 18.1093,1.05886 2.15987,-1.14346 11.33792,0.23227 -0.18232,0.34453 -1.08617,1.07042 -0.54694,1.03366 2.20988,-0.15068 4.18729,-1.0063 6.3191,-1.42727 0.26156,-0.0516 1.01994,-0.10492 0.81718,0.0181 -0.56808,0.34441 -2.78218,0.80364 -2.02949,0.71699 20.65773,-2.37797 4.76348,-1.31393 12.19195,-1.78028 4.29951,-1.25275 8.57682,-2.54075 12.8985,-3.7582 4.06655,-1.14554 -1.5148,1.64142 -3.56431,1.6266 -1.42161,-0.0106 2.12589,-1.27472 3.1951,-1.90726 6.12108,-3.6213 8.39568,-3.60745 4.52363,-3.34001 2.90108,-1.11491 5.72037,-2.33296 8.70326,-3.34473 0.17704,-0.06 -0.0157,0.26732 -0.0243,0.40096 0.98893,-0.62492 2.52319,-1.01068 2.96679,-1.87475 0.27961,-0.54464 -1.39125,-0.95354 -1.22456,-1.51888 0.588,-1.99441 4.28799,-3.24435 1.34465,-2.13134 2.33505,-0.7408 4.52637,-1.73923 7.00514,-2.22241 0.40282,-0.0786 0.86032,0.49496 0.63419,0.73333 -0.8962,0.94463 -5.1911,2.12966 -3.56294,2.35361 2.52277,0.34707 4.69237,-1.52393 7.22117,-1.85037 0.54744,-0.0707 -0.3013,0.77854 -0.73686,1.01332 -1.69859,0.91561 -3.67347,1.56936 -5.51022,2.35405 2.86338,-1.60869 6.05793,-2.94799 8.83784,-4.62401 0.20757,-0.12514 -0.85934,0.20411 -0.83452,0.0169 0.19391,-1.46245 0.50178,-2.96549 1.40276,-4.30186 1.75852,-2.60839 5.72017,-4.69979 8.7111,-6.56344 3.82582,0.30191 6.47692,-2.2846 9.83943,-2.92342 0.44241,-0.084 0.31381,0.78688 0.7728,0.77087 1.13666,-0.0396 2.11756,-0.56814 3.13891,-0.90717 2.95354,-0.98049 5.85337,-2.033 8.78005,-3.0495 -1.03071,0.55474 -2.00072,1.16515 -3.09211,1.66418 -0.43822,0.20035 0.72247,-0.52367 1.11758,-0.76138 1.09649,-0.65962 2.55327,-1.09762 3.35419,-1.92871 0.43208,-0.44835 -0.51338,-1.2286 0.0506,-1.60431 5.4046,-3.60026 4.61198,-3.50747 8.23433,-2.63837 0.96255,-0.37633 1.817,-1.33249 2.88763,-1.12891 0.79265,0.15068 -2.05522,1.52756 -1.2416,1.44184 2.4752,-0.2607 4.42397,-1.71555 6.88368,-2.03613 0.5633,-0.0734 -0.0966,0.77188 -0.14491,1.15783 2.76834,-1.07158 5.33312,-2.42998 8.30499,-3.21471 0.62637,-0.16537 -0.55413,0.82752 -0.83119,1.24128 2.70065,-1.75418 3.85747,-4.39872 6.29444,-6.25622 2.33858,-1.78256 4.88861,-3.44432 7.57046,-4.99095 0.27197,-0.15685 -0.10566,0.47764 -0.15857,0.71647 2.04669,-1.19406 4.09339,-2.38812 6.14006,-3.58216 -0.53617,0.70336 -2.67064,2.44415 -1.60854,2.11006 2.30789,-0.72595 4.00447,-2.1455 5.73321,-3.4075 0.85375,-0.62326 2.96822,-2.66795 1.93135,-2.18764 -1.7659,0.81798 -2.39144,3.98596 -4.24161,3.25781 -1.82891,-0.71976 1.79552,-2.59267 2.51897,-3.93579 0.43356,-0.80489 0.6279,-1.65961 0.94191,-2.48944 0.68473,-3.38931 3.37017,-5.98007 6.58372,-8.49838 1.97981,-1.10019 4.10948,-2.08789 5.93945,-3.30055 0.23955,-0.15875 -1.09564,0.24956 -1.00594,0.0313 1.19848,-2.9172 4.73124,-6.19851 8.17113,-7.94783 0.70136,-0.35666 1.5049,0.61272 2.2853,0.88449 0.89598,-1.13928 1.60984,-2.35287 2.68802,-3.41774 0.33435,-0.33024 -0.96944,1.29904 -0.40983,1.16762 1.77546,-0.41693 2.7629,-2.18546 4.64242,-2.16158 1.19897,0.0154 -1.80487,4.25107 -0.49109,2.23176 5.52895,-6.90328 7.6959,-6.3937 6.41043,-12.81374 -0.23294,-1.16342 -1.85791,-2.23663 -1.46511,-3.38031 0.94391,-2.74845 6.37804,-5.13666 9.81335,-6.35858 0.77187,-0.16448 1.72658,-0.11867 2.31563,-0.49343 1.26277,-0.80334 1.89464,-1.96776 2.98522,-2.87884 2.71711,-2.26993 3.48101,-1.26011 5.0934,-4.93921 0.32551,-0.74277 -0.7718,-1.62103 -0.26745,-2.31677 0.89656,-1.23662 2.76538,-2.02407 4.14805,-3.03609 9.41995,3.87622 -9.92371,-3.50049 7.46631,-0.55008 1.25225,0.21246 1.08926,1.67032 0.94288,2.53637 -0.39772,2.35303 -2.8e-4,5.25953 -2.53703,6.89537 -8.47595,5.46581 -19.32712,8.95702 -28.99065,13.43555 0,0 -59.63312,-114.63144 -59.63312,-114.63144 v 0 c -10.72588,4.73039 -22.66677,8.39606 -32.17759,14.19114 -0.44978,0.27406 -7.4451,11.55879 -7.68859,13.90879 -0.0722,0.69535 1.08644,1.18555 1.62966,1.77831 -0.59697,1.53043 -1.19391,3.06087 -1.79085,4.5913 -0.42199,3.37344 -4.67552,2.06711 -6.39064,3.47139 -0.77792,0.63694 -1.15522,1.45934 -1.85083,2.1383 -3.48992,3.40633 1.95247,-4.18649 -3.26733,4.07883 -0.28533,0.50111 -2.92231,5.77719 -3.98514,6.00292 -3.99034,0.84752 -10.40348,1.32208 -10.7283,-0.28852 -0.37774,-1.87293 2.01409,-3.52744 3.02114,-5.29116 -4.40861,2.2715 -8.55,5.05248 -10.30748,8.76387 -0.15401,0.32503 0.90025,0.31042 1.35039,0.46563 -1.36582,1.30294 -2.73166,2.60587 -4.09748,3.90879 -0.2608,0.18058 -0.60571,-0.2953 -0.90857,-0.44296 -1.35068,1.44684 -4.77909,4.686 -4.79224,6.52622 -0.003,0.5691 1.84823,-0.49712 1.98392,-1.05881 0.58361,-2.41576 -5.66556,1.52273 -6.51457,2.29104 -0.49182,0.44506 1.56789,-0.33602 2.35182,-0.50403 -4.85978,3.06157 -9.86235,6.31865 -16.26683,7.804 -0.74838,-0.0412 -1.74182,0.25243 -2.24515,-0.12373 -0.61327,-0.45834 0.39195,-2.17089 -0.37628,-1.83546 -2.81781,1.23027 -4.41473,3.42109 -6.84061,4.98642 -0.14772,0.0953 -0.58104,-0.19769 -0.43319,-0.29297 0.82544,-0.5319 11.98448,-5.84853 -0.81314,2.24496 12.33327,-5.57689 -4.57132,1.71741 0.34685,1.10839 7.55079,-0.93504 5.18504,-2.20668 3.74927,-3.62618 -0.22606,-0.22348 -0.26225,-0.6113 -0.64851,-0.6837 -0.49057,-0.0919 -0.97795,0.19146 -1.46691,0.28719 -9.09054,6.77776 -0.55336,-0.32213 1.87398,1.06173 1.36036,0.77556 -3.42256,1.53017 -3.4876,2.73142 -0.0411,0.75826 3.79981,-0.93768 3.35281,-0.2415 -1.18993,1.85322 -4.88315,2.46988 -6.49481,4.1824 -0.93373,0.80534 -2.57647,1.40463 -2.80118,2.41603 -0.13021,0.58622 3.29208,-0.63103 2.42032,-0.70188 -6.07264,-0.49356 -11.52136,3.18486 -15.78265,5.19592 1.63641,-0.32494 3.20559,-1.03181 4.90925,-0.97484 0.70211,0.0235 -0.87833,0.74194 -1.34994,1.09388 -1.27166,0.94895 -2.67074,1.82123 -3.87831,2.80763 -0.15069,0.12304 -0.007,0.33591 -0.13441,0.47018 -1.14628,1.20393 -3.90087,2.61977 -5.14593,3.36318 -1.03852,-1.18814 -3.38075,-4.23298 -5.1524,-4.50009 -1.58211,-0.23852 -2.93336,1.72494 -4.44573,1.33091 -1.19406,-0.3111 4.22281,-1.50971 2.10978,-2.16579 -2.88172,1.12124 -5.8788,2.11706 -8.64517,3.36371 -1.40428,0.63283 -3.9425,1.11415 -3.81343,2.25067 0.10375,0.91396 4.76689,-1.21807 4.0175,-0.45367 -1.66784,1.70125 -10.31159,4.35786 -10.3285,6.14968 -0.007,0.70126 2.04977,-0.22853 3.07465,-0.34279 -1.81674,0.74439 -3.43521,1.77727 -5.45025,2.23317 -0.63169,0.14292 -1.13074,-0.55569 -1.79452,-0.59404 -1.69435,-0.0979 -3.39469,0.25028 -5.09332,0.19606 -0.20114,-0.006 -0.0919,-0.43846 -0.26334,-0.36708 -1.17249,0.48842 -4.54132,1.82722 -3.16444,1.79498 2.05148,-0.048 3.67657,-1.23333 5.51484,-1.85 -1.60176,0.47619 -3.1878,1.87993 -4.80526,1.42857 -1.22267,-0.34119 1.83157,-1.30547 2.53389,-2.06241 0.21324,-0.22983 0.50391,-0.9083 0.13021,-0.80885 -2.75512,0.73302 -5.27283,1.82715 -7.81433,2.85334 -0.52475,0.21187 -1.92827,0.96209 -1.34244,0.84389 3.44679,-0.69538 6.7187,-1.73755 10.07805,-2.60632 -4.20026,2.76443 3.26525,-2.47411 5.44297,0.17406 0.32882,0.39986 -8.02106,1.71766 -9.07536,2.56963 -0.51207,0.41381 2.89477,-0.75623 2.33115,-0.37415 -1.2922,0.87595 -3.11095,1.30479 -4.66641,1.95719 -0.42561,0.52322 -1.71325,1.05055 -1.27678,1.56967 0.60944,0.72484 4.07319,0.26678 3.41302,0.97109 -1.17191,1.25026 -3.95815,1.27996 -6.01012,1.79965 -1.7924,0.45395 -3.59214,1.01162 -5.50033,1.1155 -1.49736,0.0815 -2.95027,-0.38343 -4.42539,-0.57515 -2.61377,0.41615 -5.22752,0.8323 -7.841285,1.24845 0.131087,-0.12782 0.614059,-0.4275 0.393207,-0.38348 -1.697124,0.33829 -3.203359,1.10744 -4.951658,1.2921 -0.4818,0.0508 -0.6142,-0.69789 -1.097347,-0.65321 -3.020713,0.27938 -5.797542,1.51216 -8.845138,1.57275 -1.384389,0.0275 2.252938,-1.12399 3.541191,-1.4673 0.324041,-0.0864 -0.292345,0.42698 -0.438518,0.64046 2.657031,-0.33901 5.284764,-0.80813 7.971041,-1.01702 0.955585,-0.0743 -1.781867,0.55637 -2.740444,0.61026 -0.824059,0.0463 3.116097,-0.74599 2.323487,-0.58683 -4.676779,0.93909 -9.213877,2.08961 -13.764191,3.26673 1.483693,-0.39812 3.011438,-0.7283 4.451044,-1.19431 0.519866,-0.16828 -2.224691,0.40909 -1.673427,0.29514 11.329378,-2.34198 -5.435733,0.95435 -6.888028,0.93853 1.575803,-0.29614 4.993469,0.20117 4.727375,-0.88842 -0.264535,-1.08321 -3.209275,0.3562 -4.815583,0.52726 -1.157412,0.12326 -2.305898,0.30771 -3.475456,0.35572 -0.153139,0.006 -0.500597,-0.16884 -0.353706,-0.19851 2.035866,-0.4113 4.929588,0.16296 6.206379,-0.98383 1.065371,-0.95691 -3.541823,0.12077 -5.312733,0.18113 -4.414816,0.30055 -6.094369,0.34272 -10.346281,0.8953 -0.838953,0.10906 -2.203163,-0.11461 -2.482471,0.43053 -0.240979,0.47024 1.469727,0.0766 2.20502,0.11083 2.92932,0.1367 5.91384,0 8.788765,0.4022 1.402294,0.19664 -2.855446,0.1531 -4.28317,0.22965 -4.560813,0.33222 -4.579505,0.30364 -9.117636,0.75384 -2.094809,0.20783 -4.161706,0.64731 -6.279007,0.64786 -0.36041,1.3e-4 0.685501,-0.15051 1.028233,-0.22579 2.488264,-0.18901 4.976524,-0.37802 7.46477,-0.56703 -8.374395,-0.12107 -16.82849,-0.15509 -25.077304,0.97032 -2.12193,0.73624 -1.301423,0.27267 2.224919,0.7129 2.854086,0.35629 5.795955,0.50443 8.542885,1.13719 0.808921,0.18635 -1.688489,0.18298 -2.538067,0.24603 -2.984327,0.22159 -2.666254,0.14837 -5.763735,0.0594 -1.147418,-0.17541 -2.328737,-0.26988 -3.442246,-0.52619 -1.478688,-0.34042 -2.774431,-1.03385 -4.301512,-1.2565 -1.408436,-0.20536 -2.882013,-0.0171 -4.322704,0 -5.621434,0.0638 -11.241748,0.31409 -16.789687,0.95823 -0.371412,0.0515 -7.589264,0.92791 -8.814242,1.45263 -0.334989,0.14348 0.735933,0.23205 1.131939,0.24831 2.607314,0.10716 5.299128,-0.30442 7.834412,0.12023 3.184749,0.53342 -12.735576,0.19735 -9.797359,0.64558 -1.287551,-0.008 -2.613566,0.1856 -3.862665,-0.0253 -0.535748,-0.0905 -1.677417,-0.7691 -1.12993,-0.81803 3.136566,-0.28028 6.328194,0.019 9.491193,0.0709 1.520314,0.0247 -3.041847,-0.0125 -4.562259,0.009 -4.878108,0.0705 -5.2101,0.13952 -10.092409,0.4105 -1.402123,0.12542 -2.81058,0.22195 -4.206367,0.37626 -0.561754,0.0621 -2.197984,0.14777 -1.659428,0.27222 0.997476,0.23052 2.111148,0.009 3.160978,0.0748 13.511397,0.84346 11.606018,0.56892 6.217121,0.8428 -1.233754,0.0626 -2.46471,0.14836 -3.697065,0.22255 -8.897429,0.76375 -17.861017,1.91227 -25.895432,4.73048 -0.260621,0.18799 -1.152656,0.50369 -0.781866,0.56394 1.060597,0.1723 4.341606,-0.0463 3.263955,-0.16069 -4.538685,-0.48145 -3.695394,0.94903 -7.891972,-0.83962 -0.249679,-0.10646 0.279136,-0.35134 0.418704,-0.527 2.261343,-0.48062 4.522691,-0.96127 6.784038,-1.44188 -4.096016,0 -8.192028,0 -12.288038,0 -4.09588,-4e-5 -8.19176,-4e-5 -12.28764,-6e-5 -4.09636,-7e-5 -8.19271,-1.6e-4 -12.28907,6e-5 -4.1071,0 -8.21422,0 -12.32133,0.005 -4.11995,0.005 -8.23989,0.0125 -12.35985,0.0137 -3.47017,-0.006 -6.95627,0.0287 -10.41067,-0.22371 -3.26249,-0.44591 1.0173,-0.87532 2.12338,-0.83437 1.08293,-0.13907 1.24761,-0.11378 -1.47109,-0.32211 -2.32799,-0.17835 -4.65563,-0.4362 -6.99854,-0.43954 -4.54882,-0.007 -9.08757,0.29082 -13.63294,0.41024 -0.0891,0.004 -3.10604,-0.0131 -3.29998,-0.0141 -0.41924,-0.004 -3.76925,-0.31218 -2.94348,0.32787 -0.1364,0.60375 -2.5151,0.39492 -3.81717,0.36197 -6.48985,-0.16418 -13.68435,-1.35215 -19.84414,0.29952 -8.89787,2.08502 -12.45661,1.61085 -15.58593,-5.21951 0,0 0,123.66952 0,123.66952 z" />
    <path
       style="fill:#ccd6f6;fill-opacity:1;stroke-width:0.390511"
       id="path879"
       d="m -62.236099,464.84986 c -1.662586,-0.18456 -2.473491,-5.71978 -3.567157,-5.94689 -0.150955,-0.0315 -0.422575,1.42469 -0.470897,1.65506 -0.301346,1.897 2.355904,2.07492 4.588923,2.28988 7.284507,0.0937 15.773868,1.225 23.167113,-0.0554 0.176431,-0.0304 -0.358707,-0.0452 -0.540258,-0.0564 -2.606796,-0.1591 -0.25491,0.0551 -2.714176,-0.19506 7.516334,-1.09029 8.812634,-1.03105 14.435522,-2.36545 0.200546,-0.0476 0.715004,-0.11695 0.554994,-0.20994 -0.323181,-0.18779 -2.488387,0.21179 -2.94933,0.25041 16.391241,-0.60066 18.442423,-0.16199 32.8119573,-2.92553 0.2486495,-1.07449 0.8166895,-2.1376 0.7459475,-3.22344 -0.2177401,-3.34226 -14.3017218,1.04096 8.3359212,-3.01172 0.884504,-0.15843 1.90383,-0.52578 2.721838,-0.25315 0.482772,0.16098 -0.640236,0.5953 -1.085619,0.79847 -0.962908,0.43928 -2.057234,0.73632 -3.085848,1.10449 3.289312,-0.41192 6.578618,-0.82385 9.86793,-1.23577 0.69363,-0.003 2.346264,-0.43676 2.080889,-0.0119 -0.37226,0.59548 -3.552725,1.03051 -2.612872,0.8632 3.985077,-0.70943 7.852666,-1.68262 11.791722,-2.49722 0.45079,-0.0932 1.79868,-0.36406 1.375133,-0.22568 -1.369736,0.44752 -2.822728,0.77315 -4.234098,1.15977 -2.030982,0.38788 -8.113145,1.57567 -6.092975,1.16371 3.688077,-0.75217 7.40737,-1.43579 11.097158,-2.18428 0.394526,-0.0801 1.550735,-0.37025 1.151785,-0.30043 -5.548344,0.97078 -21.6658,3.72622 2.658114,-0.55213 0.613516,-0.15435 2.492271,-0.51409 1.840515,-0.46337 -3.058662,0.23801 -22.063625,5.21328 9.368957,-2.36451 0.421583,-0.1017 0.994753,-0.12835 1.211469,-0.38848 2.384448,-2.86227 1.631243,-2.3471 -1.491657,-2.56439 -1.195445,0.18922 -4.761329,0.80672 -3.586357,0.56769 3.012765,-0.61291 6.183721,-0.90491 9.104009,-1.69022 0.782062,-0.21029 -3.047368,0.36312 -2.528753,-0.0778 1.077101,-0.91594 10.080895,-3.85706 11.305999,-4.27129 2.324207,-0.33379 -1.880783,0.96376 -1.259937,0.9188 3.170452,-0.22969 6.170077,-1.09396 9.310971,-1.46128 0.589382,-0.0688 2.054252,-0.18705 1.777796,0.16456 -0.391859,0.49829 -11.209792,4.09577 2.463625,-0.62133 -1.052444,-4.84307 0.655398,-6.7309 6.90404,-9.47221 0.630277,-0.27652 1.485283,-0.54428 2.196143,-0.37462 0.474496,0.11322 0.220599,0.65187 0.330884,0.97781 2.729338,-0.18505 5.458627,-0.37009 8.187966,-0.5551 0.858608,0.23818 2.313654,0.12307 2.575865,0.71462 0.27003,0.60902 -2.487093,1.48286 -1.54681,1.60657 2.168723,0.28529 19.171157,-6.83673 10.040877,-2.86996 5.8828,1.15067 9.71334,-10.4 12.61121,-12.1158 1.47607,-0.87396 3.40922,-1.33399 5.11387,-2.00102 7.36632,0.78363 -5.642,-0.42504 10.95383,-0.66603 1.11891,-0.017 2.0403,0.81324 3.15621,0.75644 1.82032,-0.0926 3.39504,-1.43418 5.1797,-1.1807 1.4999,0.21306 -2.6429,1.11886 -4.14464,1.32771 -0.92692,0.12885 1.55469,-0.71707 2.33203,-1.07562 -2.57624,2.31289 -0.28973,-0.0136 7.82266,-0.94592 0.58481,-0.0671 1.87161,0.0452 1.66654,0.414 -0.43313,0.77899 -4.06329,1.72796 -2.81516,1.65184 10.74912,-0.65568 7.55596,-4.02979 9.64344,-1.60538 19.30455,-7.39251 -19.23906,5.13986 12.59059,-5.1762 0.2116,-0.0685 -0.14076,0.32441 -0.33599,0.41166 -1.8172,0.81214 -7.73871,2.64489 -5.62789,2.25356 3.15095,-0.5842 5.88412,-1.89766 8.82617,-2.84648 -0.91155,1.00191 -10.37131,3.51765 -7.63603,2.84168 4.35479,-1.07625 11.1193,-2.81022 13.22505,-5.17394 0.6226,-0.69886 -0.0556,-1.6218 -0.0833,-2.43267 1.15915,-1.0713 2.31831,-2.14263 3.47743,-3.21392 -0.33357,0.0119 -1.2916,0.14482 -1.00073,0.0359 2.50485,-0.93786 5.01612,-1.90818 7.72359,-2.55313 0.34469,-0.0821 0.39727,0.62059 0.74098,0.53671 1.26226,-0.308 2.04639,-1.22683 3.31344,-1.52603 0.83589,-0.19741 -1.29754,0.80213 -1.94631,1.20319 0.84201,-0.44975 1.83756,-0.79671 2.52603,-1.34925 0.5496,-0.44109 -2.78567,1.35243 -2.09846,1.00609 4.37762,-2.20622 7.75199,-3.81496 11.37413,-5.57705 -0.38682,0.25592 -1.67912,0.88233 -1.16044,0.76781 2.84494,-0.6281 5.40021,-1.77335 8.275,-2.33856 0.33857,-0.0665 0.20121,0.69709 0.52773,0.60794 1.38143,-0.3773 2.41103,-1.16985 3.62918,-1.74313 0.76212,-0.35868 -2.77104,1.61815 -2.26105,1.09922 0.6642,-0.67582 1.83174,-1.06287 2.74762,-1.59429 -0.74057,0.28765 -3.01092,1.08679 -2.22169,0.86298 6.13999,-1.74134 13.84272,-3.50281 15.8398,-8.64474 0.42603,-1.09687 -4.37996,-0.79712 -4.22505,-1.92492 0.57174,-4.16241 3.56987,-3.38865 6.13258,-2.93688 2.40407,-0.67278 4.63946,-1.72901 7.21217,-2.01834 0.68966,-0.0777 0.9112,0.70234 1.36678,1.0535 2.61391,-0.85882 4.99164,-2.16321 7.84166,-2.57653 4.41273,-0.63997 -9.04037,8.19599 -4.50219,2.52712 1.16156,-1.45093 3.98709,-1.95408 5.98063,-2.9311 1.49463,-1.02006 3.61302,-1.76135 4.48389,-3.06024 0.31335,-0.4673 -2.16833,-0.55095 -1.76913,-0.98866 1.93348,-1.14396 3.86697,-2.28788 5.80043,-3.4318 0.0371,0.2567 -0.24415,0.8761 0.11107,0.7701 5.41992,-1.61818 6.80216,-2.87448 10.67171,-5.38241 -0.62714,0.65852 -3.00376,2.20716 -1.88145,1.97552 2.87576,-0.59362 6.89097,-3.35324 8.65944,-5.1211 0.55178,-0.5516 0.89958,-1.18488 1.2414,-1.80646 0.26993,-0.49096 1.29045,-1.75498 0.58693,-1.51837 -1.41724,0.47666 -2.09313,1.58463 -3.13972,2.37695 -2.24654,0.0726 -0.83037,0.1796 -0.40952,-3.09379 0.67012,-5.21229 0.14634,-4.55745 4.68939,-9.75155 3.2734,-3.74251 1.88984,-3.55995 5.59829,-2.78905 2.06163,-0.49691 3.9937,-1.55465 6.18495,-1.49072 5.93388,0.17317 -1.08458,2.44008 3.43578,2.1294 1.38003,-0.0949 3.12889,-1.49159 3.93345,-1.93397 2.33711,-1.28508 4.74263,-2.5146 7.11392,-3.77192 -3.50311,-1.18145 0.44717,0.43474 4.07935,-3.58356 2.91449,-3.2243 -1.307,-2.67872 1.68216,-5.32512 4.0399,-3.57667 8.07334,-3.77316 4.38831,-3.47087 1.46585,-0.80331 2.53876,-2.14196 4.39755,-2.40992 0.85425,-0.12308 -0.39178,1.74026 0.4809,1.70667 3.68658,-0.14194 12.2888,-6.28059 13.09971,-6.84251 1.04593,-0.72476 2.4725,-3.391 2.72952,-2.40363 0.3261,1.25265 -1.63793,2.30052 -2.45691,3.4508 0.1933,-0.78934 0.38664,-1.57866 0.57995,-2.36798 0.53403,-1.56918 1.16675,-3.12509 1.60214,-4.70754 0.19336,-0.70274 -0.1955,-1.49353 0.28047,-2.13468 0.85641,-1.15361 4.4249,-4.30156 6.24075,-5.71783 2.74115,-1.97519 6.31651,-3.77409 6.2051,-6.88287 -0.0465,-1.29468 -1.69195,-2.33888 -2.36249,-3.55509 -0.29236,-0.53034 -0.24203,-1.1241 -0.51237,-1.65954 -2.10733,-4.17357 -2.5573,-1.88697 -1.10038,-4.98961 0.79649,-1.03559 4.24448,-5.60756 5.1212,-6.33862 4.42959,-3.6937 2.62689,0.69905 6.42128,-4.41286 1.21924,-1.6426 1.76584,-3.46876 2.70034,-5.19116 0.77912,-1.43598 1.62666,-2.85529 2.44,-4.28295 2.27461,-3.54402 2.27487,-3.66951 4.7367,-7.03715 0.75771,-1.03654 1.23662,-2.19661 2.33543,-3.08934 0.74473,-0.6051 2.17353,-0.68454 2.99699,-1.24312 9.4539,-6.4129 0.36276,-2.06241 8.19015,-5.50262 5.5018,0.019 -0.8085,0.28748 7.01236,-1.80666 0.66284,-0.17749 1.68131,0.39624 2.14375,0.035 1.79412,-1.40132 2.64282,-3.23064 3.99928,-4.83311 5.19919,-6.14229 3.99354,-3.06624 5.01087,-8.12034 -0.0737,0.0496 -0.27921,0.20638 -0.22049,0.14874 0.74798,-0.73415 1.55727,-1.44074 2.2912,-2.18111 1.14831,-1.15838 1.29601,-3.26478 3.3541,-3.51377 2.81945,-0.34113 -1.36681,5.84024 3.38617,2.09735 1.3965,-1.09977 2.26036,-2.45305 3.39056,-3.67955 -0.41353,1.58421 -1.44871,3.15119 -1.2405,4.75267 0.0697,0.53523 1.3045,-0.68264 1.70899,-1.14858 1.14968,-1.59761 2.29931,-3.19522 3.44899,-4.79287 -0.51956,0.36421 -1.57281,1.59334 -1.55864,1.09264 0.0214,-0.76903 6.16313,-11.23794 -1.34671,1.87386 2.31756,-2.28919 3.54285,-3.35467 5.2579,-6.55672 0.15615,-0.29142 -1.32573,0.71752 -1.2553,0.4119 0.29329,-1.27231 2.7676,-4.81005 1.99666,-3.62833 -4.12816,6.32801 -3.6957,5.62872 -0.90482,3.0139 1.31456,-1.70628 2.62913,-3.41258 3.94369,-5.11889 -0.3571,0.0813 -1.14512,0.4889 -1.07131,0.24372 0.38713,-1.28549 1.84098,-2.37845 2.10532,-3.67742 0.0842,-0.41357 -0.89916,0.8553 -1.51026,0.75375 -0.93791,-0.15588 -2.02783,-0.70819 -2.06576,-1.3481 -0.0776,-1.30712 1.17572,-2.49845 1.76358,-3.74766 -0.13764,-0.11117 -0.49867,-0.20159 -0.4127,-0.33371 1.35894,-2.08823 3.63649,-3.80543 5.37956,-5.73847 1.32115,-1.46519 1.52066,-3.65067 3.78694,-4.4632 1.37519,-0.49304 -0.002,2.07034 3.3e-4,3.10551 0.8417,-1.57636 1.68341,-3.15273 2.5251,-4.72909 -0.26519,0.009 -0.86118,0.19529 -0.79557,0.0249 0.41081,-1.06622 1.44737,-1.98917 1.95601,-3.03678 0.13578,-0.27966 -0.98933,0.96602 -0.81892,0.6948 0.58005,-0.92334 1.56437,-3.61578 2.061,-2.67191 0.68424,1.30048 -0.89537,2.6909 -1.34308,4.03634 0.70018,-0.40377 1.19407,-1.07872 2.10051,-1.21131 0.64982,-0.095 -1.47789,1.46304 -1.16416,1.07435 0.90833,-1.1253 2.1594,-2.12814 2.95313,-3.29075 0.0903,-0.13225 -0.42762,-0.0634 -0.64142,-0.0952 1.00155,-1.23585 0.91636,-3.47419 3.00463,-3.7076 1.89082,-0.21134 -1.28928,2.39196 -1.9339,3.58792 3.85411,-1.75121 4.06808,-5.48589 7.54103,-7.3548 1.56248,-0.84083 -2.82195,4.98805 -1.97045,3.7801 1.34251,-2.23272 2.685,-4.46547 4.0275,-6.6982 -0.31644,-0.28423 -1.03957,-0.50442 -0.94937,-0.85263 0.35527,-1.37164 1.45655,-2.61128 2.18482,-3.91692 0,0 -163.98153,-48.80879 -163.98153,-48.80879 v 0 c 1.75914,-5.88714 -1.39022,5.99216 -2.49929,0.41343 -0.30576,-1.53796 3.68669,-5.65838 2.33272,-4.39156 -1.83447,1.7164 -3.30325,3.70485 -3.8161,5.77947 -0.31117,1.25876 1.90029,-4.16176 3.79535,-2.88699 -1.38231,1.95908 -2.82002,3.9014 -4.14682,5.87721 -0.2691,0.40075 1.43883,-1.45863 0.97106,-1.14806 -1.08265,0.71876 -1.86591,1.61171 -2.84554,2.39254 -0.34332,0.27364 1.21668,-1.17213 0.93462,-0.86939 -1.08512,1.16448 -2.48178,2.21302 -3.34503,3.45613 -0.25171,0.36248 0.0773,0.79601 0.11579,1.19401 -1.15895,2.19526 -2.39318,4.37376 -3.47683,6.58579 -0.0382,0.078 0.19165,0.15401 0.13865,0.22823 -0.33424,0.46809 -4.45145,5.85647 -5.50101,6.35331 -0.82741,0.39168 0.51936,-1.30206 0.77904,-1.95309 -0.64054,1.90548 -1.94512,3.76472 -1.92164,5.71643 0.008,0.65328 1.16995,-1.08202 1.97285,-1.46213 0.19074,-0.0902 0.67304,0.0982 0.59746,0.24524 -0.57675,1.12154 -1.70169,2.09069 -2.36462,3.1912 -0.0542,0.0901 0.39444,0.11067 0.32429,0.19575 -0.82685,1.0028 -1.89758,1.90867 -2.84638,2.86301 -2.18166,-2.88646 -7.9068,4.05155 -8.20207,4.25672 -0.45292,0.31479 0.99473,-1.54285 0.49281,-1.26255 -1.71027,0.95519 -5.74102,6.10321 -0.36587,-0.37658 0.0111,2.91914 0.0993,1.01996 -4.54367,7.31969 -0.27801,0.3772 0.8822,-1.50544 0.40337,-1.23033 -1.26294,0.7256 -1.43381,3.16412 -2.94323,2.68957 -1.21698,-0.3826 3.31135,-4.47235 2.07347,-2.29909 -1.58073,2.4345 -3.16148,4.86905 -4.74224,7.30357 0.0477,-0.32147 0.45529,-1.21265 0.14281,-0.96443 -1.25877,1.00015 -1.73095,2.38994 -3.10724,3.31972 -1.06072,0.7166 1.12386,-1.90871 2.12958,-2.65923 0.32261,-0.24075 0.0983,0.64004 0.14752,0.96008 -0.9713,2.32646 -1.94258,4.65292 -2.91388,6.9794 0.63111,-0.35898 1.13762,-1.30648 1.89334,-1.07694 0.86142,0.26163 0.64576,1.21107 0.61386,1.83843 -0.10238,2.01104 -1.17076,3.99023 -1.01242,5.99951 0.0256,0.32741 1.20508,-0.268 1.48542,0.002 1.63156,1.57205 -3.83972,4.99076 -2.50373,5.48055 -0.4997,0.27456 -1.92414,1.14871 -1.49907,0.82369 0.6871,-0.52539 1.56284,-0.92978 2.29181,-1.42985 0.4958,-0.34011 1.2882,-1.55542 1.37639,-1.08655 0.23477,1.24801 -0.98967,2.47296 -0.87942,3.72853 0.0708,0.80505 0.93527,1.48879 1.4029,2.23316 -0.34243,1.49043 -0.68484,2.98088 -1.02724,4.47134 -0.009,1.11482 -0.23304,2.23829 -0.0248,3.34443 0.0898,0.47666 0.93521,0.83152 0.90109,1.31139 -0.30023,4.22132 -3.88088,7.85852 -7.33617,11.23241 -0.69344,0.42744 -1.24482,0.98662 -2.08031,1.2823 -0.57154,0.20228 -1.47429,-0.16574 -1.9325,0.13786 -1.18755,0.78659 -2.83149,4.91369 -3.25784,5.47376 -0.51489,0.67641 -1.42394,1.18628 -2.16633,1.76263 -0.93945,0.72936 -1.91878,1.4358 -2.87813,2.15369 -8.65809,6.51546 0.97074,0.25316 -10.91748,4.89937 -1.73873,0.67952 -2.69581,2.10235 -4.52771,2.66422 -1.82472,0.55969 -3.96262,0.55311 -5.97302,0.55651 -0.39673,6.3e-4 -1.03093,-0.3081 -0.85913,-0.54496 0.16841,-0.23222 0.76245,0.1017 1.14366,0.15266 -0.94925,0.94613 -1.92558,1.8806 -2.84779,2.83839 -0.53797,0.55875 -1.21613,1.081 -1.53138,1.70983 -0.13213,0.26326 1.34341,-0.63824 0.94813,-0.5464 -1.12418,0.26117 -2.02552,1.23164 -3.19027,1.06732 -1.00369,-0.14161 -1.06419,-1.1618 -1.59628,-1.74269 -0.77504,0.0285 -1.5501,0.0572 -2.32516,0.0858 -9.16509,10.14071 -5.71392,4.81953 0.33941,3.2757 0.68221,-0.17399 2.11582,0.13039 1.99088,0.60723 -1.86192,7.10455 -4.57616,2.53837 -2.83166,5.15277 -1.74013,1.08892 -3.67332,2.0568 -5.22037,3.26679 -0.33688,0.26348 1.92234,-0.51963 1.47756,-0.33948 -1.5925,0.64507 -4.53731,1.82297 -6.60447,0.82666 -0.50051,-0.24123 1.06514,-0.41912 1.59769,-0.6287 -1.643,0.7177 -3.286,1.43541 -4.92902,2.15312 1.21057,-0.44122 2.27501,-1.15076 3.6317,-1.32364 0.81303,-0.10365 -1.2887,0.69467 -1.85172,1.09684 -3.12481,2.23206 -6.56338,6.03922 -6.96391,9.06324 -0.0892,0.67277 1.03005,1.16522 1.5451,1.74783 -1.96892,2.33929 -3.58239,5.12777 -5.26242,4.58959 -0.91365,-0.29269 -0.6718,-1.35784 -1.48468,-1.7602 -1.30594,-0.64639 -2.97917,-0.89021 -4.53284,-1.21825 -5.31627,-1.12248 -3.65754,-0.80865 -8.47312,1.52675 -2.57579,1.75077 -6.36548,5.44747 -11.10251,5.71263 -0.14536,0.009 0.0165,-0.19288 0.024,-0.2893 0.94364,-0.26899 1.88729,-0.53798 2.83097,-0.80698 -1.15761,1.56536 -3.44082,2.63868 -5.16121,3.95802 0.64611,-0.31479 4.29221,-2.17855 4.07719,-1.02203 -0.23656,1.2724 -2.68593,1.8677 -3.74516,2.94123 -0.45092,0.45703 2.71008,-1.09203 1.88747,-1.05845 -5.40351,0.22048 -7.2769,2.70986 -4.9022,0.18767 8.86286,-3.88882 -10.28052,2.09442 -8.89219,4.89278 0.47142,0.95022 3.81754,-1.48489 4.44889,-0.57635 3.10501,4.4684 -7.77376,2.47183 0.13973,3.47924 -1.27726,0.88129 -2.5545,1.7626 -3.83177,2.6439 -0.0721,-0.17426 0.0564,-0.52121 -0.21673,-0.52277 -3.12309,-0.0178 -7.01784,1.84715 -9.34356,0.46805 -3.12678,-1.85414 10.99803,-7.7753 8.53548,-5.14715 -1.22012,1.30216 -4.04811,1.48602 -6.07217,2.22905 -3.33141,-0.33241 -0.36161,-0.18248 -6.85677,2.3999 -0.0917,0.0364 0.17531,-0.25081 0.0985,-0.20167 -1.03841,0.66523 -3.88469,1.30605 -3.00886,2.06603 0.94689,0.82165 5.0582,-1.70274 4.55613,-0.72345 -0.68609,1.33827 -3.57983,1.54034 -5.36976,2.31051 -2.98702,0.13395 2.56304,-0.1956 -5.30011,1.95913 -0.57929,0.15877 1.05224,-0.58074 1.13758,-0.99191 0.0422,-0.20414 -0.65823,-0.0882 -0.93339,0.009 -8.464774,2.96455 -3.38409,1.95946 -7.426157,2.6879 -2.067599,0.98033 -4.44229,1.71746 -6.232055,2.91371 -1.059457,0.70814 -3.504519,1.23359 -3.077188,2.18874 0.368107,0.82272 4.683264,-1.31418 3.728397,-0.73329 -5.43612,3.307 -5.034866,2.51741 -6.115173,0.32407 -1.276144,-0.31796 -3.114762,-0.18468 -3.828452,-0.95389 -0.471679,-0.50837 2.50736,-1.43812 1.605964,-1.4415 -1.469192,-0.006 -5.272316,1.65441 -3.841364,1.43312 2.431864,-0.37609 8.953628,-2.86525 6.916057,-1.90863 -4.186845,1.96564 -9.621218,2.56009 -13.534188,4.86059 1.991356,-0.55492 7.588603,-2.61558 5.974039,-1.66476 -2.521346,1.48483 -5.923916,2.14469 -8.79037,3.32331 -1.191459,0.48989 -4.739907,1.85094 -3.363398,1.67397 2.402864,-0.30894 4.341332,-1.51646 6.628825,-2.0938 1.198427,-0.30248 -10.037405,3.67207 -3.690941,0.71918 -9.414267,5.24836 4.467205,-2.98941 3.157703,0.73331 -0.594869,1.6911 -4.571222,1.72732 -6.642373,2.79293 -0.929828,0.47838 -2.993308,1.17791 -2.269828,1.79233 0.882566,0.74954 4.839697,-0.94558 4.306803,-0.0624 -0.787182,1.30458 -3.686138,1.39219 -5.529211,2.08827 -4.374346,0.95768 -6.509763,1.33906 -11.402505,3.46628 -0.335299,0.14585 0.81076,0.36818 0.736902,0.62919 -0.259097,0.91568 -2.003065,1.67433 -1.643505,2.57466 0.304831,0.7633 3.286936,0.36367 3.129601,1.14652 -0.229309,1.14112 -2.554139,1.56322 -3.831225,2.34483 -3.649719,0.71475 -7.419249,0.0287 -11.175961,0.68004 -1.848256,0.32046 -3.416385,1.43271 -5.326026,1.40317 -5.532202,-0.0857 -0.961471,-3.64663 -0.470093,-4.2598 -2.302094,0.80904 -4.617918,1.60116 -6.906299,2.42711 -1.151015,0.41542 -4.012232,2.06775 -3.410601,1.29656 0.621201,-0.79627 2.262685,-0.99379 3.480029,-1.38556 0.20835,-0.067 0.869127,-0.0555 0.691658,0.043 -7.644624,4.24735 -4.082312,0.89174 -7.653131,4.90735 5.060229,1.66344 4.478927,0.69139 -2.240554,3.6352 -1.236618,0.54174 -2.371053,1.33847 -3.8352,1.49214 -0.551939,0.0579 -0.248852,-0.76868 -0.657843,-1.02055 -1.1687626,-0.71978 -2.554631,-1.27592 -3.9342905,-1.80749 -1.6544752,-0.63746 -3.4294145,-1.12689 -5.1441203,-1.69034 6.5265543,-3.01945 -7.9478105,2.28213 -6.6647075,2.63989 1.674464,0.46685 6.0568899,-1.40374 5.43689594,-0.27224 -1.28132502,2.33842 -8.07277164,1.34017 -10.13727564,3.26246 3.490864,-1.60434 -0.3512991,0.27667 -2.747459,0.36625 -0.503331,0.0188 1.222657,-0.88932 0.718676,-0.88146 -2.295648,0.0359 -4.604216,0.40014 -6.730634,0.9751 -1.647803,0.44555 3.511144,-0.3862 5.26672,-0.57927 -2.602508,0.5095 -5.20502,1.01902 -7.807529,1.52855 -2.189962,0.30768 -4.335155,1.00641 -6.569882,0.92307 -1.03601,-0.0386 -1.461872,-1.07823 -2.462434,-1.25989 -0.592051,-0.10743 -2.265073,0.62101 -1.674769,0.50879 19.369625,-3.68251 7.309334,-1.84346 2.089557,-0.45045 2.888738,-0.42836 6.469172,-2.59716 8.666216,-1.28508 2.18531,1.30507 -5.763602,0.81009 -8.605011,1.32163 -2.3547,0.42394 -4.661338,0.959 -6.970052,1.48241 -0.633576,0.14363 -2.507182,0.60564 -1.850952,0.51741 2.727703,-0.36675 10.554924,-2.21996 8.09501,-1.35698 -2.881497,1.01086 -6.260823,1.20781 -9.391233,1.81172 -2.445436,0.65562 -4.931568,1.24816 -7.336304,1.96685 -0.586354,0.17524 -2.241897,0.78023 -1.608428,0.70639 2.969816,-0.34619 5.734436,-1.66072 8.743694,-1.53816 2.183664,0.089 -4.050798,1.09787 -6.0762,1.64683 -0.461761,0.3018 -2.021289,0.82159 -1.385283,0.90543 2.034013,0.26813 4.139812,-0.17966 6.209715,-0.26949 -4.964676,1.32291 -8.135442,1.98517 -12.58594,3.77305 -0.614023,0.24668 -2.323339,0.88672 -1.611306,0.94719 1.637461,0.13906 5.932058,0.15231 4.848807,-0.67214 -2.183137,-1.66161 -8.817063,2.09862 -9.355685,-2.30028 3.655361,0.64445 -0.845427,-0.11475 10.342251,-0.87828 0.358778,-0.0244 -7.720718,0.77907 -8.597713,1.19638 -0.446716,0.21255 1.087785,0.10656 1.631689,0.15979 2.881132,0.0721 5.762276,0.14398 8.643408,0.21603 -5.207511,0.36319 -10.346404,0.84566 -15.518956,1.38063 -1.182235,0.12222 -2.355646,0.3105 -3.550682,0.34943 -0.139799,0.005 -0.379288,-0.19987 -0.24485,-0.2258 2.200233,-0.42418 4.466775,-0.67917 6.700162,-1.01875 -4.820637,0.11966 -9.63878,0.23907 -14.409776,0.75909 -0.475676,0.0519 -1.867537,0.17631 -1.39749,0.24678 1.191016,0.17853 2.446871,0.006 3.661288,0.0926 3.354997,0.23601 6.690403,0.58062 10.035605,0.87093 -7.794678,0.46495 -15.494732,1.41425 -22.978211,2.95966 -8.451141,1.72412 -20.522358,5.30947 -29.270148,2.92809 -2.5673,-0.6989 -4.71934,-1.93543 -7.07902,-2.90314 0,0 59.512697,118.49626 59.512697,118.49626 z" />
  </g>
</svg>
