<?xml version="1.0" encoding="UTF-8" standalone="no"?>
<svg
   xmlns:dc="http://purl.org/dc/elements/1.1/"
   xmlns:cc="http://creativecommons.org/ns#"
   xmlns:rdf="http://www.w3.org/1999/02/22-rdf-syntax-ns#"
   xmlns:svg="http://www.w3.org/2000/svg"
   xmlns="http://www.w3.org/2000/svg"
   xmlns:sodipodi="http://sodipodi.sourceforge.net/DTD/sodipodi-0.dtd"
   xmlns:inkscape="http://www.inkscape.org/namespaces/inkscape"
   width="252.46062mm"
   height="281.80835mm"
   viewBox="0 0 252.46062 281.80834"
   version="1.1"
   id="svg8"
   sodipodi:docname="background_drawing.svg"
   inkscape:version="1.0.2-2 (e86c870879, 2021-01-15)">
  <defs
     id="defs2" />
  <sodipodi:namedview
     id="base"
     pagecolor="#ffffff"
     bordercolor="#666666"
     borderopacity="1.0"
     inkscape:pageopacity="0.0"
     inkscape:pageshadow="2"
     inkscape:zoom="0.22610265"
     inkscape:cx="154.03901"
     inkscape:cy="564.94406"
     inkscape:document-units="mm"
     inkscape:current-layer="layer1"
     inkscape:document-rotation="0"
     showgrid="false"
     inkscape:window-width="1267"
     inkscape:window-height="1198"
     inkscape:window-x="351"
     inkscape:window-y="54"
     inkscape:window-maximized="0" />
  <metadata
     id="metadata5">
    <rdf:RDF>
      <cc:Work
         rdf:about="">
        <dc:format>image/svg+xml</dc:format>
        <dc:type
           rdf:resource="http://purl.org/dc/dcmitype/StillImage" />
      </cc:Work>
    </rdf:RDF>
  </metadata>
  <g
     inkscape:label="Layer 1"
     inkscape:groupmode="layer"
     id="layer1"
     transform="translate(26.048382,-73.928169)">
    <path
       style="fill:#8892b0;fill-opacity:1;stroke-width:0.569273"
       id="path881"
       d="m 418.03776,271.41913 c -10.10254,-0.44912 -20.20505,-0.89822 -30.30762,-1.34734 0.47136,0.52654 4.23815,1.70013 1.41464,1.57965 -5.89236,-0.25138 -10.14422,-1.26509 -14.03334,-2.11801 -1.6678,-0.36576 4.959,0.31921 7.08213,0.59354 6.0588,0.78294 9.99987,2.354 17.3174,2.55941 4.45625,0.12507 -3.94215,-1.49284 -5.91323,-2.23928 -7.5411,-1.65172 -16.04026,-3.16995 -22.62322,-4.95514 -1.01449,-0.2751 6.34612,0.50919 5.25275,0.24452 -5.29227,-1.28106 -13.9029,-2.05815 -18.43225,-3.43478 -2.61751,-0.79555 14.98186,2.40304 12.40532,1.60296 -3.21056,-0.99695 -37.68073,-6.09057 -1.72014,-0.65984 -54.55118,-9.82376 36.7962,6.74331 -19.27359,-3.50658 -4.55166,-0.83205 18.39154,3.29177 13.97717,2.43499 -5.72926,-1.11198 -11.94277,-2.13585 -17.92639,-3.20147 -4.43925,-0.79058 8.86233,1.58427 13.29354,2.37641 -51.93822,-9.38009 -3.59701,-0.64174 -5.37336,-0.96674 -60.36437,-11.04388 36.33493,6.68692 -24.2059,-4.39829 -4.18059,-0.76549 8.40941,1.52195 12.61419,2.28293 -0.31582,0.271 -1.6218,0.56525 -0.94693,0.81297 3.35774,1.23262 17.84228,2.46513 12.51936,3.43517 -3.00777,0.54814 -23.41533,-6.24165 -7.05475,-1.90755 4.62128,1.22421 5.31166,4.11766 13.16987,3.7582 7.66232,-0.35047 -7.39579,-2.56878 -11.09371,-3.85316 1.42261,0.35634 5.50179,1.44848 4.26794,1.06903 -23.877,-7.34322 -23.43343,-7.08018 -50.59182,-12.71739 3.00083,0.57809 7.01433,1.02328 9.00243,1.73424 0.56344,0.20147 -3.74211,0.10776 -3.26677,0.31683 2.65502,1.16757 17.20388,3.8114 11.23,3.18503 -6.74177,-0.70691 -8.7589,-2.36481 -13.78535,-3.45297 -26.39384,-5.7138 -42.948,-7.30506 -26.54208,-5.64677 -6.9134,-1.17697 -14.57768,-2.22013 -20.74016,-3.53091 -3.29861,-0.70161 15.16709,2.41103 12.04805,1.68209 -4.75272,-1.11074 -10.79611,-2.03264 -17.0547,-2.85217 -2.3729,-0.3107 -5.43557,-0.47438 -8.34735,-0.47398 -1.62167,1.9e-4 -4.97725,0.22187 -4.12247,0.4756 3.63163,1.07808 9.81536,1.78083 14.72306,2.67125 -10.17646,-2.38526 -24.74234,-3.94064 -35.85866,-6.14194 -1.85839,-0.368 5.01501,0.39673 7.52255,0.59509 -5.36258,-0.86426 -10.3269,-1.82025 -16.08771,-2.59276 -9.61922,-1.28992 -20.70023,-2.1993 -29.94174,-3.57966 -3.5586,-0.53153 8.42626,0.66352 12.63937,0.99528 -4.73316,-0.56959 -9.24114,-1.20832 -14.19944,-1.70876 -9.30097,-0.84687 -18.60198,-1.69375 -27.90293,-2.54064 -0.12836,0.19813 0.68897,0.62052 -0.38538,0.59438 -13.83517,-0.33651 -26.10483,-1.91565 -39.8428,-2.36744 -1.80042,-0.059 2.5519,0.48252 3.82784,0.72377 -7.46861,-0.093 -14.937256,-0.18583 -22.405873,-0.27877 0.39738,0.26107 2.65396,0.75075 1.19206,0.78319 -2.82005,0.0625 -25.1764,-1.62927 -26.31017,-1.70724 -6.06251,-0.41687 -16.05417,-0.091 -18.26685,-1.21078 -1.7606,-0.89097 10.26037,-0.16319 15.39059,-0.24477 -0.66712,-0.23909 -0.76783,-0.57347 -2.00127,-0.71721 -6.76294,-0.78814 -26.45811,-1.94605 -32.93668,-2.15672 -3.57553,-0.11627 7.46045,0.29281 10.0968,0.7525 1.79099,0.31228 -4.84347,-0.17253 -7.2652,-0.25879 3.90141,0.36671 7.80282,0.73342 11.70426,1.10011 5.08894,0.58621 10.59131,1.06545 15.26681,1.75859 1.97558,0.2929 -4.49478,-0.51314 -7.02781,-0.5371 -3.33462,-0.0316 -6.9508,0.0586 -9.80458,0.37784 -3.78154,0.42293 4.98866,1.68071 2.61311,1.44806 -3.80918,-0.37309 -6.84024,-0.9686 -10.26037,-1.45289 43.94313,0.83465 -16.2472,0.22865 4.73534,-1.57268 5.09205,-0.43714 10.85209,0.56189 15.9972,0.97744 2.70994,0.21888 -5.6918,-0.31938 -8.63106,-0.38251 -15.85783,-0.34053 13.45768,2.68657 -21.57906,-2.26675 21.40235,1.04472 -6.63621,-0.0373 -3.02411,-1.87241 1.64825,-0.8374 9.17292,0.60718 13.27915,1.07807 2.2095,0.25341 7.87356,1.13913 5.31189,1.05397 -6.6466,-0.2209 -12.23952,-1.05872 -18.56535,-1.49447 -3.44049,-0.237 -7.10302,-0.34557 -10.65451,-0.51834 -2.36294,-0.10301 -7.94656,-0.72745 -7.08882,-0.30916 1.20792,0.58906 5.77123,0.67643 8.57902,1.03585 0.39001,0.05 1.38146,0.23815 0.98877,0.18895 -8.18676,-1.02587 -31.23624,-3.31975 -13.03626,-4.07477 31.86724,6.67597 13.04828,0.85062 10.29348,1.40579 -1.9831,0.39966 6.5663,1.7732 5.51165,1.26789 -7.68576,-3.6826 -18.31613,-4.19146 -6.34221,-3.39751 3.78796,0.90038 9.58735,3.79209 11.36388,2.70116 2.20725,-1.35542 -7.22091,-2.51772 -9.45808,-3.87146 -0.5653,-0.34207 5.44229,1.01492 4.26701,0.73029 -2.53743,-0.61454 -5.45987,-1.17311 -8.38152,-1.72677 -4.40671,-0.83507 -8.95205,-3.22837 -13.59086,-2.43706 -5.12751,0.87467 4.18888,2.45573 6.28331,3.68363 -13.98707,-2.95736 -3.77907,0.52023 -4.83142,0.27746 -21.36496,-4.92886 13.83787,1.47214 -11.10626,-4.10946 -2.54492,-0.56946 -6.50191,-0.86152 -9.75286,-1.29228 -34.48203,-8.00804 7.74205,1.1758 -21.71569,-3.79092 -4.00286,-0.6749 -6.37444,-1.63137 -10.28786,-2.32383 -2.51069,-0.44424 -6.3404,-0.58649 -8.76278,-1.04706 -0.54502,-0.10357 1.63531,-0.18777 1.51802,-0.33041 -0.55262,-0.67199 -2.25747,-1.29422 -3.38619,-1.94132 -3.56512,-1.49119 -10.25179,-4.48259 -15.35262,-5.76049 -1.76801,-0.44293 -5.30419,-0.55892 -7.17199,-0.98774 -0.62336,-0.14313 2.52115,-0.13567 2.98558,0.0265 0.40395,0.14116 -1.84961,0.27717 -2.44707,0.16159 -2.67073,-0.5166 -4.08037,-1.21258 -6.12056,-1.81887 -2.46317,-0.34875 -5.512567,-0.59029 -7.389507,-1.04623 -0.49692,-0.12074 1.91503,-0.15748 1.81527,-0.30784 -0.48301,-0.72802 -3.51383,-1.37513 -3.41838,-2.10834 0.0386,-0.29652 3.73339,-0.26119 3.76545,-0.55772 0.22925,-2.12032 -4.0651,-2.46625 -10.91836,-3.74856 -16.29976,-1.77574 -17.53517,-1.16212 -27.81434,-4.45803 -3.14139,-1.00724 -4.31783,-2.25018 -8.58849,-3.10506 -1.8281,-0.36593 -5.34255,-0.1455 -8.01382,-0.21825 -2.45213,-0.68679 -4.90425,-1.37356 -7.35637,-2.06034 -4.78368,-1.61217 -15.86617,-2.44712 -20.81216,-4.01328 -2.58279,-0.81786 -3.42722,-1.78731 -5.62487,-2.64249 -6.56318,-2.55387 -8.13019,-1.05801 -2.91873,-3.11484 -3.50849,-2.19862 -13.99914,-3.88922 -22.03855,-5.51845 -3.59808,-0.72917 -8.56075,-1.26989 -11.07306,-2.13973 -1.3166,-0.45583 0.28338,-1.03126 0.42493,-1.5469 -3.71907,-0.96393 -7.43814,-1.92785 -11.15721,-2.89178 -7.89676,-2.18133 -12.58341,-2.51626 -26.19251,-2.5828 -4.3657,-0.0214 -9.57269,0.59156 -13.08704,0.11417 -4.06802,-0.55258 -3.13182,-1.77592 -5.32196,-2.61482 -1.99551,-0.76436 -4.78649,-1.44921 -7.17972,-2.17382 -4.35322,-2.27246 -7.42099,-4.62872 -9.75136,-6.99787 -0.75321,-0.76576 -2.74517,-1.53693 -2.03969,-2.30422 0.73148,-0.79554 4.71968,-1.37748 6.12738,-2.14157 2.08013,-1.12907 2.83217,-2.32683 4.24825,-3.49024 1.68204,-1.89767 -5.57372,-3.72484 -12.67266,-4.93001 -2.02965,-0.34456 -4.96632,-0.44556 -7.37322,-0.69454 -4.97366,-0.51444 -10.02391,-1.00942 -14.76036,-1.59488 -5.93171,-0.73322 -11.46483,-1.57023 -17.19727,-2.35533 -4.67463,-0.64872 -10.35552,-1.10625 -14.02394,-1.94615 -9.06141,-2.07463 -18.7982,-7.78998 -16.83642,-10.47698 1.88002,-2.57512 9.70386,-5.28811 15.58903,-7.61891 11.4599,-2.47872 12.17168,-2.95757 26.24161,-4.80323 3.92306,-0.51462 10.0617,-0.58186 12.44367,-1.35274 2.92823,-0.94765 0.6276,-2.185179 1.79162,-3.254201 1.9842,-1.822243 3.49313,-1.931549 8.84294,-3.195077 4.49222,-0.46486 4.09263,-0.570327 8.88735,-0.587761 1.06124,-0.0042 3.1317,0.261714 3.16388,0.06644 0.42476,-2.579079 -4.45988,-5.247949 -3.2379,-7.835039 3.44073,1.765559 7.66861,3.485656 10.32224,5.296676 5.52301,3.769299 1.08832,9.242922 -1.51519,12.625722 -2.45937,3.19549 -1.06292,6.69296 -9.48482,9.52344 -17.67451,5.94015 -44.61653,10.77116 -66.92475,16.15675 -28.40732,2.68864 -55.32469,5.99621 -85.22198,8.06592 -14.94232,1.03441 -31.53942,1.07937 -47.50127,1.12215 -61.83249,0.16569 -44.58056,0.55727 -75.57447,-2.01319 -26.1473,-2.1685 -33.73103,-1.23005 -22.75825,-2.33433 -8.33418,-0.52578 -16.50131,-1.15178 -25.00249,-1.57737 -1.11702,-0.056 1.64702,0.29955 2.47049,0.44935 -8.33796,-0.72819 -16.24221,-1.65663 -25.01392,-2.18454 -2.54817,-0.15334 3.59557,0.74433 5.79081,1.02767 7.55898,0.9756 16.86851,1.52923 23.36936,2.73592 4.25078,0.78905 -10.90002,-0.95533 -16.35006,-1.43299 4.18737,0.53325 8.37473,1.06652 12.56206,1.59978 -0.0777,-0.21733 -1.35708,-0.72002 -0.23306,-0.65201 6.83349,0.41353 12.34249,1.42166 19.23298,1.80179 5.91598,0.32637 -22.09556,-2.00643 -16.25381,-1.63744 38.5925,2.43767 17.24085,2.81739 36.18803,2.27177 -43.11102,-5.37022 7.53803,1.96169 10.97463,2.00314 6.62258,0.08 -11.00892,-1.48909 -14.30677,-2.54955 -1.81373,-0.58319 12.81661,1.28304 9.49802,1.00325 -4.61502,-0.38908 -8.93255,-0.88806 -13.39887,-1.33211 3.00538,0.61545 13.26333,1.57532 9.01614,1.84641 -5.2327,0.33397 -11.00755,-2.29013 -14.48922,-1.4971 -3.48496,0.7938 6.33396,1.73693 10.92723,2.30845 73.23044,9.11136 -15.50952,-4.06077 31.31222,3.05041 -35.06845,-3.451 4.60265,0.14537 -1.20124,0.94548 -4.64556,0.64043 -12.15892,-2.67362 -14.71235,-1.71407 -2.70645,1.01709 7.97044,1.7422 12.72571,2.46063 2.01992,0.30518 8.79765,0.94083 7.23553,0.55519 -4.19793,-1.03641 -10.3797,-1.74181 -15.56948,-2.61271 36.29763,6.85024 -2.12908,-0.54146 -0.007,0.38391 2.85332,1.24294 11.3709,1.80829 14.69901,3.01055 2.30966,0.83437 -7.65703,-1.23313 -11.48551,-1.84967 5.53528,1.10743 12.01186,2.07746 16.60589,3.3223 2.95658,0.80115 -7.73959,-1.31225 -11.60939,-1.96838 34.27477,6.60311 0.23274,0.37061 52.82754,8.48547 2.9335,0.4526 -12.71719,-1.56666 -9.65903,-1.14297 6.09172,0.84399 25.43631,3.08723 18.7721,2.40555 -7.93344,-0.81151 -38.05694,-5.09878 -4.4143,-0.381 -51.91381,-7.93733 -3.01479,-0.20879 -4.03022,-0.42366 -15.91125,-3.36698 -28.85713,-3.93664 -0.39113,0.0571 5.37425,0.75399 -19.3485,-3.47062 -14.77956,-2.55412 5.45952,1.09512 11.63837,2.06087 17.45762,3.0913 6.48457,2.77368 -19.67745,-2.68974 -13.09167,-3.32504 8.21874,-0.79284 23.96829,2.95317 29.33202,3.90469 1.51679,0.26908 -3.89128,-0.3943 -4.89888,-0.73487 -0.3856,-0.13036 1.51537,-0.10175 2.27307,-0.1526 2.25074,-0.79466 13.23388,1.8818 14.21993,0.96907 0.67111,-0.62121 -8.30094,-1.96855 -7.1358,-1.37263 2.10381,1.076 8.49522,1.77893 10.0911,2.88414 0.64194,0.44459 -4.51837,-0.39294 -6.77756,-0.58938 4.27524,1.19886 8.55044,2.39772 12.82565,3.59656 -2.51452,-0.27358 -8.87985,-1.29898 -7.54358,-0.82078 3.96409,1.41864 11.91976,2.3716 15.85006,3.79339 1.74505,0.63127 -6.01677,-0.88297 -9.02515,-1.32446 5.91918,1.24273 12.7519,2.35605 17.75748,3.72817 2.67776,0.73406 -7.10938,-1.18914 -10.66406,-1.78373 6.17256,1.19406 12.3451,2.38815 18.51764,3.58221 -3.94616,-0.69307 -8.70228,-1.25773 -11.83845,-2.07922 -0.77209,-0.20223 1.8033,-0.48751 1.19732,-0.7081 -3.3529,-1.22067 -9.542,-2.14355 -12.48112,-3.39983 -0.57527,-0.24589 3.03062,-0.19583 4.34075,-0.0797 3.97699,0.35259 7.2342,0.93211 10.76771,1.41919 4.22734,0.58271 8.34028,1.19301 12.5104,1.78954 -0.97046,-0.2721 -4.62109,-0.8991 -2.91138,-0.81626 2.43138,0.11781 3.74071,0.61911 5.53508,0.94336 3.18486,0.5755 6.43795,1.14056 9.39897,1.75526 1.025,0.21279 -4.11609,-0.81051 -3.56736,-0.54463 8.02494,3.88819 3.53426,3.41424 15.82173,3.92303 3.01502,0.42051 5.8665,0.88403 9.04501,1.2615 1.4584,0.17319 -4.43501,-0.94581 -3.85239,-0.64482 3.08542,1.14553 6.17083,2.29104 9.25625,3.43657 -1.51976,0.0183 -5.06271,-0.20971 -4.55926,0.0548 7.81751,4.10925 21.90557,4.63277 7.03523,3.81219 -28.59091,-6.17769 -9.79861,-2.59335 -4.70695,0.34249 0.95824,0.55252 -4.16426,-0.87048 -6.2464,-1.30571 5.9368,1.66037 12.27052,3.27489 17.81046,4.98113 1.31675,0.40555 -3.64084,-0.67347 -5.09009,-1.0634 -5.02451,-1.35178 -9.52634,-2.76701 -14.28949,-4.15052 4.46451,1.40427 9.03757,2.79702 13.3935,4.21279 1.43495,0.46639 -3.26206,-0.89039 -4.62785,-1.36375 -3.70774,-1.28508 -14.14046,-5.20585 -10.57907,-3.90681 4.3657,1.60843 8.73138,3.21682 13.09708,4.82524 -0.71727,-0.26142 -3.00007,-1.03201 -2.15177,-0.78425 6.7914,1.98354 13.32741,3.99637 19.99112,5.99454 -4.78371,-1.33093 -12.49213,-3.44483 -14.15944,-4.45516 -0.86874,-0.52644 4.98508,0.61536 7.1714,0.99041 4.92851,0.84549 8.62533,1.94439 14.11947,2.66199 1.39642,0.18239 -0.58256,-0.62127 -0.87383,-0.93191 4.68974,1.4912 9.37943,2.98238 14.06917,4.47358 -11.42156,-0.52027 -9.1916,-0.50229 14.68189,4.72084 5.01943,1.09818 -19.20026,-3.38233 -11.64301,-3.73434 8.93415,-0.41613 13.62449,2.29597 21.07302,3.29512 0.55907,0.075 0.656,-0.22425 0.98404,-0.33638 2.45345,0.37486 4.90692,0.74975 7.36041,1.12463 -1.49355,-0.30522 -5.21611,-1.30354 -4.48064,-0.91566 2.39361,1.26234 7.59805,2.31639 9.57609,3.60289 0.37146,0.24158 -4.59185,-0.26615 -4.08716,-0.0328 3.36635,1.55582 10.12417,2.81208 13.47005,4.36938 0.62069,0.28891 -3.58589,-0.0934 -4.76166,-0.31615 -5.26237,-0.99724 -9.41334,-2.17464 -14.12004,-3.26198 3.61573,1.24597 7.23149,2.49195 10.84719,3.73791 -1.89719,-0.41658 -7.21283,-1.7157 -5.69156,-1.24975 5.69415,1.74409 12.5035,3.35861 18.25121,5.09672 1.28137,0.38748 -3.43487,-0.65686 -4.81285,-1.03295 -4.93675,-1.34735 -7.90871,-5.28692 -14.09605,-4.12771 -6.2358,1.16825 9.00321,2.82566 13.5048,4.23848 -12.1697,-3.60276 1.03847,0.60196 4.77909,0.14787 5.08563,-0.61735 -0.0232,-2.59705 4.97569,-3.23763 5.68554,-0.72839 24.83817,3.30562 24.87339,3.31291 0.43579,0.09 0.18504,0.23881 0.27774,0.35821 2.76771,1.34938 5.53542,2.69875 8.30317,4.04815 -0.82368,0.29562 -2.83065,0.56125 -2.47103,0.88685 1.62454,1.47071 11.9784,3.23321 15.62768,4.32245 0.72969,0.2178 -4.01936,-0.65552 -3.49574,-0.41847 3.00646,1.36114 7.45409,2.59861 11.18114,3.8979 4.48001,0.96244 8.96002,1.92489 13.44003,2.88733 -1.61292,-0.21406 -5.78642,-0.96405 -4.8388,-0.64221 3.77058,1.28058 10.32049,2.25931 13.5223,3.59134 1.0132,0.42151 -8.45432,-0.97783 -6.53094,-0.68277 23.17189,3.55458 17.08879,4.35129 26.26207,1.71564 39.22874,-1.10606 -6.36678,-0.2495 26.19341,0.29568 1.87408,0.0314 3.24335,-0.45025 5.12369,-0.43646 19.4029,0.14223 32.05137,3.04206 43.74344,5.49311 6.52208,0.0899 8.87163,3.59375 12.19963,4.42445 3.98028,0.99352 8.96297,1.83937 13.78082,2.69801 4.621747,0.82369 3.524437,0.81192 6.766517,0.52031 2.0754,0.93824 4.1508,1.87649 6.22619,2.81476 -1.72866,0.4149 -5.18005,0.72177 -5.18599,1.2447 -0.014,1.22974 5.71698,2.3412 5.13128,3.56622 -0.24014,0.50221 -7.41116,0.23003 -7.18657,0.73248 0.60542,1.35442 8.77654,2.35368 9.17265,3.71071 0.14751,0.50541 -5.43685,-0.15017 -8.15527,-0.22527 5.95132,1.5142 13.43147,3.43368 19.93343,4.35445 1.34156,0.18999 3.73284,-6.96834 -9.03319,-3.75181 -4.14678,1.04484 21.50069,4.12455 3.07161,1.75851 4.31867,1.23553 8.63731,2.47107 12.95597,3.7066 -2.20002,-0.25772 -7.85248,-1.19431 -6.6001,-0.77319 1.72304,0.57937 20.85717,5.78461 30.16112,6.01364 4.75819,0.11711 -12.9825,-2.60155 -9.97589,-1.91248 4.55488,1.04391 9.75517,1.98652 14.63275,2.97978 27.90369,4.13858 -0.53692,-0.96077 0.12403,-0.74439 4.35132,0.89921 8.70264,1.7984 13.05395,2.69763 -3.31794,-0.49568 -11.93169,-2.18439 -9.95382,-1.48704 3.54122,1.24853 11.40426,1.96316 14.86665,3.21916 2.03926,0.73977 -6.92293,-1.06211 -10.3844,-1.59317 5.53573,1.13852 12.14175,2.12749 16.60718,3.41557 2.68693,0.77505 -8.14457,-1.10792 -11.15193,-1.84199 -0.67596,-0.165 0.13487,-0.5462 1.24556,-0.57605 2.59738,-0.0698 7.76415,0.81976 7.65922,0.33683 -0.0699,-0.32193 -28.4877,-7.41822 4.56159,0.95084 -1.95735,-0.31257 -4.60967,-0.52112 -5.87207,-0.93773 -0.93551,-0.30874 3.5209,0.32221 4.80397,0.58525 6.57464,1.48092 13.14929,2.96186 19.72393,4.44279 -1.19107,-0.12158 -4.37614,-0.56708 -3.57321,-0.36456 5.2643,1.32767 12.46491,2.38872 17.14828,3.78824 1.71859,0.51356 -5.32944,-0.70185 -7.99416,-1.05277 5.64837,1.16442 11.29674,2.32883 16.94511,3.49326 -3.57466,-0.54237 -13.39491,-2.32388 -10.72397,-1.62709 4.83824,1.2622 12.51688,2.09481 17.35509,3.357 3.14069,0.81938 -15.56171,-2.79197 -12.17726,-2.00618 4.91381,1.14083 35.70469,6.40669 5.08221,1.11542 1.71181,-2.66787 -0.62422,-0.95678 22.25407,2.92165 6.31989,1.07136 -13.98481,-1.60961 -5.38281,-1.75575 3.60128,-0.0613 13.22187,0.69486 15.75755,0.86931 6.47649,1.15957 13.54753,2.21628 19.42935,3.47872 0.92802,0.19918 -2.77526,-0.12116 -4.13969,-0.19707 -0.46896,-0.026 1.09933,-0.0162 1.4468,0.0473 5.70021,1.04288 12.09565,1.99859 16.50019,3.23612 1.35914,0.38186 -4.57532,-0.35225 -6.86298,-0.52839 4.62967,0.99806 9.25935,1.99612 13.888983,2.99418 -3.600946,-0.39813 -14.658233,-1.50133 -10.802913,-1.19441 6.24263,0.49701 11.768823,1.26747 18.003833,1.76768 3.3665,0.27009 9.34531,1.16298 10.63411,0.52985 1.39545,-0.68553 -10.18667,-2.19057 -8.62385,-1.51737 3.009,1.29618 32.38951,6.23496 33.45185,6.42403 -17.37747,-0.36174 7.26458,-0.0784 9.14143,2.56507 0.70858,0.99797 -13.26369,-2.44679 -14.35263,-1.46049 -1.22615,1.11056 19.42698,2.13413 13.37787,2.34339 -4.35785,0.15075 -38.9358,-6.08169 -2.26133,0.29417 19.04845,1.01932 11.93322,-0.36697 -2.72982,-2.77012 -3.99307,-0.65444 10.35222,1.16797 11.0251,2.14443 0.57585,0.8356 -7.55081,-0.97441 -10.64621,-1.5946 -0.54137,-0.10845 0.35865,-0.28713 0.53797,-0.43069 6.03653,1.20863 12.0731,2.41725 18.10962,3.6259 -2.03401,-0.26602 -7.53576,-1.17398 -6.10207,-0.79804 4.64073,1.21688 11.91932,2.0721 15.89625,3.36621 1.92905,0.62771 -11.52575,-1.89365 -9.48061,-1.27852 6.7338,2.02541 30.17975,5.4156 4.72061,1.5489 13.27037,1.35145 26.54071,2.7029 39.81108,4.05438 0.18511,-0.23121 -0.5708,-0.80139 0.5554,-0.69362 5.93377,0.56792 10.49084,1.52812 15.85281,2.26398 8.03201,1.10227 17.23124,1.94719 24.32413,3.24971 1.77928,0.32674 -4.99312,-0.10553 -7.48971,-0.15827 4.20639,0.67001 8.41284,1.34004 12.61923,2.01004 -5.75275,-0.48211 -12.70497,-0.63915 -17.2583,-1.44631 -2.20078,-0.39014 6.17301,0.12549 9.16463,0.0112 1.65698,-0.0631 2.64081,-0.63552 4.21437,-0.52098 6.39675,0.46562 11.28027,1.45631 17.25515,2.0838 2.11813,0.22245 4.79169,0.22368 6.89099,0.4521 6.10789,0.66456 11.71753,1.47338 17.57632,2.21004 1.76313,0.13777 7.03111,0.56032 5.28937,0.41354 -5.14898,-0.4339 -9.90269,-1.4171 -15.51256,-1.27502 -3.43438,0.087 3.8689,1.0749 6.4303,1.50502 6.39664,1.07421 15.47745,1.65948 20.29816,2.98357 2.25179,0.61847 -11.86341,-1.35641 -11.66645,-0.61272 0.25922,0.97818 8.0108,1.28881 12.01618,1.93321 7.75527,-1.21043 4.41874,-0.55531 -19.90519,-2.97638 -3.55763,-0.35412 5.65727,1.0695 8.80982,1.53592 8.21311,1.21511 17.63111,2.16117 25.24401,3.50228 3.13297,0.5519 -7.71464,-0.72921 -11.57201,-1.09381 4.98191,0.70971 9.96375,1.41942 14.9457,2.12914 0,0 290.70775,-79.07868 290.70775,-79.07868 v 0 c 20.8847,3.3681 -8.5096,-1.50654 -11.8514,-0.97825 -5.4871,0.86742 11.4674,1.62544 16.9375,2.4965 0.5472,0.0872 1.5702,0.43363 0.9798,0.35663 -25.8958,-3.3776 -21.8509,-2.77142 -36.4288,-5.297 10.1337,2.63681 -2.599,-1.0041 -16.7377,-0.80501 -4.8525,0.0684 7.8681,1.11764 10.4513,1.87706 0.6339,0.18635 -2.3586,0.27722 -3.4403,0.18405 -18.7308,-1.61318 -20.5724,-1.95913 -32.267,-3.61231 16.4812,2.51695 0.1762,0.1466 1.7106,-0.0518 2.046,-0.26461 6.2684,1.16559 6.4457,0.70636 0.291,-0.75298 -4.6238,-1.26762 -5.9537,-1.9817 -6.9271,-3.71966 30.048,1.79593 -25.3894,-3.83589 10.365,2.9418 -5.85471,-2.04424 -13.6997,-0.41392 -3.90668,0.81188 9.14381,1.36811 13.7148,2.05236 1.8876,0.28257 6.7052,1.25267 5.6608,0.84813 -8.16501,-3.16248 -31.36912,-4.17482 21.3639,0.49811 -58.1943,-9.75376 0.4278,-0.23045 -8.3006,-0.82736 -6.6834,-0.45706 -9.4151,-2.14281 -16.1224,-2.5878 -4.4315,-0.29403 13.1147,2.23883 8.483,2.08094 -4.2861,-0.1461 -28.47828,-5.49402 -2.9853,-0.042 -9.7422,-2.90187 -5.7797,-2.11212 -24.36286,-5.01903 -1.31107,-0.20508 4.35965,0.97702 3.12931,0.75563 -8.71931,-1.56886 -26.81068,-3.77658 -25.99651,-6.6284 2.61735,0.49954 11.00857,1.87819 7.85206,1.49868 -8.22705,-0.98911 -15.47439,-2.2302 -23.21159,-3.34529 2.01733,0.43274 8.86438,1.53709 6.05195,1.2982 -7.85251,-0.66702 -13.6122,-2.04925 -21.67454,-2.62521 -3.39596,-0.24261 4.57157,1.04445 6.85736,1.56667 -4.84929,-0.47341 -9.69866,-0.94684 -14.54791,-1.42027 4.48855,0.91794 9.34482,1.77918 13.46564,2.75382 0.90781,0.21472 2.58435,0.94442 1.44132,0.77197 -6.42951,-0.97003 -12.85031,-1.98981 -17.72781,-3.22911 -1.12105,-0.28484 -0.87135,-0.91906 0.91939,-1.04165 2.98912,-0.20462 11.25765,0.81191 9.39176,0.33573 -4.40452,-1.12404 -11.97137,-1.68108 -17.95702,-2.52161 12.99793,3.79243 1.8345,0.0808 -9.28385,-0.35033 -3.90925,-0.1516 6.42972,1.0199 7.42443,1.73231 0.94862,0.67934 -4.47388,-1.14741 -7.27231,-1.62337 -3.95834,-0.67323 -7.52507,-1.93204 -12.86715,-1.80192 -4.70539,0.1146 6.64383,1.2484 9.96572,1.87259 0.15786,-1.61048 0.0867,-2.94919 -5.7537,-4.32345 -4.12179,-0.96983 -19.16531,-1.8373 -14.0672,-2.63443 5.11675,-0.80005 8.15064,2.24728 14.67278,2.53974 4.16987,0.18698 -3.74198,-1.42231 -5.61295,-2.13348 -58.86445,-10.63541 -0.55248,-0.18931 -6.87565,-1.06676 -6.62933,-0.91994 -12.0215,-2.1084 -18.03224,-3.1626 3.63006,0.75551 15.74478,2.73406 10.89005,2.26656 -6.752,-0.65017 -9.83597,-2.29897 -16.86248,-2.84167 -4.96907,-0.38379 6.74724,1.54732 10.12084,2.32098 -35.98407,-5.87542 -3.58783,-0.92228 -4.68789,0.10022 -0.94397,0.87737 -11.86386,-2.71353 -10.54126,-1.85288 9.79199,6.37181 15.48088,3.19308 10.30638,1.89689 -3.62014,-0.90682 -8.19804,-1.66974 -12.29709,-2.50463 1.85316,0.54872 7.65548,2.16443 5.55953,1.64616 -5.15902,-1.27566 -10.81399,-2.50694 -14.76184,-3.92159 -0.97429,-0.34914 1.09344,-0.79407 0.54349,-1.17331 -2.82916,-1.95092 -13.82131,-4.04551 -22.06413,-4.95756 -4.5529,-0.50378 6.72481,1.51424 10.08724,2.27137 -5.53663,-0.95722 -11.07324,-1.91445 -16.60989,-2.87169 2.63732,0.65928 11.80258,2.37441 7.91196,1.97783 -6.6669,-0.67956 -10.57642,-2.0396 -16.70311,-2.87392 -2.46169,-0.33523 7.79193,1.72986 5.52267,1.3514 -6.49185,-1.08269 -12.87283,-2.20724 -18.2702,-3.47741 -0.66534,-0.15657 2.14687,-0.0429 3.22033,-0.0642 2.48784,0.56323 10.32982,2.18816 7.46353,1.68965 -5.97054,-1.03843 -12.00301,-2.09056 -16.81496,-3.31607 -6.7815,-1.72715 20.71364,2.801 16.19774,3.43504 -6.45541,0.90637 -22.84662,-6.00909 -7.16483,-0.036 -4.53333,-0.84985 -8.45355,-1.82774 -13.60005,-2.54958 -1.36469,-0.1914 1.17845,0.59333 1.7677,0.88999 -5.92931,-1.44462 -11.85864,-2.88922 -17.78797,-4.33382 -3.11563,-0.89757 -12.84067,-2.58227 -7.31518,-2.89802 5.83643,-0.33348 7.73849,1.74585 11.15766,2.67845 1.70091,0.46395 -3.9893,-0.84486 -5.98396,-1.26727 -50.80722,-5.83406 3.9676,-0.62548 -14.89113,0.27277 -5.76682,0.27469 -10.4875,-1.29625 -16.44397,-1.28797 -3.11034,0.004 -2.86918,1.33459 -5.97842,1.31915 -8.85886,-0.044 -15.56559,-2.02796 -25.26507,-1.52394 -8.1819,-2.07628 -14.18223,-3.72916 -23.21107,-5.60962 -3.64147,-0.75841 -9.39479,-1.06524 -13.61771,-1.71342 -20.01401,-3.07208 -6.00187,-1.85778 -22.43893,-3.01069 -1.74689,-0.24094 -4.47712,-0.34632 -5.24072,-0.7228 -0.55443,-0.27338 2.1286,-0.4845 2.20087,-0.776 0.22091,-0.89045 0.0158,-1.8073 -1.34848,-2.66257 -1.87532,-1.17593 -6.07291,-2.19031 -8.23881,-3.34918 -3.40594,-1.82235 -0.61098,-2.78902 1.41399,-4.70951 -1.68253,-1.07772 -3.36504,-2.15544 -5.04758,-3.23317 4.45293,0.48155 13.31836,2.3955 13.35886,1.44466 0.0466,-1.0956 -7.4007,-2.08867 -13.32729,-2.18681 -4.2057,-0.0695 9.99021,2.25875 5.90236,2.06386 -2.33281,-0.11125 -21.62491,-4.43563 -6.96256,-1.19053 1.21788,0.70414 7.54638,2.29246 3.65373,2.11246 -5.54302,-0.25631 -7.34096,-1.61381 -10.84571,-2.44503 -0.80447,-0.19079 5.19946,0.82773 0.0759,0.24691 -12.5331,-1.42081 -9.89448,-2.10384 -9.96485,0.50021 -2.62746,-0.74945 -6.54628,-1.39091 -7.88234,-2.24834 -0.38957,-0.24999 2.9532,-0.10901 3.91123,-0.30012 2.07493,-0.41383 4.52117,-0.87839 4.80889,-1.43911 0.914,-1.78122 -2.28088,-3.58158 -1.31896,-5.36195 0.13872,-0.25653 2.79708,0.0253 4.19557,0.0378 -2.99903,-0.89616 -5.99808,-1.79233 -8.99714,-2.68848 2.91954,0.98445 12.20932,3.87768 8.75857,2.95335 -6.63433,-1.77713 -11.86294,-3.72139 -18.33535,-5.51864 -2.93033,-0.81368 -11.63027,-3.22099 -9.83126,-2.30258 2.7804,1.41941 10.07622,2.43821 12.87496,3.85641 2.02869,1.028 -6.99815,-1.76771 -10.49723,-2.65155 1.84163,0.78281 3.68324,1.56564 5.52488,2.34845 -6.40076,-1.60374 -12.2594,-3.28586 -19.202313,-4.81123 -3.15497,-0.69314 -7.85522,-2.5159 -10.9555,-1.81444 -3.49783,0.79141 10.04645,2.02529 6.53484,2.81464 -3.11948,0.7012 -5.94045,-1.76946 -10.84585,-1.84562 -3.15054,-0.049 1.31984,1.13864 1.97975,1.70796 -3.97831,-1.01287 -7.95659,-2.02575 -11.9349,-3.03863 -0.27808,-0.31552 -0.15394,-0.65246 -0.8338,-0.94656 -1.8682,-0.80814 -10.57497,-1.80557 -6.72987,-2.32539 4.15118,-0.56118 14.32697,2.36067 13.3578,1.42937 -2.14991,-2.0659 -11.24877,-3.66531 -17.51504,-5.42413 -3.81279,-1.07015 8.32385,2.11958 10.14268,3.35486 1.06832,0.72559 -5.1801,-1.16231 -7.77014,-1.74347 19.77632,7.15239 0.7909,0.42299 1.17395,0.0293 0.57632,-0.59234 5.10649,0.84111 8.31346,0.95707 1.29654,0.0469 3.02159,-0.3423 2.50241,-0.56603 -6.23717,-2.68785 -14.42632,-4.80529 -22.99293,-7.13952 5.01767,1.58372 9.76884,3.19708 15.05299,4.75111 2.36576,0.69576 -7.75038,-2.94889 -6.28822,-2.17342 2.27515,1.2066 12.05458,4.59959 8.74611,3.47696 -5.16339,-1.75206 -9.22265,-3.6089 -14.31814,-5.36768 -2.70418,-0.93341 -7.24593,-3.70436 -9.05609,-2.70034 -1.90076,1.05427 5.76417,1.95176 8.64626,2.92766 -6.17964,-1.84744 -11.97853,-3.73992 -18.53894,-5.54227 -3.01294,-0.82776 -11.66797,-3.29104 -10.13493,-2.33539 2.24449,1.39915 10.65368,2.31226 12.38184,3.73604 1.34411,1.10735 -5.58269,-2.22722 -11.14386,-2.71609 -3.778,-0.33211 3.11226,1.43123 4.66837,2.14684 -6.7191,-1.59293 -13.43758,-3.18588 -20.15606,-4.77882 -3.99204,-0.61032 -7.40967,-2.28459 -11.97622,-1.83094 -4.27586,0.42476 9.34537,2.07944 5.09898,2.51413 -4.50661,0.46133 -6.83317,-1.65544 -11.91478,-1.81643 -2.63682,-0.0836 3.14418,1.74232 0.92123,1.46815 -13.14554,-1.62127 -12.14606,-2.0085 -12.15911,-3.75217 -0.87153,-0.60832 0.50289,-1.56742 -2.61457,-1.82498 -3.02862,-0.25021 5.11275,2.07561 2.18049,1.78912 -20.22193,-1.97573 -6.32816,-2.20109 -12.68872,-4.15851 -3.17772,-0.97793 -6.99627,-1.88023 -10.49443,-2.82034 7.27447,-0.20609 12.05268,-0.38507 6.48956,-2.23906 -5.17156,-1.72349 -12.4842,-3.2017 -18.08699,-4.87887 -16.13473,-4.829874 14.14165,1.50076 -22.38394,-5.219988 31.18557,6.361508 -0.35154,-0.174979 -4.06601,-0.4431 -5.6349,-0.406767 17.46133,2.594027 11.40896,2.600825 -6.8748,0.007 -8.18511,-2.526038 -15.04931,-2.596749 -9.83617,-0.101336 38.6387,7.277982 -4.99979,0.269921 1.79308,0.707759 9.60018,2.200144 5.37924,2.123263 -6.25618,-0.113898 -8.56156,-1.774534 -14.206507,-2.284046 -1.93827,-0.174937 3.324547,1.406766 1.666707,1.152226 -15.276417,-2.345615 -14.910237,-3.053136 -18.921067,-5.805588 -1.86191,-0.57069 -3.23749,-1.205839 -5.58573,-1.712057 -3.72893,-0.803889 -17.28034,-2.766675 -12.48838,-2.18433 5.2384,0.636615 7.99851,1.929944 13.84698,2.349426 2.24112,0.160741 1.05431,-0.899292 0.41733,-1.326326 -4.00776,-2.687141 -13.90764,-3.721519 -24.85099,-5.737654 3.76753,0.688497 15.16185,2.736539 11.3026,2.065476 -6.91952,-1.203187 -13.6567,-2.441451 -20.48509,-3.66217 3.4021,0.593945 13.71815,2.353669 10.20625,1.781806 -75.92985,-12.363824 42.13937,6.451541 -39.23602,-6.247794 13.35809,1.914771 19.5807,2.781554 -17.56858,-2.281087 -3.85228,-0.524992 15.71545,2.020559 11.7037,1.537763 -5.55319,-0.668314 -21.09586,-2.944543 -16.33086,-2.094621 70.21593,12.524147 1.82797,-1.148081 39.50685,6.518302 -59.32987,-10.731258 1.77659,0.133998 -7.26841,-0.954021 -6.79014,-0.8168 -10.99221,-2.2276 -17.59936,-3.093797 -3.43403,-0.450204 11.33452,2.26685 7.88608,1.8204 -10.62243,-1.375234 -27.19237,-5.061971 -13.93644,-2.178732 -7.56685,-1.315731 -15.59202,-2.547491 -22.70054,-3.947208 -0.79233,-0.156024 -1.47471,-0.763368 -0.55778,-0.632511 2.39191,0.341331 8.13731,1.597741 5.47216,1.333807 -7.99523,-0.791786 -14.07608,-2.137235 -21.95844,-2.966499 -1.76647,-0.185838 2.02133,0.650224 3.03201,0.975336 -6.99159,-0.85665 -13.98318,-1.713314 -20.97473,-2.569964 1.22328,0.239256 5.08387,0.918261 3.66984,0.717781 -5.56985,-0.789679 -15.57846,-1.201428 -16.17755,-2.491072 -1.97313,-4.247628 21.09414,2.242004 18.60633,2.017223 -23.4244,-2.116451 -21.97936,-4.601005 -22.54551,-2.301159 -24.50968,-2.965508 -25.49461,-3.110532 -48.27188,-6.979575 -3.4165,-0.580335 7.6353,0.990424 10.93722,1.592827 0.5577,0.101755 -1.56734,-0.01759 -2.35098,-0.02624 -8.98977,-1.026366 -17.97947,-2.052732 -26.9692,-3.079099 -1.27168,-0.428136 -6.45899,-1.317894 -3.81496,-1.284437 7.10386,0.08989 23.89588,2.556075 19.77753,1.486523 -5.47864,-1.422818 -16.26104,-1.78986 -24.39153,-2.684797 3.46149,0.290677 8.74264,1.503956 10.38443,0.872032 0.8905,-0.342755 -17.11922,-2.928784 -3.4439,-0.912175 -7.96234,-0.792122 -15.23548,-1.887162 -23.88689,-2.376351 -5.77388,-0.326494 10.29084,1.175578 14.99359,1.873468 0.58675,0.0871 -1.58347,0.07789 -2.25905,0.01633 -33.64365,-3.061482 -39.27583,-4.051292 -75.24243,-6.234686 -18.17021,-2.25881 -7.56599,-1.087014 -43.93688,-3.717486 -35.95215,-2.600183 -41.59678,-2.684643 -93.59315,-2.580167 -18.37951,0.03699 -37.41247,0.134137 -54.69886,1.284326 -31.89239,2.122132 -60.61123,5.603335 -90.91678,8.405003 -23.6863,5.589489 -52.18755,10.588719 -71.05883,16.768467 -9.56084,3.13087 -9.02548,6.993827 -12.31603,10.534185 -4.81645,5.182094 -10.82154,12.304098 -5.12896,17.780987 2.54614,2.449659 7.23414,4.807093 10.85125,7.210653 0.8713,0.50825 1.38268,1.0424 2.61396,1.52474 0.18151,0.0712 1.24543,0.079 1.27993,7.2e-4 0.38157,-0.86586 -4.78975,-2.46727 -0.13242,-2.606 4.6599,-0.13874 2.70734,1.6669 4.38446,2.47933 4.86438,2.35635 6.1191,2.55833 12.88461,4.71097 4.57045,1.08219 8.69956,2.28438 15.12232,3.05201 1.57882,0.1887 3.86466,0.10608 5.39266,0.30839 5.56823,0.73743 10.22184,1.68678 15.59667,2.47136 2.19361,0.3202 34.09945,4.58762 36.14378,4.86149 5.04237,0.88228 9.88563,1.80482 15.12709,2.64686 4.7859,0.76884 11.5626,1.18888 14.92534,2.18099 3.87416,1.143 4.26125,2.58236 5.69762,3.90347 4.46162,4.10347 0.6898,8.0417 -6.22062,11.98683 -3.97282,1.6489 -15.12826,6.00738 -16.92064,7.82824 -1.36478,1.38646 0.0577,2.82055 -0.46834,4.22626 -0.30025,0.80245 -2.24194,1.58146 -2.0049,2.38463 0.2708,0.917 10.66509,5.79725 10.71509,5.8221 4.10434,0.26359 8.74748,0.33298 12.31299,0.79079 19.3803,2.48841 21.48961,6.0749 31.49729,9.69122 4.53333,1.63812 13.48975,2.79711 15.60119,4.70848 1.66799,1.08613 2.86646,2.20052 5.00393,3.25839 1.88298,0.93197 6.23618,1.7051 7.013,2.68912 1.41786,1.796 -1.11362,3.63118 -0.59283,5.44353 0.96701,3.36505 5.20458,6.88366 11.70942,10.02653 2.96363,2.54386 -2.8854,-1.73567 12.63991,3.06786 14.24824,4.40844 -3.16036,0.13372 -2.31428,2.40252 0.53917,1.44583 8.87679,3.68082 12.4832,4.79896 29.83399,5.15889 1.91924,-0.12604 19.19276,4.17959 1.68913,0.42103 4.73286,0.63847 6.10093,1.09734 6.57326,2.20478 7.3632,4.97796 13.90504,7.20134 8.86076,3.28042 -1.32535,-0.84416 6.82264,4.71574 0.17205,0.11725 1.30251,0.0395 1.95367,0.059 0.37607,0.26639 0.75254,0.5328 1.12882,0.79919 0.13264,0.55254 -0.72365,3.67752 -0.89318,4.34395 0.16462,0.45508 -0.61956,0.95774 0.49289,1.36521 0.64492,0.23622 2.94701,0.11013 4.01662,0.28648 4.11146,0.67789 7.39556,1.50958 11.26813,2.23361 8.6656,1.62015 17.84273,3.19396 17.93833,5.65898 3.78935,1.35886 5.49096,2.90373 9.69596,4.22048 3.28541,1.02876 8.14801,1.85646 12.22199,2.78471 1.02971,0.59351 1.47578,1.23286 3.08909,1.78055 0.69344,0.23541 1.47481,-1.34824 3.99739,-0.32217 7.0458,1.19579 12.13887,1.93553 16.95559,3.73585 2.07994,0.7774 2.23548,3.40662 -0.0718,4.27107 -0.45821,0.17168 -2.0773,-0.008 -3.11593,-0.0126 -0.83696,0.41384 -3.7928,0.85371 -2.59142,1.23594 2.6003,0.82728 5.20724,1.65387 7.81084,2.4808 0.0401,0.14913 -0.19141,0.30951 0.11981,0.44739 9.37584,4.15309 8.08455,1.79999 8.10513,4.86038 4.16363,1.91166 10.31446,3.71468 12.49085,5.73495 1.05257,0.97707 -14.08884,-2.25732 -10.06306,-0.89579 2.43255,0.82271 4.09349,2.33046 9.16097,2.24763 7.67271,-0.12548 -38.76689,-11.62307 12.56028,2.10297 3.51281,0.66135 5.52132,1.93583 10.53851,1.98402 3.6505,0.035 -6.31135,-2.33724 -3.46016,-1.91606 40.31655,5.956 4.88637,1.40691 13.40521,4.06605 8.56359,2.67313 18.2207,3.82371 31.49805,6.09576 4.62403,0.52795 9.24812,1.0559 13.87216,1.58384 -1.2774,-0.50345 -6.83709,-1.56209 -3.83223,-1.51036 3.53777,0.061 4.17886,1.06016 6.49552,1.55621 3.54806,0.75973 7.10623,1.52308 11.08128,2.20739 23.38231,4.02528 14.40574,1.37113 23.47912,4.51491 0.0725,0.4018 1.90422,0.95007 0.21754,1.20538 -2.26572,0.34295 -9.69411,-0.42199 -8.78511,0.0914 1.96977,1.11261 8.32675,1.79117 13.37621,2.50183 49.93557,7.02791 -5.47229,-2.33025 38.20174,3.37017 -1.86484,-0.29462 -5.68247,-1.336 -5.59461,-0.88384 0.12911,0.66439 4.20339,1.08948 5.75126,1.6901 7.31161,2.83718 -18.01555,0.56465 26.55475,3.4138 1.56608,0.10008 2.72908,-0.52255 4.33693,-0.4482 8.03723,0.37167 15.36692,1.1431 23.0504,1.71466 9.86755,0.0315 3.30625,-0.10455 19.54902,2.28209 31.49388,4.62747 3.28563,-0.0254 16.50803,3.66637 6.55683,1.83072 40.41524,-1.41166 30.83103,3.32494 18.38341,1.53338 28.24466,2.36957 46.894137,3.61057 8.90187,0.59238 -15.286787,-0.78276 -12.205237,-1.10178 2.50579,-0.25943 5.748057,-0.0229 8.622077,-0.0345 8.94151,0.15559 17.84906,0.52672 26.82452,0.4668 4.56135,-0.0304 -9.11683,-0.72499 -7.55761,-0.99485 0.81344,-0.14079 2.00368,0.1827 2.95479,0.29032 4.8527,0.54921 12.3924,0.7015 14.45029,1.67946 1.23502,0.58689 -6.62846,0.30845 -9.94268,0.46264 4.84226,0.49839 12.39893,0.55188 14.52676,1.49517 12.61795,5.59366 -23.71042,-4.10804 -19.97686,-0.96117 0.81532,0.68721 12.31768,1.54803 8.58534,1.39796 -9.51205,-0.38251 -18.21043,-1.65257 -26.04845,-2.70955 6.76236,0.63903 22.40023,3.26139 20.28707,1.91708 -2.41951,-1.53925 -14.6682,-1.73332 -21.54277,-2.71591 -3.07791,-0.43996 -12.021017,-1.67102 -8.195417,-1.53476 5.936807,0.21142 16.520917,2.87972 15.320747,1.7885 -1.81193,-1.64746 -15.216587,-2.06282 -19.293387,-3.57903 7.516627,1.37845 15.730867,2.63897 22.549867,4.13533 2.23129,0.48966 3.37724,1.13137 4.26608,1.74926 0.30115,0.20931 0.17284,0.74024 -0.84209,0.63082 -4.12076,-0.44413 -14.31455,-2.30933 -10.30403,-1.8322 10.96609,1.30462 34.13123,5.63282 4.81027,0.33479 20.59145,3.18309 7.48535,1.31478 -12.87444,-3.25945 -2.86207,-0.64304 -10.129557,-2.75277 -7.696297,-2.05244 5.469127,1.57408 11.770217,3.05212 16.806357,4.67444 15.55929,5.01222 -23.974547,-3.70985 17.23885,4.51933 -5.07849,-1.09797 -10.11969,-2.20182 -15.23549,-3.2939 -3.82788,-0.81714 14.09513,3.42458 11.37167,2.46908 -4.05887,-1.42403 -10.29573,-2.59847 -15.4436,-3.89771 2.86083,0.69777 10.33702,2.90566 8.5825,2.09328 -3.11694,-1.44321 -9.18987,-2.61667 -12.75328,-4.02443 -2.30074,-0.90892 5.96012,1.6787 8.94019,2.51804 -2.00139,-0.8087 -8.91574,-3.13503 -6.00416,-2.42619 19.10696,4.65168 12.21099,4.627 29.74529,8.15028 2.82633,0.56792 -9.5123,-2.53475 -7.1915,-1.89385 21.27766,5.87578 13.4108,2.9861 23.29981,7.02428 62.26689,11.63929 -2.83801,-0.52637 5.85617,1.08621 60.49788,11.22107 -36.21708,-6.7804 24.48137,4.56399 4.04515,0.75602 -8.10601,-1.50921 -12.15902,-2.26381 6.30446,1.1644 12.61488,2.32771 18.91337,3.49321 3.9289,0.727 -15.84788,-2.88319 -11.80456,-2.17777 6.65397,1.16089 13.0922,2.363 19.63831,3.54447 -3.72272,-0.67927 -15.11812,-2.67212 -11.16815,-2.03785 7.07592,1.13624 13.51372,2.40227 20.55659,3.54544 3.63713,0.5904 -6.88691,-1.25703 -10.33036,-1.88554 6.97001,1.11749 13.94002,2.23498 20.91005,3.35246 -3.30251,-0.62751 -14.11387,-2.28711 -9.90747,-1.88255 51.27758,4.93177 4.46892,2.7638 7.66977,0.40787 2.42008,-1.78122 43.2767,9.1555 -2.48096,-2.13988 6.24578,-2.62091 0.0133,-0.57036 26.71766,3.64995 5.21516,0.82415 11.01065,1.51498 16.51597,2.27246 -1.21291,-0.15636 -4.29691,-0.71327 -3.63882,-0.46905 11.863,4.40212 21.42334,3.25272 -9.90933,3.37091 0,0 373.614533,-68.79171 373.614533,-68.79171 z" />
    <path
       style="fill:#ccd6f6;fill-opacity:1;stroke-width:0.296064"
       id="path879"
       d="m -4.038665,392.50318 c -1.147879,-0.15367 -1.712186,-4.76245 -2.467357,-4.95155 -0.104227,-0.0262 -0.290543,1.18624 -0.32372,1.37806 -0.206474,1.57948 1.628035,1.72762 3.169714,1.90661 5.028749,0.078 10.890082,1.01997 15.992769,-0.0462 0.12177,-0.0254 -0.247661,-0.0377 -0.372999,-0.047 -1.799663,-0.13255 -0.175926,0.0459 -1.87382,-0.16242 5.187815,-0.90782 6.08273,-0.85847 9.963254,-1.96954 0.138404,-0.0396 0.49349,-0.0974 0.382955,-0.17481 -0.223253,-0.15636 -1.71762,0.17635 -2.035789,0.2085 11.314775,-0.50012 12.731113,-0.13494 22.64849,-2.43589 0.170771,-0.89464 0.562035,-1.7798 0.512314,-2.68391 -0.15304,-2.78286 -9.87197,0.86673 5.752027,-2.50766 0.610465,-0.13185 1.31383,-0.43778 1.878743,-0.21077 0.3334,0.13398 -0.441484,0.49567 -0.748777,0.66484 -0.66436,0.36574 -1.419556,0.61307 -2.129333,0.91962 2.270354,-0.34298 4.540705,-0.68596 6.811059,-1.02894 0.478827,-0.003 1.619325,-0.36365 1.436478,-0.0101 -0.256494,0.49581 -2.45169,0.85802 -1.803024,0.71872 2.750414,-0.59069 5.419506,-1.401 8.138065,-2.07926 0.311117,-0.0776 1.241376,-0.30313 0.949104,-0.1879 -0.945197,0.37261 -1.947963,0.64375 -2.921947,0.96565 -1.401725,0.32297 -5.599414,1.31196 -4.205179,0.96893 2.545353,-0.62627 5.112314,-1.19547 7.658849,-1.81867 0.272288,-0.0666 1.070207,-0.30829 0.794864,-0.25016 -3.829367,0.8083 -14.95338,3.10255 1.834507,-0.45972 0.423395,-0.12859 1.72005,-0.42804 1.270173,-0.38581 -2.111278,0.19817 -15.226792,4.34072 6.465681,-1.96877 0.290945,-0.0846 0.686593,-0.10684 0.835985,-0.32345 1.643707,-2.38321 1.124174,-1.95427 -1.031818,-2.13519 -0.82509,0.15756 -3.2862,0.6717 -2.475284,0.47268 2.079286,-0.51033 4.268033,-0.75345 6.283335,-1.40732 0.539706,-0.1751 -2.103376,0.30234 -1.745719,-0.0649 0.742801,-0.76264 6.955929,-3.21149 7.801316,-3.5564 1.604178,-0.27792 -1.297569,0.80246 -0.869015,0.76502 2.188446,-0.19124 4.258454,-0.91086 6.42639,-1.21669 0.406805,-0.0574 1.417949,-0.15576 1.227388,0.13698 -0.270097,0.41489 -7.735041,3.41026 1.700191,-0.51734 -0.73048,-4.03249 0.446947,-5.60433 4.758295,-7.88684 0.434867,-0.23024 1.024884,-0.45317 1.51574,-0.31191 0.32765,0.0943 0.15282,0.54276 0.22922,0.81415 1.88397,-0.15407 3.76792,-0.30814 5.65189,-0.4622 0.59291,0.19833 1.59727,0.10252 1.77877,0.59502 0.1869,0.5071 -1.71569,1.23468 -1.06649,1.33768 1.49735,0.23754 13.22872,-5.69246 6.92911,-2.38961 4.06198,0.95808 6.69687,-8.65934 8.69593,-10.08796 1.01825,-0.72768 2.35238,-1.11072 3.52859,-1.6661 5.08579,0.65246 -3.89515,-0.35391 7.56115,-0.55457 0.77239,-0.0135 1.40914,0.67712 2.17943,0.62984 1.25653,-0.0772 2.3425,-1.19414 3.5747,-0.98309 1.03559,0.17741 -1.82354,0.9316 -2.86006,1.10549 -0.63977,0.10734 1.07265,-0.59706 1.60898,-0.89559 -1.77655,1.92579 -0.20002,-0.0119 5.39939,-0.78759 0.40366,-0.0559 1.29206,0.0376 1.15079,0.3447 -0.29836,0.6486 -2.80357,1.43875 -1.94202,1.37536 7.41984,-0.54592 5.21278,-3.35531 6.65579,-1.33668 13.32035,-6.15521 -13.27699,4.27959 8.68736,-4.30985 0.14601,-0.0571 -0.0969,0.27012 -0.23161,0.34277 -1.25379,0.6762 -5.34005,2.20221 -3.88322,1.87637 2.1747,-0.48641 4.0604,-1.58004 6.09059,-2.37006 -0.62844,0.83421 -7.15669,2.92889 -5.26902,2.36607 3.00534,-0.89612 7.67363,-2.33987 9.12535,-4.30797 0.42923,-0.5819 -0.0397,-1.35036 -0.0595,-2.02552 0.79931,-0.89199 1.59863,-1.78401 2.39793,-2.676 -0.23027,0.0101 -0.89151,0.12063 -0.6908,0.0299 1.72839,-0.78089 3.46119,-1.5888 5.32969,-2.12582 0.23788,-0.0684 0.27475,0.51673 0.51196,0.4469 0.87111,-0.25646 1.41166,-1.0215 2.2861,-1.27063 0.57687,-0.16436 -0.89507,0.66789 -1.34261,1.00182 0.5809,-0.37447 1.26787,-0.66337 1.74269,-1.12342 0.37904,-0.36727 -1.92191,1.12606 -1.4478,0.83769 3.02017,-1.83697 5.34827,-3.17645 7.84728,-4.64362 -0.26682,0.2131 -1.15842,0.73467 -0.80045,0.63931 1.96342,-0.52297 3.72644,-1.47653 5.71052,-1.94715 0.23367,-0.0554 0.13947,0.58042 0.3648,0.50618 0.95333,-0.31414 1.66344,-0.97404 2.50388,-1.45137 0.52582,-0.29864 -1.91159,1.34731 -1.55996,0.91524 0.45796,-0.56271 1.26363,-0.88497 1.89545,-1.32746 -0.511,0.23952 -2.07762,0.9049 -1.53298,0.71855 4.23716,-1.44989 9.5531,-2.91653 10.92754,-7.19786 0.2932,-0.91328 -3.02425,-0.6637 -2.91823,-1.60274 0.39129,-3.46575 2.4616,-2.82149 4.23107,-2.44533 1.65904,-0.56017 3.20131,-1.43962 4.97708,-1.68053 0.47603,-0.0646 0.6296,0.58479 0.94439,0.87718 1.80374,-0.71509 3.44408,-1.80115 5.41118,-2.1453 3.04569,-0.53284 -6.2341,6.82422 -3.1059,2.10416 0.80066,-1.20809 2.75078,-1.62703 4.12617,-2.44052 1.03095,-0.84934 2.49272,-1.46656 3.09284,-2.54804 0.21593,-0.3891 -1.4973,-0.45874 -1.22208,-0.8232 1.33379,-0.95248 2.66759,-1.90495 4.00138,-2.8574 0.0258,0.21373 -0.16783,0.72946 0.0773,0.64119 3.74017,-1.34733 4.69334,-2.39336 7.36254,-4.48153 -0.4324,0.54829 -2.07177,1.83774 -1.2972,1.64486 1.98472,-0.49427 4.75426,-2.79199 5.97364,-4.26397 0.38045,-0.45927 0.62003,-0.98656 0.85549,-1.50411 0.18595,-0.40878 0.8894,-1.46124 0.40393,-1.26423 -0.97796,0.39687 -1.44364,1.3194 -2.16548,1.97911 -1.55078,0.0604 -0.57307,0.14954 -0.28522,-2.57598 0.45834,-4.33991 0.0973,-3.79466 3.22923,-8.11943 2.25665,-3.1161 1.3017,-2.9641 3.86236,-2.32223 1.42279,-0.41374 2.75568,-1.29445 4.2684,-1.24121 4.09644,0.14418 -0.74672,2.03168 2.37354,1.77299 0.95259,-0.079 2.15873,-1.24193 2.71378,-1.61028 1.61231,-1.06999 3.27189,-2.09373 4.90783,-3.1406 -2.41924,-0.9837 0.30904,0.36198 2.81315,-2.98378 2.00931,-2.68465 -0.90444,-2.23037 1.15688,-4.43384 2.78592,-2.97804 5.57014,-3.14165 3.02653,-2.88995 1.01125,-0.66885 1.75081,-1.78346 3.03376,-2.00657 0.58961,-0.10253 -0.26903,1.44899 0.33337,1.42103 2.54482,-0.11812 8.47813,-5.2294 9.03746,-5.69727 0.72144,-0.60346 1.70406,-2.82345 1.88229,-2.00134 0.22613,1.043 -1.12883,1.91549 -1.69325,2.87324 0.1328,-0.65722 0.26562,-1.31444 0.39842,-1.97165 0.36738,-1.30654 0.80289,-2.60204 1.10216,-3.91962 0.13291,-0.58512 -0.13618,-1.24356 0.19187,-1.77741 0.59026,-0.96053 3.0511,-3.58159 4.30347,-4.76082 1.89067,-1.64461 4.35736,-3.14241 4.27791,-5.73089 -0.0331,-1.07797 -1.1699,-1.9474 -1.63378,-2.96006 -0.20226,-0.44157 -0.168,-0.93595 -0.35506,-1.38177 -1.45815,-3.47505 -1.7669,-1.57116 -0.76369,-4.15451 0.54899,-0.86225 2.92549,-4.669 3.53011,-5.2777 3.05484,-3.07548 1.81398,0.58205 4.42916,-3.67427 0.84033,-1.36769 1.21617,-2.8882 1.85988,-4.32232 0.53667,-1.19563 1.12059,-2.3774 1.68089,-3.5661 1.56732,-2.95085 1.5674,-3.05534 3.26411,-5.85934 0.52222,-0.86305 0.85188,-1.82895 1.60968,-2.57227 0.51361,-0.50381 1.49988,-0.56996 2.06788,-1.03505 6.52102,-5.33957 0.24874,-1.71723 5.64936,-4.58164 3.79804,0.0159 -0.55789,0.23936 4.83933,-1.50428 0.45743,-0.14778 1.16097,0.32993 1.47991,0.0292 1.23738,-1.16678 1.82177,-2.68992 2.75685,-4.02419 3.58412,-5.11425 2.75434,-2.55304 3.4525,-6.76122 -0.0508,0.0413 -0.19258,0.17184 -0.15209,0.12388 0.51575,-0.61129 1.07384,-1.19961 1.57989,-1.81607 0.79176,-0.96448 0.892,-2.71834 2.31255,-2.92566 1.94605,-0.28403 -0.93878,4.86276 2.33926,1.74631 0.96314,-0.91569 1.55838,-2.04247 2.33758,-3.0637 -0.28417,1.31907 -0.9975,2.62378 -0.85246,3.95721 0.0485,0.44565 0.89997,-0.56838 1.17881,-0.95633 0.79235,-1.33022 1.58467,-2.66045 2.37702,-3.99068 -0.35837,0.30325 -1.08445,1.32666 -1.07508,0.90975 0.0142,-0.64031 4.24538,-9.35702 -0.92814,1.56024 1.59801,-1.90604 2.44298,-2.7932 3.6243,-5.45932 0.10756,-0.24264 -0.91459,0.59744 -0.86622,0.34297 0.20142,-1.05937 1.90661,-4.005 1.37538,-3.02105 -2.8446,5.26888 -2.54664,4.68663 -0.62216,2.50946 0.90608,-1.42071 1.81217,-2.84142 2.71825,-4.26213 -0.24645,0.0676 -0.79011,0.40706 -0.73935,0.20292 0.26619,-1.07033 1.26892,-1.98037 1.45034,-3.06193 0.0578,-0.34435 -0.62001,0.71216 -1.04195,0.6276 -0.64758,-0.12979 -1.40044,-0.58966 -1.42714,-1.12246 -0.0546,-1.08835 0.80958,-2.08028 1.21437,-3.12042 -0.0951,-0.0926 -0.3444,-0.16784 -0.28516,-0.27785 0.9364,-1.73872 2.50725,-3.16851 3.70895,-4.77803 0.91083,-1.21995 1.04678,-3.03965 2.61058,-3.71617 0.94892,-0.41053 0,1.72382 0.003,2.58573 0.57976,-1.31252 1.15952,-2.62505 1.73928,-3.93758 -0.18307,0.007 -0.59434,0.1626 -0.54918,0.0207 0.28272,-0.88777 0.99752,-1.65624 1.3478,-2.52852 0.0935,-0.23284 -0.68217,0.80435 -0.56476,0.57852 0.39967,-0.7688 1.07697,-3.01061 1.42058,-2.22471 0.47341,1.08282 -0.6159,2.24052 -0.92387,3.36078 0.48302,-0.3362 0.82342,-0.89818 1.44904,-1.00858 0.44851,-0.0791 -1.01902,1.21817 -0.80276,0.89453 0.62612,-0.93695 1.48894,-1.77195 2.03593,-2.73997 0.0622,-0.11013 -0.29525,-0.0528 -0.44287,-0.0792 0.69038,-1.02901 0.62975,-2.89271 2.07114,-3.08705 1.3051,-0.17596 -0.88807,1.9916 -1.33209,2.9874 2.65915,-1.45811 2.80382,-4.56771 5.19976,-6.12382 1.07792,-0.70009 -1.94399,4.15321 -1.35717,3.14743 0.92495,-1.85904 1.84988,-3.71808 2.77481,-5.57712 -0.21868,-0.23664 -0.71805,-0.42 -0.65607,-0.70992 0.24414,-1.14207 1.00336,-2.17423 1.50504,-3.26134 0,0 -113.24021,-40.6396 -113.24021,-40.6396 v 0 c 1.20957,-4.9018 -0.95481,4.98926 -1.72498,0.34424 -0.21233,-1.28055 2.54039,-4.71132 1.60675,-3.65654 -1.26498,1.42913 -2.27729,3.08477 -2.62963,4.81215 -0.21378,1.04808 1.30842,-3.46519 2.61766,-2.40379 -0.95263,1.63118 -1.94354,3.24843 -2.85785,4.89353 -0.18544,0.33369 0.99208,-1.21449 0.66941,-0.9559 -0.74679,0.59846 -1.28676,1.34195 -1.96239,1.9921 -0.23677,0.22783 0.83895,-0.97595 0.64448,-0.72389 -0.74813,0.96959 -1.71142,1.84263 -2.30633,2.87768 -0.17347,0.30181 0.054,0.66278 0.0809,0.99417 -0.79825,1.82784 -1.64849,3.64172 -2.39476,5.48351 -0.0263,0.065 0.13243,0.12827 0.0959,0.19003 -0.23035,0.38975 -3.06816,4.87627 -3.79229,5.28995 -0.57086,0.32612 0.35746,-1.08413 0.53619,-1.62619 -0.44062,1.58655 -1.33969,3.13461 -1.32188,4.75966 0.006,0.54394 0.80676,-0.90092 1.36071,-1.21742 0.1316,-0.0752 0.4647,0.0818 0.41264,0.2042 -0.39722,0.93383 -1.17301,1.74077 -1.62975,2.65708 -0.0373,0.075 0.27239,0.0922 0.22403,0.16299 -0.56998,0.83496 -1.30839,1.58921 -1.96259,2.38382 -1.5084,-2.40334 -5.45495,3.37343 -5.65861,3.54428 -0.3124,0.2621 0.68543,-1.28463 0.33917,-1.05124 -1.17986,0.79532 -3.95818,5.0817 -0.25288,-0.31356 0.01,2.43057 0.0694,0.84925 -3.13063,6.09458 -0.1916,0.31408 0.60777,-1.25347 0.27746,-1.02441 -0.87125,0.60416 -0.98721,2.63455 -2.02959,2.23943 -0.84042,-0.31857 2.28225,-3.72382 1.42949,-1.9143 -1.08923,2.02705 -2.17847,4.05411 -3.26772,6.08117 0.0327,-0.26767 0.31331,-1.00969 0.0978,-0.80301 -0.86814,0.83274 -1.19297,1.98992 -2.1423,2.76409 -0.73165,0.59666 0.77427,-1.58925 1.46794,-2.21416 0.2225,-0.20044 0.0683,0.53293 0.10261,0.7994 -0.66861,1.93708 -1.33721,3.87416 -2.00582,5.81124 0.43538,-0.2989 0.78426,-1.08781 1.30614,-0.89669 0.59487,0.21785 0.44677,1.00837 0.42526,1.53074 -0.069,1.67444 -0.80495,3.32237 -0.694,4.99537 0.018,0.2726 0.83168,-0.22316 1.02542,0.002 1.12759,1.30895 -2.64657,4.15545 -1.72391,4.56327 -0.34472,0.22861 -1.32734,0.95645 -1.03417,0.68583 0.47389,-0.43746 1.07811,-0.77416 1.58092,-1.19053 0.34199,-0.2832 0.88801,-1.29509 0.94927,-0.90469 0.16309,1.03912 -0.68117,2.05905 -0.60404,3.10448 0.0495,0.6703 0.64686,1.23959 0.97028,1.85938 -0.23517,1.24099 -0.47033,2.48198 -0.70548,3.72297 -0.005,0.92823 -0.15905,1.86366 -0.0144,2.78468 0.0624,0.39687 0.64627,0.69233 0.62311,1.09188 -0.20381,3.5148 -2.67265,6.54323 -5.05517,9.35243 -0.47834,0.3559 -0.85852,0.8215 -1.43503,1.06769 -0.39439,0.16841 -1.01788,-0.13796 -1.33395,0.11474 -0.81915,0.65493 -1.95063,4.09128 -2.24449,4.5576 -0.35489,0.5632 -0.98201,0.98774 -1.49403,1.46763 -0.64793,0.60728 -1.3234,1.19548 -1.98508,1.79321 -5.97157,5.42495 0.67032,0.2108 -7.5326,4.07936 -1.19973,0.56579 -1.85927,1.75049 -3.12341,2.21831 -1.2592,0.46601 -2.73505,0.46053 -4.12287,0.46336 -0.27387,5.3e-4 -0.71193,-0.25652 -0.59352,-0.45374 0.11607,-0.19336 0.52642,0.0847 0.78962,0.12712 -0.65452,0.78778 -1.32774,1.56585 -1.96358,2.36334 -0.37092,0.46522 -0.83864,0.90008 -1.05575,1.42365 -0.091,0.2192 0.92687,-0.53142 0.65407,-0.45496 -0.77584,0.21746 -1.39726,1.02551 -2.20145,0.88868 -0.69299,-0.11791 -0.73559,-0.96733 -1.10337,-1.45099 -0.53501,0.0238 -1.07003,0.0476 -1.60504,0.0714 -6.31861,8.44345 -3.94053,4.01287 0.23697,2.72744 0.47081,-0.14487 1.46071,0.10853 1.37485,0.50559 -1.27953,5.91547 -3.15696,2.11352 -1.95056,4.29035 -1.20036,0.90667 -2.5341,1.71256 -3.60108,2.72002 -0.23234,0.21939 1.32661,-0.43266 1.01972,-0.28265 -1.09881,0.53709 -3.13073,1.51785 -4.55855,0.6883 -0.34571,-0.20086 0.73495,-0.34898 1.10241,-0.52348 -1.13361,0.59758 -2.26724,1.19517 -3.40087,1.79275 0.83533,-0.36736 1.56956,-0.95815 2.50598,-1.10209 0.56117,-0.0863 -0.88906,0.5784 -1.2774,0.91324 -2.15531,1.85848 -4.52592,5.02844 -4.79995,7.54632 -0.061,0.56017 0.71202,0.97019 1.06804,1.45529 -1.35728,1.94777 -2.46882,4.26953 -3.62902,3.82143 -0.63096,-0.2437 -0.46487,-1.13059 -1.02635,-1.46559 -0.90205,-0.53821 -2.05732,-0.74121 -3.13012,-1.01435 -3.67086,-0.9346 -2.52555,-0.67331 -5.84795,1.27122 -1.7767,1.45774 -4.3898,4.53572 -7.65967,4.75649 -0.10034,0.007 0.0113,-0.16059 0.0164,-0.24088 0.6512,-0.22397 1.30241,-0.44794 1.95363,-0.67191 -0.79785,1.30336 -2.37313,2.19704 -3.55968,3.29556 0.44576,-0.2621 2.96124,-1.81392 2.81375,-0.85097 -0.16227,1.05944 -1.85263,1.5551 -2.58297,2.44895 -0.31091,0.38053 1.86994,-0.90925 1.30209,-0.8813 -3.72998,0.18358 -5.0212,2.2563 -3.38394,0.15626 6.11507,-3.23794 -7.09518,1.74387 -6.1345,4.07388 0.32621,0.79118 2.63413,-1.23637 3.0707,-0.47989 2.14711,3.72051 -5.36439,2.05811 0.0993,2.89691 -0.881,0.7338 -1.76199,1.46759 -2.643,2.20138 -0.0499,-0.14509 0.0385,-0.43397 -0.15004,-0.43527 -2.15596,-0.0149 -4.84308,1.538 -6.4497,0.38971 -2.16001,-1.54381 7.58585,-6.47394 5.88804,-4.28566 -0.84121,1.08422 -2.79329,1.23731 -4.18994,1.85597 -2.30003,-0.27677 -0.24978,-0.15194 -4.73144,1.99823 -0.0632,0.0303 0.12082,-0.20883 0.0679,-0.16792 -0.7163,0.55389 -2.68063,1.08745 -2.0754,1.72023 0.65433,0.68413 3.4904,-1.41774 3.14461,-0.60236 -0.47253,1.11428 -2.46999,1.28253 -3.70499,1.9238 -2.0619,0.11149 1.76917,-0.16287 -3.65719,1.63122 -0.39977,0.13218 0.72591,-0.48353 0.78449,-0.82589 0.029,-0.16997 -0.45447,-0.0734 -0.64433,0.007 -5.84102,2.46836 -2.33452,1.6315 -5.12426,2.23802 -1.42651,0.81624 -3.06522,1.43 -4.29976,2.42604 -0.73079,0.58961 -2.41825,1.02712 -2.12247,1.8224 0.25479,0.68503 3.2319,-1.09422 2.5732,-0.61056 -3.74998,2.75351 -3.47363,2.09607 -4.221177,0.26984 -0.881222,-0.26474 -2.150353,-0.15377 -2.643654,-0.79423 -0.326026,-0.4233 1.729712,-1.19743 1.10746,-1.20025 -1.014225,-0.005 -3.638262,1.37752 -2.65062,1.19326 1.67847,-0.31314 6.178561,-2.38568 4.772761,-1.58918 -2.88867,1.63666 -6.639661,2.1316 -9.339001,4.04707 1.374225,-0.46204 5.236455,-2.1778 4.122661,-1.38612 -1.739332,1.2363 -4.087676,1.78573 -6.065489,2.76707 -0.822098,0.4079 -3.270562,1.54116 -2.32047,1.3938 1.658507,-0.25722 2.995693,-1.26265 4.574328,-1.74336 0.827055,-0.25185 -6.926065,3.05748 -2.547357,0.59882 -6.494606,4.36993 3.081377,-2.48907 2.180433,0.61056 -0.409272,1.40806 -3.154214,1.43823 -4.583107,2.32548 -0.64149,0.39832 -2.065386,0.98077 -1.565449,1.49235 0.609862,0.62409 3.34018,-0.78731 2.973031,-0.052 -0.542347,1.08623 -2.543487,1.15917 -3.815238,1.73875 -3.018933,0.79738 -4.492752,1.11493 -7.868593,2.88612 -0.231342,0.12138 0.559991,0.30656 0.509216,0.52388 -0.178115,0.76241 -1.381399,1.39409 -1.13245,2.14374 0.211058,0.63554 2.269347,0.30279 2.161375,0.95463 -0.157368,0.95012 -1.761908,1.30157 -2.642869,1.95236 -2.518909,0.59512 -5.12166,0.0239 -7.71448,0.56622 -1.275633,0.26683 -2.357241,1.19293 -3.675531,1.16832 -3.819084,-0.0713 -0.666704,-3.03628 -0.327993,-3.54683 -1.588537,0.67363 -3.186556,1.33317 -4.765606,2.02088 -0.794234,0.3459 -2.768052,1.72167 -2.35336,1.07956 0.428179,-0.663 1.561174,-0.82746 2.401215,-1.15366 0.143775,-0.0558 0.599935,-0.0463 0.477503,0.0358 -5.273799,3.53646 -2.817389,0.74249 -5.279133,4.086 3.494555,1.38503 3.092475,0.57567 -1.543741,3.02677 -0.853224,0.45108 -1.635701,1.11445 -2.646312,1.24241 -0.380969,0.0482 -0.172415,-0.64003 -0.454957,-0.84975 -0.807413,-0.59931 -1.764564,-1.06237 -2.71741,-1.50497 -1.142645,-0.53076 -2.368327,-0.93828 -3.552489,-1.40742 4.502971,-2.51408 -5.484701,1.90017 -4.598652,2.19804 1.156304,0.38873 4.18007,-1.16878 3.752997,-0.22667 -0.882621,1.94704 -5.571733,1.11587 -6.99534,2.71642 2.408517,-1.33582 -0.242285,0.23037 -1.896338,0.30494 -0.347446,0.0157 0.843304,-0.74046 0.4954,-0.73392 -1.584712,0.0298 -3.178074,0.33317 -4.645521,0.8119 -1.137155,0.37097 2.423511,-0.32156 3.635269,-0.48233 -1.796158,0.42424 -3.592318,0.84848 -5.388476,1.27272 -1.511532,0.25619 -2.99184,0.83797 -4.534593,0.76858 -0.715214,-0.0322 -1.010045,-0.89777 -1.700905,-1.04902 -0.408795,-0.0895 -1.563128,0.51707 -1.155718,0.42363 13.368309,-3.06617 5.044303,-1.53491 1.442104,-0.37505 1.993814,-0.35667 4.463703,-2.16247 5.981446,-1.07 1.509637,1.08664 -3.978091,0.6745 -5.939166,1.10043 -1.625159,0.35298 -3.21705,0.79849 -4.810382,1.23429 -0.437256,0.1196 -1.730274,0.50428 -1.277334,0.43082 1.882699,-0.30538 7.284503,-1.84841 5.58707,-1.12987 -1.98834,0.84168 -4.32101,1.00566 -6.481513,1.50849 -1.687608,0.54589 -3.403361,1.03926 -5.062822,1.63766 -0.40463,0.14591 -1.546994,0.64965 -1.109758,0.58816 2.049852,-0.28825 3.957262,-1.38277 6.034725,-1.28071 1.507508,0.074 -2.795466,0.91411 -4.193199,1.37118 -0.318519,0.2513 -1.394676,0.68409 -0.955557,0.7539 1.404347,0.22325 2.857664,-0.14959 4.286494,-0.22438 -3.426154,1.10149 -5.614466,1.6529 -8.685293,3.14154 -0.423677,0.20539 -1.603138,0.73831 -1.111549,0.78866 1.130493,0.11584 4.09516,0.12684 3.346697,-0.55964 -1.508427,-1.38351 -6.084916,1.74736 -6.460333,-1.91528 2.523908,0.53659 -0.583711,-0.0956 7.138787,-0.73128 0.24765,-0.0204 -5.329159,0.64867 -5.934233,0.99613 -0.308199,0.17699 0.751015,0.0887 1.126526,0.1331 1.988974,0.06 3.977952,0.11991 5.966929,0.17987 -3.594573,0.30239 -7.141683,0.70413 -10.711979,1.14954 -0.816026,0.1018 -1.625911,0.25854 -2.450836,0.29095 -0.09652,0.004 -0.261991,-0.16642 -0.169209,-0.188 1.518527,-0.35319 3.082964,-0.5655 4.624448,-0.84824 -3.327701,0.0996 -6.65368,0.19906 -9.946787,0.63203 -0.328331,0.0432 -1.289063,0.14681 -0.964524,0.20548 0.822326,0.14866 1.689137,0.006 2.527552,0.0771 2.316225,0.19651 4.61902,0.48344 6.92853,0.72516 -5.380477,0.38714 -10.695229,1.17755 -15.859997,2.4643 -5.832612,1.43555 -14.16274,4.42082 -20.203485,2.43801 -1.772838,-0.58193 -3.259453,-1.6115 -4.889179,-2.41724 0,0 41.179748,98.66336 41.179748,98.66336 z" />
    <path
       style="fill:#00e696;fill-opacity:1;stroke-width:0.264583"
       id="path871"
       d="m -34.943588,411.57158 c 1.788028,-5.78094 3.821412,-6.18226 8.905466,-4.41759 0.458097,0.16264 1.840721,0.35099 1.374289,0.48789 -1.230254,0.3611 -2.562264,0.12044 -3.839232,0.23558 -0.322329,0.0291 -0.899568,-0.12313 -0.950837,0.19643 -0.04974,0.31001 0.557505,0.29604 0.856407,0.39214 1.365273,0.439 2.838909,0.67313 4.237693,0.94385 4.087694,0.70403 8.236128,0.86185 12.374662,0.91765 0.481388,0.003 0.962773,0.006 1.444166,0.007 2.7092361,0.008 4.1712681,-0.077 -4.390293,0.6286 -0.680095,0.0561 -1.372514,-0.0896 -2.047162,0.013 -0.267043,0.0406 0.523418,0.13793 0.790525,0.17809 0.765236,0.11512 1.535789,0.19156 2.303684,0.28734 4.7705851,0.51557 9.5708671,0.34801 14.354649,0.18431 2.682329,-0.10311 5.366403,-0.13478 8.050428,-0.14653 2.330487,-0.005 4.660985,0 6.991475,0 2.334514,0.003 4.66903,0.003 7.003547,0.003 2.340165,1.8e-4 4.680331,1.6e-4 7.020499,1.6e-4 2.340459,-3e-5 4.680918,-3e-5 7.02138,-3e-5 2.34039,-3e-5 4.680781,-3e-5 7.021171,-3e-5 2.673938,-1.89372 6.585246,-0.82468 9.462643,-2.33275 2.117273,-1.10969 -0.214257,-1.13744 1.581214,-1.45399 4.20026,-0.74051 3.991498,-0.65529 7.34882,-0.83158 2.812309,0.61674 0.546132,0.959 0.579692,2.04718 0.346456,0.14425 0.294433,0.14986 0.765193,0.17116 2.488726,0.11258 4.976609,0.3061 7.467867,0.298 1.257798,-0.004 2.507671,-0.20277 3.758557,-0.33451 1.527159,-0.16087 1.165649,-0.15386 0.57648,-0.196 -6.942111,-0.85921 6.284731,1.51254 6.928051,-2.23766 0.25901,-0.19961 -1.13879,-0.10938 -0.85215,-0.12809 2.19837,-0.14354 4.400795,-0.22767 6.596818,-0.40357 0.0192,-0.003 4.854306,-0.67815 1.65076,-0.0333 -0.94143,0.25988 -5.858048,0.54938 -2.59168,-1.67939 3.459806,-0.0919 6.967626,0.72229 10.423586,0.90469 1.19928,0.0633 3.85821,-0.0875 5.44808,-0.16957 -0.20223,0.1302 -2.15938,0 -1.31156,-0.36851 7.23273,-0.88834 4.53898,-0.37304 9.45724,-1.40957 0.35541,-0.0749 1.40772,-0.34388 1.06834,-0.21444 -0.0734,0.028 -0.45873,0.11491 -0.53218,0.132 0.36282,0.80322 8.03898,-0.12515 10.19417,-0.37677 0.17723,-0.0206 0.70856,-0.0668 0.53025,-0.0733 -0.62173,-0.0225 -1.24247,0.0729 -1.8645,0.0837 -0.30487,-0.0241 -1.2091,0.0106 -0.9146,-0.0718 1.88317,-0.52668 3.82928,-0.79959 5.72631,-1.27391 0.68975,-0.17243 1.35758,-0.42434 2.02675,-0.66453 0.10196,-0.0366 0.37251,-0.10613 0.28075,-0.1637 -0.12999,-0.0815 -0.60493,0.0947 -0.45728,0.0529 1.66507,-0.47109 3.34315,-0.8949 5.01472,-1.34236 2.8384,-0.65894 6.97846,-1.95291 11.6797,-3.75089 0.39923,-0.14682 0.77574,-0.3865 1.19767,-0.44048 1.45061,-0.18555 -5.89476,2.07576 -2.03473,0.97285 1.24216,-0.35494 2.44191,-0.84461 3.66923,-1.24788 2.4234,-0.79629 4.92688,-1.32427 7.39094,-1.98411 1.93877,-0.39897 4.53287,-0.74555 5.67427,-2.64922 0.48022,-0.80092 -2.24729,1.08331 -2.78336,0.31866 -0.47591,-0.67884 1.26339,-1.0818 1.81359,-1.70196 0.0699,-0.0788 -0.21041,0.009 -0.31562,0.0135 0.91804,-0.50692 1.83607,-1.01384 2.75411,-1.52075 -0.56189,-0.0183 -1.395,0.42664 -1.68566,-0.0546 -0.31253,-0.5174 0.40919,-1.13766 0.62432,-1.70254 0.0238,-0.0625 0.11848,-0.23998 0.092,-0.17847 -0.0841,0.19569 -0.47748,0.56301 -0.26525,0.5814 10.34726,0.89617 1.2341,-0.96777 6.47824,0.19658 -0.10417,0.2916 -0.62061,0.90596 -0.31251,0.87485 1.26268,-0.12753 2.39253,-0.85169 3.6106,-1.20798 0.14945,-0.0437 0.58277,-0.0888 0.46692,0.0153 -0.32459,0.29149 -1.58968,0.68017 -1.15961,0.60683 11.80338,-2.01261 2.72175,-1.11205 6.96622,-1.50675 2.45664,-1.06027 4.90061,-2.15038 7.36992,-3.18077 2.32354,-0.96954 -0.86552,1.38922 -2.03657,1.37668 -0.81228,-0.009 1.21469,-1.07887 1.82561,-1.61422 3.49745,-3.06491 4.79711,-3.05319 2.5847,-2.82684 1.65762,-0.94361 3.2685,-1.97451 4.97286,-2.83083 0.10116,-0.0508 -0.009,0.22625 -0.0139,0.33936 0.56505,-0.52891 1.4417,-0.8554 1.69516,-1.58671 0.15976,-0.46096 -0.79493,-0.80703 -0.69969,-1.28551 0.33597,-1.68798 2.45007,-2.74587 0.76831,-1.80387 1.33419,-0.62698 2.58626,-1.47201 4.00258,-1.88095 0.23016,-0.0665 0.49157,0.41891 0.36236,0.62066 -0.51207,0.79949 -2.96608,1.80245 -2.03579,1.99199 1.44146,0.29374 2.68112,-1.28979 4.12603,-1.56607 0.31279,-0.0598 -0.17216,0.65892 -0.42103,0.85763 -0.97054,0.77493 -2.09894,1.32823 -3.14842,1.99236 1.63607,-1.36152 3.46137,-2.49505 5.04975,-3.91356 0.1186,-0.10591 -0.49101,0.17275 -0.47683,0.0143 0.1108,-1.23775 0.28671,-2.50986 0.80151,-3.6409 1.00478,-2.20763 3.26838,-3.9777 4.97733,-5.55501 2.18599,0.25553 3.70077,-1.93358 5.62204,-2.47425 0.25278,-0.0711 0.1793,0.66598 0.44156,0.65243 0.64946,-0.0335 1.20993,-0.48085 1.79351,-0.76779 1.68758,-0.82984 3.34448,-1.72064 5.01672,-2.58096 -0.58892,0.46951 -1.14316,0.98613 -1.76676,1.40849 -0.25039,0.16957 0.4128,-0.44321 0.63856,-0.6444 0.62651,-0.55827 1.45888,-0.92898 1.91651,-1.63237 0.24688,-0.37947 -0.29333,-1.03984 0.0289,-1.35782 3.08807,-3.0471 2.63518,-2.96857 4.70492,-2.233 0.54998,-0.31851 1.03819,-1.12776 1.64993,-0.95546 0.4529,0.12753 -1.17431,1.29286 -0.70943,1.22031 1.41428,-0.22064 2.52776,-1.45196 3.93319,-1.72329 0.32186,-0.0621 -0.0552,0.65329 -0.0828,0.97994 1.58177,-0.90694 3.04723,-2.05663 4.74529,-2.72079 0.3579,-0.13996 -0.31662,0.70038 -0.47492,1.05056 1.54309,-1.48466 2.20407,-3.72288 3.5965,-5.29498 1.33622,-1.50868 2.79325,-2.91512 4.3256,-4.22412 0.1554,-0.13275 -0.0604,0.40425 -0.0906,0.60639 1.16943,-1.0106 2.33887,-2.0212 3.50829,-3.03178 -0.30635,0.59529 -1.52594,2.06862 -0.91908,1.78586 1.31868,-0.61441 2.28806,-1.81586 3.27583,-2.88396 0.48781,-0.5275 1.69598,-2.25803 1.10353,-1.85152 -1.00899,0.6923 -1.36642,3.37354 -2.42356,2.75727 -1.045,-0.60918 1.02592,-2.19432 1.43928,-3.33108 0.24773,-0.68122 0.35877,-1.40462 0.53819,-2.10695 0.39124,-2.86856 1.92564,-5.06127 3.76179,-7.19265 1.13123,-0.93115 2.34807,-1.7671 3.39368,-2.79344 0.13687,-0.13436 -0.62603,0.21122 -0.57478,0.0265 0.68479,-2.46899 2.70333,-5.24614 4.66881,-6.72669 0.40074,-0.30186 0.85987,0.51858 1.30577,0.74859 0.51194,-0.96423 0.91983,-1.99136 1.53588,-2.89262 0.19104,-0.2795 -0.55392,1.09945 -0.23417,0.98822 1.01446,-0.35287 1.57866,-1.84967 2.65258,-1.82946 0.68506,0.013 -1.03127,3.59791 -0.2806,1.88886 3.15912,-5.84263 4.39727,-5.41134 3.66278,-10.84498 -0.1331,-0.98467 -1.06157,-1.89298 -0.83713,-2.86094 0.53933,-2.32617 3.64427,-4.34744 5.60713,-5.38162 0.44103,-0.13921 0.98653,-0.10044 1.3231,-0.41762 0.72152,-0.67991 1.08256,-1.66542 1.70569,-2.43652 1.5525,-1.92117 1.98898,-1.0665 2.91026,-4.18033 0.18599,-0.62865 -0.44099,-1.37197 -0.15281,-1.96081 0.51227,-1.04662 1.58007,-1.71308 2.3701,-2.56961 5.38236,3.28066 -5.67019,-2.96266 4.26609,-0.46556 0.71551,0.17981 0.62238,1.41368 0.53874,2.14667 -0.22725,1.9915 -1.6e-4,4.45143 -1.4496,5.83593 -4.84298,4.62602 -11.0431,7.58082 -16.56463,11.37125 0,0 -34.07307,-97.01894 -34.07307,-97.01894 v 0 c -6.12853,4.00359 -12.9513,7.10605 -18.38558,12.01075 -0.25699,0.23195 -4.25396,9.78284 -4.39309,11.77178 -0.0412,0.58851 0.62077,1.00339 0.93115,1.50508 -0.34109,1.29529 -0.68217,2.59058 -1.02325,3.88587 -0.24112,2.85513 -2.67149,1.74951 -3.65147,2.93803 -0.44449,0.53908 -0.66007,1.23512 -1.05753,1.80976 -1.99406,2.88297 1.1156,-3.54326 -1.86688,3.45214 -0.16303,0.42412 -1.66974,4.88956 -2.27702,5.08061 -2.28,0.7173 -5.94432,1.11895 -6.12992,-0.24419 -0.21583,-1.58517 1.15081,-2.98547 1.72622,-4.47821 -2.51899,1.9225 -4.88529,4.2762 -5.88947,7.41735 -0.088,0.27509 0.51438,0.26273 0.77158,0.39409 -0.7804,1.10275 -1.56081,2.20549 -2.34121,3.30823 -0.14902,0.15283 -0.34609,-0.24993 -0.51914,-0.3749 -0.77175,1.22454 -2.73067,3.96602 -2.73818,5.5235 -0.002,0.48166 1.05604,-0.42074 1.13357,-0.89613 0.33346,-2.04459 -3.23718,1.28877 -3.72229,1.93903 -0.28101,0.37668 0.89586,-0.28439 1.34378,-0.42659 -2.77677,2.59118 -5.63513,5.34783 -9.29451,6.60496 -0.42761,-0.0349 -0.99524,0.21365 -1.28283,-0.10472 -0.35041,-0.38792 0.22395,-1.83734 -0.215,-1.55345 -1.61004,1.04125 -2.52248,2.89546 -3.90858,4.22028 -0.0844,0.0807 -0.33199,-0.16731 -0.24751,-0.24795 0.47164,-0.45018 6.84767,-4.94994 -0.46461,1.90003 7.04696,-4.72003 -2.61195,1.45354 0.19818,0.93809 4.31436,-0.79137 2.96262,-1.86763 2.14225,-3.06903 -0.12916,-0.18915 -0.14984,-0.51738 -0.37054,-0.57866 -0.2803,-0.0778 -0.55878,0.16205 -0.83816,0.24307 -5.19414,5.73639 -0.31618,-0.27264 1.07075,0.8986 0.77728,0.6564 -1.95558,1.29507 -1.99274,2.31175 -0.0235,0.64176 2.17113,-0.79361 1.91572,-0.20439 -0.6799,1.56848 -2.79012,2.09039 -3.71099,3.53979 -0.53351,0.68161 -1.47214,1.18882 -1.60053,2.04482 -0.0744,0.49615 1.88102,-0.53407 1.38292,-0.59404 -3.46978,-0.41772 -6.58306,2.69553 -9.01787,4.3976 0.93501,-0.27502 1.83161,-0.87328 2.80504,-0.82506 0.40117,0.0199 -0.50186,0.62794 -0.77133,0.92581 -0.7266,0.80315 -1.526,1.54141 -2.21598,2.37625 -0.0861,0.10414 -0.004,0.2843 -0.0768,0.39794 -0.65496,1.01895 -2.22887,2.21726 -2.94027,2.84645 -0.59339,-1.00559 -1.93169,-3.58261 -2.94397,-3.80868 -0.90398,-0.20187 -1.67606,1.45991 -2.54019,1.12642 -0.68226,-0.2633 2.41282,-1.27775 1.20548,-1.83302 -1.64655,0.94896 -3.35902,1.79178 -4.93966,2.84689 -0.80238,0.5356 -2.25266,0.94297 -2.17891,1.90487 0.0593,0.77353 2.72369,-1.03092 2.29551,-0.38397 -0.95297,1.43986 -5.89182,3.6883 -5.90148,5.20482 -0.004,0.59351 1.17119,-0.19342 1.75679,-0.29013 -1.03805,0.63002 -1.96281,1.50421 -3.11416,1.89006 -0.36093,0.12096 -0.64608,-0.47031 -1.02535,-0.50277 -0.96811,-0.0829 -1.93965,0.21183 -2.91021,0.16594 -0.11493,-0.005 -0.0525,-0.3711 -0.15047,-0.31068 -0.66993,0.41337 -2.59481,1.54647 -1.80809,1.51919 1.17217,-0.0406 2.10071,-1.04384 3.15106,-1.56576 -0.91521,0.40303 -1.82144,1.59109 -2.74562,1.20908 -0.69861,-0.28877 1.04652,-1.10489 1.44781,-1.74553 0.12184,-0.19452 0.28792,-0.76875 0.0744,-0.68458 -1.57422,0.6204 -3.01278,1.54642 -4.46494,2.41494 -0.29983,0.17932 -1.10177,0.81427 -0.76704,0.71423 1.96942,-0.58854 3.83892,-1.47058 5.75838,-2.20587 -2.39994,2.33969 1.86569,-2.09398 3.10999,0.14732 0.18788,0.33842 -4.58306,1.45375 -5.18546,2.17482 -0.29259,0.35023 1.65401,-0.64004 1.33197,-0.31667 -0.73834,0.74137 -1.77753,1.10432 -2.66629,1.65648 -0.24318,0.44283 -0.97891,0.88914 -0.72952,1.3285 0.34822,0.61347 2.32733,0.22579 1.95012,0.82189 -0.6696,1.05816 -2.2616,1.0833 -3.43405,1.52314 -1.02414,0.3842 -2.05247,0.85619 -3.14277,0.94411 -0.85556,0.069 -1.68572,-0.32452 -2.52857,-0.48678 -1.49345,0.35221 -2.98689,0.70442 -4.48034,1.05663 0.0749,-0.10818 0.35086,-0.36182 0.22467,-0.32456 -0.9697,0.28631 -1.83033,0.93729 -2.82927,1.09358 -0.27529,0.043 -0.35094,-0.59067 -0.627,-0.55285 -1.72597,0.23645 -3.31259,1.27982 -5.05392,1.3311 -0.79101,0.0233 1.28728,-0.95129 2.02336,-1.24185 0.18515,-0.0731 -0.16704,0.36137 -0.25056,0.54205 1.51817,-0.28692 3.0196,-0.68396 4.55448,-0.86076 0.546,-0.0629 -1.01812,0.47089 -1.56583,0.5165 -0.47085,0.0392 1.78047,-0.63137 1.32759,-0.49667 -2.67221,0.79481 -5.26461,1.76856 -7.86456,2.76482 0.84775,-0.33695 1.72067,-0.6164 2.54323,-1.01081 0.29704,-0.14243 -1.27114,0.34623 -0.95616,0.24979 6.47336,-1.98215 -3.10586,0.80772 -3.93567,0.79433 0.90038,-0.25064 2.85316,0.17026 2.70112,-0.75192 -0.15115,-0.91678 -1.83371,0.30147 -2.75152,0.44625 -0.66132,0.10432 -1.31754,0.26043 -1.9858,0.30107 -0.0875,0.005 -0.28603,-0.1429 -0.2021,-0.16801 1.16325,-0.34811 2.81666,0.13792 3.54619,-0.83267 0.60873,-0.80989 -2.02372,0.10221 -3.03558,0.1533 -2.52253,0.25437 -3.48219,0.29006 -5.91164,0.75774 -0.47936,0.0923 -1.25884,-0.097 -1.41843,0.36438 -0.13769,0.39799 0.83977,0.0648 1.2599,0.0938 1.67375,0.1157 3.37904,0 5.02171,0.34041 0.80124,0.16642 -1.63154,0.12957 -2.44731,0.19436 -2.60595,0.28118 -2.61663,0.25699 -5.20962,0.63802 -1.19693,0.1759 -2.37791,0.54785 -3.58769,0.54832 -0.20593,1.1e-4 0.39168,-0.12739 0.58751,-0.1911 1.42174,-0.15997 2.84348,-0.31994 4.26521,-0.47991 -4.78495,-0.10247 -9.615436,-0.13126 -14.328629,0.82124 -1.212425,0.62312 -0.743605,0.23077 1.27127,0.60336 1.630763,0.30155 3.311683,0.42693 4.881219,0.96247 0.4622,0.15772 -0.964766,0.15487 -1.450196,0.20823 -1.70518,0.18754 -1.52344,0.12557 -3.293273,0.0503 -0.65561,-0.14846 -1.33059,-0.22842 -1.966825,-0.44535 -0.84489,-0.28811 -1.58525,-0.875 -2.45779,-1.06344 -0.80475,-0.17381 -1.64672,-0.0145 -2.4699,0 -3.211965,0.054 -6.42329,0.26583 -9.593262,0.811 -0.212217,0.0436 -4.336341,0.78534 -5.036267,1.22944 -0.191405,0.12144 0.420497,0.1964 0.646766,0.21016 1.489762,0.0907 3.027807,-0.25765 4.476413,0.10176 1.819696,0.45146 -7.276832,0.16703 -5.597998,0.54639 -0.735679,-0.007 -1.493335,0.15708 -2.207043,-0.0214 -0.306115,-0.0766 -0.95844,-0.65093 -0.645618,-0.69234 1.792166,-0.23722 3.615793,0.0161 5.423062,0.06 0.868674,0.0209 -1.738046,-0.0106 -2.606776,0.008 -2.787245,0.0597 -2.976938,0.11809 -5.766583,0.34743 -0.801143,0.10615 -1.605904,0.18785 -2.403427,0.31845 -0.320974,0.0526 -1.25588,0.12507 -0.948161,0.2304 0.569936,0.1951 1.206264,0.008 1.806114,0.0633 7.720119,0.71387 6.631427,0.48151 3.552328,0.71331 -0.70494,0.053 -1.408282,0.12557 -2.112423,0.18836 -5.083797,0.6464 -10.205397,1.61846 -14.796087,4.00367 -0.148913,0.1591 -0.658603,0.4263 -0.446741,0.47729 0.606002,0.14583 2.480699,-0.0392 1.864953,-0.136 -2.593306,-0.40748 -2.111468,0.80322 -4.509302,-0.71062 -0.142661,-0.0901 0.159493,-0.29736 0.239239,-0.44603 1.292082,-0.40677 2.584167,-0.81357 3.876252,-1.22034 -2.340375,0 -4.680747,0 -7.021121,0 -2.340295,-3e-5 -4.680591,-3e-5 -7.020886,-5e-5 -2.34057,-6e-5 -4.681138,-1.4e-4 -7.021708,5e-5 -2.346714,0 -4.69343,0 -7.040142,0.004 -2.35405,0.004 -4.708096,0.0106 -7.062149,0.0116 -1.982777,-0.005 -3.974661,0.0243 -5.948433,-0.18934 -1.864112,-0.3774 0.581261,-0.74083 1.213255,-0.70617 0.61876,-0.11771 0.712858,-0.0963 -0.840551,-0.27262 -1.330157,-0.15095 -2.660125,-0.36918 -3.9988159,-0.37201 -2.599095,-0.006 -5.192432,0.24614 -7.789566,0.34721 -0.05095,0.003 -1.7747151,-0.0111 -1.8855341,-0.0119 -0.239544,-0.003 -2.153665,-0.26422 -1.681836,0.27749 -0.07794,0.51099 -1.437076,0.33425 -2.181048,0.30636 -3.708161,-0.13896 -7.818944,-1.1444 -11.338511,0.2535 -5.084054,1.76467 -7.117438,1.36335 -8.905466,-4.41756 0,0 0,104.66837 0,104.66837 z" />
  </g>
</svg>
