<svg xmlns="http://www.w3.org/2000/svg" width="7680" height="4320"><path d="M7684.544 2582.547a3839.903 1316.542 0 00-1928.574-1141.86 3839.903 1316.542 0 00-3848.486 5.127A3839.903 1316.542 0 004.854 2592.78" fill="none" stroke="#00e696" stroke-width="3.393"/><path d="M4.854 2592.78V-11.43h7686.575v2577.143" fill="none" stroke="#000"/><path d="M7680.659 2498.202c-.08-23.636-34.846-119.776-58.822-162.649-295.314-528.07-1487.46-942.475-3012.556-1047.2-244.95-16.82-346.204-20.598-642.857-23.99-1168.804-13.36-2252.53 148.625-3025.714 452.256-461.244 181.131-780.495 416.016-891.246 655.722-10.878 23.545-24.83 60.53-31.003 82.192l-11.225 39.383-.406-1250-.406-1250h7680v1260c0 693-1.286 1260-2.857 1260-1.572 0-2.88-7.071-2.908-15.714z" fill="#2b4366"/></svg>