<svg xmlns="http://www.w3.org/2000/svg" width="7680" height="4320"><path d="M0 4137.143h1634.286s2571.428 114.286 2571.428-1531.429c0-1645.714 3501.692-2021.703 3501.692-2021.703v3793.132H0z" fill="none" stroke="#00e696" stroke-width="2"/><path d="M8.069 4257.928v-114.286l951.428-.103c1133.83-.12 1304.309-9.196 1711.429-91.124 877.761-176.64 1390.247-572 1513.04-1167.244 9.875-47.872 22.897-171.3 28.938-274.285 13.004-221.708 36.98-326.127 109.465-476.739 122.88-255.325 319.148-465.418 628.557-672.83 360.928-241.946 871.157-455.288 1482.918-620.05 345.418-93.03 751.827-177.517 1071.367-222.725 72.286-10.227 145.572-21.386 162.858-24.798l31.428-6.203v3784.673H8.07z" fill="#0a192f"/></svg>