<svg xmlns="http://www.w3.org/2000/svg" width="433.412" height="395.884" viewBox="0 0 114.674 104.744"><path d="M54.788 6.34c1.444 5.477 1.611 11.228 1.897 16.873.276 6.38.3 12.789-.18 19.16-.266 3.558-.57 5.587-1.018 9.104-.735 5.371-1.72 10.722-3.258 15.906-.934 3.145-1.329 3.986-2.505 7.03-2.498 6.109-5.83 11.859-10.18 16.691-.902 1.002-1.9 1.901-2.851 2.852-2.45 2.188-4.95 4.376-7.694 6.148-.699.45-2.898 1.606-2.16 1.234 13.526-6.798 16.454-7.333 9.815-5.681-4.566.478-8.859-1.3-12.427-4.272-.8-.667-1.522-1.436-2.283-2.153-3.575-3.998-5.965-8.951-6.767-14.412-.156-1.056-.198-2.128-.297-3.192-.079-4.574.383-9.37 2.117-13.616.284-.694.65-1.347.976-2.02.984-1.728 2.018-3.417 3.425-4.796.382-.373.758-.766 1.206-1.045.488-.304 2.08-.95 1.572-.683-4.118 2.164-8.271 4.251-12.406 6.377 5.167-1.42 10.6-1.565 15.905-1.178 4.886.635 9.255 2.916 13.429 5.55 5.154 3.602 9.754 7.987 14.18 12.527 2.764 2.793 5.305 5.836 7.4 9.226 1.813 2.973 3.474 6.044 5.378 8.954 1.41 1.853 2.548 3.977 4.05 5.753.226.267.43.844.75.727 5.27-1.932 10.33-4.455 15.495-6.683 1.915-5.885 3.914-11.734 5.639-17.686 1.584-5.912 3.406-11.746 5.075-17.63 1.433-4.807 3.385-9.401 5.344-13.987 1.628-4.383 3.717-8.488 6.45-12.198.776-.884 1.39-2.324 2.47-2.898.277-.148 1.185-.356.907-.21-13.198 6.924-18.43 7.085-12.266 6.712l13.775-8.844c-7.838-1.295-15.744 4.232-20.126 10.751-2.623 3.885-4.627 8.132-6.332 12.551-1.958 4.645-3.88 9.313-5.273 14.192-1.706 5.868-3.45 11.725-5.078 17.619a302.499 302.499 0 01-3.344 10.55c-.203.602-1.371 4.18-1.857 5.004-.203.344-.568.544-.852.816 4.74-2.006 9.546-3.844 14.22-6.018.196-.091-.41-.175-.562-.335-.32-.336-.562-.748-.834-1.13a244.067 244.067 0 01-3.18-4.543c-1.91-2.883-3.55-5.945-5.354-8.903-2.13-3.512-4.718-6.681-7.561-9.568-4.49-4.643-9.158-9.112-14.349-12.87-4.37-2.853-8.686-5.229-13.794-6.227a55.208 55.208 0 00-16.256.584c-5.497 2.61-11.036 5.123-16.492 7.828-2.736 1.356-4.445 4.943-5.887 7.545-.303.735-.645 1.454-.91 2.206C.327 68.57-.135 73.528.072 78.334c.122 1.122.187 2.252.367 3.365.936 5.782 3.466 11.05 7.195 15.361.79.778 1.541 1.605 2.372 2.335 3.714 3.265 8.212 5.394 13.072 5.447.836-.115 1.728-.005 2.508-.345 11.684-5.082 18-7.607 26.425-15.802.934-1.003 1.912-1.962 2.802-3.01 4.286-5.048 7.557-10.949 10.01-17.204 1.179-3.202 1.507-3.905 2.442-7.204 1.494-5.268 2.454-10.689 3.176-16.13.453-3.723.712-5.453.973-9.226.445-6.431.406-12.895.111-19.332-.311-5.79-.516-11.691-2.068-17.29L54.787 6.34z"/><path d="M66.268 63.557c.273 2.353.155 1.807-.53 3.175-.16.32.245 1.343 0 1.588-.124.125-.404-.125-.529 0-.25.25.158.743 0 1.058-.39.78-.702.702-1.058 1.059-.25.25.25.809 0 1.058-.265.265-.794.265-1.058.53-.222.22-.37 1.266-.53 1.587-.804 1.609-4.233 4.37-4.233 5.291" fill="none" stroke="#000" stroke-width=".265"/><path style="mix-blend-mode:normal" d="M18.235 103.78C7.458 100.413-.78 86.494.373 73.596c.649-7.264 3.404-14.473 6.718-17.578.689-.646 5.04-2.99 9.67-5.21 9.614-4.61 12.394-5.263 20.654-4.86 5.863.286 9.148 1.292 14.251 4.365 1.692 1.019 3.255 1.852 3.474 1.852 1.219 0 2.311-15.619 1.87-26.723-.343-8.62-1.008-15.852-1.64-17.842-.242-.765.99-1.57 6.73-4.402 6.31-3.112 7.062-3.367 7.382-2.5 1.901 5.138 2.417 32.131.832 43.53-.506 3.637-1.5 9.204-2.21 12.369l-1.292 5.755 3.239 3.505c1.78 1.928 4.54 5.49 6.133 7.915 1.592 2.426 3.065 4.212 3.272 3.97.208-.243 1.522-4.49 2.92-9.437 2.872-10.167 7.16-21.537 10.763-28.547 4.485-8.723 11.56-14.636 18.497-15.458 1.525-.18 2.773-.197 2.773-.037s-1.667 1.32-3.704 2.576c-4.009 2.474-4.849 3.525-1.798 2.25 1.048-.437 1.822-.604 1.72-.37-.103.235-1.185 2.094-2.405 4.131-3.43 5.729-8.22 18.322-12.28 32.28-2.031 6.985-4.604 15.541-5.718 19.014l-2.025 6.314-5.284 2.34c-2.905 1.288-6.41 2.787-7.785 3.331l-2.503.99-3.583-5.508c-1.97-3.03-4.703-7.31-6.072-9.513-1.368-2.202-2.7-4.004-2.957-4.004-.258 0-.72.548-1.024 1.218-1.077 2.364-6.96 9.137-10.432 12.011-4.863 4.026-10.04 7.104-17.494 10.401-6.794 3.005-8.774 3.323-12.83 2.056zm20.353-11.337c4.375-4.44 8.711-11.316 11.522-18.27l2.103-5.203-2.637-2.333c-7.46-6.603-14.232-10.638-19.834-11.82-1.6-.338-4.815-.537-7.143-.442l-4.234.171-1.13 2.356c-2.722 5.673-3.33 15.967-1.316 22.289 1.929 6.054 6.658 12.165 11.278 14.573 2.031 1.058 5.58 2.235 6.893 2.286.5.02 2.523-1.604 4.498-3.607z" fill="#00e696" fill-rule="evenodd" stroke="#fff" stroke-width=".52916"/><path d="M19.745 104.271a20.762 20.762 0 01-6.182-2.621C6.633 97.295 1.363 88.318.372 79.18c-.829-7.635 1.886-17.81 6.01-22.529.9-1.028 2.395-1.921 7.543-4.505 11.431-5.738 14.757-6.658 22.706-6.281 6.938.328 9.355 1.07 16.055 4.923 2.53 1.455 2.493 1.444 2.755.789.58-1.451 1.108-6.231 1.423-12.907.176-3.73.095-14.598-.133-18.002-.416-6.18-.798-9.963-1.215-12.032-.328-1.624-.295-1.705 1.068-2.605C57.589 5.367 65.2 1.529 67.04.758 68.214.267 69.16.113 69.38.38c.744.905 1.438 7.068 1.771 15.725.177 4.61.093 17.923-.134 21.167-.489 6.987-1.441 13.106-3.389 21.775l-.734 3.269.448.475c4.072 4.323 5.9 6.6 9.879 12.313.896 1.287 1.935 2.517 2.127 2.517.157 0 1.06-2.823 2.707-8.467 2.432-8.337 4.049-13.094 6.72-19.778l1.217-3.042.04 19.248.038 19.249-.899 2.833-.899 2.833-.992.453c-3.786 1.73-14.376 6.25-14.641 6.25-.069 0-1.68-2.468-5.483-8.4-5.165-8.057-6.045-9.395-6.6-10.024-.372-.424-.503-.674-.443-.846.13-.372-.522.558-1.22 1.741-1.154 1.95-3.003 4.274-5.988 7.523-3.522 3.835-7.234 6.788-12.324 9.805-4.25 2.52-11.77 5.998-15.19 7.028-1.458.439-4.362.565-5.646.245zm15.232-8.786c2.571-1.734 6.152-5.693 8.977-9.928 2.747-4.115 4.506-7.528 6.815-13.218l1.364-3.362-.337-.276a115.04 115.04 0 01-1.84-1.61c-8.003-7.105-15.02-11.262-20.752-12.29-1.507-.272-6.093-.41-8.897-.27l-1.923.096-.801 1.74c-1.942 4.212-2.707 8.092-2.72 13.778-.008 3.38.11 4.653.67 7.21 1.472 6.715 6.87 14.013 12.282 16.602 1.784.854 5.299 2.018 6.17 2.045.119.003.565-.23.992-.517zm25.499-17.938c.045-.118.023-.171-.052-.125-.072.045-.131.137-.131.205 0 .19.095.149.183-.08zm1.674-2.685c.225-.535.384-.998.353-1.03-.032-.032-.194.307-.36.752-.168.446-.431.998-.587 1.228-.46.682-.521.842-.158.419.188-.219.526-.835.752-1.37zm.837-2.27c.065-.265.046-.252-.1.067-.099.218-.217.545-.261.727-.066.266-.046.253.1-.066.099-.218.216-.546.261-.727zm.611-1.58c.164-.57.002-.409-.211.21-.09.263-.108.422-.04.353.07-.069.182-.322.251-.564zm.455-1.198c.062-.23.051-.27-.034-.132a2.43 2.43 0 00-.21.53c-.062.23-.052.27.033.132a2.43 2.43 0 00.211-.53zm.545-1.56c-.074-.073-.34.573-.331.808.003.087.093-.045.2-.293.108-.247.166-.479.131-.514zm.37-.755c.112-.327.178-.595.147-.595-.069 0-.457.913-.457 1.074 0 .266.12.08.31-.479zm.743-1.9c-.01-.166-.512.846-.515 1.04-.002.11.115-.06.26-.378.143-.317.258-.615.255-.661zm.399-1.01c0-.073-.058-.043-.129.066-.07.11-.128.258-.128.33 0 .074.058.044.128-.065.07-.11.129-.258.129-.331zm.655-1.654c-.001-.109-.119.1-.26.463-.143.364-.254.691-.248.728.022.14.511-1.003.508-1.19zM23.651 50.102c.263-.135.555-.338.65-.452.15-.18.13-.208-.14-.207-.409.001-1.581.55-1.836.858-.188.227-.17.235.325.142a4.458 4.458 0 001-.341z" fill="none"/><path d="M19.992 104.32c-3.89-.827-7.397-2.85-10.719-6.186-6.114-6.14-9.59-15.421-8.98-23.988.493-6.951 3.039-14.19 6.187-17.59.97-1.048 2.358-1.856 8.088-4.714 10.976-5.473 14.217-6.351 22.066-5.98 6.783.322 9.346 1.072 15.174 4.44 3.014 1.741 3.237 1.847 3.451 1.631 1.14-1.144 2.102-16.86 1.654-27.032-.346-7.85-.815-13.291-1.423-16.494-.2-1.057-.2-1.175-.005-1.474.368-.561 1.747-1.36 6.179-3.575C66.59.894 68.224.196 68.925.255c.45.038.491.08.715.756 1.606 4.843 2.214 27.45 1.077 40.03-.423 4.679-1.494 10.89-3.156 18.314-.333 1.487-.605 2.778-.605 2.87 0 .092.788 1.019 1.752 2.06 3.063 3.307 5.11 5.874 7.68 9.632 1.387 2.026 2.462 3.402 2.824 3.612.134.078.237-.016.372-.339.264-.632 1.599-4.992 2.764-9.03 2.977-10.314 6.591-20.023 10.145-27.251 2.815-5.727 5.998-9.76 10.141-12.848 3.08-2.296 6.31-3.584 9.743-3.885 1.506-.133 2.118-.079 2.034.179-.053.159-1.897 1.428-4.685 3.226-1.596 1.028-2.638 1.844-2.515 1.968.03.03.724-.185 1.54-.478 1.376-.492 1.993-.635 1.993-.461 0 .088-.69 1.301-2.182 3.832-3.957 6.714-8.092 17.606-12.973 34.17-3.022 10.257-7.166 23.723-7.355 23.902-.168.16-10.975 4.835-13.662 5.911-1.535.615-1.998.752-2.082.617-.06-.096-1.213-1.87-2.564-3.944a950.23 950.23 0 01-4.853-7.54c-2.958-4.657-3.834-5.976-4.502-6.783-.516-.623-.52-.634-.3-.992.137-.22.043-.155-.24.167-.255.291-.715.976-1.021 1.522-1.698 3.022-7.279 9.35-10.754 12.194-4.021 3.29-8.652 6.143-14.27 8.788-4.561 2.148-7.366 3.268-9.43 3.764-1.156.279-3.489.33-4.564.102zm15.226-8.997c1.267-.886 4.644-4.266 6.123-6.128.636-.8 1.83-2.467 2.652-3.704 2.726-4.098 4.323-7.18 6.685-12.907l1.442-3.497-.817-.778c-1.314-1.25-4.447-3.915-6.182-5.258-6.635-5.133-12.423-7.943-17.38-8.438-1.548-.155-6.443-.174-8.255-.032l-1.102.086-.781 1.654c-1.801 3.81-2.59 7.482-2.73 12.711-.182 6.726.875 11.115 3.853 15.995 1.684 2.76 4.337 5.778 6.492 7.386 1.018.76 3.543 2.042 5.093 2.586 1.047.368 3.36.992 3.716 1.003.116.003.652-.302 1.19-.679zm25.656-18.372c.201-.376.064-.315-.2.09-.126.19-.163.306-.083.257.08-.05.207-.206.283-.347zm.78-1.117c.163-.291.198-.41.077-.265-.245.296-.698 1.134-.5.926.07-.073.26-.37.423-.661zm.85-1.92c.048-.18-.024-.09-.16.2a6.563 6.563 0 00-.33.86c-.047.182.025.092.16-.2.135-.29.284-.677.33-.86zm.34-.925c-.006-.13-.047-.108-.122.067-.156.363-.156.572 0 .33a.817.817 0 00.121-.397zm.397-1.058c0-.11-.087.002-.193.247-.107.245-.191.483-.189.529.01.172.383-.585.382-.776zm.27-.728c0-.072-.057-.043-.127.067-.07.109-.129.258-.129.33 0 .073.058.043.129-.066.07-.109.128-.258.128-.33zm.398-1.058c0-.073-.058-.043-.128.066-.071.11-.129.258-.129.331 0 .073.058.043.129-.066.07-.11.128-.258.128-.33zm.226-.752c-.042-.106-.073-.074-.08.08-.005.14.026.217.07.173.044-.044.049-.158.01-.253zm.791-1.916c-.03-.03-.157.2-.284.513-.365.905-.365 1.025.001.253.186-.392.313-.736.283-.766zm.366-.838c.062-.23.051-.27-.034-.132a2.43 2.43 0 00-.211.53c-.061.23-.051.27.034.132a2.43 2.43 0 00.211-.53zm.724-1.852c.001-.109-.144.154-.323.585-.179.43-.32.818-.314.86.02.145.634-1.246.637-1.445zm.196-.47c.045-.117.023-.17-.052-.124-.072.044-.13.137-.13.205 0 .19.094.149.182-.08zm.321-.658c-.04-.04-.115.033-.164.164-.072.188-.057.203.074.074.09-.09.13-.197.09-.238zm.116-.484c-.042-.106-.074-.074-.08.08-.006.14.026.218.07.174.044-.044.048-.158.01-.254zm.225-.445c.045-.118.023-.17-.052-.125-.072.045-.131.137-.131.206 0 .19.095.148.183-.081zM23.176 50.3c.323-.11.765-.346.983-.524l.397-.325-.378-.005c-.396-.005-1.937.743-1.937.94 0 .165.272.14.935-.086z" fill="none"/><path d="M19.992 104.32c-3.89-.827-7.397-2.85-10.719-6.186-6.114-6.14-9.59-15.421-8.98-23.988.493-6.951 3.039-14.19 6.187-17.59.97-1.048 2.358-1.856 8.088-4.714 10.976-5.473 14.217-6.351 22.066-5.98 6.783.322 9.346 1.072 15.174 4.44 3.014 1.741 3.237 1.847 3.451 1.631 1.14-1.144 2.102-16.86 1.654-27.032-.346-7.85-.815-13.291-1.423-16.494-.2-1.057-.2-1.175-.005-1.474.368-.561 1.747-1.36 6.179-3.575C66.59.894 68.224.196 68.925.255c.45.038.491.08.715.756 1.606 4.843 2.214 27.45 1.077 40.03-.423 4.679-1.494 10.89-3.156 18.314-.333 1.487-.605 2.778-.605 2.87 0 .092.788 1.019 1.752 2.06 3.063 3.307 5.11 5.874 7.68 9.632 1.387 2.026 2.462 3.402 2.824 3.612.134.078.237-.016.372-.339.264-.632 1.599-4.992 2.764-9.03 2.977-10.314 6.591-20.023 10.145-27.251 2.815-5.727 5.998-9.76 10.141-12.848 3.08-2.296 6.31-3.584 9.743-3.885 1.506-.133 2.118-.079 2.034.179-.053.159-1.897 1.428-4.685 3.226-1.596 1.028-2.638 1.844-2.515 1.968.03.03.724-.185 1.54-.478 1.376-.492 1.993-.635 1.993-.461 0 .088-.69 1.301-2.182 3.832-3.957 6.714-8.092 17.606-12.973 34.17-3.022 10.257-7.166 23.723-7.355 23.902-.168.16-10.975 4.835-13.662 5.911-1.535.615-1.998.752-2.082.617-.06-.096-1.213-1.87-2.564-3.944a950.23 950.23 0 01-4.853-7.54c-2.958-4.657-3.834-5.976-4.502-6.783-.516-.623-.52-.634-.3-.992.137-.22.043-.155-.24.167-.255.291-.715.976-1.021 1.522-1.698 3.022-7.279 9.35-10.754 12.194-4.021 3.29-8.652 6.143-14.27 8.788-4.561 2.148-7.366 3.268-9.43 3.764-1.156.279-3.489.33-4.564.102zm15.226-8.997c1.267-.886 4.644-4.266 6.123-6.128.636-.8 1.83-2.467 2.652-3.704 2.726-4.098 4.323-7.18 6.685-12.907l1.442-3.497-.817-.778c-1.314-1.25-4.447-3.915-6.182-5.258-6.635-5.133-12.423-7.943-17.38-8.438-1.548-.155-6.443-.174-8.255-.032l-1.102.086-.781 1.654c-1.801 3.81-2.59 7.482-2.73 12.711-.182 6.726.875 11.115 3.853 15.995 1.684 2.76 4.337 5.778 6.492 7.386 1.018.76 3.543 2.042 5.093 2.586 1.047.368 3.36.992 3.716 1.003.116.003.652-.302 1.19-.679zm25.656-18.372c.201-.376.064-.315-.2.09-.126.19-.163.306-.083.257.08-.05.207-.206.283-.347zm.78-1.117c.163-.291.198-.41.077-.265-.245.296-.698 1.134-.5.926.07-.073.26-.37.423-.661zm.85-1.92c.048-.18-.024-.09-.16.2a6.563 6.563 0 00-.33.86c-.047.182.025.092.16-.2.135-.29.284-.677.33-.86zm.34-.925c-.006-.13-.047-.108-.122.067-.156.363-.156.572 0 .33a.817.817 0 00.121-.397zm.397-1.058c0-.11-.087.002-.193.247-.107.245-.191.483-.189.529.01.172.383-.585.382-.776zm.27-.728c0-.072-.057-.043-.127.067-.07.109-.129.258-.129.33 0 .073.058.043.129-.066.07-.109.128-.258.128-.33zm.398-1.058c0-.073-.058-.043-.128.066-.071.11-.129.258-.129.331 0 .073.058.043.129-.066.07-.11.128-.258.128-.33zm.226-.752c-.042-.106-.073-.074-.08.08-.005.14.026.217.07.173.044-.044.049-.158.01-.253zm.791-1.916c-.03-.03-.157.2-.284.513-.365.905-.365 1.025.001.253.186-.392.313-.736.283-.766zm.366-.838c.062-.23.051-.27-.034-.132a2.43 2.43 0 00-.211.53c-.061.23-.051.27.034.132a2.43 2.43 0 00.211-.53zm.724-1.852c.001-.109-.144.154-.323.585-.179.43-.32.818-.314.86.02.145.634-1.246.637-1.445zm.196-.47c.045-.117.023-.17-.052-.124-.072.044-.13.137-.13.205 0 .19.094.149.182-.08zm.321-.658c-.04-.04-.115.033-.164.164-.072.188-.057.203.074.074.09-.09.13-.197.09-.238zm.116-.484c-.042-.106-.074-.074-.08.08-.006.14.026.218.07.174.044-.044.048-.158.01-.254zm.225-.445c.045-.118.023-.17-.052-.125-.072.045-.131.137-.131.206 0 .19.095.148.183-.081zM23.176 50.3c.323-.11.765-.346.983-.524l.397-.325-.378-.005c-.396-.005-1.937.743-1.937.94 0 .165.272.14.935-.086z" fill="none"/></svg>