<?xml version="1.0" encoding="UTF-8" standalone="no"?>
<svg
   xmlns:dc="http://purl.org/dc/elements/1.1/"
   xmlns:cc="http://creativecommons.org/ns#"
   xmlns:rdf="http://www.w3.org/1999/02/22-rdf-syntax-ns#"
   xmlns:svg="http://www.w3.org/2000/svg"
   xmlns="http://www.w3.org/2000/svg"
   xmlns:sodipodi="http://sodipodi.sourceforge.net/DTD/sodipodi-0.dtd"
   xmlns:inkscape="http://www.inkscape.org/namespaces/inkscape"
   width="114.67355mm"
   height="104.74429mm"
   viewBox="0 0 114.67355 104.74429"
   version="1.1"
   id="svg8"
   sodipodi:docname="logo_drawing.svg"
   inkscape:version="1.0.2-2 (e86c870879, 2021-01-15)">
  <defs
     id="defs2" />
  <sodipodi:namedview
     id="base"
     pagecolor="#ffffff"
     bordercolor="#666666"
     borderopacity="1.0"
     inkscape:pageopacity="0.0"
     inkscape:pageshadow="2"
     inkscape:zoom="0.5"
     inkscape:cx="-175.68972"
     inkscape:cy="315.47715"
     inkscape:document-units="mm"
     inkscape:current-layer="layer1"
     inkscape:document-rotation="0"
     showgrid="false"
     inkscape:snap-text-baseline="true"
     inkscape:window-width="1267"
     inkscape:window-height="1198"
     inkscape:window-x="987"
     inkscape:window-y="156"
     inkscape:window-maximized="0"
     inkscape:snap-page="true" />
  <metadata
     id="metadata5">
    <rdf:RDF>
      <cc:Work
         rdf:about="">
        <dc:format>image/svg+xml</dc:format>
        <dc:type
           rdf:resource="http://purl.org/dc/dcmitype/StillImage" />
      </cc:Work>
    </rdf:RDF>
  </metadata>
  <g
     inkscape:label="Layer 1"
     inkscape:groupmode="layer"
     id="layer1"
     transform="translate(-49.619989,-65.030003)">
    <path
       style="fill:#000000;fill-opacity:1;fill-rule:nonzero;stroke:none;stroke-width:0.331693"
       id="path270"
       d="m 104.4076,71.370143 c 1.44402,5.47645 1.61162,11.22806 1.89725,16.87323 0.27647,6.37984 0.29927,12.788667 -0.17901,19.159687 -0.26706,3.55745 -0.57098,5.58733 -1.01901,9.10366 -0.73515,5.37139 -1.71911,10.72255 -3.25809,15.90634 -0.93361,3.14469 -1.32861,3.98555 -2.504887,7.03029 -2.49814,6.10835 -5.8301,11.85839 -10.18003,16.69091 -0.90201,1.00208 -1.90054,1.90109 -2.8508,2.85163 -2.45069,2.18843 -4.94956,4.37563 -7.69417,6.14764 -0.69844,0.45094 -2.89788,1.60629 -2.15902,1.23489 13.52519,-6.79845 16.45289,-7.3335 9.81369,-5.68151 -4.5654,0.4776 -8.85842,-1.30017 -12.42661,-4.27197 -0.80085,-0.667 -1.5218,-1.43546 -2.2827,-2.15318 -3.57495,-3.99757 -5.96513,-8.95124 -6.76756,-14.41151 -0.15525,-1.05649 -0.19808,-2.12817 -0.29713,-3.19227 -0.0783,-4.57351 0.38395,-9.3692 2.11785,-13.61614 0.28342,-0.69418 0.6503,-1.34656 0.97545,-2.01984 0.98465,-1.7276 2.01831,-3.41744 3.42536,-4.7957 0.38131,-0.37351 0.75806,-0.76653 1.20573,-1.04508 0.48841,-0.30388 2.0792,-0.94973 1.57184,-0.6831 -4.11771,2.16397 -8.27081,4.25125 -12.40622,6.37687 5.16735,-1.41921 10.60091,-1.5652 15.90497,-1.17769 4.88696,0.63432 9.25576,2.91575 13.42943,5.54959 5.1545,3.60185 9.754167,7.98698 14.179177,12.52755 2.76517,2.79271 5.30582,5.83545 7.40007,9.22516 1.81386,2.9731 3.47443,6.04408 5.37838,8.95435 1.41043,1.85309 2.54857,3.97703 4.05072,5.75311 0.2261,0.26734 0.43001,0.84393 0.74999,0.72663 5.26961,-1.93191 10.32995,-4.45482 15.49493,-6.68222 1.9144,-5.88505 3.91339,-11.73477 5.63861,-17.68668 1.58374,-5.91129 3.40612,-11.74601 5.07515,-17.62896 1.4328,-4.80829 3.38548,-9.40229 5.34452,-13.98744 1.62717,-4.3836 3.71681,-8.488157 6.44912,-12.198467 0.77657,-0.8844 1.39108,-2.32345 2.47081,-2.89833 0.27658,-0.14726 1.18433,-0.35588 0.90693,-0.21034 -13.19873,6.92516 -18.43113,7.08592 -12.26652,6.71228 0,0 13.77507,-8.84379 13.77507,-8.84379 v 0 c -7.83823,-1.29445 -15.74434,4.23254 -20.12587,10.75134 -2.62339,3.884567 -4.62706,8.131577 -6.33169,12.551337 -1.95861,4.64468 -3.87974,9.3126 -5.27293,14.19125 -1.70672,5.86853 -3.45034,11.72508 -5.0786,17.61927 -1.05273,3.54201 -2.16357,7.05294 -3.34356,10.54974 -0.20313,0.60198 -1.37153,4.18074 -1.85702,5.00415 -0.2029,0.34413 -0.5679,0.54407 -0.85184,0.81611 4.73978,-2.00601 9.54575,-3.84416 14.21931,-6.01803 0.19664,-0.0914 -0.4089,-0.17456 -0.56157,-0.33474 -0.32063,-0.33641 -0.56189,-0.74859 -0.83433,-1.12982 -1.074,-1.50286 -2.13855,-3.01464 -3.17946,-4.54347 -1.90991,-2.88336 -3.55111,-5.94465 -5.35465,-8.90251 -2.13033,-3.51214 -4.71805,-6.68147 -7.56084,-9.56813 -4.48965,-4.64345 -9.15809,-9.11215 -14.34881,-12.86989 -4.3697,-2.85374 -8.686327,-5.22889 -13.793587,-6.22733 -5.40058,-0.60861 -10.90676,-0.41291 -16.25686,0.58422 -5.49706,2.60911 -11.03534,5.12256 -16.49117,7.82733 -2.73656,1.35667 -4.44555,4.94383 -5.88719,7.54498 -0.30344,0.73557 -0.64477,1.4548 -0.91031,2.20668 -1.60268,4.53799 -2.06459,9.49533 -1.85832,14.30208 0.12253,1.12158 0.18752,2.25195 0.36758,3.36476 0.93558,5.7819 3.46549,11.04933 7.19464,15.36118 0.7907,0.77818 1.54166,1.60447 2.37212,2.33453 3.714,3.265 8.21226,5.39414 13.0721,5.4468 0.83608,-0.11493 1.72818,-0.005 2.50824,-0.34471 11.68327,-5.08168 17.99967,-7.60686 26.424787,-15.80147 0.93387,-1.00342 1.91203,-1.96251 2.80162,-3.01025 4.28625,-5.04826 7.55693,-10.94891 10.0097,-17.20398 1.17915,-3.20236 1.50777,-3.90555 2.443,-7.20463 1.49337,-5.26795 2.4537,-10.68844 3.1759,-16.12951 0.45282,-3.72268 0.71127,-5.45337 0.97259,-9.22576 0.44552,-6.431457 0.4057,-12.895567 0.11148,-19.332687 -0.31135,-5.79031 -0.5165,-11.69059 -2.06884,-17.29038 0,0 -14.66889,7.04194 -14.66889,7.04194 z" />
    <path
       style="fill:none;stroke:#000000;stroke-width:0.264583px;stroke-linecap:butt;stroke-linejoin:miter;stroke-opacity:1"
       d="m 115.8875,128.5875 c 0.27346,2.35275 0.15518,1.80629 -0.52917,3.175 -0.15975,0.3195 0.24462,1.34288 0,1.5875 -0.12472,0.12472 -0.40444,-0.12473 -0.52916,0 -0.24946,0.24945 0.15776,0.7428 0,1.05833 -0.38962,0.77923 -0.7021,0.70209 -1.05834,1.05833 -0.24945,0.24946 0.24945,0.80889 0,1.05834 -0.26458,0.26458 -0.79375,0.26458 -1.05833,0.52916 -0.22175,0.22175 -0.36881,1.2668 -0.52917,1.5875 -0.80468,1.60938 -4.23333,4.37081 -4.23333,5.29167"
       id="path315" />
    <path
       style="mix-blend-mode:normal;fill:#00e696;fill-opacity:1;fill-rule:evenodd;stroke:#ffffff;stroke-width:2;stroke-opacity:1"
       d="m 256.45921,638.02092 c -40.73193,-12.72434 -71.86471,-65.33288 -67.51008,-114.07936 2.4525,-27.45368 12.86651,-54.70274 25.39083,-66.43704 2.60468,-2.44038 19.05279,-11.30146 36.55136,-19.69128 36.33408,-17.42065 46.84233,-19.89352 78.06064,-18.36969 22.16029,1.08169 34.57317,4.88411 53.86279,16.49971 6.39201,3.84906 12.30029,6.9983 13.12951,6.9983 4.60576,0 8.73498,-59.0305 7.06502,-101 -1.2963,-32.5787 -3.80748,-59.91137 -6.19564,-67.43579 -0.91702,-2.88931 3.73844,-5.9343 25.4326,-16.6347 23.85208,-11.76476 26.69238,-12.72692 27.90366,-9.45252 7.18504,19.42303 9.1351,121.4436 3.14474,164.52301 -1.91198,13.75 -5.67242,34.78804 -8.35652,46.7512 l -4.88016,21.7512 12.24022,13.2488 c 6.73214,7.28684 17.16364,20.74844 23.18114,29.91466 6.0175,9.16624 11.58308,15.91624 12.36794,15 0.78486,-0.91622 5.75028,-16.96586 11.03426,-35.66586 10.85736,-38.4242 27.06142,-81.39894 40.68156,-107.89149 16.9507,-32.97082 43.69156,-55.31942 69.90656,-58.4242 5.76528,-0.68281 10.48232,-0.74662 10.48232,-0.14179 0,0.60483 -6.3,4.98725 -14,9.73871 -15.151,9.34927 -18.3256,13.32201 -6.79598,8.50463 3.96222,-1.65552 6.88722,-2.28448 6.5,-1.39768 -0.3872,0.88681 -4.47614,7.91225 -9.08652,15.61209 -12.96318,21.65001 -31.07068,69.24723 -46.41256,121.99973 -7.67784,26.4 -17.4036,58.73942 -21.61278,71.8654 l -7.65304,23.8654 -19.96956,8.84554 c -10.98326,4.86504 -24.22536,10.52992 -29.42688,12.5886 l -9.45732,3.74304 -13.54268,-20.81976 c -7.44848,-11.45088 -17.77542,-27.63018 -22.94876,-35.954 -5.17336,-8.32382 -10.2039,-15.13422 -11.17898,-15.13422 -0.97508,0 -2.71674,2.07156 -3.87036,4.60346 -4.07062,8.93406 -26.30112,34.53166 -39.42509,45.39654 -18.37989,15.21608 -37.94499,26.84828 -66.11949,39.31058 -25.67882,11.3584 -33.16354,12.5575 -48.49275,7.76878 z m 76.92458,-42.848 c 16.53609,-16.78042 32.92549,-42.76854 43.54781,-69.0523 l 7.94752,-19.66528 -9.96358,-8.81736 c -28.19803,-24.9541 -53.79213,-40.20624 -74.96358,-44.6726 -6.05,-1.2763 -18.2,-2.0288 -27,-1.6722 l -16,0.64838 -4.27221,8.90426 c -10.28792,21.44236 -12.58527,60.3488 -4.97421,84.24 7.28978,22.88272 25.16522,45.97976 42.62694,55.07874 7.67643,4.00004 21.08809,8.44972 26.05131,8.6432 1.88751,0.0736 9.53751,-6.0621 17,-13.63484 z"
       id="path321"
       transform="scale(0.26458333)"
       sodipodi:nodetypes="ssssssssssssscssssssssssssscsscssssssssscssscsssss" />
    <path
       style="fill:#f2f2f2;fill-opacity:0;stroke-width:0.5"
       d="m 262.16841,639.87794 c -8.5566,-2.13221 -16.04988,-5.30928 -23.36576,-9.90682 -26.19284,-16.46047 -46.10952,-50.38697 -49.85741,-84.92823 -3.13087,-28.85458 7.13054,-67.31282 22.71827,-85.1447 3.39914,-3.88851 9.04768,-7.26303 28.50466,-17.02908 43.20569,-21.68625 55.77503,-25.16319 85.821,-23.73986 26.22232,1.2422 35.35797,4.04355 60.67924,18.60661 9.56503,5.50114 9.4222,5.46022 10.41311,2.98369 2.19489,-5.48557 4.18598,-23.55031 5.37674,-48.78194 0.66537,-14.09886 0.36154,-55.17325 -0.50329,-68.03942 -1.57009,-23.35833 -3.01391,-37.65578 -4.59242,-45.47653 -1.23886,-6.13789 -1.11389,-6.44263 4.03743,-9.84495 3.80067,-2.51025 32.56655,-17.0158 39.51843,-19.92765 4.4373,-1.8586 8.01668,-2.43842 8.84437,-1.43269 2.81248,3.41748 5.4364,26.71126 6.69466,59.43182 0.6701,17.42567 0.35196,67.73929 -0.50586,80 -1.84769,26.40888 -5.44709,49.53464 -12.80973,82.30119 l -2.77574,12.35309 1.69398,1.79786 c 15.39262,16.33654 22.29923,24.94455 37.33738,46.53515 3.38839,4.86478 7.31658,9.51271 8.03967,9.51271 0.59607,0 4.0065,-10.6667 10.23127,-32 9.19391,-31.50902 15.30423,-49.48929 25.40267,-74.75 l 4.59733,-11.5 0.14739,72.75 0.14739,72.75 -3.39739,10.70888 -3.39739,10.70888 -3.75,1.71278 c -14.30994,6.53596 -54.33541,23.61946 -55.33878,23.61946 -0.25902,0 -6.34722,-9.32882 -20.72078,-31.75 -19.52073,-30.45023 -22.84912,-35.50547 -24.94338,-37.88467 -1.40822,-1.59983 -1.90506,-2.54611 -1.67714,-3.1943 0.49481,-1.40718 -1.9705,2.10797 -4.61408,6.57897 -4.35857,7.37151 -11.34707,16.15349 -22.62729,28.43418 -13.31088,14.49146 -27.34327,25.65534 -46.57855,37.05694 -16.06446,9.52212 -44.48558,22.67121 -57.41215,26.56184 -5.51147,1.65884 -16.48706,2.13556 -21.33785,0.92679 z m 57.56803,-33.20709 c 9.71827,-6.55404 23.25005,-21.51847 33.93034,-37.52266 10.37948,-15.55342 17.02939,-28.45176 25.75637,-49.95771 l 5.1567,-12.7077 -1.2753,-1.0423 c -0.70142,-0.57326 -3.83149,-3.31188 -6.95572,-6.08583 -30.24495,-26.85391 -56.76775,-42.5631 -78.43042,-46.45355 -5.69558,-1.02289 -23.02914,-1.54732 -33.62876,-1.01744 l -7.26551,0.3632 -3.03034,6.57566 c -7.33659,15.91996 -10.23092,30.58329 -10.27896,52.07567 -0.0285,12.77718 0.419,17.58602 2.53621,27.25 5.56038,25.38033 25.96324,52.96177 46.41736,62.74893 6.74174,3.22588 20.02567,7.62754 23.31803,7.72648 0.44991,0.0135 2.13741,-0.86521 3.75,-1.95275 z m 96.37275,-67.79863 c 0.17075,-0.44496 0.0869,-0.64566 -0.1965,-0.47049 -0.27185,0.16801 -0.49428,0.5172 -0.49428,0.77597 0,0.71921 0.35839,0.56073 0.69078,-0.30548 z m 6.32727,-10.14765 c 0.85326,-2.0205 1.45343,-3.77157 1.33372,-3.89129 -0.11972,-0.11971 -0.73279,1.15978 -1.36239,2.84331 -0.6296,1.68353 -1.62573,3.77211 -2.21363,4.64128 -1.74324,2.57729 -1.97098,3.17986 -0.59729,1.58032 0.70852,-0.825 1.98633,-3.15313 2.83959,-5.17362 z m 3.16498,-8.57638 c 0.2463,-1.00392 0.1722,-0.95471 -0.37637,0.25 -0.37566,0.825 -0.82103,2.0625 -0.98969,2.75 -0.24629,1.00392 -0.1722,0.9547 0.37637,-0.25 0.37567,-0.825 0.82103,-2.0625 0.98969,-2.75 z m 2.31027,-5.97663 c 0.61771,-2.15383 0.006,-1.54231 -0.79857,0.79857 -0.34096,0.99179 -0.40784,1.59117 -0.1486,1.33193 0.25923,-0.25923 0.68545,-1.21795 0.94717,-2.1305 z m 1.7201,-4.52337 c 0.23237,-0.86874 0.19301,-1.02125 -0.12904,-0.5 -0.25487,0.4125 -0.61385,1.3125 -0.79775,2 -0.23238,0.86874 -0.19302,1.02124 0.12904,0.5 0.25486,-0.4125 0.61385,-1.3125 0.79775,-2 z m 2.05827,-5.895 c -0.27968,-0.27968 -1.28149,2.16269 -1.2521,3.05255 0.0108,0.32584 0.35172,-0.17285 0.75768,-1.10821 0.40596,-0.93536 0.62844,-1.81032 0.49442,-1.94434 z m 1.40098,-2.855 c 0.42166,-1.2375 0.67083,-2.25 0.55371,-2.25 -0.26011,0 -1.72636,3.44916 -1.72636,4.06106 0,1.00171 0.45221,0.30331 1.17265,-1.81106 z m 2.80639,-7.1796 c -0.0413,-0.63114 -1.93733,3.19544 -1.9471,3.9296 -0.006,0.4125 0.43508,-0.23082 0.97904,-1.4296 0.54396,-1.19879 0.97959,-2.32379 0.96806,-2.5 z m 1.50565,-3.8204 c 0,-0.275 -0.21811,-0.1625 -0.48469,0.25 -0.26658,0.4125 -0.48468,0.975 -0.48468,1.25 0,0.275 0.2181,0.1625 0.48468,-0.25 0.26658,-0.4125 0.48469,-0.975 0.48469,-1.25 z m 2.47881,-6.25 c -0.006,-0.4125 -0.44956,0.375 -0.98648,1.75 -0.53691,1.375 -0.95817,2.6125 -0.93614,2.75 0.0852,0.53181 1.93233,-3.79143 1.92262,-4.5 z M 276.9286,435.14299 c 0.99369,-0.50694 2.10046,-1.27566 2.45948,-1.70826 0.56262,-0.67791 0.48894,-0.78587 -0.53345,-0.78166 -1.54247,0.006 -5.97381,2.07883 -6.93622,3.24398 -0.70925,0.85866 -0.64259,0.88788 1.22675,0.53782 1.0872,-0.20359 2.78976,-0.78494 3.78344,-1.29188 z"
       id="path1169"
       transform="scale(0.26458333)" />
    <path
       style="fill:#f2f2f2;fill-opacity:0;stroke-width:0.5"
       d="m 263.10039,640.06305 c -14.70467,-3.12423 -27.95629,-10.77184 -40.51136,-23.37941 -23.10955,-23.20617 -36.24369,-58.28565 -33.94507,-90.66254 1.86531,-26.27339 11.4892,-53.63023 23.38784,-66.48218 3.66745,-3.96129 8.91059,-7.01734 30.56859,-17.81742 41.48499,-20.6871 53.7316,-24.00578 83.39989,-22.60034 25.63463,1.21436 35.32205,4.04849 57.35011,16.77824 11.39088,6.58265 12.23289,6.98073 13.04387,6.16671 4.31011,-4.32626 7.94407,-63.72217 6.25084,-102.16792 -1.30691,-29.67391 -3.08082,-50.23683 -5.37815,-62.34255 -0.7578,-3.99321 -0.75941,-4.44127 -0.0201,-5.56971 1.3896,-2.1208 6.60269,-5.13722 23.35347,-13.5129 18.62149,-9.31107 24.79232,-11.9477 27.44364,-11.72594 1.70398,0.14253 1.85723,0.30449 2.70375,2.85735 6.06999,18.30535 8.36729,103.74455 4.06801,151.29375 -1.59885,17.68294 -5.6443,41.1597 -11.92737,69.21745 -1.2584,5.6196 -2.28801,10.50132 -2.28801,10.84826 0,0.34695 2.98125,3.85043 6.625,7.78551 11.57533,12.50083 19.30865,22.19947 29.02829,36.40544 5.23882,7.65691 9.30408,12.85746 10.67022,13.65005 0.50745,0.2944 0.89549,-0.0587 1.40531,-1.27889 0.99901,-2.39096 6.04382,-18.87048 10.44742,-34.12782 11.25206,-38.98546 24.91242,-75.68147 38.34252,-103 10.64128,-21.64573 22.66943,-36.88398 38.32989,-48.55947 11.63721,-8.676 23.84754,-13.5452 36.82197,-14.68375 5.69497,-0.49975 8.00737,-0.29583 7.68683,0.67789 -0.19761,0.60029 -7.16603,5.39877 -17.70525,12.19192 -6.03228,3.88815 -9.97148,6.97079 -9.50449,7.43778 0.11422,0.11422 2.7339,-0.69729 5.82153,-1.80335 5.19764,-1.86192 7.53076,-2.40275 7.53076,-1.74569 0,0.3351 -2.61031,4.91982 -8.24684,14.48467 -14.95471,25.37722 -30.58326,66.54185 -49.03069,129.14379 -11.42438,38.769 -27.08559,89.6639 -27.79939,90.34086 -0.63451,0.60178 -41.47978,18.27444 -51.63526,22.34121 -5.80415,2.32428 -7.55274,2.84225 -7.86973,2.33119 -0.22415,-0.36138 -4.5858,-7.06955 -9.69257,-14.90705 -5.10676,-7.8375 -13.35956,-20.6625 -18.33955,-28.5 -11.18066,-17.59608 -14.4918,-22.58336 -17.01772,-25.63234 -1.95012,-2.35393 -1.96358,-2.39864 -1.1293,-3.75 0.51473,-0.83376 0.15961,-0.58691 -0.90969,0.63234 -0.96472,1.1 -2.70203,3.6875 -3.8607,5.75 -6.41631,11.42145 -27.50872,35.34023 -40.64207,46.08808 -15.19939,12.43861 -32.70234,23.21758 -53.9369,33.21634 -17.23795,8.11688 -27.84046,12.34898 -35.63959,14.22593 -4.3695,1.05157 -13.18548,1.24808 -17.25,0.38451 z m 57.54659,-34.00459 c 4.79069,-3.35004 17.5535,-16.12189 23.14388,-23.16027 2.40267,-3.025 6.91303,-9.325 10.02301,-14 10.30315,-15.48794 16.33727,-27.13884 25.26403,-48.78071 l 5.45265,-13.21929 -3.09008,-2.94133 c -4.9638,-4.72486 -16.80689,-14.79649 -23.36484,-19.87 -25.07776,-19.40122 -46.95301,-30.02238 -65.68708,-31.89323 -5.85166,-0.58437 -24.35361,-0.65601 -31.20113,-0.12082 l -4.16297,0.32538 -2.95387,6.25 c -6.80648,14.40161 -9.78811,28.28121 -10.32098,48.04452 -0.68538,25.42001 3.31152,42.00635 14.56769,60.45284 6.36487,10.4307 16.39007,21.83787 24.5331,27.915 3.84899,2.87249 13.39294,7.7187 19.25,9.77473 3.95804,1.3894 12.69866,3.74672 14.04659,3.78832 0.43812,0.0135 2.46312,-1.14079 4.5,-2.56514 z m 96.96832,-69.43812 c 0.75979,-1.41969 0.24154,-1.18802 -0.75927,0.33941 -0.47265,0.72136 -0.61224,1.15883 -0.31019,0.97215 0.30205,-0.18667 0.7833,-0.77687 1.06946,-1.31156 z m 2.94808,-4.22215 c 0.61767,-1.1 0.74903,-1.55 0.29192,-1 -0.92845,1.11711 -2.64078,4.28466 -1.89205,3.5 0.26241,-0.275 0.98247,-1.4 1.60013,-2.5 z m 3.21511,-7.25208 c 0.17793,-0.68636 -0.0941,-0.34699 -0.60459,0.75416 -0.51045,1.10114 -1.07367,2.56364 -1.2516,3.25 -0.17794,0.68635 0.0941,0.34698 0.60458,-0.75416 0.51045,-1.10115 1.07368,-2.56365 1.25161,-3.25 z m 1.2791,-3.49792 c -0.0181,-0.49453 -0.17386,-0.40937 -0.4572,0.25 -0.59066,1.37454 -0.59066,2.16398 0,1.25 0.26658,-0.4125 0.47232,-1.0875 0.4572,-1.5 z m 1.50551,-4 c -0.001,-0.4125 -0.33054,0.007 -0.73228,0.9324 -0.40173,0.92533 -0.72245,1.82533 -0.71271,2 0.0363,0.65053 1.44677,-2.21184 1.44499,-2.9324 z m 1.02198,-2.75 c 0,-0.275 -0.21811,-0.1625 -0.48469,0.25 -0.26658,0.4125 -0.48468,0.975 -0.48468,1.25 0,0.275 0.2181,0.1625 0.48468,-0.25 0.26658,-0.4125 0.48469,-0.975 0.48469,-1.25 z m 1.5,-4 c 0,-0.275 -0.21811,-0.1625 -0.48469,0.25 -0.26658,0.4125 -0.48468,0.975 -0.48468,1.25 0,0.275 0.2181,0.1625 0.48468,-0.25 0.26658,-0.4125 0.48469,-0.975 0.48469,-1.25 z m 0.85687,-2.84375 c -0.15961,-0.39887 -0.27809,-0.28039 -0.30208,0.30208 -0.0217,0.52708 0.0965,0.8224 0.26261,0.65625 0.16614,-0.16614 0.1839,-0.5974 0.0394,-0.95833 z m 2.98965,-7.24171 c -0.11332,-0.11332 -0.59638,0.75955 -1.07348,1.93971 -1.38304,3.42112 -1.38151,3.87432 0.003,0.95603 0.70195,-1.47934 1.18357,-2.78243 1.07025,-2.89574 z m 1.38219,-3.16454 c 0.23237,-0.86874 0.19301,-1.02125 -0.12904,-0.5 -0.25487,0.4125 -0.61385,1.3125 -0.79775,2 -0.23238,0.86874 -0.19302,1.02124 0.12904,0.5 0.25486,-0.4125 0.61385,-1.3125 0.79775,-2 z m 2.73478,-7 c 0.005,-0.4125 -0.54344,0.58197 -1.21931,2.20993 -0.67588,1.62797 -1.21014,3.09047 -1.18725,3.25 0.0787,0.54892 2.39702,-4.71069 2.40656,-5.45993 z m 0.7426,-1.77597 c 0.17075,-0.44496 0.0869,-0.64566 -0.1965,-0.47049 -0.27185,0.16801 -0.49428,0.5172 -0.49428,0.77597 0,0.71921 0.35839,0.56073 0.69078,-0.30548 z m 1.21266,-2.48726 c -0.15395,-0.15395 -0.43353,0.12355 -0.62129,0.61666 -0.27134,0.7126 -0.21391,0.77003 0.2799,0.2799 0.34171,-0.33917 0.49533,-0.74262 0.34139,-0.89656 z m 0.43812,-1.83052 c -0.15961,-0.39887 -0.27809,-0.28039 -0.30208,0.30208 -0.0217,0.52708 0.0965,0.8224 0.26261,0.65625 0.16614,-0.16614 0.1839,-0.5974 0.0394,-0.95833 z m 0.84922,-1.68222 c 0.17075,-0.44496 0.0869,-0.64566 -0.1965,-0.47049 -0.27185,0.16801 -0.49428,0.5172 -0.49428,0.77597 0,0.71921 0.35839,0.56073 0.69078,-0.30548 z M 275.13632,435.89291 c 1.21774,-0.4154 2.88907,-1.30731 3.71407,-1.98202 l 1.5,-1.22674 -1.43001,-0.018 c -1.49667,-0.0188 -7.31999,2.80669 -7.31999,3.5517 0,0.62526 1.02714,0.53087 3.53593,-0.32494 z"
       id="path1171"
       transform="scale(0.26458333)" />
    <path
       style="fill:#f2f2f2;fill-opacity:0;stroke-width:0.5"
       d="m 263.10039,640.06305 c -14.70467,-3.12423 -27.95629,-10.77184 -40.51136,-23.37941 -23.10955,-23.20617 -36.24369,-58.28565 -33.94507,-90.66254 1.86531,-26.27339 11.4892,-53.63023 23.38784,-66.48218 3.66745,-3.96129 8.91059,-7.01734 30.56859,-17.81742 41.48499,-20.6871 53.7316,-24.00578 83.39989,-22.60034 25.63463,1.21436 35.32205,4.04849 57.35011,16.77824 11.39088,6.58265 12.23289,6.98073 13.04387,6.16671 4.31011,-4.32626 7.94407,-63.72217 6.25084,-102.16792 -1.30691,-29.67391 -3.08082,-50.23683 -5.37815,-62.34255 -0.7578,-3.99321 -0.75941,-4.44127 -0.0201,-5.56971 1.3896,-2.1208 6.60269,-5.13722 23.35347,-13.5129 18.62149,-9.31107 24.79232,-11.9477 27.44364,-11.72594 1.70398,0.14253 1.85723,0.30449 2.70375,2.85735 6.06999,18.30535 8.36729,103.74455 4.06801,151.29375 -1.59885,17.68294 -5.6443,41.1597 -11.92737,69.21745 -1.2584,5.6196 -2.28801,10.50132 -2.28801,10.84826 0,0.34695 2.98125,3.85043 6.625,7.78551 11.57533,12.50083 19.30865,22.19947 29.02829,36.40544 5.23882,7.65691 9.30408,12.85746 10.67022,13.65005 0.50745,0.2944 0.89549,-0.0587 1.40531,-1.27889 0.99901,-2.39096 6.04382,-18.87048 10.44742,-34.12782 11.25206,-38.98546 24.91242,-75.68147 38.34252,-103 10.64128,-21.64573 22.66943,-36.88398 38.32989,-48.55947 11.63721,-8.676 23.84754,-13.5452 36.82197,-14.68375 5.69497,-0.49975 8.00737,-0.29583 7.68683,0.67789 -0.19761,0.60029 -7.16603,5.39877 -17.70525,12.19192 -6.03228,3.88815 -9.97148,6.97079 -9.50449,7.43778 0.11422,0.11422 2.7339,-0.69729 5.82153,-1.80335 5.19764,-1.86192 7.53076,-2.40275 7.53076,-1.74569 0,0.3351 -2.61031,4.91982 -8.24684,14.48467 -14.95471,25.37722 -30.58326,66.54185 -49.03069,129.14379 -11.42438,38.769 -27.08559,89.6639 -27.79939,90.34086 -0.63451,0.60178 -41.47978,18.27444 -51.63526,22.34121 -5.80415,2.32428 -7.55274,2.84225 -7.86973,2.33119 -0.22415,-0.36138 -4.5858,-7.06955 -9.69257,-14.90705 -5.10676,-7.8375 -13.35956,-20.6625 -18.33955,-28.5 -11.18066,-17.59608 -14.4918,-22.58336 -17.01772,-25.63234 -1.95012,-2.35393 -1.96358,-2.39864 -1.1293,-3.75 0.51473,-0.83376 0.15961,-0.58691 -0.90969,0.63234 -0.96472,1.1 -2.70203,3.6875 -3.8607,5.75 -6.41631,11.42145 -27.50872,35.34023 -40.64207,46.08808 -15.19939,12.43861 -32.70234,23.21758 -53.9369,33.21634 -17.23795,8.11688 -27.84046,12.34898 -35.63959,14.22593 -4.3695,1.05157 -13.18548,1.24808 -17.25,0.38451 z m 57.54659,-34.00459 c 4.79069,-3.35004 17.5535,-16.12189 23.14388,-23.16027 2.40267,-3.025 6.91303,-9.325 10.02301,-14 10.30315,-15.48794 16.33727,-27.13884 25.26403,-48.78071 l 5.45265,-13.21929 -3.09008,-2.94133 c -4.9638,-4.72486 -16.80689,-14.79649 -23.36484,-19.87 -25.07776,-19.40122 -46.95301,-30.02238 -65.68708,-31.89323 -5.85166,-0.58437 -24.35361,-0.65601 -31.20113,-0.12082 l -4.16297,0.32538 -2.95387,6.25 c -6.80648,14.40161 -9.78811,28.28121 -10.32098,48.04452 -0.68538,25.42001 3.31152,42.00635 14.56769,60.45284 6.36487,10.4307 16.39007,21.83787 24.5331,27.915 3.84899,2.87249 13.39294,7.7187 19.25,9.77473 3.95804,1.3894 12.69866,3.74672 14.04659,3.78832 0.43812,0.0135 2.46312,-1.14079 4.5,-2.56514 z m 96.96832,-69.43812 c 0.75979,-1.41969 0.24154,-1.18802 -0.75927,0.33941 -0.47265,0.72136 -0.61224,1.15883 -0.31019,0.97215 0.30205,-0.18667 0.7833,-0.77687 1.06946,-1.31156 z m 2.94808,-4.22215 c 0.61767,-1.1 0.74903,-1.55 0.29192,-1 -0.92845,1.11711 -2.64078,4.28466 -1.89205,3.5 0.26241,-0.275 0.98247,-1.4 1.60013,-2.5 z m 3.21511,-7.25208 c 0.17793,-0.68636 -0.0941,-0.34699 -0.60459,0.75416 -0.51045,1.10114 -1.07367,2.56364 -1.2516,3.25 -0.17794,0.68635 0.0941,0.34698 0.60458,-0.75416 0.51045,-1.10115 1.07368,-2.56365 1.25161,-3.25 z m 1.2791,-3.49792 c -0.0181,-0.49453 -0.17386,-0.40937 -0.4572,0.25 -0.59066,1.37454 -0.59066,2.16398 0,1.25 0.26658,-0.4125 0.47232,-1.0875 0.4572,-1.5 z m 1.50551,-4 c -0.001,-0.4125 -0.33054,0.007 -0.73228,0.9324 -0.40173,0.92533 -0.72245,1.82533 -0.71271,2 0.0363,0.65053 1.44677,-2.21184 1.44499,-2.9324 z m 1.02198,-2.75 c 0,-0.275 -0.21811,-0.1625 -0.48469,0.25 -0.26658,0.4125 -0.48468,0.975 -0.48468,1.25 0,0.275 0.2181,0.1625 0.48468,-0.25 0.26658,-0.4125 0.48469,-0.975 0.48469,-1.25 z m 1.5,-4 c 0,-0.275 -0.21811,-0.1625 -0.48469,0.25 -0.26658,0.4125 -0.48468,0.975 -0.48468,1.25 0,0.275 0.2181,0.1625 0.48468,-0.25 0.26658,-0.4125 0.48469,-0.975 0.48469,-1.25 z m 0.85687,-2.84375 c -0.15961,-0.39887 -0.27809,-0.28039 -0.30208,0.30208 -0.0217,0.52708 0.0965,0.8224 0.26261,0.65625 0.16614,-0.16614 0.1839,-0.5974 0.0394,-0.95833 z m 2.98965,-7.24171 c -0.11332,-0.11332 -0.59638,0.75955 -1.07348,1.93971 -1.38304,3.42112 -1.38151,3.87432 0.003,0.95603 0.70195,-1.47934 1.18357,-2.78243 1.07025,-2.89574 z m 1.38219,-3.16454 c 0.23237,-0.86874 0.19301,-1.02125 -0.12904,-0.5 -0.25487,0.4125 -0.61385,1.3125 -0.79775,2 -0.23238,0.86874 -0.19302,1.02124 0.12904,0.5 0.25486,-0.4125 0.61385,-1.3125 0.79775,-2 z m 2.73478,-7 c 0.005,-0.4125 -0.54344,0.58197 -1.21931,2.20993 -0.67588,1.62797 -1.21014,3.09047 -1.18725,3.25 0.0787,0.54892 2.39702,-4.71069 2.40656,-5.45993 z m 0.7426,-1.77597 c 0.17075,-0.44496 0.0869,-0.64566 -0.1965,-0.47049 -0.27185,0.16801 -0.49428,0.5172 -0.49428,0.77597 0,0.71921 0.35839,0.56073 0.69078,-0.30548 z m 1.21266,-2.48726 c -0.15395,-0.15395 -0.43353,0.12355 -0.62129,0.61666 -0.27134,0.7126 -0.21391,0.77003 0.2799,0.2799 0.34171,-0.33917 0.49533,-0.74262 0.34139,-0.89656 z m 0.43812,-1.83052 c -0.15961,-0.39887 -0.27809,-0.28039 -0.30208,0.30208 -0.0217,0.52708 0.0965,0.8224 0.26261,0.65625 0.16614,-0.16614 0.1839,-0.5974 0.0394,-0.95833 z m 0.84922,-1.68222 c 0.17075,-0.44496 0.0869,-0.64566 -0.1965,-0.47049 -0.27185,0.16801 -0.49428,0.5172 -0.49428,0.77597 0,0.71921 0.35839,0.56073 0.69078,-0.30548 z M 275.13632,435.89291 c 1.21774,-0.4154 2.88907,-1.30731 3.71407,-1.98202 l 1.5,-1.22674 -1.43001,-0.018 c -1.49667,-0.0188 -7.31999,2.80669 -7.31999,3.5517 0,0.62526 1.02714,0.53087 3.53593,-0.32494 z"
       id="path1175"
       transform="scale(0.26458333)" />
  </g>
</svg>
