<?xml version="1.0" encoding="UTF-8" standalone="no"?>
<svg
   xmlns:dc="http://purl.org/dc/elements/1.1/"
   xmlns:cc="http://creativecommons.org/ns#"
   xmlns:rdf="http://www.w3.org/1999/02/22-rdf-syntax-ns#"
   xmlns:svg="http://www.w3.org/2000/svg"
   xmlns="http://www.w3.org/2000/svg"
   xmlns:sodipodi="http://sodipodi.sourceforge.net/DTD/sodipodi-0.dtd"
   xmlns:inkscape="http://www.inkscape.org/namespaces/inkscape"
   width="2791.592"
   height="3520.655"
   viewBox="0 0 738.608 931.507"
   version="1.1"
   id="svg1103"
   sodipodi:docname="projects-drawing.svg"
   inkscape:version="1.0.2-2 (e86c870879, 2021-01-15)">
  <metadata
     id="metadata1109">
    <rdf:RDF>
      <cc:Work
         rdf:about="">
        <dc:format>image/svg+xml</dc:format>
        <dc:type
           rdf:resource="http://purl.org/dc/dcmitype/StillImage" />
        <dc:title></dc:title>
      </cc:Work>
    </rdf:RDF>
  </metadata>
  <defs
     id="defs1107" />
  <sodipodi:namedview
     pagecolor="#ffffff"
     bordercolor="#666666"
     borderopacity="1"
     objecttolerance="10"
     gridtolerance="10"
     guidetolerance="10"
     inkscape:pageopacity="0"
     inkscape:pageshadow="2"
     inkscape:window-width="2560"
     inkscape:window-height="1377"
     id="namedview1105"
     showgrid="false"
     inkscape:zoom="0.590485"
     inkscape:cx="981.9443"
     inkscape:cy="1800.9031"
     inkscape:window-x="-8"
     inkscape:window-y="-8"
     inkscape:window-maximized="1"
     inkscape:current-layer="layer1"
     inkscape:object-paths="true"
     inkscape:snap-nodes="false"
     inkscape:document-rotation="0"
     inkscape:snap-others="false" />
  <g
     inkscape:groupmode="layer"
     id="layer1"
     inkscape:label="Current"
     style="display:inline">
    <path
       style="fill:#8892b0;fill-opacity:0.933333;stroke:none;stroke-width:1.1975"
       d=""
       id="path1508"
       transform="matrix(0.26458343,0,0,0.26458343,-5.0522863e-4,0)" />
    <path
       style="display:inline;fill:none;stroke:#000000;stroke-width:0.264583px;stroke-linecap:butt;stroke-linejoin:miter;stroke-opacity:1"
       d="m 257.64444,655.09024 c 0,0 -8.51349,0.22407 -10.97792,-11.65001 -2.46443,-11.87408 -15.4587,-85.35887 -15.4587,-85.35887 0,0 -7.39329,-26.66067 18.14717,-28.90106 25.54044,-2.24039 222.91889,0 222.91889,0 0,0 25.54045,-1.34424 23.52409,19.04331 -2.01634,20.38756 -16.80293,91.85604 -16.80293,91.85604 0,0 -3.58463,10.75384 -14.11447,15.01059"
       id="path890" />
    <ellipse
       style="display:inline;fill:none;stroke:#000000;stroke-width:0.291042;stroke-linejoin:round;stroke-opacity:1"
       id="path892"
       cx="361.03766"
       cy="589.95441"
       rx="23.287674"
       ry="22.812416" />
    <path
       style="display:inline;fill:none;stroke:#000000;stroke-width:0.264583px;stroke-linecap:butt;stroke-linejoin:miter;stroke-opacity:1"
       d="m 101.38801,634.62873 65.90253,-20.2777 19.64402,4.43574 -65.90253,19.32719 z"
       id="path896" />
    <path
       style="display:inline;fill:none;stroke:#000000;stroke-width:0.264583px;stroke-linecap:butt;stroke-linejoin:miter;stroke-opacity:1"
       d="m 94.100708,633.36138 74.457192,-23.76296 30.41655,5.38629 0.31684,5.06942 -78.89294,22.81241 -27.248158,-5.7031 z"
       id="path898" />
    <path
       style="display:inline;fill:none;stroke:#000000;stroke-width:0.264583px;stroke-linecap:butt;stroke-linejoin:miter;stroke-opacity:1"
       d="m 215.41156,583.10927 -61.27318,-0.15958"
       id="path900"
       sodipodi:nodetypes="cc" />
    <path
       style="display:inline;fill:none;stroke:#000000;stroke-width:0.264583px;stroke-linecap:butt;stroke-linejoin:miter;stroke-opacity:1"
       d="m 514.99277,582.97825 41.07172,-0.47664"
       id="path902"
       sodipodi:nodetypes="cc" />
    <path
       style="display:inline;fill:none;stroke:#000000;stroke-width:0.264583px;stroke-linecap:butt;stroke-linejoin:miter;stroke-opacity:1"
       d="m 556.51256,576.2285 2.39112,20.0627 c 0,0 23.44609,7.76256 49.26848,-0.47527 0,-1.58418 2.21788,-18.37665 2.21788,-18.37665"
       id="path904" />
    <path
       style="display:inline;fill:none;stroke:#000000;stroke-width:0.264583px;stroke-linecap:butt;stroke-linejoin:miter;stroke-opacity:1"
       d="m 556.51256,576.2285 c 0,0 39.93654,4.69601 53.87747,1.21076"
       id="path906" />
    <path
       style="display:inline;fill:none;stroke:#000000;stroke-width:0.264583px;stroke-linecap:butt;stroke-linejoin:miter;stroke-opacity:1"
       d="m 558.90368,596.2912 -0.87884,-0.29125 0.79142,-0.44225"
       id="path908" />
    <path
       style="display:inline;fill:none;stroke:#000000;stroke-width:0.264583px;stroke-linecap:butt;stroke-linejoin:miter;stroke-opacity:1"
       d="m 608.17216,595.81593 0.87757,-0.20804 -0.84159,-0.39688"
       id="path910" />
    <path
       style="display:inline;fill:none;stroke:#000000;stroke-width:0.264583px;stroke-linecap:butt;stroke-linejoin:miter;stroke-opacity:1"
       d="m 558.02484,595.99995 3.92068,28.06089 c 0,0 18.37119,7.11325 42.28736,-0.28003 l 4.81685,-28.17292"
       id="path912" />
    <path
       style="display:inline;fill:none;stroke:#000000;stroke-width:0.264583px;stroke-linecap:butt;stroke-linejoin:miter;stroke-opacity:1"
       d="m 562.43153,624.23476 1.47434,11.58814"
       id="path914" />
    <path
       style="display:inline;fill:none;stroke:#000000;stroke-width:0.264583px;stroke-linecap:butt;stroke-linejoin:miter;stroke-opacity:1"
       d="m 603.89802,623.88347 -2.18146,13.35919 c 0,0 -19.8181,9.04195 -37.81069,-1.41976"
       id="path916" />
    <path
       style="display:inline;fill:none;stroke:#000000;stroke-width:0.264583px;stroke-linecap:butt;stroke-linejoin:miter;stroke-opacity:1"
       d="m 556.51256,576.2285 c -3.312,-0.215 -3.78725,-1.16552 -3.78725,-1.16552 l -0.0792,-2.69314"
       id="path918" />
    <path
       style="display:inline;fill:none;stroke:#000000;stroke-width:0.264583px;stroke-linecap:butt;stroke-linejoin:miter;stroke-opacity:1"
       d="m 610.39003,577.43926 c 0,0 3.64366,-0.71289 3.80206,-1.02973 0.15843,-0.31684 0.31684,-2.69312 0.31684,-2.69312 0,0 -17.74299,5.54467 -61.86283,-1.34657"
       id="path920" />
    <path
       style="display:inline;fill:none;stroke:#000000;stroke-width:0.264583px;stroke-linecap:butt;stroke-linejoin:miter;stroke-opacity:1"
       d="m 555.18218,572.75669 0.23627,-2.68394 2.6139,0.15844 0.23765,-2.69314 2.77233,0.0792 0.95052,-7.44572 3.16839,0.15841 0.0792,-2.21787 c 0,0 20.75298,-4.03969 39.52567,3.00998"
       id="path922" />
    <path
       style="display:inline;fill:none;stroke:#000000;stroke-width:0.264583px;stroke-linecap:butt;stroke-linejoin:miter;stroke-opacity:1"
       d="m 604.7661,561.12203 -0.2376,1.90106 1.82184,0.23762 -0.31686,3.48523 3.16841,0.55448 -0.23765,2.69312 3.16841,0.0792 -0.23764,3.16839 2.61392,0.47527"
       id="path924" />
    <path
       style="display:inline;fill:none;stroke:#000000;stroke-width:0.264583px;stroke-linecap:butt;stroke-linejoin:miter;stroke-opacity:1"
       d="M 65.418907,655.09026 H 662.25902"
       id="path888" />
    <path
       style="fill:none;stroke:#000000;stroke-width:0.264583px;stroke-linecap:butt;stroke-linejoin:miter;stroke-opacity:1"
       d="m 289.00444,528.26857 2.36117,-18.11942 0.84015,-1.1202 -2.01158,19.23279"
       id="path951"
       sodipodi:nodetypes="cccc" />
    <path
       style="fill:none;stroke:#000000;stroke-width:0.264583px;stroke-linecap:butt;stroke-linejoin:miter;stroke-opacity:1"
       d="m 443.1644,528.88513 -2.90029,-17.97685 -1.17622,-1.45625 3.24135,19.42524"
       id="path953"
       sodipodi:nodetypes="cccc" />
    <path
       style="fill:none;stroke:#000000;stroke-width:0.264583px;stroke-linecap:butt;stroke-linejoin:miter;stroke-opacity:1"
       d="m 304.24456,444.49352 2.24039,-0.67209 0.22405,-3.13656 c 0,0 11.20196,-10.52984 19.26736,-10.08177"
       id="path955" />
    <path
       style="fill:none;stroke:#000000;stroke-width:0.264583px;stroke-linecap:butt;stroke-linejoin:miter;stroke-opacity:1"
       d="m 399.90925,430.82715 c 0,0 13.04061,1.62031 16.35486,8.0654 3.31425,6.4451 1.12019,6.04907 1.12019,6.04907 0,0 -41.67126,14.3385 -50.40879,23.74814 0,0 -6.04905,3.13655 -8.96156,-0.44808 -2.91251,-3.58462 -43.91168,-23.97216 -51.529,-24.42025"
       id="path957" />
    <path
       style="fill:none;stroke:#000000;stroke-width:0.264583px;stroke-linecap:butt;stroke-linejoin:miter;stroke-opacity:1"
       d="m 339.19466,448.97432 c 0,0 17.251,8.28943 19.71543,12.99425"
       id="path963" />
    <path
       style="fill:none;stroke:#000000;stroke-width:0.264583px;stroke-linecap:butt;stroke-linejoin:miter;stroke-opacity:1"
       d="m 386.24286,449.19834 c 0,0 -12.54618,2.24039 -19.04332,12.77023"
       id="path965" />
    <path
       style="fill:none;stroke:#000000;stroke-width:0.264583px;stroke-linecap:butt;stroke-linejoin:miter;stroke-opacity:1"
       d="m 358.91009,461.96857 c 0,0 4.84069,4.38346 8.28945,0"
       id="path967" />
    <path
       style="fill:none;stroke:#000000;stroke-width:0.264583px;stroke-linecap:butt;stroke-linejoin:miter;stroke-opacity:1"
       d="m 339.19466,448.97432 c 0,0 -10.75389,-4.92887 -3.80865,-5.15289"
       id="path969" />
    <path
       style="fill:none;stroke:#000000;stroke-width:0.264583px;stroke-linecap:butt;stroke-linejoin:miter;stroke-opacity:1"
       d="m 249.73827,478.96569 1.63307,-87.34538 c 0,0 -2.46443,-35.17415 30.9174,-36.29434 33.38181,-1.12019 25.07767,-0.44807 25.07767,-0.44807"
       id="path973"
       sodipodi:nodetypes="ccsc" />
    <path
       style="fill:none;stroke:#000000;stroke-width:0.264583px;stroke-linecap:butt;stroke-linejoin:miter;stroke-opacity:1"
       d="m 408.68676,352.63751 38.94281,1.79231 c 0,0 26.21257,-0.22404 30.02123,30.69335 3.80868,30.91739 2.53455,99.48752 2.53455,99.48752"
       id="path975"
       sodipodi:nodetypes="ccsc" />
    <path
       style="fill:none;stroke:#000000;stroke-width:0.264583px;stroke-linecap:butt;stroke-linejoin:miter;stroke-opacity:1"
       d="m 322.5417,443.25792 -9.02992,-2.69315 c 0,0 1.26736,-4.75257 22.02033,-7.28728"
       id="path1027" />
    <path
       style="fill:none;stroke:#000000;stroke-width:0.264583px;stroke-linecap:butt;stroke-linejoin:miter;stroke-opacity:1"
       d="m 391.13736,433.43589 c 0,0 22.81244,0.31684 17.74299,3.64366 -5.06942,3.32679 -11.56462,6.49521 -11.56462,6.49521"
       id="path1029" />
    <path
       style="fill:none;stroke:#000000;stroke-width:0.264583px;stroke-linecap:butt;stroke-linejoin:miter;stroke-opacity:1"
       d="m 389.40876,433.32866 2.65911,11.61296 -5.82501,4.25672"
       id="path1708" />
    <path
       style="fill:none;stroke:#000000;stroke-width:0.264583px;stroke-linecap:butt;stroke-linejoin:miter;stroke-opacity:1"
       d="m 335.38601,443.82143 c 0,0 4.70482,-16.35486 2.91249,-24.86836 -1.37627,-6.53723 -1.40466,-6.94621 -7.09977,-14.39163 -1.72166,-2.25079 -4.00215,-5.51317 -7.06001,-10.37367"
       id="path1710"
       sodipodi:nodetypes="cssc" />
    <path
       style="fill:none;stroke:#000000;stroke-width:0.264583px;stroke-linecap:butt;stroke-linejoin:miter;stroke-opacity:1"
       d="m 324.13872,394.18777 c 0,0 -1.97104,8.18642 -6.00374,10.87488 -4.0327,2.68846 5.82502,0.44807 5.82502,0.44807 0,0 0.44807,5.37695 -2.68846,7.16926 -3.13656,1.79232 -5.82502,4.0327 -1.34424,3.58463 4.48077,-0.44807 5.82501,1.79232 3.58463,4.48078 -2.24039,2.68848 14.77238,9.79181 14.77238,9.79181"
       id="path1712" />
    <path
       style="fill:none;stroke:#000000;stroke-width:0.264583px;stroke-linecap:butt;stroke-linejoin:miter;stroke-opacity:1"
       d="m 389.40876,433.32866 -0.20992,-22.99371 7.36319,-16.86269"
       id="path1714" />
    <path
       style="fill:none;stroke:#000000;stroke-width:0.264583px;stroke-linecap:butt;stroke-linejoin:miter;stroke-opacity:1"
       d="m 389.40876,433.32866 7.06107,-2.42539 c 0,0 0.42026,-1.37811 1.37311,-3.7941 0.95281,-2.41601 -0.0164,-3.33504 2.06944,-5.83382 2.08576,-2.49881 2.33354,-2.97683 3.51761,-4.32983 1.18409,-1.35303 1.41205,-2.8787 0.61182,-3.88062 -0.80021,-1.00193 -2.6388,-2.56278 -1.98864,-2.66758 0.65019,-0.10483 6.32439,0.13649 6.34561,-0.5274 0.0212,-0.66392 0.0447,-0.91257 0.72877,-1.05082 0.684,-0.13822 -0.32464,-0.46175 -0.18915,-1.22166 0.13552,-0.75994 1.16192,-1.59612 2.05163,-2.27745 0.88974,-0.68136 1.92707,0.0606 1.02772,-0.81341 -0.89931,-0.87397 0.56119,-0.70951 -0.96435,-2.00885 -1.52556,-1.29934 -2.99352,-1.02635 -2.99352,-1.02635 0,0 -3.82019,0.5225 -4.02662,-0.62785 -0.20643,-1.15036 0.6468,-2.33464 2.46767,-2.38178 1.82086,-0.0471 4.43338,-0.60487 3.08424,-1.6631 -1.34911,-1.05822 -2.34537,0.0201 -1.90161,-1.84909 0.44376,-1.86934 4.60322,-14.77704 5.75173,-14.43009 1.14853,0.34698 -7.25369,-11.97224 -5.81081,-14.98405 1.44288,-3.01178 1.65931,-6.84474 1.29524,-7.60598 -0.36404,-0.76123 1.72294,6.78331 1.72294,6.78331 0,0 2.82096,-4.7521 -2.89203,-13.56656 -5.71302,-8.81447 0.33523,-1.08318 0.33523,-1.08318 0,0 -17.23433,-37.73658 -30.79661,-38.52869"
       id="path1716" />
    <path
       style="fill:none;stroke:#000000;stroke-width:0.264583px;stroke-linecap:butt;stroke-linejoin:miter;stroke-opacity:1"
       d="m 324.13872,394.18777 c 0,0 -10.14918,6.81504 -10.73454,6.30161 -0.58539,-0.51342 5.33614,-5.68344 5.32103,-5.74416 -0.0151,-0.0607 -2.66044,0.77928 -1.46113,-0.44683 1.1993,-1.22608 3.10883,-2.38109 0.36557,-19.94863"
       id="path1718" />
    <path
       style="fill:none;stroke:#000000;stroke-width:0.264583px;stroke-linecap:butt;stroke-linejoin:miter;stroke-opacity:1"
       d="m 317.62965,374.34976 c 0,0 1.2109,-2.56668 1.35202,-3.03927 0.14113,-0.4726 -1.04904,-0.003 -0.3185,-1.33041 0.73051,-1.32882 1.78525,-4.21106 3.09295,-4.95178 1.30773,-0.74076 -1.03425,-2.93564 1.0889,-4.07858 2.12315,-1.14295 -0.55304,-9.46357 0.9426,-14.23946 1.49564,-4.77589 5.9988,-12.77938 5.10194,-14.34796 -0.89686,-1.56861 0.0798,-4.54737 2.18016,-7.68155 2.10029,-3.1342 3.37672,-7.30729 6.92796,-9.50082 3.55127,-2.19353 13.74731,-5.51365 15.195,-6.34693 1.44772,-0.83328 5.1185,-3.55243 10.40284,0.52263"
       id="path1720" />
    <path
       style="fill:none;stroke:#000000;stroke-width:0.264583px;stroke-linecap:butt;stroke-linejoin:miter;stroke-opacity:1"
       d="m 363.59552,309.35563 c 0,0 3.6199,-8.34319 13.69373,2.17869"
       id="path1722" />
    <path
       style="fill:none;stroke:#000000;stroke-width:0.264583px;stroke-linecap:butt;stroke-linejoin:miter;stroke-opacity:1"
       d="m 324.13872,394.18777 c 0,0 -5.01481,-23.2971 -4.05188,-24.96556 0.96292,-1.66849 -0.22884,-5.65166 7.36714,3.05229 0,0 0.9637,-5.5882 1.09676,-7.74304 0.13305,-2.15485 -0.22421,-10.15023 0.41529,-11.84204 0.63949,-1.69181 4.45942,-3.97704 5.50219,-6.59377 1.04277,-2.61674 2.05947,-12.10981 5.45995,-14.69344 3.40048,-2.58364 15.386,-7.92112 19.75223,-6.59022"
       id="path1724" />
    <path
       style="fill:none;stroke:#000000;stroke-width:0.264583px;stroke-linecap:butt;stroke-linejoin:miter;stroke-opacity:1"
       d="m 359.6804,324.81198 c 0,0 2.72926,-0.26553 4.22804,1.28982 0,0 6.17889,-0.64904 7.1205,-0.61391 0.94162,0.0351 2.16572,-1.66731 8.71508,2.73278 6.54937,4.40009 11.43199,7.08417 13.13329,12.89037 1.7013,5.8062 3.97692,14.37213 4.17154,21.60352 l 0.19462,7.23139"
       id="path1726" />
    <path
       style="fill:none;stroke:#000000;stroke-width:0.264583px;stroke-linecap:butt;stroke-linejoin:miter;stroke-opacity:1"
       d="m 397.24347,369.94595 c 0,0 3.06022,-5.86415 4.77406,-3.55809 1.71387,2.30605 3.74994,6.1277 3.03829,9.08145 -0.71167,2.95379 -2.11722,6.02878 -2.5804,8.67109 -0.46318,2.64232 -1.09458,6.01456 -2.10958,7.03022 -1.01499,1.01563 -3.80381,2.30164 -3.80381,2.30164"
       id="path1728" />
    <path
       style="fill:none;stroke:#000000;stroke-width:0.264583px;stroke-linecap:butt;stroke-linejoin:miter;stroke-opacity:1"
       d="m 325.97636,430.6031 c 0,0 6.8149,-2.48176 9.56144,-1.27383"
       id="path1730" />
    <path
       style="fill:none;stroke:#000000;stroke-width:0.264583px;stroke-linecap:butt;stroke-linejoin:miter;stroke-opacity:1"
       d="m 399.90925,430.82715 -3.43942,0.0761"
       id="path1732" />
    <path
       style="fill:none;stroke:#000000;stroke-width:0.264583px;stroke-linecap:butt;stroke-linejoin:miter;stroke-opacity:1"
       d="m 391.13736,433.43589 -1.7286,-0.10723"
       id="path1734" />
    <path
       style="fill:none;stroke:#000000;stroke-width:0.264583px;stroke-linecap:butt;stroke-linejoin:miter;stroke-opacity:1"
       d="m 335.53211,433.27749 1.61248,0.32924"
       id="path1736" />
    <path
       style="fill:none;stroke:#000000;stroke-width:0.264583px;stroke-linecap:butt;stroke-linejoin:miter;stroke-opacity:1"
       d="m 306.48495,443.82143 c 0,0 -22.85199,6.04904 -33.15778,11.87405 -10.3058,5.82502 -27.33276,37.63857 -31.36546,49.2886 -4.03271,11.65003 -32.26164,84.2387 -28.67701,94.54449 3.58462,10.30581 30.74153,30.00661 30.74153,30.00661"
       id="path1738"
       sodipodi:nodetypes="csssc" />
    <path
       style="fill:none;stroke:#000000;stroke-width:0.264583px;stroke-linecap:butt;stroke-linejoin:miter;stroke-opacity:1"
       d="m 417.3843,444.94162 c 0,0 36.96645,9.85769 40.99915,14.33849 4.0327,4.48078 24.19622,32.26162 28.22892,42.56743 4.0327,10.30579 36.29435,90.51177 30.46933,101.71373 -5.82501,11.20196 -30.26872,34.64357 -37.09021,31.66029"
       id="path1740"
       sodipodi:nodetypes="csssc" />
    <path
       style="fill:none;stroke:#000000;stroke-width:0.264583px;stroke-linecap:butt;stroke-linejoin:miter;stroke-opacity:1"
       d="m 249.73827,478.96567 v 9.0859"
       id="path1742" />
    <path
       style="fill:none;stroke:#000000;stroke-width:0.264583px;stroke-linecap:butt;stroke-linejoin:miter;stroke-opacity:1"
       d="m 480.18535,484.61069 v 5.43904"
       id="path1744" />
    <path
       style="fill:none;stroke:#000000;stroke-width:0.264583px;stroke-linecap:butt;stroke-linejoin:miter;stroke-opacity:1"
       d="m 307.36641,354.8779 h 16.16094"
       id="path1746" />
  </g>
</svg>
