<svg xmlns="http://www.w3.org/2000/svg" width="2791.592" height="3520.655" viewBox="0 0 738.608 931.507"><path d="M126.672 664.513L114.815 510.79 101.58 339.208c-26.686 51.304-28.892 325.12 25.092 325.305zM76.65 654.417l-11.7-156.833-6.615-88.694-5.13-68.777" fill="none" stroke="#0a192f" stroke-width="2.646" opacity=".629"/><path d="M53.204 340.113l16.49-.868m-4.773 157.949l-6.648-2.78.06-85.528M120.71 587.22l28.18-19.3s19.643-23.764 27.564-42.14" fill="none" stroke="#0a192f" stroke-width="2.646" opacity=".629"/><path d="M182.368 527.128c-8.237 21.228-25.24 40.158-25.24 40.158l-35.988 25.508M119.42 570.479l11.41-6.678s.316 2.535 12.04-15.842c11.722-18.377 15.991-26.117 15.991-26.117" fill="none" stroke="#0a192f" stroke-width="2.646" opacity=".629"/><path d="M119.814 575.616l13.233-8.013s21.396-28.587 29.316-44.429m-53.396 174.333L.608 642.377l74.368-10.392" fill="none" stroke="#00e696" stroke-width=".265" opacity=".629"/><path d="M123.932 628.99l24.957-4.356 122.3 47.526-162.222 25.347v3.96L.608 647.447v-5.07m108.36 59.09l162.221-25.03v-4.276m26.615-479.695l-6.337 366.266" fill="none" stroke="#00e696" stroke-width=".265" opacity=".629"/><path d="M485.912 663.52c3.168 11.724 5.797 11.175 2.312 40.324M488.224 703.844c-1.084-2.662.91 13.045-16.946 9.054" fill="none" stroke="#0a192f" stroke-width="2.646" opacity=".629"/><path d="M471.278 712.898s5.856 6.154-11.887 20.095c-17.743 13.94-72.24-1.267-72.24-1.267s-15.207-10.14-15.207-32.952c0-7.296.97-17.231 2.288-27.372M365.607 637.308l20.233-16.567m0 0l13.487-9.55s2.913-3.136 6.722-3.36c3.808-.224 12.77-4.257 12.77-4.257l11.713-5.351m55.38 65.297l7.698-2.766s6.97 0 11.406 1.9c4.436 1.902 30.417 3.17 30.417 3.17s36.12 10.772 77.942 11.405l28.516-4.435s18.376-3.802 22.812-2.535 12.674 3.168 19.644 1.267c6.97-1.9 13.307-22.18 13.307-22.18M353.848 557.87s-27.333 11.202-32.71 12.546c-5.377 1.345-43.464 1.793-48.393 1.793-4.928 0-29.573-2.69-32.71-4.033-3.136-1.344-34.053-8.962-35.397-10.754-1.345-1.792-12.099-5.377-17.027-4.033-4.93 1.345-22.01 5.353-26.248 9.625m83.153 33.39l121.09 40.904M167.895 599.99l1.344 10.753 188.193 61.835m0 0l16.798-1.16m-37.273-5.567l-9.098 16.585 11.202 3.585M188.507 632.25l-9.858-3.583 9.02-11.868" fill="none" stroke="#0a192f" stroke-width="2.646" opacity=".629"/><path d="M349.49 669.968L339.06 686.02m-150.554-53.77l11.3-11.464M168.42 604.18s-13.966 1.186-21.135-.607c-7.17-1.792-13.443-4.48-13.443-4.48l3.137-2.69s-2.689-5.824-5.377-3.584c-2.689 2.24-5.103 9.286-9.72 9.572m11.96-3.3s-5.996 7.495-11.51 9.125m7.737-13.66s-2.786-3.278-1.488-7.037M375.482 628.869l-106.194-33.384s-17.542 3.74-24.772.92m145.804 7.95s-40.509 16.444-69.97 7.182m387.443-17.953s-.634 12.673 0 17.743c.634 5.07 1.901 12.673.634 15.842-1.268 3.168 2.534 6.337.633 10.139-1.9 3.802-10.343 7.558-10.35 7.592m9.084-51.316s5.07-8.238 0-22.18c-5.07-13.94-5.704-15.841-5.704-15.841l-1.267-23.446-1.9-8.238v-4.436c-2.098.21 2.519-5.482 1.318-8.91-8.009-5.092-7.172-9.456-7.867-8.622-.608-3.172-1.186-6.388-2.958-7.815v-20.911s-10.138-29.783-13.307-33.585c-3.168-3.802-7.604-15.842-7.604-15.842l-20.91-18.377s.632-6.336-13.942-5.07c0 0-10.773-5.702-15.842-3.801h0m0 0s-1.268-5.07-7.604-5.07c-6.337 0-27.249-8.871-28.516-12.04M581.691 379.4l-11.514-6.396M483.313 382.41s-38.954.262-76.144 29.835m0 0s-6.273 9.858-8.066 16.13c-1.792 6.274-7.617 26.885-7.617 26.885s-3.136 12.098-4.48 18.372c-1.345 6.273-3.137 12.994-5.378 14.338-2.24 1.344-3.584 8.514-1.792 11.202 1.792 2.688 1.792 7.17-.448 11.202-2.24 4.033-19.484 35.05-18.217 38.852 0 0-7.043-1.09-7.323 8.644m36.472 46.486s8.872-5.07 11.407-8.237c2.534-3.17 8.237-1.268 8.871-4.436.634-3.17-1.9-3.802 2.535-6.97 4.435-3.17 9.505-8.24 9.505-8.24M430.532 598.223s-1.557-1.154-7.894-21.748m60.675-194.065s.029-4.667-.867-6.908m0 0c-20.164-3.136-15.235-19.267-15.235-19.267s-8.513-14.787-9.41-17.027c-.895-2.24-4.032-21.956-3.136-23.748.896-1.792-1.792-10.754-.896-14.787.896-4.032 3.585-10.754 0-18.82-3.585-8.064-2.934-17.356-.245-24.973M453.524 256.88s-11.876-25.76 6.5-40.335l8.872-7.604m0 0s13.308 0 17.743-5.703c4.436-5.703 13.941-11.406 18.377-11.406l23.446 2.535 16.476 4.435h-8.872l15.21 2.535 10.137 6.337-6.97-1.901 19.644 14.574-4.436-.633s10.14 10.139 11.406 15.208" fill="none" stroke="#0a192f" stroke-width="2.646" opacity=".629"/><path d="M581.057 234.92l-3.168-2.216 5.07 9.505s5.386 7.92 5.703 14.575c.316 6.653 2.851 12.99 2.851 12.99s-3.168-.317-2.85 1.584c.315 1.9 1.266 6.02.315 7.605-.95 1.584 3.17 4.118 4.12 8.87.95 4.754 2.534 11.407 2.217 13.942-.317 2.535-1.9-1.901-1.9-1.901s.95 12.673-.318 18.06c-1.267 5.386.317-5.07-1.584-6.337-1.9-1.267.634 9.188 0 12.04-.634 2.85-.95-5.07-2.218-6.02-1.267-.95.317 7.604-.95 11.09m0-.001s1.267 13.308-2.535 18.694c0 0-.95 6.653-3.802 10.455m-11.83 15.149s8.345.693 10.88-3.742c2.534-4.436 4.435-8.872 6.336-9.822 1.901-.95-7.488 2.41-5.386-1.585M260.113 552.59c-16.244-3.042-29.584-5.583-29.646-5.645-.062-.063-.258-1.495-.437-3.183l-.325-3.07-23.486-6.61c-12.917-3.634-23.65-6.764-23.85-6.954-25.64-4.904-50.088-8.964-66.458-14.618-212.88-73.523 300.77-203.551-50.36-173.417-2.96.172-5.455.252-5.545.178-.163-.132 2.341-108.273 2.51-108.43.282-.264 234.518-37.834 234.704-37.646.125.126-1.168 80.647-2.872 178.935-1.705 98.288-3.107 180.37-3.117 182.402-.015 3.242-.114 3.69-.8 3.644-.433-.03-14.075-2.542-30.318-5.585zm31.99-9.508c.147-8.3 1.565-90.344 3.15-182.32 1.585-91.974 3.016-167.36 3.18-167.52.162-.162 3.302.084 6.976.546l6.68.84-.27 10.58c-.3 11.69-6.624 337.535-6.656 342.94l-.02 3.383-6.655 3.322-6.656 3.322z" fill="none" stroke="#0a192f" stroke-width="2.646" opacity=".629"/><path d="M259.552 551.692c-17.958-3.39-27.993-5.554-28.347-6.113-.302-.476-.553-1.924-.558-3.217-.01-2.231-.148-2.388-2.703-3.057-1.481-.388-12.604-3.524-24.717-6.97-15.075-4.287-26.372-7.084-35.803-8.862-27.151-5.12-49.882-10.402-51.664-12.005-.383-.345-8.043-94.583-8.037-98.876.003-1.149 12.358-9.826 39.902-28.021 36.27-23.96 44.992-31.494 44.992-38.87 0-4.717-3.496-7.363-12.357-9.355-15.628-3.512-56.775-2.935-109.79 1.542-4.97.42-9.202.598-9.403.397-.467-.467 1.913-106.136 2.401-106.624.147-.147 5.668-1.142 12.27-2.211 23.452-3.799 122.213-19.665 159.652-25.65 20.911-3.342 43.119-6.931 49.35-7.976 6.231-1.044 11.447-1.782 11.59-1.639.143.144-.17 24.892-.697 54.996-.526 30.104-1.825 107.916-2.887 172.916-1.06 65-2.096 121.96-2.3 126.577-.359 8.078-.424 8.394-1.734 8.331-.748-.036-13.87-2.427-29.16-5.313z" fill="#0a192f" stroke="#0a192f" stroke-width="2.6458"/><path d="M62.528 457.583c-.278-.796-8.742-114.06-8.7-116.438.008-.504.964-.792 2.621-.792 1.434 0 11.771-.701 22.97-1.558 50.023-3.825 81.51-4.34 97.039-1.587 9.35 1.658 14.891 4.742 14.891 8.288 0 3.805-6.982 11.428-17.743 19.37-3.31 2.444-17.14 11.847-30.733 20.897-13.593 9.05-26.975 18.081-29.738 20.07-2.763 1.99-5.213 3.397-5.444 3.129-.23-.27-1.49-14.89-2.798-32.49s-2.593-33.426-2.855-35.169l-.477-3.168-1.738 3.79c-5.892 12.849-11.218 41.78-14.352 77.954l-.713 8.238-4.881 5.086c-7.85 8.18-14.459 17.833-16.693 24.38-.288.845-.36.845-.656 0z" fill="#0a192f" stroke="#0a192f" stroke-width="2.6458"/><path d="M86.294 420.988c2.416-29.827 6.668-55.801 11.645-71.13 1.91-5.887 3.39-9.4 3.418-8.118.006.24 1.15 15.157 2.545 33.148 1.394 17.991 2.534 33.394 2.534 34.229 0 1.156-1.243 2.462-5.227 5.494-2.876 2.187-7.42 5.907-10.1 8.266-2.679 2.36-4.971 4.29-5.093 4.29-.122 0 .003-2.78.278-6.179zM107.07 508.35c-8.42-3.353-13.648-5.812-19.02-8.95l-4.628-2.703.411-21.616c.226-11.89.702-26.892 1.057-33.34l.646-11.723 2.688-2.437c1.478-1.341 6.252-5.312 10.608-8.824 7.274-5.865 7.934-6.261 8.076-4.85.56 5.576 7.133 92.74 7.133 94.597 0 1.27-.214 2.293-.476 2.275-.261-.018-3.184-1.112-6.495-2.43zM78.494 493.17c-5.6-4.239-10.344-9.672-12.806-14.662-1.91-3.871-2.024-4.505-2.017-11.09.008-6.164.21-7.454 1.72-10.998 2.575-6.037 8.004-13.77 14.114-20.103 4.192-4.345 5.393-5.296 5.153-4.081-.486 2.464-1.719 36.219-1.859 50.902l-.126 13.197z" fill="#0a192f" stroke="#0a192f" stroke-width="2.6458"/><path d="M55.648 669.95C26.494 655.09 2.736 642.834 2.852 642.712c.25-.264 71.457-10.26 71.645-10.057.071.077.477 4.988.902 10.913.73 10.177.93 11.668 1.487 11.036.194-.22-11.34-157.156-12.546-170.687l-.392-4.399 3.129 4.455c3.368 4.796 7.3 8.582 12.586 12.119l3.327 2.226.004 6.405c.004 7.803 1.03 30.549 1.904 42.209 4.284 57.183 13.806 95.464 27.548 110.748 3.257 3.623 9.487 7.116 12.692 7.116h2.024l-.265-3.01c-.614-7.005-2.51-32.17-2.432-32.292.175-.273 22.272-4.065 23.794-4.083.871-.01 27.676 10.132 59.566 22.538 62.875 24.462 61.441 23.89 60.516 24.188-.348.112-8.048 1.348-17.11 2.746-9.06 1.398-44.804 6.972-79.429 12.386-34.624 5.415-62.997 9.811-63.05 9.77-.054-.04-23.95-12.23-53.105-27.09z" fill="#0a192f"/><path d="M109.148 699.43v-1.764l80.626-12.597c44.344-6.928 80.764-12.618 80.934-12.643l.308-.046V676.285l-3.053.465c-1.679.256-7.942 1.22-13.918 2.144l-22.908 3.536-20.332 3.138a1612958.841 1612958.841 0 01-38.507 5.941l-18.09 2.792-19.632 3.029-17.82 2.749c-3.979.614-7.318 1.116-7.421 1.116-.167 0-.188-.19-.187-1.765z" fill="#0a192f" stroke="#0a192f" stroke-width="2.6458"/><path d="M54.877 674.285C25.243 659.51.957 647.38.909 647.33c-.05-.049-.076-1.104-.059-2.344l.03-2.256 53.922 27.434c29.657 15.088 53.943 27.454 53.969 27.48.025.025.032.825.015 1.777l-.03 1.73z" fill="#0a192f"/><path d="M125.278 664.262c-9.017-.965-16.693-9.498-23.154-25.737-5.034-12.654-9.261-30.248-12.354-51.422-.504-3.452-1.458-10.608-1.458-10.938 0-.202.46-.208 15.682-.208 13.408 0 15.683.023 15.683.157 0 .087.455 6.048 1.01 13.247.557 7.198 2.067 26.8 3.356 43.558 1.29 16.758 2.366 30.683 2.392 30.945l.048.476-.406-.018a15.45 15.45 0 01-.799-.06z" fill="#0a192f" stroke="#0a192f" stroke-width="2.6458"/><path d="M88.268 575.802c0-.087-.177-1.655-.39-3.485-2.345-20.06-3.682-41.592-4.296-69.196l-.105-4.72 1.406.854c6.818 4.138 16.052 8.416 26.232 12.153l3.6 1.32.082.646c.046.354 1.117 14.154 2.381 30.665 1.264 16.511 2.34 30.448 2.392 30.971l.094.95h-15.697c-10.36 0-15.699-.053-15.7-.158zM119.889 573.787c-.059-.809-.145-1.862-.191-2.341l-.085-.872.605-.326c.334-.18 2.768-1.594 5.41-3.143 2.643-1.55 5.007-2.876 5.254-2.946.996-.286 2.282-1.659 4.848-5.173 3.851-5.277 12.613-19.02 19.94-31.275l2.705-4.527 1.696.328 1.696.328-.922 1.743c-4.292 8.113-14.184 23.049-25.715 38.824l-2.208 3.022-6.128 3.702c-3.37 2.036-6.28 3.798-6.464 3.914-.33.209-.337.19-.441-1.258zM121.315 592.176c-.136-.438-.389-4.813-.283-4.903.06-.052 2.836-1.959 6.168-4.238 3.333-2.279 8.787-6.011 12.12-8.294l7.88-5.394c1.996-1.363 2.312-1.714 6.801-7.565 9.119-11.884 16.471-23.215 20.945-32.278.785-1.59 1.475-2.891 1.534-2.891.191 0 5.334.99 5.39 1.039.114.097-2 4.867-3.401 7.674-4.777 9.57-11.546 19.818-19.263 29.16l-2.104 2.547-17.347 12.294c-9.54 6.761-17.578 12.467-17.86 12.679-.386.29-.53.333-.58.17z" fill="#0a192f" stroke="#0a192f" stroke-width="2.6458"/><path d="M430.438 738.594c-11.589-.48-25.69-2.697-40.48-6.363l-2.747-.68-1.164-.962c-2.566-2.118-5.344-5.318-7.34-8.455-2.997-4.708-4.865-9.64-5.965-15.746-.386-2.141-.63-8.882-.457-12.582.243-5.164 1.014-13.455 1.885-20.26.149-1.163.27-2.145.27-2.184-.003-.138-2.242-.021-9.499.496l-7.358.525-94.02-30.874c-51.711-16.981-94.047-30.893-94.08-30.916-.033-.023-.357-2.428-.72-5.345-.505-4.06-.71-5.302-.873-5.3-.22.005-.208.198.17 3.008.076.565.11 1.06.077 1.099-.034.039-3 .125-6.592.192-9.872.185-12.556-.156-19.859-2.522-2.098-.679-7.256-2.548-7.397-2.679-.02-.018.63-.596 1.444-1.284.813-.688 1.478-1.303 1.477-1.367-.005-.289-1.505-2.522-2.06-3.07-.89-.875-1.478-1.176-2.273-1.163-.837.014-1.55.436-2.222 1.315-.266.348-.539.634-.607.635-.175.004-1.085-1.824-1.33-2.67-.248-.857-.291-2.766-.076-3.35.188-.508.124-.459 5.419-4.194 2.324-1.64 5.423-3.831 6.886-4.87 1.463-1.04 4.104-2.914 5.87-4.165 1.764-1.25 4.87-3.455 6.903-4.898l3.695-2.624 1.845-2.237c1.29-1.565 1.9-2.193 2.031-2.09.127.098.458-.067 1.021-.51 1.88-1.478 6.152-3.336 11.812-5.136 4.467-1.42 13.684-3.875 15.058-4.01 3.954-.386 12.74 1.954 15.116 4.026 1.42 1.238 5.615 2.572 23.945 7.612 4.51 1.24 9.346 2.614 10.748 3.054 1.402.44 3.3.933 4.218 1.097 5.025.897 14.695 2.084 24.135 2.962 3.2.297 3.558.297 21.627-.028 20.754-.374 28.77-.735 32.06-1.444 1.931-.417 8.462-2.817 18.92-6.953 10.095-3.993 13.863-5.556 13.978-5.8.06-.13.215-.988.342-1.905.484-3.494 2.064-5.619 4.722-6.35.55-.15 1.313-.255 1.694-.231l.694.043-.013-.752c-.054-3.086 6.123-16.232 16.491-35.097 2.318-4.217 2.53-4.665 3.011-6.353.332-1.166.396-1.723.38-3.304-.022-2.18-.196-2.905-1.139-4.72-.75-1.447-.97-2.776-.805-4.864.235-2.983 1.06-4.96 2.7-6.48.88-.817 1.186-1.245 1.767-2.472 1.059-2.235 2.026-5.585 3.669-12.706a730.364 730.364 0 012.123-8.989l.636-2.546 68.615-1.236 68.616-1.236 1.802 103.354 1.802 103.355-.833-.069c-.458-.037-2.903-.212-5.434-.387-10.992-.762-17.163-1.576-20.089-2.65-2.422-.89-5.345-1.425-9.039-1.655l-1.961-.122-3.8 1.351c-2.09.744-3.888 1.422-3.995 1.507-.237.19-.288-.007 1.338 5.218.725 2.327 1.473 4.988 1.662 5.913 1.122 5.465 1.046 11.363-.31 24.188-.312 2.949-.559 4.658-.688 4.765-.11.091-.378.838-.595 1.66-1.556 5.889-5.606 8.639-12 8.148-.96-.074-2.253-.232-2.874-.351-.622-.12-1.164-.182-1.206-.139-.042.044.081.426.273.851 2.016 4.472-2.425 11.484-12.052 19.028-3.595 2.816-8.686 4.63-15.382 5.481-2.771.352-10.191.604-13.613.462zm-54.673-109.317c7.007-5.741 11.196-9.05 13.754-10.866 7.618-5.406 10.15-7.233 10.951-7.907 1.748-1.468 3.397-2.178 5.82-2.504 2.518-.339 6.012-1.45 10.558-3.355 2.247-.942 13.566-6.106 13.728-6.264.072-.069-.164-.717-.522-1.44-1.267-2.55-3.015-7.352-5.521-15.172a349.68 349.68 0 01-1.504-4.767c-.105-.368-.265-.669-.356-.667-.091.003-1.09.863-2.218 1.915-2.517 2.344-5.23 4.656-6.896 5.874-1.809 1.323-2.664 2.15-3.024 2.928-.286.618-.304.876-.192 2.656.115 1.819.1 2.012-.2 2.502-.435.714-1.284 1.078-3.553 1.524-3.027.595-3.958 1.038-5.228 2.495-.869.996-2.73 2.482-5.342 4.264-4.45 3.035-5.662 3.681-9.341 4.973-12.004 4.216-24.248 7.007-35.903 8.186-4.478.453-12.402.594-16.123.287-3.555-.293-6.985-.798-9.962-1.467-1.499-.336-12.216-3.629-28.833-8.858l-26.446-8.324-3.318.557c-5.129.86-7.269 1.097-11.465 1.272-4.846.202-6.57.057-9.798-.821-.248-.068-.357-.031-.353.118.003.139 1.173.607 3.23 1.295 3.203 1.07 99.23 33.51 111.448 37.649 3.506 1.188 6.41 2.163 6.454 2.166.044.004 4.614-3.708 10.155-8.249z" fill="#0a192f" stroke="#0a192f" stroke-width="2.6458"/><path d="M333.465 684.016c-2.849-.917-5.201-1.685-5.23-1.706-.035-.027 6.194-11.491 8.792-16.181.01-.018 2.725.857 6.034 1.945 3.933 1.293 5.991 2.043 5.946 2.166-.199.548-10.018 15.453-10.177 15.448-.103-.002-2.517-.755-5.365-1.672zM183.566 630.236l-4.57-1.671 4.35-5.727c2.392-3.15 4.358-5.742 4.368-5.76.01-.02 2.647.825 5.859 1.878l5.84 1.912-5.386 5.481c-2.963 3.015-5.5 5.499-5.64 5.52-.138.022-2.308-.713-4.821-1.633zM122.426 606.564a71.631 71.631 0 01-.179-2.63l-.06-1.325.72-.2c1.861-.514 3.417-2.01 5.98-5.749 2-2.917 2.536-3.558 3.285-3.929 1.217-.603 2.643.389 4.132 2.874l.433.722-1.21 1.034c-.665.569-2.366 2.235-3.78 3.702-2.88 2.99-5.22 4.903-7.396 6.045-.792.415-1.522.757-1.623.758-.117.003-.227-.472-.302-1.302zM293.054 553.576c-.116-6.658 5.652-330.508 6.122-343.722l.558-15.678 5.217.741c2.869.408 5.386.905 5.592 1.104.207.2-1.134 77.343-2.98 171.43-1.844 94.087-3.31 173.764-3.255 177.06.095 5.705-.14 6.122-4.874 8.642-6.06 3.226-6.331 3.244-6.38.423z" fill="#0a192f" stroke="#0a192f" stroke-width="2.6458"/><path d="M697.654 649.347c-1.333-.911-1.018-.288-.625-2.215.044-.215.238-2.504.272-2.54.073-.076.224.044.317-.006.133-.069.208-.214.311-.322.423-.007.855.068 1.268-.022.145-.032.4-.442.31-.322-.25.338-.531.653-.797.979" fill="none" stroke="#0a192f" stroke-width="2.646"/><path d="M610.421 676.89c-22.454-.683-48.036-4.339-69.413-9.92-2.889-.755-6.252-1.433-7.473-1.507l-2.22-.134-1.882-103.352-1.882-103.352-68.585 1.196c-37.721.658-68.586 1.117-68.587 1.02-.018-1.022 9.192-33.172 10.213-35.652 1.12-2.718 2.859-6.09 5.09-9.862 1.407-2.38 2.065-3.132 4.141-4.728 13.865-10.66 31.734-19.39 48.991-23.936 7.533-1.985 18.482-3.848 23.079-3.928l1.639-.029-.218-3.244c-.12-1.785-.312-3.457-.428-3.716-.124-.276-1.232-.695-2.671-1.01-9.139-1.996-14.195-8.313-13.088-16.352l.326-2.369-2.9-5.08c-4.732-8.294-6.517-11.778-6.921-13.51-.479-2.049-1.659-9.15-1.992-11.985l-.25-2.135 66.592-1.161 66.591-1.161-.102 2.933c-.057 1.613-.194 6-.305 9.75-.209 7.053-.688 10.031-2.045 12.706-.313.618-.92 2.484-1.349 4.148-.428 1.663-1.323 4.078-1.989 5.367-1.29 2.499-1.494 3.697-.68 3.993.278.101 1.285.17 2.237.154l1.732-.03-.895 1.362c-.492.75-1.686 2.802-2.654 4.562-.968 1.76-2.134 3.617-2.59 4.127-1.382 1.543-3.287 2.239-6.757 2.468-2.072.136-3.058.32-2.975.554.068.192 2.519 1.676 5.447 3.298s5.952 3.508 6.72 4.192c1.818 1.618 5.197 3.5 10.151 5.651 7.492 3.254 13.704 5.177 17.842 5.522 3.354.28 5.503 1.531 6.788 3.953.462.872.532.89 3.46.92 3.225.035 6.609.969 10.644 2.939 1.779.868 2.183.935 5.562.93 2.36-.002 4.34.18 5.622.52 2.393.634 4.386 2.163 4.797 3.68.234.864 2.238 2.772 10.599 10.098l10.31 9.032 1.597 3.874c2.113 5.125 4.145 9.253 5.578 11.333 2.415 3.504 5.313 10.396 10.945 26.029l2.893 8.03-.037 10.523c-.036 10.392-.028 10.534.646 11.361.72.883 2.011 4.438 2.033 5.593.038 2.065 4.052 7.408 7.008 9.328 1.54 1 1.657 1.783.696 4.639-1.372 4.076-1.562 4.916-1.14 5.049.253.08.328.657.23 1.788-.101 1.19.164 3.026.922 6.382.995 4.406 1.106 5.485 1.715 16.584.532 9.68.757 12.134 1.22 13.288 2.055 5.115 5.99 16.724 6.547 19.307 1.179 5.48.893 10.638-.838 15.12-.752 1.948-.792 2.407-.848 9.83-.048 6.269.06 8.678.557 12.35.699 5.168.896 11.136.413 12.473-.48 1.329-.38 2.624.425 5.49.463 1.646.657 2.965.539 3.662-.225 1.324-1.897 3.413-3.847 4.805-2.051 1.465-5.709 3.522-5.714 3.214-.007-.396-2.27.244-2.564.726-.142.233-.254.78-.25 1.218.006.436-.125 1.294-.29 1.906-.247.916-.206 1.179.232 1.49.484.343.416.683-.76 3.815-4.123 10.97-8.405 17.313-12.423 18.404-3.692 1.003-11.102.565-17.251-1.018-3.941-1.015-10.152-.58-21.344 1.495-4.836.897-32.298 5.202-32.558 5.104-.083-.031-1.008-.083-2.054-.115z" fill="#0a192f" stroke="#0a192f" stroke-width="2.6458"/><path d="M590.67 320.799c-.624-2.956-1.341-4.21-1.89-3.305-.162.264-.283 1.157-.272 1.985l.022 1.505-66.685 1.162-66.684 1.163-.104-1.979c-.058-1.088-.144-3.974-.192-6.413-.047-2.44-.325-6.255-.617-8.48l-.53-4.043.998-4.362c1.702-7.432 1.484-10.638-1.213-17.79-1.288-3.415-1.726-5.913-1.805-10.29-.071-3.915.183-5.93 1.285-10.187l.753-2.91-1-2.948c-3.634-10.713-3.543-20.48.26-28.14 2.016-4.058 3.685-5.95 10.08-11.423l5.79-4.956 3.792-.437c8.004-.922 11.112-2.304 15.523-6.902 3.262-3.4 7.026-6.193 10.82-8.026 4.349-2.102 4.25-2.099 17.604-.645 11.542 1.257 12.014 1.336 18.71 3.138l6.871 1.848-3.087.145c-1.698.08-3.085.246-3.083.37.003.125 3.401.783 7.552 1.463l7.547 1.237 3.752 2.354c2.064 1.295 3.7 2.409 3.637 2.475-.064.066-.992-.11-2.063-.39-1.772-.464-2.903-.38-2.026.151.997.604 18.317 13.542 18.243 13.628-.047.056-.815-.018-1.707-.164-.892-.146-1.618-.178-1.614-.071.004.106 1.04 1.317 2.302 2.689 4.012 4.364 8.699 10.554 8.715 11.511.003.134-.536-.11-1.196-.543-.661-.432-1.243-.654-1.293-.493-.11.348 3.228 6.812 5.692 11.024 3.243 5.546 4.358 8.931 5.137 15.596.345 2.958 1.464 7.748 2.267 9.705.185.45.052.554-.735.567-1.545.027-2.002.755-1.68 2.674.237 1.416.342 5.188.206 7.424-.025.404.67 1.792 1.57 3.141.889 1.33 1.782 2.842 1.986 3.362.501 1.277 2.352 10.495 2.679 13.341.29 2.529-.107 3.103-.832 1.203-.231-.606-.534-1.1-.674-1.097-.139.002-.211 3.105-.16 6.895.05 3.79.004 7.605-.104 8.478l-.196 1.588-.286-2.13c-.293-2.185-1.117-3.684-1.789-3.252-.46.295-.42 3.052.112 7.664.53 4.603.36 5.436-.389 1.89zM61.534 495.504l-3.097-1.306.072-1.906c.04-1.048.053-17.787.03-37.197-.023-19.41.021-35.695.099-36.19.084-.535.814 8.189 1.807 21.592 1.32 17.811 1.622 22.748 1.454 23.727-.355 2.068.03 8.08.653 10.184.446 1.504.652 3.393 1.32 12.077.435 5.661.784 10.3.775 10.309-.008.009-1.41-.572-3.113-1.29z" fill="#0a192f" stroke="#0a192f" stroke-width="2.6458"/><path d="M512.296 663.323l477.509 113.566-240.798 154.618M989.805 776.89v24.08L803.503 932.773M547.551 338.747s4.56-5.374 9.858-20.612m-58.667 126.728s4.834 13.028 17.955 4.357M61.411 339.321l2.59-109.296 235.728-38.02 14.575 1.9-6.97 357.395-13.941 6.97-61.467-11.406-.634-6.336-48.056-13.441m-5.648-1.134l-12.746-3.94m-4.364-1.288l-44.515-12.198" fill="none" stroke="#00e696" stroke-width=".265" opacity=".629"/><g><path d="M112.467 666.74l5.377-.896 10.754-1.792-25.092-325.305-13.89.896zm0 0l-33.891-12.784L55.13 339.652l34.485-.008" fill="none" stroke="#00e696" stroke-width=".265" opacity=".629"/><path d="M55.13 339.652l16.49-.868 31.886-.037M66.847 496.733l-6.648-2.78.06-85.528m8.811-47.862s11.407 2.535 11.723 23.763c.317 21.228-7.92 24.08-7.92 24.08s-9.823-5.387-10.14-23.763c-.316-18.377 6.337-24.08 6.337-24.08zm35.662-5.911l24.221-.109 13.94-8.872-27.564-1.584-10.785 8.118m38.35-6.534l8.238 8.872.317 67.804-41.95-5.889" fill="none" stroke="#00e696" stroke-width=".265" opacity=".629"/><path d="M106.838 381.955l8.49 5.856h24.714l-12.04-9.505-21.386.768m33.426 8.737l2.852-42.14m-13.941 8.872l-.95 23.763m-12.674 9.505s17.743 37.704 24.713 0m152.083 88.081s-38.02-10.139-39.922-14.574c-1.9-4.436-2.534-96.32-2.534-96.32l42.456-9.505z" fill="none" stroke="#00e696" stroke-width=".265" opacity=".629"/><path d="M249.669 364.999l.633-19.01s40.556-17.744 42.457-16.476c1.9 1.267-.634 25.98-.634 25.98m0 120.399s-84.08-3.571-179.865-23.647" fill="none" stroke="#00e696" stroke-width=".265" opacity=".629"/><path d="M292.701 329.484s-76.617-10.744-204.62-3.773l1.534 13.932m25.714 4.444s19.201-34.21 27.565 1.584M122.636 586.76l28.179-19.301s13.624-10.456 21.545-28.833c7.92-18.376 14.575-36.12 14.891-38.337.317-2.218.317-22.812.317-22.812l-2.851-3.169.063-9.312" fill="none" stroke="#00e696" stroke-width=".265" opacity=".629"/><path d="M196.35 466.616l-1.178 11.177-3.168.634h-1.267v21.545s-1.901 12.99-10.14 34.219c-8.237 21.228-21.544 32.634-21.544 32.634l-35.987 25.508m56.847-128.051l-.583 17.947 3.802.95v-18.423m-3.802 17.474l-6.336-1.268v-17.728" fill="none" stroke="#00e696" stroke-width=".265" opacity=".629"/><path d="M121.345 570.018l11.41-6.678s.317 2.535 12.04-15.842c11.723-18.377 26.298-44.04 26.298-44.04s7.848-9.233 8.237-21.229" fill="none" stroke="#00e696" stroke-width=".265" opacity=".629"/><path d="M121.74 575.155l13.233-8.013s11.09-8.871 19.01-24.713c7.921-15.842 25.03-45.625 25.03-45.625s4.12-7.921 4.12-13.624M77.517 240.842l-1.568 2.24 203.875-27.108 2.689-3.36zm33.376 456.204L2.534 641.916l74.368-10.392" fill="none" stroke="#00e696" stroke-width=".265" opacity=".629"/><path d="M125.858 628.53l24.957-4.357 122.3 47.526-162.222 25.347v3.96L2.534 646.987v-5.07m108.359 59.089l162.222-25.03V671.7m26.615-479.695l-6.337 366.266m178.433 66.798a44.584 10.306 0 01-44.584 10.306 44.584 10.306 0 01-44.584-10.306 44.584 10.306 0 0144.584-10.306 44.584 10.306 0 0144.584 10.306z" fill="none" stroke="#00e696" stroke-width=".265" opacity=".629"/><path d="M467.345 625.517a39.879 7.17 0 01-39.879 7.17 39.879 7.17 0 01-39.879-7.17 39.879 7.17 0 0139.88-7.17 39.879 7.17 0 0139.878 7.17zm4.469-.683l2.177 18.35s9.188 3.168 12.357 14.89c3.168 11.724 7.287 16.16 3.802 45.309" fill="none" stroke="#00e696" stroke-width=".265" opacity=".629"/><path d="M490.15 703.383s-9.822 18.693-32.635 2.535c0 0-2.851-3.169-1.267-6.654s9.188-4.753 9.188-4.753l3.169 3.802s6.653 6.97 9.188 1.901c2.535-5.069 5.56-12.032-5.386-46.892 0 0-6.02-7.604-19.961.95 0 0-2.852-5.069-1.584-7.287 1.267-2.217 6.653-7.287 23.129-3.802" fill="none" stroke="#00e696" stroke-width=".265" opacity=".629"/><path d="M473.204 712.437s5.856 6.154-11.887 20.095c-17.743 13.94-72.24-1.267-72.24-1.267s-15.207-10.14-15.207-32.952c0-22.812 9.478-71.439 9.478-71.439" fill="none" stroke="#00e696" stroke-width=".265" opacity=".629"/><path d="M380.18 644.458s-4.41 5.696-8.845 2.527c-4.436-3.168-3.802-10.138-3.802-10.138l15.68-13.4m4.553-3.167l13.487-9.55s2.913-3.136 6.722-3.36c3.808-.224 12.77-4.257 12.77-4.257l8.737-4.033s4.705-3.36 7.842 0c3.136 3.361 3.986 1.069 3.986 1.069s3.047-1.881 10.577 2.834c7.53 4.714 34.777 18.022 34.777 18.022s15.525 8.871 34.536 6.02m-33.362 36.034l7.698-2.766s6.97 0 11.406 1.9c4.436 1.902 30.417 3.17 30.417 3.17s36.12 10.772 77.942 11.405l28.516-4.435s18.376-3.802 22.812-2.535 12.674 3.168 19.644 1.267c6.97-1.9 13.307-22.179 13.307-22.179s3.802-13.94 1.268-15.841c-2.535-1.901-9.506-5.704-9.506-5.704l-5.069 1.268s-26.614-27.882-53.229-19.01c-26.614 8.87-38.654 15.841-38.654 15.841l-73.19 1.585m-327.929-67.17s-9.56 1.139-18.073 2.931-13.294 6.574-13.294 6.574-9.188 7.287-14.891 11.406c-5.703 4.119-5.386 6.97-5.386 6.97s-.95.951.316 3.486c1.268 2.534 12.04-3.802 12.04-3.802s4.436-3.802 12.04-8.872c7.604-5.07 12.674-3.168 15.842-4.436 3.169-1.267 20.912 1.902 20.912 1.902l4.435 10.772s-6.337 1.901-7.92 1.267c-1.585-.633-11.09.634-15.526 3.169-4.436 2.534-9.822 5.386-7.604 6.97 2.218 1.584 11.723.634 11.723.634" fill="none" stroke="#00e696" stroke-width=".265" opacity=".629"/><path d="M355.774 557.41s-27.333 11.201-32.71 12.545c-5.377 1.345-43.464 1.793-48.393 1.793-4.928 0-29.573-2.689-32.71-4.033-3.136-1.344-34.053-8.962-35.397-10.754-1.345-1.792-12.099-5.377-17.027-4.033-4.93 1.345-22.01 5.353-26.248 9.625m24.596 36.273l58.557-2.882 121.09 40.903m-191.876-39.379l-5.835 2.06 192.226 63.628 15.309-.876" fill="none" stroke="#00e696" stroke-width=".265" opacity=".629"/><path d="M378.088 657.386l-15.941 1.64-180.929-59.927m-11.397.43l1.344 10.753 188.193 61.835 2.689-8.961m-2.689 8.961l16.798-1.159m-37.273-5.568l-9.098 16.585 11.202 3.585 8.677-16.628" fill="none" stroke="#00e696" stroke-width=".265" opacity=".629"/><path d="M200.226 619.83l-9.793 11.96-9.858-3.584 9.02-11.868" fill="none" stroke="#00e696" stroke-width=".265" opacity=".629"/><path d="M191.499 616.963l-2.822 4.2 5.984 1.603 2.788-3.848m143.069 47.009l-2.61 5.297 6.337 2.06 2.932-5.17m4.238 1.393l-10.428 16.053m-150.554-53.77l11.3-11.464m-31.388-16.606s-13.966 1.186-21.135-.607c-7.17-1.792-13.443-4.48-13.443-4.48l3.137-2.689s-2.689-5.825-5.377-3.585c-2.689 2.24-5.103 9.286-9.72 9.572m11.96-3.299s-5.996 7.494-11.511 9.124m7.738-13.66s-2.786-3.278-1.488-7.037" fill="none" stroke="#00e696" stroke-width=".265" opacity=".629"/><path d="M202.777 576.014c-36.12 1.9-50.695 19.644-50.695 19.644l-21.788-5.208m21.788 5.208s-.163 6.513 1.563 8.16m223.763 24.59l-106.194-33.384s-17.542 3.741-24.772.92m145.804 7.951s-40.509 16.443-69.97 7.181m33.498-53.666s34.25 34.847 36.472 46.485m240.798 5.703v-13.94s45.625-32.318 76.675-2.535c0 0-.634 12.673 0 17.743.634 5.07 1.901 12.673.634 15.842-1.268 3.168 2.534 6.337.633 10.139-1.9 3.802-10.343 7.558-10.35 7.592m9.084-51.316s5.069-8.238 0-22.179c-5.07-13.94-5.704-15.842-5.704-15.842l-1.267-23.446-1.901-8.238v-4.436s3.168-5.703-6.97-8.237c-10.14-2.535-6.971-1.901-6.971-1.901l4.435-15.209v-20.911s-10.138-29.783-13.307-33.585c-3.168-3.802-7.604-15.842-7.604-15.842L649.52 404.92s.633-6.336-13.941-5.07c0 0-10.773-5.702-15.842-3.801v0m0 0s-1.268-5.07-7.604-5.07c-6.337 0-27.249-8.871-28.516-12.04m-51.327 59.566s26.614-10.139 51.327-59.565" fill="none" stroke="#00e696" stroke-width=".265" opacity=".629"/><path d="M583.617 378.94l-17.11-9.506-41.822 41.823s6.97 1.901 5.07 19.01c-1.902 17.11 2.534 8.238 2.534 8.238m138.142-15.208s-13.94 1.267-18.377 5.703c-4.435 4.436-24.713 35.486-27.248 65.269" fill="none" stroke="#00e696" stroke-width=".265" opacity=".629"/><path d="M614.667 539.26s-14.574-7.604 10.14-44.991c0 0 13.306-20.911 25.346-24.08m-35.486 69.071s-4.435 6.97-3.168 18.377c1.267 11.406 12.674 27.248 15.208 29.783m0 0s.338 11.933 6.337 8.238m-107.092-62.735s36.12 9.506 67.17.634m0 0l1.268-17.11s-61.467 8.872-66.537.634l-1.9 15.842" fill="none" stroke="#00e696" stroke-width=".265" opacity=".629"/><path d="M593.122 533.557l-6.336 61.467-34.22 12.04-30.416-11.406 3.802-62.735m-27.164 92.716l5.62-20.476 1.267-50.695 5.07-55.13 3.801-44.357s5.267-17.123 15.307-25.67" fill="none" stroke="#00e696" stroke-width=".265" opacity=".629"/><path d="M486.664 621.005l3.802-17.11-2.534-43.09 1.267-41.189 2.535-39.922 3.802-28.515s10.046-24.178 32.588-36.486" fill="none" stroke="#00e696" stroke-width=".265" opacity=".629"/><path d="M509.728 429.542c-2.786-2.126-7.539-6.245-7.539-6.245s-1.267-11.723-8.554-19.01c-7.287-7.288-9.505-22.496-9.505-22.496m9.825 22.823s-13.31 3.475-3.805 24.703m0 0s-17.017-7.17-6.02-47.526m0 0s-37.845.42-75.035 29.993m0 0s-6.273 9.858-8.066 16.13c-1.792 6.274-7.617 26.885-7.617 26.885s-3.136 12.098-4.48 18.372c-1.345 6.273-3.137 12.994-5.378 14.338-2.24 1.344-3.584 8.514-1.792 11.202 1.792 2.688 1.792 7.17-.448 11.202-2.24 4.033-19.484 35.05-18.217 38.852 0 0-7.043-1.089-7.323 8.644m36.472 46.486s8.872-5.07 11.407-8.237c2.534-3.169 8.237-1.268 8.871-4.436.634-3.169-1.901-3.802 2.535-6.97 4.435-3.17 9.505-8.239 9.505-8.239" fill="none" stroke="#00e696" stroke-width=".265" opacity=".629"/><path d="M432.458 597.762s-1.557-1.154-7.894-21.748c-6.337-20.595-25.347-68.438-18.694-140.994m79.553-47.235s-.155-10.503-1.051-12.744m74.381-47.496s-5.654 17.132.626 49.018m-75.007-1.522c-20.164-3.136-15.235-19.267-15.235-19.267s-8.513-14.787-9.41-17.027c-.895-2.24-4.032-21.956-3.136-23.748.896-1.792-1.792-10.754-.896-14.787.896-4.032 3.585-10.754 0-18.819s-3.585-15.235-.896-22.852c2.688-7.617 4.929-30.47 22.852-33.606" fill="none" stroke="#00e696" stroke-width=".265" opacity=".629"/><path d="M557.409 318.135s-6.721 16.131 8.513 6.274l8.514-9.858s4.48-9.858 3.584-12.098c-.896-2.24 3.137-7.618 2.24-9.41m-20.163.448s2.689-7.617 5.377-7.169" fill="none" stroke="#00e696" stroke-width=".265" opacity=".629"/><path d="M595.047 297.076s-10.754-1.344-14.786-4.033c-4.033-2.688-9.41-1.792-14.787-6.721m-87.824-61.387s19.153 1.922 25.49.654c6.337-1.267 43.09 35.486 43.09 50.695 0 15.208 19.244 10.038 19.244 10.038" fill="none" stroke="#00e696" stroke-width=".265" opacity=".629"/><path d="M548.735 283.767s7 10.893 6.367 16.596c-.634 5.704 3.776-13.196 3.803-13.196m11.322 2.25s-5.62 7.144-7.521 13.481m-2.535 9.505s6.337-5.703 8.872-4.435c2.534 1.267 6.336-7.605 5.069-11.407m-5.703 17.109s6.97-2.534 8.871-20.277m-121.83-36.974s-11.876-25.76 6.5-40.335l8.872-7.604m0 0s13.308 0 17.743-5.703c4.436-5.703 13.941-11.406 18.377-11.406l23.446 2.535 16.476 4.435h-8.872l15.209 2.535 10.138 6.337-6.97-1.901 19.644 14.574-4.436-.633s10.14 10.139 11.406 15.208" fill="none" stroke="#00e696" stroke-width=".265" opacity=".629"/><path d="M582.983 234.46l-3.168-2.217 5.07 9.505s5.386 7.921 5.703 14.575c.316 6.653 2.851 12.99 2.851 12.99s-3.168-.317-2.851 1.584c.316 1.901 1.267 6.02.316 7.605-.95 1.584 3.169 4.118 4.12 8.871.95 4.753 2.534 11.406 2.217 13.941-.317 2.535-1.9-1.901-1.9-1.901s.95 12.673-.318 18.06c-1.267 5.386.317-5.07-1.584-6.337-1.9-1.267.634 9.188 0 12.04-.634 2.851-.95-5.07-2.218-6.02-1.267-.95.317 7.604-.95 11.09m-.001-.001s1.268 13.308-2.534 18.694c0 0-.95 6.653-3.802 10.455m-11.831 15.149s8.346.693 10.88-3.742c2.535-4.436 4.436-8.872 6.337-9.822 1.901-.95-7.488 2.41-5.386-1.585M467.793 291.25s16.78-15.23-14.91-22.401m31.937 14.336s-1.792-12.098 39.431-4.48m-39.431 4.48s7.17 14.339 14.339 15.235" fill="none" stroke="#00e696" stroke-width=".265" opacity=".629"/><path d="M486.612 310.07c4.481 6.273-1.792 11.65-1.792 11.65s-1.792-3.585-9.858-1.792c-8.065 1.792-15.682 1.344-11.202-11.202 4.481-12.546 9.036-21.353 8.419-25.457m27.428 52.79s-20.612 5.377-34.95-1.345m26.884 7.618s-16.532 5.776-24.837-2.047m10.051 13.697s1.792-3.585 18.819.896m-28.677-23.3s6.273-1.792 12.546.896c0 0 9.122-2.644 14.192.207m22.495-45.625c-13.624-10.772-22.812-2.534-22.812-2.534s5.703 13.624 22.812 2.534zm-59.882-5.703s3.802-7.287 14.574 0m-14.257 2.535s5.703 9.822 14.257.317" fill="none" stroke="#00e696" stroke-width=".265" opacity=".629"/><path d="M501.239 281.987s-3.168 4.119 0 6.653c3.168 2.535 5.703-3.168 5.703-3.168l-1.267-3.168m-42.14-3.802s-4.436 4.752-.634 6.336c3.802 1.585 4.753-1.267 4.753-1.267s1.267-2.535-.634-4.436m21.952-1l1.811-6.92s26.932.316 33.902 2.85c0 0-6.082 3.673-5.482 3.77m-54.323-4.896l-1.345-4.893-10.408-2.72m31.245 109.715s50.559-9.95 63.179-36.294m29.729 57.302s16.476 13.94 25.347 13.94c8.872 0 23.447-3.801 33.585 3.803 10.14 7.604 17.743 13.94 17.743 13.94m-163.805 1.585s-3.48-14.238 3.805-24.703m8.295 34.577c-12.1-9.874-12.903-16.487-12.903-16.487" fill="none" stroke="#00e696" stroke-width=".265" opacity=".629"/><ellipse cx="496.962" cy="580.291" rx="3.327" ry="3.96" stroke="#00e696" stroke-width=".311" stroke-linejoin="round" opacity=".629" fill="none"/><ellipse cx="499.496" cy="513.438" rx="3.644" ry="3.96" stroke="#00e696" stroke-width=".291" stroke-linejoin="round" opacity=".629" fill="none"/><ellipse cx="506.308" cy="445.159" rx="4.119" ry="3.802" stroke="#00e696" stroke-width=".428" stroke-linejoin="round" opacity=".629" fill="none"/><ellipse cx="535.696" cy="430.115" rx="3.09" ry="4.283" stroke="#00e696" stroke-width=".366" stroke-linejoin="round" opacity=".629" fill="none"/><ellipse cx="494.427" cy="415.36" rx="2.059" ry="3.501" stroke="#00e696" stroke-width=".309" stroke-linejoin="round" opacity=".629" fill="none"/><path d="M470.551 612.383c-8.364-4.29-16.453-8.585-17.974-9.547-4.94-3.123-10.352-4.428-11.908-2.872-.47.47-1.242.187-2.594-.95-1.059-.892-2.684-1.62-3.611-1.62-2.242 0-3.304-2.46-9.838-22.802-11.406-35.504-15.132-51.566-18.157-78.27-1.153-10.182-1.584-41.815-.75-55.13.318-5.078.26-6.455-.212-5.07-1.031 3.024-1.458 41.126-.583 52.03 2.089 26.036 6.581 48.346 15.198 75.478l3.868 12.179-2.768 2.552c-1.523 1.403-3.879 3.423-5.235 4.487-3.438 2.697-4.051 3.667-4.051 6.406 0 2.611-.67 3.221-4.434 4.03-1.219.262-3.642 1.689-5.386 3.17-1.744 1.48-4.573 3.576-6.287 4.656l-3.116 1.964-1.107-2.472c-2.887-6.447-13.481-19.945-27.795-35.413l-7.812-8.441.735-2.456c.835-2.786 3.325-5.058 5.544-5.058 1.161 0 1.498-.344 1.498-1.528 0-2.864 3.896-11.097 17.207-36.369 2.672-5.073 3.178-9.206 1.487-12.164-.498-.871-.916-2.805-.928-4.297-.024-2.894 1.413-7.109 2.423-7.109 1.31 0 3.34-5.976 6.674-19.644 6.081-24.937 11.372-42.457 14.761-48.886 3.468-6.577 4.449-7.672 10.958-12.24 18.376-12.896 43.878-22.79 62.475-24.237l4.48-.35-1.5 7.213c-2.633 12.66-2.016 26.246 1.499 33.043 1.314 2.542 5.275 6.803 6.323 6.803.483 0 .892-.5.91-1.11.027-.88.252-.781 1.093.476.583.871 3.008 3.619 5.39 6.106l4.33 4.522-3.07 5.355-3.07 5.354-2.023 15.47c-2.23 17.053-4.24 46.51-5.164 75.67-.5 15.757-.4 21.495.702 40.24l1.285 21.861-1.793 8.397c-.986 4.617-1.944 8.39-2.13 8.383-.184-.006-7.18-3.521-15.544-7.81zm33.769 13.958c-2.338-.441-4.394-.946-4.569-1.12-.175-.176.928-4.869 2.45-10.43l2.769-10.11.66-26.615c.518-20.94 1.076-31.004 2.616-47.209 1.077-11.327 3.048-33.141 4.38-48.476 2.365-27.215 2.47-27.996 4.408-32.64 2.43-5.827 6.871-13.386 9.862-16.787l2.229-2.535-.05 4.968c-.057 5.824.617 6.983 2.74 4.707.808-.868 2.652-2.178 4.096-2.911 7.799-3.962 21.178-16.545 29.769-27.997 4.712-6.28 10.78-15.843 15.4-24.272 2.492-4.545 2.802-4.87 3.781-3.984 3.229 2.922 20.377 9.662 26.274 10.327 3.997.451 6.593 1.695 7.447 3.57.541 1.188 1.174 1.424 3.933 1.47 2.067.035 5.169.79 8.357 2.036 3.663 1.431 6.124 1.982 8.871 1.985 4.331.004 7.909 1.468 8.854 3.624.34.772 5.1 5.324 10.58 10.114l9.963 8.71-6.256 1.403c-3.44.772-6.846 1.72-7.567 2.105-1.157.62-2.383-.137-10.344-6.374-13.723-10.753-16.879-11.826-32.161-10.94-5.054.293-10.186.459-11.406.367-3.15-.235-11.387-4.48-18.06-9.307-3.137-2.269-5.988-4.117-6.337-4.108-1.733.047 13.281 10.43 18.377 12.709 3.427 1.532 5.67 1.666 20.911 1.243 9.21-.255 13.847.653 18.377 3.602 2.2 1.432 16.087 12.047 17.683 13.517.331.305-.357 1.56-1.624 2.963-5.534 6.124-16.073 26.09-20.487 38.81-2.604 7.504-4.44 14.763-5.329 21.065-.47 3.344-1.224 5.27-3.467 8.871-3.951 6.345-8.984 17.124-10.178 21.8-1.855 7.262-1.065 15.547 1.7 17.84.894.741.865 1.175-.294 4.436-1.803 5.072-2.2 13.31-.887 18.43 1.467 5.721 5.202 13.341 9.999 20.398 2.486 3.659 4.43 7.304 4.9 9.188 1.052 4.22 2.285 5.976 4.196 5.976 1.565 0 1.57.021 1.57 6.25v6.25l-5.861 2.068c-8.961 3.16-21.105 8.123-27.09 11.07l-5.386 2.65-35.803.78c-19.692.428-38.94.9-42.774 1.047-4.157.16-8.686-.055-11.221-.534zm65.617-24.867l17.266-6.059 3.322-32.754c3.372-33.237 4.502-45.864 4.145-46.307-.11-.136-5.553.357-12.098 1.095-18.822 2.12-30.104 2.827-39.862 2.496-7.953-.27-9.438-.496-12.175-1.85l-3.117-1.543-1.059 9.529c-.937 8.435-4.902 69.498-4.537 69.877.22.23 29.773 11.44 30.345 11.511.277.035 8.274-2.663 17.77-5.995z" fill="#00e696" opacity=".629"/><path d="M493.393 623.313c-2.772-1.014-5.278-2.082-5.568-2.373-.291-.29.288-4.21 1.288-8.71l1.817-8.183-1.235-19.96c-1.124-18.17-1.17-22.236-.51-45.309 1.238-43.352 4.623-81.979 7.815-89.19.733-1.656 1.427-3.01 1.543-3.01.116 0 1.21 1.107 2.432 2.459 2.9 3.21 6.145 4.1 10.668 2.927 1.795-.465 3.337-.773 3.426-.684.09.089-.107.992-.435 2.007-.329 1.015-1.059 7.406-1.622 14.202-.563 6.797-2.562 29.609-4.444 50.695-2.95 33.058-3.505 41.696-4.035 62.734l-.615 24.396-2.606 9.506c-1.434 5.227-2.668 9.692-2.743 9.92-.075.23-2.404-.413-5.176-1.427zm6.272-40.002c1.359-1.94 1.235-4.68-.281-6.195-2.05-2.05-4.2-1.606-5.663 1.168-2.202 4.179 3.286 8.821 5.944 5.027zm2.936-66.77c1.08-1.302 1.08-4.918 0-6.22-1.092-1.315-4.387-1.294-5.86.04-1.445 1.307-1.503 4.492-.11 6.03 1.299 1.436 4.829 1.524 5.97.15zM530.13 430.9c.52-10.8-.096-14.877-2.721-17.998l-1.614-1.917 20.445-20.452 20.445-20.452 8.138 4.505 8.139 4.505-3.21 6.018c-11.277 21.143-26.729 39.728-40.447 48.649-3.31 2.153-6.833 4.539-7.828 5.301l-1.807 1.387zm8.527 1.764c1.665-3.11-.095-6.997-3.167-6.997-2.158 0-3.155 1.45-3.155 4.59 0 4.585 4.283 6.217 6.322 2.407z" fill="#00e696" opacity=".629"/><path d="M504.066 450.44c-1.085-.66-2.616-2.106-3.403-3.21-1.42-1.996-1.422-2.026-.246-4.225 2.344-4.385 9.155-12.818 14.14-17.507 5.717-5.379 12.653-10.28 13.438-9.495.69.69 1.805 6.689 1.805 9.712 0 1.918-.539 3.03-2.645 5.458-3.375 3.889-6.704 9.03-9.06 13.99-1.626 3.425-2.22 4.059-4.855 5.193-3.744 1.61-6.628 1.637-9.174.084zm5.615-2.451c2.569-2.256.393-7.114-3.186-7.114-2.738 0-4.577 1.63-4.577 4.056 0 4.136 4.512 5.913 7.763 3.058zm-23.149-22.439c-6.103-8.15-7.172-21.757-3.078-39.171l.52-2.218.751 2.851c1.363 5.18 3.986 11.41 6.093 14.473l2.076 3.018-1.785 1.024c-.982.564-2.425 2.26-3.206 3.77-1.735 3.351-1.87 9.28-.327 14.418.567 1.889.918 3.547.78 3.685-.138.138-.959-.695-1.824-1.85z" fill="#00e696" opacity=".629"/><path d="M488.03 421.833c-1.42-6.623-.548-11.582 2.502-14.226 1.304-1.13 1.418-1.145 1.049-.135-1.593 4.364-2.487 8.887-2.548 12.895-.039 2.566-.126 4.666-.194 4.666s-.432-1.44-.81-3.2z" fill="#00e696" opacity=".629"/><path d="M497.292 433.823c-5.602-5.885-7.416-9.296-7.406-13.929.009-3.959 1.16-8.704 2.96-12.212l1.264-2.459 1.39 1.952c2.028 2.848 4.32 8.122 5.419 12.472.832 3.294 1.424 4.213 4.43 6.88l3.47 3.079-3.208 4.209c-1.765 2.314-3.332 4.341-3.483 4.504-.15.163-2.326-1.86-4.836-4.496zm-1.1-15.719c1.489-2.78.582-6.378-1.606-6.378-2.409 0-3.416 2.75-2.189 5.978.741 1.949 2.848 2.17 3.796.4zm41.001 182.764c-7.61-2.899-13.994-5.429-14.187-5.622-.327-.327 2.883-59.444 3.31-60.953.13-.462 2.731-.223 8.017.736 19.319 3.507 37.738 3.622 52.973.33 3.492-.754 5.222-.9 5.21-.44-.077 2.932-6.166 59.364-6.434 59.632-.722.722-32.58 11.705-33.786 11.648-.697-.033-7.494-2.432-15.103-5.33z" fill="#00e696" opacity=".629"/><path d="M557.682 536.758c-10.017-.42-29.768-3.14-30.88-4.252-.158-.158.07-3.411.506-7.23l.793-6.943 2.275 1.008c3.028 1.342 22.428 1.78 34.593.782 9.524-.782 24.204-2.39 27.154-2.977l1.807-.359-.405 6.243c-.7 10.799-.383 10.123-5.288 11.23-8.063 1.818-21.193 2.891-30.555 2.498zm71.636 58.132c-.663-.664-1.407-2.582-1.652-4.263-.32-2.197-1.291-4.226-3.456-7.22-6.419-8.88-10.998-18.545-12.187-25.721-.771-4.652.105-11.476 2.032-15.833 1.079-2.438 1.096-2.765.19-3.515-1.773-1.467-3.306-5.778-3.32-9.339-.021-5.173 2.305-12.768 6.357-20.757 8.775-17.301 21.435-32.517 30.382-36.515 1.569-.701 2.518-1.387 2.11-1.525-2.836-.956-13.854 8.232-20.59 17.17l-3.81 5.057.447-3.123c2.15-15.025 10.784-36.406 21.187-52.465 4.426-6.832 5.693-8.138 9.536-9.83 2.692-1.185 13.197-3.631 13.54-3.153.087.124 1.09 2.506 2.23 5.294 1.138 2.788 3.145 6.801 4.459 8.918 2.688 4.33 6.204 12.625 10.84 25.57l3.141 8.772-.019 11.004c-.018 10.68-.083 11.219-2.196 18.26-1.197 3.992-2.07 7.364-1.939 7.495.131.131 2.189.741 4.573 1.356 5.143 1.326 8.185 2.804 9.033 4.388.34.635.46 2.7.269 4.588-.224 2.205.016 4.793.673 7.235.584 2.176 1.324 9.089 1.73 16.159l.709 12.357 3.412 9.505c4.839 13.482 5.575 19.15 3.325 25.606l-.679 1.946-2.633-2.145c-4.053-3.3-8.976-5.983-14.28-7.78-5.972-2.023-17.1-2.696-24.631-1.489-9.225 1.478-21.462 6.07-30.605 11.482-6.484 3.84-6.763 3.925-8.178 2.51z" fill="#00e696" opacity=".629"/><path d="M701.929 638.597c.49-5.272.375-5.456-5.578-8.993-3.924-2.331-4.597-2.532-7.2-2.141-2.765.415-2.991.322-6.178-2.544-7.415-6.667-16.783-12.266-25.487-15.232-4.3-1.465-6.176-1.736-12.356-1.783-4.008-.03-8.214.152-9.347.404l-2.06.46V595.76l3.327-2.008c14.2-8.569 31.185-13.464 43.838-12.633 9.264.609 16.694 3.327 24.192 8.851l3.87 2.852.503 12.266c.277 6.746.566 15.26.642 18.92.076 3.66.345 7.794.598 9.188.382 2.107.216 2.844-.982 4.364-1.376 1.746-6.598 5.458-7.679 5.458-.283 0-.329-1.99-.103-4.421zm-560.922-45.77c-5.76-1.384-10.498-2.542-10.53-2.573-.121-.123-.048-2.352.09-2.727.126-.343 1.104-1.071 7.882-5.865 5.8-4.104 7.76-5.436 7.83-5.321.277.46 1.008 1.234 1.448 1.534.278.189.817.43 1.199.534l.694.19-1.983 1.474c-1.09.81-2.378 1.824-2.863 2.252-1.68 1.484-2.957 3.362-3.256 4.791-.081.391-.205.817-.274.946-.307.572-.007 2.353.547 3.253.777 1.26 3.291.784 8.12-1.54 2.796-1.344 4.01-2.064 5.477-3.242 4.789-3.85 11.148-8.26 13.678-9.484 2.883-1.397 4.906-1.877 9.187-2.18 1.904-.135 2.685-.255 3.634-.558 1.82-.582 6.034-.332 14.177.84 1.91.274 3.825.565 4.257.646l.784.147-1.232.084c-4.426.299-10.18 1.163-14.731 2.212-6.663 1.535-12.328 3.543-18.035 6.39-5.42 2.705-10.13 5.93-13.668 9.357-1.057 1.024-1.495 1.378-1.693 1.369-.146-.007-4.979-1.145-10.739-2.529z" fill="#00e696" opacity=".629"/><path d="M155.188 603.76c-1.16-.083-1.473-.142-1.592-.299-.762-1.003-1.276-3.623-1.276-6.502v-1.33l1.26-1.228c8.228-8.015 21.635-14.178 36.49-16.774 4.259-.745 12.292-1.602 12.554-1.34.111.112 4.142 9.846 4.217 10.185.048.216-.088.268-1.834.7-2.47.61-3.974.84-4.936.755-1.873-.166-3.528-.189-4.68-.064-3.59.39-7.728 1.397-10.361 2.522-.979.419-4.928 2.671-6.487 3.7-1.955 1.29-3.033 2.37-3.036 3.04 0 .166-.571.404-3.035 1.268-2.788.978-3.403 1.232-2.983 1.232.117 0 .215.475.395 1.927.132 1.06.225 1.941.208 1.959-.245.244-12.196.444-14.904.25z" fill="#00e696" opacity=".629"/><path d="M151.498 603.37c-2.086-.324-5.527-1.27-9.39-2.58-2.24-.76-5.919-2.14-5.919-2.22 0-.018.656-.596 1.457-1.284.8-.689 1.456-1.29 1.456-1.336 0-.168-1.016-1.86-1.473-2.452a8.09 8.09 0 00-.92-.995c-.246-.21-.4-.383-.343-.383.102 0 14.256 3.37 15.063 3.586l.398.107.133 2.102c.147 2.304.448 4.014.87 4.944.151.331.274.621.274.644 0 .075-.585.026-1.606-.133zm-19.946-10.282c-.473-.8-1.031-2.17-.927-2.274.04-.04.91.128 1.933.372l1.86.445-.538.277c-.324.166-.814.592-1.23 1.07l-.693.793zm285.378 39.069c-13.274-.722-23.42-2.53-27.453-4.893-2.172-1.273-2.172-2.226 0-3.499 6.977-4.089 31.8-6.214 53.246-4.56 14.3 1.104 24.238 3.691 24.238 6.31 0 1.86-5.739 3.979-14.17 5.23-8.95 1.33-25.432 1.978-35.86 1.412z" fill="#00e696" opacity=".629"/><path d="M422.54 737.237c-9.57-1.025-30.574-5.328-33.65-6.894-3.964-2.017-10.012-10.956-12.369-18.28-3.626-11.27-2.464-28.936 4.62-70.178l2.357-13.73 2.95 1.494c16.453 8.338 70.011 7.9 82.648-.676 1.312-.89 2.457-1.533 2.544-1.429.28.336 1.72 14.534 1.494 14.738-.12.109-2.07-.07-4.336-.396-9.719-1.401-18.377 1.791-18.377 6.775 0 2.097 1.134 6.005 1.742 6.005.192 0 1.932-.775 3.867-1.721 4.47-2.187 10.371-2.698 13.352-1.156 2.618 1.353 3.308 3.051 6.814 16.786 3.526 13.814 4.266 22.924 2.314 28.492-.662 1.887-1.658 3.718-2.214 4.069-1.544.974-4.453-.52-7.972-4.095l-3.074-3.123-3.313 1.07c-4.597 1.485-6.446 3.337-6.446 6.454 0 1.502.489 3.101 1.24 4.057 1.607 2.043 8.922 5.827 13.18 6.818 2.674.622 3.406 1.077 3.714 2.303 1.031 4.11-7.902 15.101-15.613 19.211-5.648 3.01-10.704 3.839-22.8 3.734-5.75-.05-11.453-.197-12.673-.328z" fill="#2b4366" opacity=".629"/><path d="M471.076 711.666c-3.629-.614-10.214-3.71-12.602-5.923-3.55-3.29-2.618-7.064 2.294-9.294 3.686-1.674 4.558-1.542 6.481.98 3.848 5.045 9.026 6.192 11.186 2.478 3.05-5.242 2.782-14.769-.83-29.559-4.177-17.106-4.99-18.783-9.743-20.114-3.37-.944-7.074-.42-11.69 1.652-3.818 1.714-4.15 1.561-4.882-2.243-.364-1.891-.164-2.398 1.55-3.93 2.849-2.546 6.367-3.29 13.803-2.919 6.863.342 7.977.716 12.132 4.074 3.734 3.018 5.677 6.657 8.463 15.848 3.432 11.323 4.003 15.705 3.522 27.017-.542 12.734-.885 14.012-4.716 17.557-4.168 3.858-9.254 5.344-14.968 4.376zm-55.103-76.864c-18.07-1.146-31.546-4.85-32.933-9.053-1.13-3.425 6.547-6.965 19.439-8.964 8.705-1.35 15.796-1.766 27.608-1.618 13.863.172 24.319 1.425 32.456 3.888 7.205 2.181 10.233 4.873 8.444 7.507-2.667 3.925-15.175 7.073-32.796 8.253-3.908.262-18.014.254-22.218-.013zm19.491-2.101c12.703-.309 24.518-2.112 29.502-4.503 1.824-.875 2.536-1.626 2.536-2.674 0-.98-.617-1.694-2.17-2.515-12.121-6.407-62.482-6.479-75.53-.108-1.384.675-2.506 1.846-2.506 2.613 0 3.655 14.275 6.744 33.606 7.27 3.265.09 6.844.132 7.953.095 1.11-.036 4.083-.117 6.61-.178zM57.563 669.507c-29.387-14.94-53.356-27.238-53.263-27.33.188-.185 70.553-10.068 71.66-10.065.586.003.81 1.702 1.44 10.873.411 5.979.876 10.998 1.033 11.155.157.156 7.863 3.14 17.123 6.63l16.837 6.345 8.099-1.35c4.454-.743 8.183-1.44 8.285-1.551.102-.11-.43-8.069-1.183-17.685-.753-9.616-1.318-17.536-1.255-17.6.063-.065 5.58-1.08 12.258-2.256l12.144-2.137 60.244 23.41c33.134 12.875 60.298 23.465 60.364 23.532.066.067-26.358 4.256-58.72 9.31a337575.63 337575.63 0 00-80.237 12.534l-21.396 3.348zm53.506 29.508c.01-1.585.045-1.713.515-1.817 1.929-.428 161.03-25.137 161.194-25.035.114.072.203.908.197 1.86l-.01 1.728-80.224 12.375c-44.124 6.806-80.553 12.424-80.953 12.484l-.73.11zM56.5 673.616L2.726 646.813l.008-2.184c.005-1.202.073-2.184.151-2.184.079 0 24.352 12.317 53.941 27.371l53.798 27.37-.005 1.625c-.003.893-.081 1.62-.174 1.616-.092-.004-24.367-12.069-53.943-26.81z" fill="#2b4366" opacity=".629"/><path d="M95.615 660.1l-16.62-6.284c-.105-.04-3.679-46.87-7.942-104.066a197544.11 197544.11 0 00-7.888-105.62l-.136-1.625 16.822.1 16.822.098-.004.661c-.002.364 3.484 50.567 7.747 111.563 4.263 60.997 7.723 111.011 7.69 111.144-.034.137-7.222-2.466-16.49-5.97zm16.993 5.756c.002-.295-3.483-50.44-7.744-111.432-4.262-60.993-7.747-111.08-7.746-111.307.003-.39.363-.409 7.05-.37l7.047.042.113.729c.062.4 1.21 15.084 2.55 32.629 2.1 27.481 2.392 31.93 2.112 32.11-.28.182-.274.252.042.497.315.246 1.196 11.04 6.329 77.587 3.28 42.516 5.882 77.369 5.784 77.451-.15.126-14.87 2.62-15.372 2.605-.092-.002-.166-.246-.165-.541zM63.06 441.677c.001-.26-1.68-22.999-3.735-50.531-2.056-27.533-3.737-50.317-3.735-50.632.003-.454 3.467-.552 16.779-.473l16.775.099.241 1.906c.318 2.507 6.853 96.954 6.84 98.843l-.011 1.456-16.579-.098c-11.321-.066-16.577-.247-16.576-.57zm11.84-34.244c6.788-5.643 8.412-28.193 2.832-39.322-1.25-2.493-4.92-6.279-7.017-7.24-1.773-.811-1.777-.811-2.684.253-1.426 1.674-3.15 5.493-4.175 9.248-.688 2.518-1.01 5.37-1.203 10.611-.316 8.648.522 13.844 3.118 19.324 1.695 3.578 5.667 8.286 6.996 8.293.399.003 1.359-.523 2.134-1.167zm22.215 34.917c.005-.123-1.589-23.094-3.54-51.046-1.952-27.953-3.382-50.977-3.177-51.165.204-.189 3.132-.469 6.505-.623l6.135-.28.235 1.503c.382 2.446 7.85 101.275 7.665 101.457-.26.257-13.832.408-13.823.154z" fill="#2b4366" opacity=".629"/><path d="M70.243 405.436c-4.961-5.263-7.106-12.28-6.993-22.88.095-8.993 1.941-16.645 4.898-20.302l1.035-1.28 1.827.945c5.495 2.844 8.868 10.701 9.288 21.633.433 11.285-2.098 20.557-6.498 23.804-1.014.749-1.07.72-3.557-1.92zm36.655-26.945c.002-.21-.389-5.492-.868-11.736-.48-6.244-.803-11.413-.719-11.488.085-.074 5.362-.197 11.727-.274l11.573-.138-.327 9.224c-.18 5.073-.44 10.26-.576 11.526l-.249 2.302-6.36.244c-3.498.135-8.126.352-10.283.484s-3.92.067-3.918-.144zm-1.798-24.665c-.753-.763.069-1.633 5.092-5.392l5.384-4.028 11.103.689c6.107.378 12.011.702 13.12.719l2.016.03-6.522 4.202-6.522 4.201-11.687-.06c-6.428-.034-11.82-.196-11.984-.361zm24.624-9.219c-5.666-.35-11.078-.707-12.026-.792l-1.724-.156 1.926-2.842c4.151-6.126 9.194-10.422 12.904-10.993 4.42-.68 8.357 3.955 10.833 12.754l.79 2.805-1.2-.07c-.66-.039-5.836-.357-11.503-.706zm3.929 37.769l-5.235-4.141.33-10.305c.182-5.667.47-11.001.641-11.854.281-1.405.893-1.921 6.512-5.491 3.411-2.168 6.282-3.86 6.379-3.762.402.407-2.513 39.766-2.942 39.731-.248-.02-2.806-1.9-5.685-4.178zm-22.429 2.181c-2.559-1.798-4.001-3.122-4.176-3.835-.146-.599-.191-1.156-.1-1.238.092-.083 4.833-.297 10.537-.477l10.369-.328 5.145 4.063c2.83 2.235 5.294 4.216 5.477 4.401.182.186-4.996.298-11.506.249l-11.836-.09zm15.613 18.134c-2.351-1.51-6.095-6.067-8.753-10.653-1.011-1.745-1.838-3.306-1.837-3.469 0-.162 5.244-.321 11.652-.353 6.408-.032 11.65.11 11.649.315-.01 1.31-2.128 8.137-3.24 10.44-2.478 5.13-5.455 6.3-9.47 3.72z" fill="#2b4366" opacity=".629"/><path d="M130.554 419.063c-11.122-1.566-20.34-2.968-20.485-3.115-.21-.213-2.765-30.446-2.753-32.584.001-.315 1.76.625 3.908 2.088 2.888 1.967 4.115 3.108 4.712 4.381 2.571 5.48 8.337 12.561 11.61 14.257 5.026 2.604 9.156-1.404 11.748-11.398.885-3.412 1.285-7.477 2.44-24.797.76-11.394 1.514-20.715 1.674-20.714.16 0 1.894 1.69 3.851 3.753l3.56 3.751.134 33.494c.073 18.422.064 33.547-.021 33.613-.086.065-9.255-1.163-20.378-2.73z" fill="#2b4366" opacity=".629"/><path d="M281.305 474.942c-53.482-3.824-103.806-10.386-154.47-20.143-7.386-1.422-13.621-2.77-13.857-2.997-.358-.343-3.29-34.482-2.989-34.796.054-.057 9.397 1.198 20.762 2.788 11.365 1.59 20.76 2.796 20.878 2.68.118-.117.12-15.496.007-34.176l-.207-33.965-4.175-4.585c-3.478-3.82-4.266-4.96-4.714-6.829-1.427-5.947-4.668-11.514-7.599-13.051-1.883-.988-5.14-.857-7.516.303-2.73 1.334-7.115 5.733-9.968 10-1.914 2.865-3.222 4.167-7.372 7.336-2.775 2.119-5.089 3.81-5.142 3.756-.053-.054-.32-2.962-.592-6.463l-.495-6.366-7.024-.041-7.023-.042-.654-5.94c-.36-3.268-.528-6.068-.375-6.223.29-.292 21.618-1.252 44.425-1.999 17.725-.58 77.092-.228 93.199.553 30.29 1.469 63.46 4.077 62.914 4.947-.112.18-.762.464-1.443.63-2.86.697-36.914 14.627-37.73 15.434-.565.557-.814 27.994-.472 52.016.583 41.029 1.358 61.965 2.365 63.873 1.084 2.055 10.466 5.866 26.146 10.62 10.114 3.067 10.258 3.19 3.121 2.68z" fill="#2b4366" opacity=".629"/><path d="M282.662 472.835c-16.67-4.961-27.458-9-29.279-10.961-.785-.846-1.077-1.885-1.35-4.805-.52-5.554-1.098-25.237-1.452-49.437-.174-11.83-.402-26.173-.508-31.872l-.193-10.362 1.924-.465c7.811-1.889 39.498-8.854 39.637-8.713.234.236.397 32.655.406 80.22.005 31.302-.105 38.864-.564 38.832-.313-.022-4.193-1.118-8.621-2.437zm-32.569-111.471c.167-1.662.323-5.744.346-9.071l.044-6.05 11.787-4.957c19.407-8.163 29.715-12.011 30.376-11.342.721.73-.181 23.526-.981 24.805-.284.452-39.803 9.65-41.423 9.64-.289-.002-.343-1.098-.15-3.025z" fill="#2b4366" opacity=".629"/><path d="M262.039 552.13c-16.244-3.043-29.584-5.584-29.646-5.646-.062-.063-.258-1.495-.437-3.183l-.325-3.069-23.486-6.61c-12.917-3.635-23.65-6.765-23.851-6.955-.201-.19.465-2.937 1.482-6.105 4.663-14.54 4.751-15.05 5.03-29.116l.249-12.62 2.16-.284c2.473-.325 2.393-.125 3.02-7.544l.337-3.973 2.284.284c1.257.156 6.416.803 11.464 1.439 24.67 3.103 52.132 5.695 76.762 7.245l5.334.335.043-60.885c.03-41.694.204-62.558.55-66.191.74-7.766.89-18.973.26-19.609-1.426-1.443-39.483-4.478-72.007-5.742-34.837-1.354-101.877-.68-129.623 1.304-3.625.259-3.698.287-3.705 1.446-.007 1.249.68 7.772 1.08 10.24l.236 1.457-8.198-.014c-4.509-.008-10.618.126-13.576.298-2.959.172-5.454.252-5.544.178-.163-.132 2.341-108.273 2.51-108.43.282-.264 234.518-37.834 234.704-37.646.125.126-1.168 80.647-2.872 178.935-1.705 98.288-3.107 180.37-3.117 182.402-.015 3.242-.114 3.69-.801 3.644-.432-.029-14.074-2.542-30.317-5.585zm-84.724-322.142c55.075-7.312 100.75-13.395 101.5-13.519.915-.15 1.838-.835 2.81-2.083.794-1.023 1.377-1.928 1.294-2.012-.14-.143-202.509 27.56-204.64 28.014-.54.115-1.414.81-1.945 1.546-.955 1.325-.955 1.338-.059 1.343.498.003 45.966-5.977 101.04-13.289zm116.713 312.633c.148-8.3 1.566-90.344 3.15-182.32 1.586-91.974 3.017-167.359 3.18-167.52.163-.162 3.303.084 6.977.546l6.68.84-.271 10.58c-.3 11.69-6.623 337.535-6.655 342.94l-.02 3.383-6.655 3.322-6.656 3.322z" fill="#2b4366" opacity=".629"/><path d="M138.38 514.316c-11.676-3.218-21.285-6.031-21.353-6.252-.121-.395-4.304-53.778-4.298-54.856.002-.354.37-.462 1.01-.298 4.891 1.258 44.19 8.404 55.28 10.052l3.693.549-.052 8.861c-.06 10.057-.514 8.982 4.087 9.674 2.034.306 2.126.382 2.118 1.765-.023 4.017-3.374 12.847-6.526 17.204-.812 1.12-3.706 5.904-6.432 10.63-3.078 5.337-5.21 8.578-5.628 8.557-.37-.019-10.224-2.667-21.9-5.886zm-75.048-19.453c-1.276-.547-2.405-1.09-2.507-1.208-.103-.118-.194-16.95-.203-37.405l-.016-37.191 2.845 37.208c3.06 40.028 3.039 39.692 2.537 39.631-.184-.022-1.38-.488-2.656-1.035z" fill="#2b4366" opacity=".629"/><path d="M171.333 523.826a2183.825 2183.825 0 01-6.115-1.904c-.117-.043 5.687-10.487 11.504-20.7 1.263-2.216 2.474-4.378 2.692-4.804 1.102-2.158 2.534-5.932 3.152-8.312.693-2.666.684-2.514.748-13.243l.058-9.829.266.003c.147 0 .424.034.616.073l.35.072-.028 4.62-.027 4.62 1.38 1.526 1.38 1.526.075 1.438c.097 1.826-.15 19.47-.29 20.816-.112 1.065-.454 2.23-1.625 5.535-2.117 5.976-7.784 20.456-8 20.442-.061-.004-2.823-.85-6.136-1.878z" fill="#2b4366" opacity=".629"/><path d="M344.666 666.942c-7.01-2.337-48.766-16.085-92.79-30.55-44.025-14.466-80.134-26.391-80.243-26.501-.286-.29-1.354-9.283-1.129-9.506.105-.103 43.134 14.026 95.62 31.398l95.432 31.585-1.146 3.966c-.98 3.393-1.28 3.958-2.072 3.912-.51-.03-6.662-1.966-13.672-4.304zM266.59 631.19l-95.353-31.573 1.828-.775c1.67-.708 2-.715 3.81-.09 1.09.378 2.496.69 3.127.693.63.004 41.83 13.485 91.553 29.959l90.407 29.952 7.174-.708c3.945-.39 7.425-.702 7.733-.696.613.013.755 2.575.192 3.448-.27.419-11.762 1.509-14.595 1.385-.288-.013-43.433-14.23-95.877-31.596z" fill-opacity=".221" opacity=".629"/><path d="M273.114 629.193c-48.868-16.218-88.773-29.565-88.677-29.66.097-.095 14.05-.865 31.01-1.71l30.833-1.537 59.253 20.015c32.59 11.008 59.807 20.23 60.483 20.491.974.378 1.228.765 1.221 1.859-.017 2.914.973 5.465 2.916 7.518 1.891 1.997 1.942 2.018 4.394 1.829 1.537-.119 2.827-.5 3.39-1.006.502-.447 1.038-.687 1.192-.53.345.349-1.232 10.607-1.631 10.61-.158 0-2.91.284-6.116.628-3.206.344-6.636.705-7.622.802-1.457.144-18.462-5.354-90.646-29.31zm36.342-12.331l-57.57-19.458 5.036-.236c2.77-.13 7.156-.57 9.746-.978l4.71-.742 50.987 16.02c28.043 8.81 51.726 16.272 52.628 16.58l1.641.561-4.473 3.783c-2.461 2.08-4.623 3.815-4.804 3.855-.182.04-26.237-8.683-57.9-19.385zm50.454 54.605c.02-.213.59-2.098 1.268-4.19l1.232-3.8 7.065-.352c3.886-.193 7.14-.275 7.232-.181.092.093-.063 1.83-.343 3.858-.59 4.263.019 3.914-7.526 4.322-2.342.127-5.317.343-6.612.48-1.295.138-2.337.076-2.317-.137zm-24.581 11.863l-4.975-1.671 4.227-7.593c2.325-4.176 4.31-7.793 4.41-8.04.101-.245.35-.288.554-.095.204.192-.189 1.474-.873 2.848-.684 1.374-1.184 2.547-1.11 2.606.32.259 5.95 2.062 6.448 2.065.304.002 1.2-1.115 1.993-2.482.993-1.711 1.646-2.405 2.1-2.228.361.141.756.257.876.258.12 0-1.667 3.62-3.974 8.042-2.306 4.423-4.307 8.023-4.447 8.002-.14-.022-2.493-.792-5.23-1.711zm-149.454-53.626c-2.304-.84-4.265-1.604-4.357-1.698-.356-.36 8.092-11.029 8.73-11.025.587.003.58.148-.056 1.12-2.405 3.674-2.38 3.235-.22 3.81 1.064.282 2.589.69 3.388.905 1.366.368 1.535.278 2.848-1.528 1.023-1.407 1.624-1.858 2.252-1.69.47.126.855.33.855.452-.002.305-7.967 10.14-8.68 10.717-.41.333-1.753.033-4.76-1.063zm-62.678-39.244c-.067-.677-.168-1.762-.225-2.41l-.103-1.176 14.337-9.773 14.338-9.774 3.845-3.786c6.424-6.326 11.013-12.505 14.993-20.187 2.866-5.532 11.684-27.155 15.769-38.667l1.388-3.912.152-11.708.153-11.708-1.463-1.622-1.463-1.621.027-4.452.026-4.45.615.126c.339.07 2.63.398 5.093.729 2.462.33 4.684.645 4.936.7l.458.1-.53 4.876c-.292 2.683-.538 5.088-.547 5.347-.014.4-.267.523-1.705.83-.929.198-1.942.359-2.253.357l-.563-.003-.037 11.258-.037 11.257-.714 3.245c-.99 4.492-2.502 10.084-4.129 15.272-5.927 18.892-11.87 30.59-21.013 41.352-4.14 4.875-4.588 5.23-23.43 18.57-9.683 6.856-17.648 12.464-17.701 12.464-.053 0-.15-.555-.217-1.233z" fill-opacity=".221" opacity=".629"/><path d="M121.976 574.503c-.06-.1-.138-1.13-.176-2.29l-.068-2.11 5.396-3.174c2.968-1.745 5.56-3.176 5.76-3.178 2.224-.026 15.478-20.47 33.789-52.121 2.344-4.053 5.004-8.447 5.91-9.766 2.545-3.704 4.647-8.119 5.825-12.233.492-1.718 1.067-5.02 1.074-6.162l.006-.957 1.586.418c.872.23 1.647.48 1.72.555.306.308-.513 4.237-1.47 7.06-1.263 3.72-2.125 5.445-7.075 14.149-7.79 13.698-16.197 29.097-20.275 37.133-3.856 7.598-8.414 14.177-13.842 19.978-3.695 3.95-4.82 4.823-11.134 8.648a974.48 974.48 0 00-6.434 3.917c-.267.172-.533.232-.592.133zm53.658-93.237l-2.405-.478.05-8.588.051-8.588.504.02c.277.01 1.662.197 3.078.415l2.574.396-.094 6.603c-.052 3.632-.16 7.536-.24 8.675-.17 2.42.159 2.275-3.518 1.545zm5.128 1.096c-.595-.168-1.104-.338-1.13-.38-.028-.04.07-3.984.217-8.762l.267-8.689 1.028.145c2.012.285 1.818-.732 1.76 9.201l-.053 8.835-.504-.023c-.277-.013-.99-.16-1.585-.327zm12.315 146.466c0-.016 6.123-7.509 7.127-8.722l.077-.093.586.19.586.189-.515.518c-.283.285-2.16 2.188-4.171 4.23a574.749 574.749 0 01-3.673 3.71c-.01 0-.017-.01-.017-.022zm149.75 53.568c0-.069 6.907-13.254 6.942-13.254.022 0 .348.1.725.223l.685.224-.212.324-4.143 6.38a1932.418 1932.418 0 01-3.964 6.094c-.018.02-.033.025-.033.01zM76.99 241.93c.378-.543.717-.912.867-.943.574-.12 204.047-28.095 204.083-28.058.022.022-.469.673-1.09 1.446-.942 1.173-1.19 1.417-1.494 1.468-.377.063-202.84 26.98-202.935 26.98-.03 0 .226-.402.568-.893zm-4.437 165.667c-.341-.169-2.3-2.161-3.218-3.273-3.62-4.385-5.355-9.385-5.942-17.118-.119-1.572-.088-6.927.05-8.594.423-5.109 1.245-9.133 2.514-12.302.742-1.854 1.397-2.986 2.578-4.461l.631-.789c.048-.06 2.102 1.03 2.779 1.472 2.79 1.828 5.062 5.212 6.47 9.633 1.298 4.081 1.9 8.64 1.868 14.15-.038 6.471-1.005 11.942-2.827 15.993-1.017 2.262-2.499 4.229-3.876 5.145-.483.32-.629.341-1.027.144z" fill-opacity=".221" opacity=".629"/><path d="M337.315 613.525c-3.734-.246-7.603-.8-11.001-1.578-1.001-.23-13.81-4.183-28.467-8.786l-26.646-8.368-1.109.226c-4.74.968-10.253 1.592-14.769 1.672-3.922.07-5.85-.09-7.816-.648l-1.096-.31-22.94 1.132a10699.91 10699.91 0 00-30.231 1.525c-8.16.439-14.353.49-15.723.13-1.03-.272-1.621-.724-1.618-1.238.005-.879 2.242-2.607 6.586-5.087 2.219-1.266 3.258-1.724 5.469-2.409 3.827-1.185 7.322-1.668 11.445-1.583l2.93.061 2.401-.598c1.32-.33 2.479-.646 2.575-.705.113-.07-.603-1.993-2.065-5.542-1.23-2.99-2.271-5.47-2.312-5.51-.122-.124-1.553-.374-5.576-.978-8.414-1.262-13.522-1.576-15.692-.965-.612.172-2.286.41-3.729.529-6.764.56-8.847 1.463-17.15 7.438a179.504 179.504 0 00-5.072 3.804c-1.863 1.466-2.75 2.035-4.771 3.058-3.974 2.012-6.85 3.003-8.046 2.771-.502-.097-.618-.214-.963-.98-.311-.691-.375-1.04-.31-1.695.197-1.993.637-3.063 1.911-4.652 1.032-1.286 2.038-2.132 6.337-5.33 4.136-3.076 11.128-8.492 12.6-9.76 2.512-2.164 6.176-4.16 9.73-5.3 3.058-.981 11.247-2.493 19.168-3.539 1.46-.193 2.022-.326 2.023-.482 0-.158-.157-.194-.594-.134-10.803 1.475-17.492 2.681-20.83 3.755-3.392 1.092-7.392 3.262-9.612 5.215-.931.819-3.345 2.712-8.712 6.833-3.455 2.653-4.002 3.02-4.374 2.932-.763-.18-1.975-.959-2.505-1.61l-.52-.636 6.587-4.668c6.416-4.546 6.648-4.73 8.908-7.023 3.046-3.092 4.306-3.895 8.924-5.691 3.752-1.46 8.866-3.018 16.744-5.104 2.922-.774 3.195-.818 4.916-.798 2.064.024 3.614.239 6.015.834 3.416.847 6.788 2.228 7.941 3.253 1.263 1.122 6.124 2.674 22.02 7.03 7.977 2.187 10.619 2.94 12.875 3.668 2.9.936 7.333 1.674 16.553 2.753 10.674 1.25 15.399 1.585 21.061 1.495 28.514-.453 41.04-.968 44.528-1.832 2.683-.664 12.701-4.47 27.53-10.457l4.826-1.949 1.172 1.17c1.45 1.447 7.657 8.063 10.31 10.989 10.423 11.497 18.09 21.12 21.988 27.592 1.387 2.305 3.06 6.091 2.798 6.334-.14.13-5.405 1.966-8.03 2.8-16.68 5.298-33.5 7.806-46.592 6.946zm267.862 62.513c-19.586-1.018-42.036-4.463-62.004-9.516-4.384-1.11-7.575-1.617-11.64-1.852-9.999-.578-20.078-1.725-23.621-2.69-8.408-2.287-11.638-2.43-16.198-.718-1.798.675-3.414 1.047-3.608.83-.193-.214-.79-1.9-1.329-3.745-.538-1.846-1.451-4.304-2.03-5.463-1.425-2.852-5.595-7.323-8.235-8.827-2.472-1.41-2.165-.342-3.516-12.198-.557-4.889-1.147-8.202-1.579-8.87-.937-1.45-6.233-3.931-10.853-5.085-10.105-2.524-21.188-3.52-36.466-3.276-11.981.19-19.448.91-27.352 2.634-2.697.588-4.967 1.006-5.043.928-.14-.14 8.639-6.544 12.125-8.844 1.014-.67 2.563-1.328 3.443-1.464 3.67-.567 9.666-2.683 16.419-5.795 10.563-4.867 10.68-4.886 13.891-2.303 1.64 1.319 3.811 1.847 3.816.929.004-.573 2.913-.562 4.895.019.839.246 3.94 1.812 6.892 3.48 2.952 1.668 12.316 6.547 20.81 10.842 25.658 12.974 27.038 13.277 55.968 12.28 7.271-.251 24.759-.706 38.861-1.01l25.64-.554 6.869-3.26c8.048-3.821 13.978-6.229 25.157-10.212 11.854-4.225 16.276-4.848 24.224-3.414 10.114 1.826 21.636 7.903 31.678 16.71l3.86 3.384 2.517-.641 2.517-.642 4.68 2.772c2.574 1.525 4.83 3.007 5.014 3.294.534.834.202 6.497-.596 10.15-1.666 7.63-6.283 18.48-9.85 23.147-2.764 3.616-4.646 4.316-11.394 4.242-3.928-.043-6.44-.327-9.327-1.055-2.173-.548-5.094-1-6.491-1.003-2.763-.007-9.418.832-15.099 1.905-6.379 1.205-33.928 5.418-34.918 5.34-.528-.042-4.185-.244-8.127-.448zm-234.11-30.041c-1.687-1.499-2.713-3.699-3.149-6.75l-.285-2.002 3.972-3.372a4302.94 4302.94 0 007.234-6.155c3.254-2.777 3.263-2.782 3.676-1.676.3.804-.022 3.487-1.174 9.758-.874 4.757-1.59 8.706-1.59 8.776 0 .07-.841.73-1.868 1.464-2.538 1.816-4.74 1.802-6.816-.043zm135.112-219.863l-3.468-2.87-.98-3.966c-1.372-5.555-4.323-11.366-7.78-15.317-5.31-6.072-8-12.924-8.421-21.45-.146-2.958-.37-5.782-.497-6.276-.209-.808.267-1.022 4.785-2.143 23.822-5.912 44.919-17.056 53.572-28.298 3.33-4.326 8.036-12.226 10.155-17.045l1.713-3.896.623 1.333c.342.734 1.022 1.441 1.511 1.572.684.183.821.477.593 1.271-.963 3.35-1.668 10.88-1.712 18.276-.054 9.024.279 13.546 1.687 22.96l.92 6.151-17.397 17.466-17.398 17.466 1.29.795c2.623 1.616 2.476 2.141-1.283 4.554-3.923 2.52-9.88 7.393-12.597 10.305l-1.849 1.982z" fill="#ccd6f6" opacity=".629"/><path d="M482.612 374.482c-7.72-1.614-12.41-5.716-13.556-11.854-.281-1.51-.262-3.911.046-5.618l.244-1.354-.725-1.243c-3.247-5.567-8.231-14.634-8.678-15.787-.531-1.372-1.675-7.757-2.515-14.034-.593-4.437-.714-5.791-.683-7.638.093-5.48.094-5.47-.407-8.766-.271-1.787-.528-4.106-.57-5.152-.076-1.837-.056-1.993.599-4.63.938-3.784 1.151-5.026 1.27-7.399.094-1.872-.058-4.228-.342-5.309-.088-.332.054-.251.882.508 1.966 1.8 4.178 2.594 6.289 2.258 2.162-.343 4.517-1.864 6.532-4.216.992-1.158 1.098-1.777.441-2.567-.692-.833-3.534-2.42-5.675-3.171-1.123-.393-1.496-.445-3.325-.459-1.788-.013-2.179.032-2.972.346-1.126.445-2.37 1.398-3.027 2.319l-.496.695-.45-1.071c-.73-1.74-1.483-4.178-1.824-5.906-.359-1.813-.694-5.043-.54-5.196.167-.165 2.993.585 6.025 1.599 6.365 2.128 10.452 4.897 12.068 8.176 1.578 3.201.661 7.162-2.528 10.923-.57.672-.992 1.296-.936 1.387.222.364 2.227-2.07 3.285-3.99l.636-1.154-.1.703c-.159 1.108-1.48 4.819-3.999 11.234-4.623 11.77-5.098 13.243-5.235 16.222-.135 2.913.437 4.4 2.106 5.473 1.979 1.271 5.028 1.406 10.016.442 2.922-.564 4.517-.706 5.897-.523 1.718.229 2.922.732 3.76 1.574l.706.71.83-.88c2.102-2.233 3.115-5.194 2.64-7.72-.279-1.475-1.35-3.617-1.703-3.401-.084.05.17.733.565 1.52.658 1.312.721 1.542.775 2.834.093 2.2-.72 4.354-2.324 6.167l-.739.834-.49-.48c-.628-.614-2.003-1.252-3.195-1.482-1.436-.278-4.246-.098-6.957.445-9.706 1.944-13.17-.886-10.93-8.928.471-1.69 1.986-5.783 4.77-12.884 3.746-9.554 4.37-11.647 4.382-14.707.012-2.74-.493-4.375-1.936-6.276-.986-1.299-3.134-3.043-4.803-3.9a8.934 8.934 0 01-.602-.327c-.027-.023-.35-1.134-.716-2.467-.53-1.927-.733-2.45-.986-2.546-.176-.066-2.5-.685-5.163-1.375-4.29-1.112-4.843-1.291-4.841-1.566.003-.591.84-3.948 1.462-5.861.343-1.057 1.17-3.986 1.838-6.509 1.498-5.66 2.255-8.085 3.412-10.92 3.658-8.965 8.88-14.234 15.918-16.063 1.457-.379 1.61-.389 3.386-.218 7.635.734 17.712 1.091 21.264.754 3.287-.312 3.542-.291 4.96.396 7.049 3.416 21.25 17.2 30.425 29.529 4.33 5.82 7.27 10.814 8.769 14.898.793 2.161 1.014 3.227 1.17 5.636.212 3.285.787 5.114 2.182 6.946 1.271 1.668 3.755 6.322 5.014 9.395 1.185 2.89 1.581 4.504 1.66 6.762.12 3.39.436 2.78 2.266-4.382.533-2.089 1.161-4.684 1.395-5.768.234-1.084.441-1.985.46-2.002.018-.018.853-.109 1.856-.202 1.002-.093 1.998-.213 2.213-.265l.39-.095-.484.617c-.77.98-1.637 2.482-2.294 3.975-.821 1.868-.886 2.092-.608 2.093.126 0 .356-.334.514-.75.743-1.941 2.469-4.927 3.25-5.619.18-.16.594-.38.92-.49.586-.198.607-.19 1.552.554 1.06.835 3.081 2.083 3.375 2.085.104 0 .19.03.189.066 0 .035-.545.833-1.21 1.771-2.376 3.352-4.873 7.876-5.697 10.321-.19.566-.38 1.117-.42 1.226-.04.108.023.198.141.199.124 0 .377-.453.593-1.066.914-2.584 2.714-5.92 5.091-9.436 2.1-3.106 1.795-2.828 2.708-2.464.423.169 2.09.684 3.703 1.145 1.625.465 3.458 1.102 4.11 1.43l1.177.592-.026.87c-.021.68-.271 1.467-1.13 3.559l-1.104 2.686.029 1.902c.02 1.293-.056 2.279-.235 3.082-.325 1.459-1.44 4.68-2.493 7.199l-.792 1.896-4.061 4.73c-2.233 2.6-4.404 4.992-4.822 5.315-.964.744-4.145 2.364-5.278 2.69-1.096.314-2.27.308-2.883-.013-1.4-.734-1.413-3.87-.034-7.79.251-.712.343-1.18.245-1.242-.226-.14-.225-.141-.867 1.68-2.38 6.747-5.866 14.063-8.577 18.001-.508.738-1.121 1.732-1.363 2.21-2.241 4.417-6.914 9.669-12.275 13.795-11.552 8.892-29.013 16.298-49.484 20.989-.407.093-1.06.027-2.296-.232zm13.04-19.638c0-.15-.208-.219-2.135-.712-1.417-.363-4.942-1.05-6.94-1.354-2.477-.375-6.517-.4-7.851-.05-1.16.306-2.077.809-2.08 1.14-.002.296.105.284.61-.071 2.022-1.42 7.846-1.19 15.388.607 2.504.597 3.006.67 3.008.44zm-13.472-10.395c3.616-.336 9.423-1.623 9.426-2.09.003-.285-.016-.282-1.506.172-3.228.985-7.617 1.616-11.094 1.594-4.741-.03-8.405-1.085-11.186-3.22-.698-.535-1.094-.749-1.169-.63-.232.373 2.202 2.037 4.17 2.851 3.018 1.25 7.069 1.72 11.359 1.323zm7.948-6.577c4.94-.56 9.593-1.444 9.595-1.822 0-.174-.107-.207-.424-.129-1.271.311-4.438.896-6.273 1.158-4.393.628-7.224.787-12.007.676-4.737-.11-6.884-.35-10.142-1.133-1.546-.37-4.774-1.451-5.543-1.855-.543-.284-.772-.293-.773-.03 0 .219.24.332 2.484 1.17 2.693 1.006 6.401 1.805 10.09 2.175 2.595.26 9.89.142 12.993-.21zm-8.38-5.688c4.57-.89 8.225-.781 10.991.328.812.325 1.118.324.918-.003-.159-.26-1.823-.841-3.095-1.08-2.4-.45-6.552-.24-9.717.492l-1.355.314-1.11-.385c-2.093-.725-3.574-.961-6.192-.985-3.012-.028-5.753.359-5.36.756.055.056.81-.007 1.679-.14 3.198-.489 6.93-.193 9.614.762.695.248 1.364.42 1.485.383.122-.038 1.085-.237 2.142-.442zm88.868-19.916c3.133-3.048 5.346-8.496 6.483-15.962.395-2.592.415-2.979.15-2.892-.118.038-.28.737-.414 1.793-1.069 8.386-4.096 15.345-7.746 17.805-.393.265-.74.502-.771.525-.03.024-.009.12.049.215.17.278 1.003-.271 2.25-1.484zm-6.705-2.47c.41-.274 1.34-.785 2.066-1.136 1.319-.637 1.32-.637 2.716-.53 1.242.095 1.455.07 1.934-.222 1.396-.851 3.068-4.169 3.682-7.304.375-1.913.314-4.077-.115-4.08-.127 0-.168.501-.138 1.702.036 1.418-.025 1.961-.362 3.239-.717 2.718-2.21 5.41-3.405 6.138-.494.302-.635.321-1.16.16-.33-.1-.82-.184-1.092-.185-.724-.005-2.474.689-3.802 1.506-1.286.79-4.17 2.992-4.171 3.183-.003.374.332.205 1.646-.83.8-.63 1.79-1.368 2.2-1.642zm-64.74-11.414c0-.086-.333-.243-.742-.35-3.72-.973-8.45-6.023-12.597-13.448-.876-1.569-.881-1.587-.697-2.302.791-3.065 4.916-5.065 11.747-5.696 2.11-.196 7.866-.16 10.716.065 4.92.389 13.265 1.53 16.344 2.236.238.054.356.007.357-.142.003-.262-.148-.303-2.451-.679-.958-.156-1.843-.337-1.968-.403-.213-.113 1.736-1.483 4.422-3.11.468-.283.819-.548.779-.589-.04-.04-.773-.256-1.628-.478-2.87-.746-9.085-1.466-16.459-1.907-4.18-.25-16.215-.649-16.324-.542-.066.066-1.843 6.658-1.852 6.87 0 .013-.403.248-.895.522-1.934 1.076-3.244 2.784-3.252 4.241-.005.869.984 2.728 3.307 6.217 3.451 5.181 6.691 8.295 9.74 9.36 1.064.373 1.45.408 1.453.135zm7.47-7.032c2.45-.429 5.413-1.617 8.36-3.352l1.531-.901-.456-.373c-2.835-2.32-6.91-4.33-10.182-5.025-2.176-.461-5.753-.411-7.566.106-2.342.668-5.374 2.325-5.188 2.835.313.853 1.287 2.183 2.51 3.426 1.081 1.101 1.715 1.598 2.68 2.102 2.592 1.354 5.207 1.726 8.31 1.182z" fill="#ccd6f6" opacity=".629"/><path d="M462.052 287.955c-1.393-.37-2.472-1.054-3.799-2.404-1.138-1.159-1.314-1.422-1.696-2.532-.234-.68-.47-1.353-.523-1.494-.063-.17-.034-.217.086-.142.11.069.561-.285 1.13-.887 1.414-1.493 2.961-2.148 5.064-2.144l.998.003-.743 1.03c-1.886 2.609-1.832 4.647.147 5.567 1.662.773 3.584.651 4.472-.283.872-.917 1.314-3.094.867-4.266-.091-.24-.108-.437-.037-.436.071 0 .708.353 1.414.783.707.43 1.41.773 1.56.762.166-.012.397.205.581.548.301.56.301.576-.003 1.186-.168.34-.468.696-.664.791-.197.095-.81.601-1.362 1.125-2.494 2.367-5.243 3.391-7.493 2.793zm41.247 3.291c-2.237-.143-4.151-.805-5.883-2.035-1.364-.968-2.595-2.317-3.482-3.817a10.784 10.784 0 01-.432-.81c-.008-.026.016-.05.171-.168 1.427-1.09 3.348-1.956 5.332-2.402a15.666 15.666 0 012.208-.323 1.57 1.57 0 00.168-.015c.033-.006.033-.004-.015.045a.813.813 0 01-.123.099c-.063.04-.072.05-.06.074.022.041.017.047-.02.023l-.034-.023-.14.206c-.56.824-.985 1.772-1.173 2.62a4.252 4.252 0 00-.117 1.03 3.548 3.548 0 00.689 2.213c.455.614 1.132 1.134 1.739 1.336.296.098.397.114.741.117.347.003.493-.018.776-.11 1.072-.347 2.136-1.418 3.08-3.101.149-.265.361-.692.361-.726 0-.014-.283-.733-.629-1.598l-.641-1.606c-.012-.031-.014-.031-.063-.011a.542.542 0 01-.056.02c-.003 0 .003-.018.01-.042.012-.032.022-.04.042-.033.023.007.025.004.013-.027a1.466 1.466 0 00-.048-.106.668.668 0 01-.035-.078c0-.009.036-.002.433.088 2.847.646 5.78 2.043 8.685 4.14.306.22 1.088.807 1.088.817 0 .012-.664.425-1.139.707-3.197 1.903-6.151 3.028-8.904 3.391-.28.037-.716.08-1.037.1a21.01 21.01 0 01-1.505.005z" fill="#fff" opacity=".629"/><path d="M559.263 374.208c-1.855-9.62-2.314-14.973-2.255-26.275.054-10.427.417-14.622 1.614-18.667.37-1.247.542-1.416 1.831-1.793.783-.229 2.373-.947 3.532-1.595 1.77-.99 2.789-1.964 6.345-6.065 4.525-5.22 5.054-6.111 6.907-11.637.845-2.52 1.09-3.758 1.068-5.38-.024-1.725.18-2.64 1.134-5.061.64-1.626 1.165-3.23 1.167-3.566.003-.572.062-.58.922-.129 2.07 1.086 13.121 3.72 13.604 3.242.299-.295-.317-.48-3.655-1.102-4.774-.889-8.768-2.115-11.021-3.383-1.043-.587-3.66-1.599-5.816-2.249-4.34-1.308-5.168-1.677-7.434-3.308l-1.552-1.117-2.786.383c-3.364.462-8.096.21-10.173-.541-2.05-.741-4.412-2.961-5.244-4.929-.409-.964-.785-2.815-.954-4.688-.32-3.563-.893-5.436-2.9-9.489-6.398-12.923-26.639-35-37.365-40.755-1.005-.54-1.824-.589-9.027-.55-4.357.023-10.059-.132-12.672-.345-7.124-.582-7.943-.551-10.458.388-8.452 3.156-13.716 10.772-17.45 25.249-.54 2.097-1.091 3.922-1.224 4.057-.295.298-2.042-5.342-2.731-8.817-.733-3.698-.688-11.6.085-14.808.78-3.238 1.92-5.939 3.575-8.463 1.986-3.031 2.935-4 9.092-9.277l5.584-4.786 2.755-.195c4.657-.328 9.447-1.549 11.95-3.045.638-.382 2.738-2.264 4.666-4.183 5.174-5.15 11.832-9.172 15.734-9.504.788-.067 6.42.413 12.515 1.067 10.773 1.156 11.28 1.242 18.159 3.064l7.076 1.874-3.048.073c-1.681.04-3.049.21-3.05.378 0 .168.034.308.078.31.043.004 3.468.582 7.61 1.285 8.23 1.396 7.704 1.202 13.502 4.984 1.976 1.288 1.92 1.338-.706.641-1.833-.486-2.583-.438-1.97.128.161.15 4.34 3.257 9.285 6.905s9.054 6.69 9.132 6.76c.078.069-.706.025-1.742-.098l-1.883-.224.785.92c.432.506 1.645 1.852 2.697 2.991 3.686 3.992 7.737 9.606 7.267 10.07-.098.097-.502-.055-.9-.336-.816-.58-1.213-.652-1.215-.22-.003.394 4.131 8.187 5.83 10.99 2.888 4.767 4.385 9.04 4.838 13.808.26 2.738 1.218 7.352 2.282 10.993.166.569.04.716-.759.887-1.617.345-1.725.71-1.235 4.176.331 2.344.356 3.51.102 4.7l-.34 1.582 1.884 2.906c2.003 3.09 2.15 3.522 3.526 10.43 1.432 7.191 1.555 10.62.267 7.458-.215-.528-.516-.96-.668-.961-.154 0-.216 2.9-.14 6.573.076 3.617-.002 7.502-.17 8.633l-.308 2.058-.055-1.585c-.084-2.403-.679-4.123-1.428-4.127-.57-.003-.623.216-.624 2.531 0 1.394.09 3.961.199 5.705.194 3.104.19 3.132-.211 1.371-.562-2.468-1.126-3.756-1.644-3.759-.517-.003-.498-.177-.633 5.858-.387 17.365-.576 19.333-2.179 22.712-.352.744-1.009 2.775-1.46 4.514-.45 1.74-1.394 4.282-2.098 5.65-1.93 3.747-1.778 4.163 1.49 4.086l1.993-.048-.777 1.018c-.427.56-1.677 2.652-2.777 4.65-1.1 1.997-2.355 4.011-2.788 4.475-1.142 1.223-3.525 2.12-6.575 2.474l-2.667.31-2.902-1.623c-1.596-.892-2.988-1.623-3.093-1.624-.106 0-1.722 1.506-3.592 3.349l-3.4 3.349z" fill="#8892b0" opacity=".629" fill-opacity=".196"/><path d="M555.236 297.996c.007-1.297-1.415-5.266-3.136-8.745-.872-1.764-1.532-3.26-1.467-3.324.065-.065.855.168 1.756.516.9.348 2.636.732 3.857.853 1.221.12 2.22.292 2.22.381 0 .089-.616 2.631-1.367 5.65-1.272 5.113-1.875 6.624-1.863 4.67zm-65.721-20.824c.095-.248.443-1.57.772-2.938.355-1.47.791-2.56 1.068-2.664.711-.268 18.994.638 23.902 1.184 5.041.561 8.443 1.138 8.418 1.428-.01.113-1.107.887-2.438 1.72l-2.419 1.516-4.619-.607c-6.253-.82-18.544-.914-21.573-.163-1.134.28-2.337.615-2.673.742-.455.172-.567.117-.438-.218zm-28.065-6.029c-1.391-.59-3.859-1.402-5.485-1.806l-2.956-.733.21-1.264c.116-.695.272-1.325.347-1.4.075-.074 2.3.433 4.944 1.127l4.808 1.261.543 1.984c.298 1.09.446 1.965.33 1.944-.117-.022-1.35-.523-2.741-1.113zm40.095 17.286c-1.526-1.252-1.727-2.774-.68-5.167.734-1.679.983-1.776 3.455-1.352 1.013.174 1.157.339 1.672 1.916.558 1.708.556 1.738-.12 2.817-1.382 2.209-2.998 2.875-4.327 1.786zm-38.335-3.787c-.38-.156-.93-.65-1.22-1.099-.506-.783-.49-.885.394-2.612 1.196-2.339 1.593-2.555 3.395-1.855 1.748.679 2.294 1.83 1.771 3.728-.528 1.917-2.308 2.67-4.34 1.838zm41.81 163.708c-2.878-.85-3.117-4.752-.375-6.15 2.432-1.239 5.38.489 5.364 3.144-.006 1.027-1.151 2.406-2.437 2.934-1.176.484-1.162.484-2.551.073zm29.024-15.33c-1.906-2.292-1.16-6.031 1.354-6.781.564-.169.96.025 1.816.892.966.977 1.094 1.299 1.085 2.739-.02 3.559-2.431 5.343-4.255 3.15zm-40.642-15.323c-1.146-1.475-.692-4.925.706-5.36 1.82-.566 2.773 3.442 1.31 5.504-.652.92-1.22.88-2.016-.144zm3.96 98.319c-.914-.925-1.07-1.301-1.062-2.572.008-1.272.168-1.646 1.092-2.56.688-.68 1.391-1.07 1.924-1.066 3.453.02 4.698 4.416 1.873 6.611-1.3 1.01-2.554.875-3.827-.413zm-2.295 66.841c-.914-.925-1.07-1.302-1.062-2.573.007-1.27.167-1.646 1.092-2.56 1.25-1.234 2.274-1.358 3.454-.418 1.792 1.427 1.781 4.598-.02 5.998-1.207.938-2.225.806-3.464-.447z" fill="#8892b0" opacity=".629" fill-opacity=".196"/><path d="M98.092 441.644c-.649-.639-1.204-5.656-2.118-19.153-4.47-66.005-5.421-81.08-5.157-81.787.21-.558 2.09-.807 6.338-.838 6.027-.045 6.04-.042 6.051 1.547.007.875 1.122 15.91 2.478 33.41 1.356 17.499 3.024 39.696 3.706 49.326l1.24 17.51-2.794.403c-4.698.68-8.81.503-9.744-.418zm12.798 195.841c-1.089-15.786-4.512-65.042-7.606-109.457-3.094-44.415-5.635-81.681-5.646-82.814l-.02-2.06 6.608-.048 6.608-.049.392 3.324c.382 3.237 2.077 25.123 4.23 54.625.585 8.012 2.62 34.375 4.524 58.584 6.797 86.465 7.957 103.362 7.13 103.882-.422.264-2.94.832-5.597 1.262-2.657.429-5.688.932-6.736 1.117l-1.905.336zm183.338-86.571c-.022-3.427.162-16.784.409-29.681.247-12.898.852-46.98 1.344-75.737 1.739-101.63 3.581-204.021 4.048-224.991.26-11.678.464-22.628.453-24.334l-.021-3.1 5.23.397c2.877.218 5.9.56 6.716.758l1.485.36-.333 9.267c-.183 5.097-1.146 51.762-2.14 103.7-.994 51.94-2.43 126.43-3.19 165.536-.76 39.106-1.37 72.647-1.356 74.536l.025 3.434-5.84 2.827a1243.531 1243.531 0 01-6.315 3.042c-.26.12-.492-2.587-.515-6.014zM76.704 242.545c0-.076.264-.44.588-.81l.589-.673 15.035-2.079a235217.78 235217.78 0 01173.37-23.836c8.135-1.113 14.926-2.004 15.09-1.98.248.037.142.235-.622 1.157-.507.612-1.098 1.204-1.312 1.315-.279.144-201.777 27.037-202.628 27.043-.06 0-.11-.061-.11-.137z" fill-opacity=".221" opacity=".629"/><path d="M477.059 307.82c-.796-.314-.855-1.149-.226-3.19.78-2.532 5.241-13.725 5.081-12.75-.07.433-.406 2.3-.745 4.151-.887 4.84-1.289 7.905-1.275 9.72l.011 1.587-1.158.353c-.637.194-1.165.347-1.174.339a9.79 9.79 0 00-.514-.21zm-1.051 19.077c0-1.307.006-2.393.011-2.414.013-.054.25.919.337 1.382.058.307.076.594.08 1.286.004.831-.003.917-.095 1.272a3.96 3.96 0 01-.217.615l-.117.235zm33.426 8.823c-1.308-.325-2.625-1.012-3.976-2.074-.601-.474-2.062-1.887-2.63-2.545-2.176-2.523-4.139-5.579-6.176-9.613-.315-.624-.562-1.145-.55-1.159.014-.013.064.052.112.145.302.58 1.54 2.594 2.333 3.793 3.544 5.362 7.394 9.335 10.931 11.282.238.13.432.244.432.252 0 .029-.101.011-.476-.081zm-5.286 55.093c-5.87-1.206-11.842-5.588-17.18-12.603-1.828-2.403-1.852-2.45-1.358-2.714.277-.147 2.515-.804 4.974-1.46 21.14-5.633 37.451-13.469 48.26-23.18 5.258-4.724 10.868-13.366 15.927-24.536l.442-.978.72 1.14c.397.627.967 1.232 1.269 1.344.795.295.83.45.47 2.041-.43 1.891-.863 5.23-1.151 8.841l-.232 2.914-1.889 3.711c-9.604 18.867-20.9 33.502-31.332 40.595-3.75 2.55-7.096 4.048-10.826 4.848-2.105.45-5.996.469-8.094.037z" fill-opacity=".221"/><path d="M454.263 455.128c-.843-.174-2.079-.554-2.747-.843l-1.215-.527.964-1.59c2.07-3.412 3.062-8.315 2.554-12.617-.65-5.509-2.664-10.277-6.725-15.932-2.873-4-3.566-5.092-4.809-7.582-2.292-4.594-2.96-7.432-2.836-12.056.074-2.766.17-3.424.772-5.292.694-2.158 2.008-4.783 2.946-5.884.355-.418 1.527-.997 3.837-1.896 11.717-4.561 22.212-7.193 32.116-8.053 2.155-.187 3.945-.317 3.977-.289.032.029-.332 1.938-.81 4.242-1.823 8.789-2.252 13.15-2.028 20.601.2 6.658.85 10.414 2.445 14.155 1.402 3.286 5.538 7.912 7.065 7.901.537-.004.655-.122.813-.814l.185-.81.747 1.024c.886 1.214 3.97 4.644 7.212 8.02 1.282 1.336 2.3 2.525 2.261 2.643-.038.119-1.37.973-2.96 1.898-13.026 7.582-24.378 12.208-33.498 13.65-2.841.45-8.212.476-10.266.051z" fill-opacity=".22"/><path d="M488.144 421.749c-.98-4.635-.79-8.728.526-11.404.516-1.05 2.378-3.293 2.734-3.295.094 0-.158 1.036-.559 2.303-1.102 3.486-1.635 6.59-1.897 11.045l-.237 4.035zm10.355 13.058c-4.984-5.055-7.32-8.392-8.134-11.618-.446-1.766-.366-5.502.176-8.232.551-2.775 1.278-4.901 2.581-7.552l.98-1.99 1.023 1.416c2.169 3.003 4.21 7.806 6.252 14.708l.496 1.677 3.371 3.246 3.372 3.247-3.181 4.129c-1.75 2.27-3.29 4.166-3.42 4.21-.132.046-1.714-1.413-3.516-3.24zm-2.677-16.11c.654-.692 1.245-2.363 1.235-3.49-.018-1.942-1.123-3.653-2.182-3.378-.345.089-.515.06-.433-.073.177-.292-1.15.098-1.587.466-1.433 1.208-1.346 4.94.153 6.522.811.856 1.98.837 2.814-.046z" fill-opacity=".22"/><path d="M506.125 451.201c-1.43-.435-2.748-1.283-4.04-2.596-1.51-1.539-2.337-2.775-2.342-3.504-.006-.838 1.734-3.856 3.955-6.859 6.058-8.192 12.62-14.82 19.438-19.63 1.987-1.402 4.145-2.64 4.608-2.644.624-.005 1.849 6.074 1.871 9.284.016 2.323-.44 3.305-2.948 6.36-3.394 4.134-5.913 8.017-8.3 12.792-1.984 3.967-2.346 4.406-4.525 5.479-3.031 1.492-5.666 1.943-7.717 1.318zm1.795-2.065c2.223-.776 3.382-2.734 2.826-4.777-.948-3.48-5.034-4.718-7.652-2.318-1.73 1.587-1.71 4.43.044 6.159 1.322 1.302 2.867 1.604 4.782.936z" fill="none"/><path d="M592.117 605.593c-.026-1.23 1.464-13.38 2.633-21.481 3.3-22.87 7.755-40.918 11.473-46.477l.554-.829.153 2.078c.084 1.142.232 4.143.328 6.669l.175 4.591-1.675 5.726c-4.561 15.595-9.694 34.256-12.133 44.114-.825 3.333-1.503 5.857-1.508 5.609zm23.563-71.361c1.133-5.45 6.41-9.866 12.522-10.48 2.59-.26 4.982.51 4.99 1.605.006.799-1.94 2.229-5.687 4.18-3.531 1.84-11.303 5.42-11.77 5.423-.117 0-.14-.317-.055-.728zm15.457-29.407c-.618-.245-1.362-.626-1.653-.848l-.529-.403 4.425-2.95c5.353-3.566 8.021-5.17 11.181-6.725l2.394-1.177 2.352.006c6.702.016 23.096 2.518 23.103 3.526.003.373-2.072 1.563-3.528 2.025-3.262 1.034-7.711 1.1-12.027.177-2.847-.608-3.033-.603-5.837.166-6.102 1.672-11.131 3.625-14.237 5.53-1.291.791-1.734.941-3.017 1.022-1.137.072-1.778-.013-2.627-.35zm20.859-29.802c4.293-4.035 10.175-8.896 13.465-11.129 3.095-2.1 4.429-2.55 8.366-2.826 3.557-.249 4.614-.124 6.08.719 1.543.887 2.774 2.814 3.376 5.287.54 2.214.433 4.205-.225 4.21-.49.004-2.146-1.79-3.606-3.905l-1.32-1.912-1.125.154c-6.452.887-14.834 4.258-24.175 9.724-1.251.732-2.347 1.332-2.436 1.332-.089 0 .632-.743 1.6-1.654zm-25.446 78.784c.275-1.132 1.624-3.787 2.969-5.842 6.793-10.382 17.828-18.74 29.57-22.398 2.106-.656 6.75-1.73 7.505-1.735.127 0-.078.395-.457.88-.985 1.263-1.769 3.209-2.056 5.105l-.249 1.641-1.237.266c-3.277.705-8.702 3.072-13.55 5.912-5.53 3.239-13.532 9.04-19.665 14.257-2.54 2.16-2.96 2.444-2.83 1.914zm11.993 48.717c.034-.055.527-.477 1.096-.937 4.33-3.5 10.226-6.576 15.99-8.341a55.85 55.85 0 0111.107-2.224c2.14-.213 2.186-.186.522.309-5.458 1.621-15.669 5.598-26.697 10.397-2.29.996-2.092.918-2.018.796zm55.059.334c-1.629-.315-6.542-.887-10.148-1.181-6.453-.528-14.917-.897-24.286-1.06-2.026-.035-3.693-.07-3.704-.08-.034-.03 2.573-.371 4.174-.547 6.553-.718 14.043-.773 20.08-.146 4.987.517 9.704 1.474 13.724 2.783 1.068.348 1.115.416.16.231zm12.692-13.294c-.439-.413-3.098-2.23-4.264-2.913l-.55-.322.517-.224c.718-.31 2.57-1.233 3.308-1.649 2.05-1.153 3.308-2.31 3.324-3.055a3.785 3.785 0 00-.043-.499c-.039-.26-.03-.347.047-.465.124-.193.299-.166.46.07.558.817.16 3.047-1.067 5.985-.45 1.079-1.479 3.176-1.557 3.176-.035 0-.114-.046-.175-.104zm-304.011 5.6c-5.46-1.905-15.749-11.157-29.29-26.341-1.337-1.5-2.413-2.746-2.392-2.77.02-.024.382.254.803.617 3.343 2.888 17.088 13.666 29.85 23.41 2.549 1.945 4.639 3.588 4.643 3.65.005.061-.278.267-.628.457s-.913.535-1.25.766c-.68.467-.92.496-1.736.211zm-24.47-29.618c-3.863-.786-7.565-3.944-10.837-9.244-.958-1.55-2.372-4.32-3.112-6.093-.423-1.014-.428-1.043-.258-1.455.095-.23.2-.748.234-1.148.066-.787.356-2.019.376-1.595.043.917.686 3.057 1.346 4.478 1.997 4.3 6.752 9.447 12.858 13.918a117.3 117.3 0 011.684 1.246c.19.163-1.31.092-2.291-.107zm16.987-5.511c.463-.372 2.32-1.305 3.683-1.85 3.682-1.477 8.597-2.676 13.306-3.247 1.745-.211 5.377-.478 5.455-.4.088.086 1.518 4.917 1.47 4.966-.024.025-1.22-.052-2.657-.17-4.775-.394-6.39-.46-10.512-.434-5.101.033-6.993.236-9.467 1.018-.594.187-1.188.34-1.319.34-.229 0-.227-.009.04-.223zm10.16-4.47c0-.077-.109-1.198-.238-2.491-.662-6.593-1.228-14.255-1.632-22.113-.118-2.301-.405-12.623-.354-12.742.008-.018.666.352 1.464.82 1.753 1.029 3.537 1.928 4.212 2.124.771.223.828.275.934.859 1.495 8.241 5.3 23.882 7.765 31.926.048.158-.134.193-1.431.27-2.953.176-6.435.633-9.115 1.196-1.59.334-1.603.336-1.605.15zm2.992-34.979a25.777 25.777 0 01-1.743-.848c-.841-.455-3.487-1.997-3.488-2.032l.033-3.228.032-3.21 1.013.598c1.495.885 2.563 1.3 3.346 1.301.559 0 .655.032.695.226.026.124.327 1.875.669 3.89.52 3.066.594 3.664.454 3.664-.093 0-.548-.163-1.011-.361z" fill-opacity=".22"/><path d="M406.21 512.63c-.586-.211-1.51-.68-2.539-1.287l-.911-.538.032-.815c.184-4.599.254-6.02.384-7.707.311-4.042.694-7.068 1.27-10.035.534-2.76.538-2.769.641-1.573a341.287 341.287 0 002.24 19.283c.198 1.372.334 2.568.3 2.659-.078.206-.86.213-1.417.012zm-6.47 3.218c-4.375-2.818-11.537-7.657-15.312-10.346l-.957-.682-.024-1.616c-.026-1.83-.15-2.398-.858-3.906-.515-1.099-.748-1.985-.927-3.534-.225-1.938-.336-1.968 2.703.73 4.74 4.208 9.833 8.467 13.354 11.168 1.468 1.126 4.391 3.217 4.586 3.28.114.037.035 6.473-.079 6.467-.037-.002-1.156-.704-2.487-1.561zm8.886 5.009c0-.094-1.127-.523-1.264-.482-.046.014-.084-.033-.085-.105 0-.072-.031-.1-.068-.062-.037.037-.126.02-.197-.04-.18-.152-3.593-2.104-3.719-2.127-.056-.01-.192-.103-.301-.205-.173-.162-.2-.412-.213-1.903-.008-.944.016-2.354.053-3.134l.067-1.417 1.01.587c.557.323 1.05.564 1.097.534.047-.03.086-.006.086.052 0 .176 1.294.59 1.975.632.353.022.66.057.68.077.052.05 1.052 5.978 1.157 6.856.07.571.053.694-.097.753-.1.039-.18.032-.181-.016z" fill-opacity=".22"/><path d="M405.562 512.293a23.72 23.72 0 01-1.756-.934c-.872-.518-.942-.587-.998-.985-.034-.236-.018-.703.035-1.038.052-.336.096-.988.097-1.45.004-1.782.181-4.792.436-7.407.081-.838.148-1.62.148-1.738 0-.117.092-.894.203-1.727.112-.833.206-1.59.21-1.682.004-.092.082-.545.174-1.006.092-.462.159-.89.15-.954a.689.689 0 01.046-.283c.128-.33.296-1.367.238-1.46-.033-.052-.014-.123.041-.157.055-.035.131-.279.17-.541.037-.263.105-.54.151-.614.046-.074.235 1.462.421 3.414.187 1.952.55 5.286.809 7.41l.53 4.365c.034.277.247 1.832.473 3.456.227 1.623.413 3.121.415 3.33l.002.377h-.588c-.43 0-.808-.101-1.407-.377zm-.272 43.323c-.288-.034-.29-.043-.438-1.624-.082-.875-.259-2.698-.393-4.053-.135-1.354-.243-2.563-.24-2.687.002-.123-.05-.803-.117-1.511a97.353 97.353 0 01-.176-2.1c-.03-.446-.084-1.202-.119-1.679a208.28 208.28 0 01-.117-1.707 660.43 660.43 0 00-.125-1.904 370.527 370.527 0 01-.266-4.31c-.21-3.795-.247-4.68-.41-9.855a168.199 168.199 0 00-.105-2.912 35.367 35.367 0 01-.012-1.603l.01-1.379.703.4c.387.22.88.483 1.096.586.217.103.458.247.536.319.077.072.255.166.393.208.139.042.278.114.309.16.057.083 2.065 1.094 2.22 1.117.323.049 1.152.409 1.156.503a858.543 858.543 0 001.674 8.031c.038.185.15.688.25 1.118l.22.95c.351 1.57.606 2.663 1.042 4.474.29 1.2.626 2.608.748 3.131.703 2.996 2.933 11.378 3.627 13.632.16.518.29.979.291 1.024 0 .119-.66.211-2.07.29a42.927 42.927 0 00-3.526.359c-.154.023-.631.077-1.06.12-.43.043-.815.1-.857.125-.04.026-.294.075-.562.109-.268.033-.638.095-.822.137a6.675 6.675 0 01-.504.097c-.559.068-1.863.33-1.957.393-.061.042-.241.06-.4.041zm-7.736-61.622a5.024 5.024 0 01-1.02-.427c-3.227-1.86-5.278-10.333-5.581-23.064-.077-3.198-.073-3.304.08-2.185.608 4.439 1.851 8.028 5.459 15.767 2.767 5.935 3.291 7.301 3.3 8.6.006.763-.25 1.16-.863 1.335-.514.147-.728.143-1.375-.026zm289.624 4.223c-.125-3.093-.825-5.668-2.371-8.716-.836-1.646-1.634-2.804-2.67-3.873-.789-.814-1.48-1.326-2.368-1.754-.846-.408-1.537-.58-2.315-.575l-.568.003-.127-.376c-.464-1.374-.289-3.006.444-4.127.92-1.41 2.626-2.368 5.168-2.906 1.756-.371 5.058-.58 5.06-.32 0 .063.113 1.033.25 2.158 1.124 9.222 1.33 16.825.544 20.093-.083.344-.15.635-.15.645 0 .011-.066.037-.145.059-.082.022-.26.272-.406.567-.143.29-.267.527-.275.527-.008 0-.04-.632-.071-1.405z" fill-opacity=".22"/><path d="M480.081 326.894c0-1.307.006-2.393.01-2.413.014-.055.251.918.338 1.38.058.308.076.595.08 1.287.004.831-.004.917-.096 1.272-.054.21-.152.486-.216.615l-.117.236z" fill-opacity=".221"/><path d="M493.744 289.812c-.524-.12-2.036-.577-3.361-1.017l-2.41-.799-.957-1.592c-2.135-3.546-2.129-3.525-1.398-5.014 1.012-2.065 4.32-3.672 9.298-4.517 1.987-.337 11.057-.346 14.258-.014 3.995.414 10.191 1.261 10.529 1.439.496.26 1.454 1.453 1.456 1.813.01 1.222-2.179 2.146-6.475 2.736-2.916.4-3.86.044-4.896-.412-3.645-1.606-8.959-2.095-12.247-.935-1.446.51-3.57 2.083-4.121 2.604l-.437.414.347.673c.414.802 1.072 1.674 1.993 2.642.816.858 1.228 1.831.873 2.06-.325.208-1.33.175-2.452-.08zm-22.644-8.454c-1.395-1.36-3.72-3.709-5.817-3.987-.624-.083-2.899-.614-3.683-.575-1.921.096-4.303 1.067-5.088 2.924l-.599 1.418-.476-1.217c-.738-1.885-1.283-3.673-1.635-5.363-.34-1.632-.695-5.094-.566-5.226.109-.11 3.964 1.477 6.354 2.185 8.71 2.582 11.215 4.959 12.146 9.28.103.48.165.962.138 1.071-.028.113-.36-.106-.775-.51zm-13.485 10.062c.184-1.577.132-3.423-.065-4.555-.076-.436-.113-.818-.083-.85.03-.033.463.299.962.737.5.439 1.452 1.062 2.117 1.384 1.073.521 1.37.593 2.658.64 1.701.062 2.885-.267 4.474-1.244 1.14-.7 3.006-2.376 3.647-3.276.56-.784.592-.484.118 1.06-.4 1.3-1.436 3.108-2.724 4.752l-.926 1.183-4.193 1.618c-3.225 1.245-4.2.518-4.27.544-1.204-2.574-1.992-.957-1.715-1.994zm13.567 32.454c-1.846-.274-3.378-1.091-3.89-2.076-.18-.348-.329-.689-.33-.758 0-.069 1.016-.14 2.257-.157 1.748-.026 2.954-.154 5.343-.569 5.004-.87 7.514-.634 9.221.864.38.333.655.645.61.691-.155.163-4.515 1.243-6.402 1.586-1.816.33-5.764.573-6.81.419zm100.032-14.299c-.255-.187-1.149-.567-1.986-.845l-1.523-.505 1.274.008c.7.004 1.413-.07 1.583-.164 1.6-.884 3.603-5.236 3.98-8.642.182-1.651.035-2.91-.34-2.907-.17 0-.21.255-.178 1.11.052 1.384-.164 3.015-.587 4.42l-.325 1.081-.441-.684c-.786-1.218-3.286-3.174-5.884-4.605-.625-.343-1.138-.68-1.14-.745-.013-.33 4.076-6.666 4.57-7.082.152-.129.618-.038 1.793.348.873.287 2.43.773 3.461 1.079 1.548.46 1.86.603 1.798.826-.042.148-.289 1.59-.55 3.204-.833 5.16-1.664 8.177-3.105 11.271-.79 1.698-1.648 3.185-1.833 3.177-.057-.003-.311-.157-.567-.344zm-94.951 39.578c-.533-.154-1.285-.462-1.67-.684-.74-.427-2.184-1.836-2.529-2.469-.2-.369-.195-.373.41-.282 2.836.427 10.836 1.08 14.165 1.156l1.188.027-1.745.76c-2.743 1.195-4.37 1.6-6.791 1.693-1.662.063-2.246.024-3.028-.201zM334.422 613.131c-5.039-.529-9.278-1.646-25.715-6.775-9.344-2.917-20.19-6.298-24.103-7.514-3.912-1.216-6.903-2.253-6.648-2.305.256-.053 3.239.385 6.629.972 21.045 3.646 43.12 6.498 60.87 7.864 9.385.723 28.79.587 33.984-.238 3.984-.633 8.369-1.823 10.399-2.822l1.247-.614.307.79c.169.434.308.895.308 1.025.003.271-8.313 3.101-13.343 4.542-7.41 2.122-16.575 3.926-24.363 4.795-4.981.556-15.512.706-19.572.28zm277.227 13.655c-2.576-.414-7.21-.849-12.726-1.194l-3.17-.198 3.157-1.55c3.633-1.782 3.93-1.791 8.395-.256 3.089 1.061 8.423 3.643 7.472 3.616-.348-.01-1.756-.198-3.128-.418zm-3.958 49.299c-15.748-1.016-26.438-2.241-40.273-4.617-6.475-1.111-17.306-3.375-21.103-4.41-2.558-.698-3.46-.73 7.29.251 28.243 2.577 55.361 4.35 74.177 4.85 5.403.145 10.181.29 10.617.325 1.014.08-21.944 3.54-24.687 3.721-1.132.075-3.841.02-6.02-.12zm87.926-20.615c-.046-4.207-1.497-11.65-3.14-16.11-.996-2.706-3.217-7.153-4.476-8.964-.983-1.414-.915-1.503 1.585-2.081l1.713-.397 3.104 1.845c5.265 3.13 6.401 3.948 6.615 4.764.445 1.698-.342 7.887-1.554 12.228-.74 2.647-3.357 9.953-3.684 10.286-.08.08-.153-.627-.163-1.57zm-223.366 44.783c-1.05-.626-3.012-2.349-4.987-4.38l-1.982-2.037-1.77.575a92.1 92.1 0 00-1.987.66c-.157.061-.115-.212.156-1.01 1.201-3.538 1.158-9.05-.118-15.098-.54-2.555-1.52-6.183-2.368-8.77-1.334-4.061-3.881-10.426-5.626-14.056l-.776-1.614 2.307-1.06c1.269-.584 2.52-1.143 2.781-1.243.542-.208 3.447-.981 3.491-.93.155.185 1.09 2.184 2.098 4.485 5.097 11.647 8.467 22.632 9.749 31.786.407 2.906.446 8.893.071 11.045-.357 2.054-.357 2.053-1.039 1.647z" fill-opacity=".22"/><path d="M650.153 510.745s29.15-3.169 36.12-1.268" fill="none" stroke="#000" stroke-width=".265"/><path d="M436.608 584.604c-4.697-9.623-7.027-16.393-9.895-28.75-3.114-13.418-5.712-34.786-6.3-51.803-.176-5.115-.264-5.55 1.41 6.97 3.416 25.557 9.583 53.187 16.82 75.355.872 2.672 1.527 4.916 1.456 4.987-.071.071-1.642-2.97-3.491-6.759z" fill-opacity=".201"/></g></svg>