<?xml version="1.0" encoding="UTF-8" standalone="no"?>
<svg
   xmlns:dc="http://purl.org/dc/elements/1.1/"
   xmlns:cc="http://creativecommons.org/ns#"
   xmlns:rdf="http://www.w3.org/1999/02/22-rdf-syntax-ns#"
   xmlns:svg="http://www.w3.org/2000/svg"
   xmlns="http://www.w3.org/2000/svg"
   xmlns:sodipodi="http://sodipodi.sourceforge.net/DTD/sodipodi-0.dtd"
   xmlns:inkscape="http://www.inkscape.org/namespaces/inkscape"
   width="219.38333mm"
   height="87.372787mm"
   viewBox="0 0 219.38333 87.372787"
   version="1.1"
   id="svg893"
   inkscape:version="1.0.2-2 (e86c870879, 2021-01-15)"
   sodipodi:docname="section_drawing_top.svg">
  <defs
     id="defs887" />
  <sodipodi:namedview
     id="base"
     pagecolor="#ffffff"
     bordercolor="#666666"
     borderopacity="1.0"
     inkscape:pageopacity="0.0"
     inkscape:pageshadow="2"
     inkscape:zoom="0.35"
     inkscape:cx="325.37492"
     inkscape:cy="188.0017"
     inkscape:document-units="mm"
     inkscape:current-layer="layer1"
     inkscape:document-rotation="0"
     showgrid="false"
     inkscape:window-width="1267"
     inkscape:window-height="1198"
     inkscape:window-x="156"
     inkscape:window-y="156"
     inkscape:window-maximized="0" />
  <metadata
     id="metadata890">
    <rdf:RDF>
      <cc:Work
         rdf:about="">
        <dc:format>image/svg+xml</dc:format>
        <dc:type
           rdf:resource="http://purl.org/dc/dcmitype/StillImage" />
        <dc:title></dc:title>
      </cc:Work>
    </rdf:RDF>
  </metadata>
  <g
     inkscape:label="Layer 1"
     inkscape:groupmode="layer"
     id="layer1"
     transform="translate(-0.54251955,-98.42455)">
    <path
       style="fill:#00e696;fill-opacity:1;stroke-width:0.267822"
       id="path905"
       d="m -1.0818853,182.61688 c 1.5714831,1.66394 3.8211454,1.24468 5.8947159,0.99883 1.6678906,-0.23306 3.3473182,-0.35086 5.0298978,-0.41261 -1.0367386,-0.29215 3.4241746,0.11203 2.4261256,0.19559 -2.8543293,0.23899 -5.2649122,-0.48062 -1.408936,0.96258 2.038127,0.61922 4.214119,0.82675 6.34392,0.88141 1.726432,0.0443 3.41605,-0.26253 5.145156,-0.24866 2.286435,-0.15128 4.53203,-0.61441 6.805704,-0.87494 0.93223,-0.16194 1.861962,0.0674 2.735779,0.39302 0.414873,0.15461 0.784831,0.42239 1.212761,0.53826 0.861428,0.23323 1.64358,0.10891 2.50994,0.0502 0.419742,0.0166 0.83933,0.062 1.259229,0.0498 2.600902,-0.0761 -0.140612,-0.13387 2.347828,-0.31539 1.193162,-0.087 2.442154,0.17331 3.616849,0.33171 1.277292,-0.23143 2.555028,0.10612 3.827028,0.11059 0.42561,0.002 0.846871,-0.0927 1.272296,-0.10504 0.819503,-0.0238 1.79316,0.0671 2.606863,0.12547 0.456112,0.0385 0.91052,0.11643 1.368336,0.11557 1.663357,-0.003 0.954324,-0.18823 2.551343,-0.34484 1.253761,-0.12294 2.552928,0.0796 3.796775,0.20428 1.230478,0.11208 2.43759,-0.55914 3.667827,-0.28651 0.501771,0.1112 0.926203,0.45914 1.426992,0.57449 0.15556,0.0358 2.813241,0.15585 2.955055,0.16264 0.952453,0.13167 1.80551,-0.4222 2.727332,-0.46361 0.460328,-0.0207 0.914167,0.11465 1.372257,0.16349 1.461249,0.15582 2.924235,0.24093 4.391613,0.31609 1.360357,0.034 2.617786,-0.57489 3.931937,-0.76901 1.170384,-0.17289 2.376855,0.0458 3.559807,-0.0404 1.109223,-0.26688 2.213364,-0.0796 3.339507,-0.19538 0.34893,-0.0359 0.693342,-0.16624 1.043027,-0.13818 0.559786,0.0449 2.093694,0.65661 2.538433,0.82053 2.770814,0.83106 5.544715,-0.18817 8.312424,-0.31871 2.798644,0.2262 5.634684,0.29455 8.389614,0.8396 0.57617,0.12678 1.14002,0.33146 1.72854,0.38032 1.6119,0.13385 3.30109,-0.25602 4.87502,-0.49654 3.69634,-0.56485 -0.66757,0.29793 2.82976,-0.43324 0.41065,-0.1058 0.80801,-0.29258 1.23197,-0.31738 1.55209,-0.0908 1.16187,0.43028 2.75502,0.56172 1.36261,0.11241 2.73536,0.11678 4.10184,0.0661 6.14107,-0.22783 -0.0624,-0.43729 4.0443,-0.24374 2.18704,0.12307 4.31328,-0.23091 6.40827,-0.79951 0.94851,-0.18254 1.83898,-0.75644 2.80336,-0.87545 1.00062,-0.12347 2.15468,0.24003 3.12178,0.42398 0.7766,0.21553 1.53312,-0.19611 2.29916,-0.14328 1.48522,0.10244 2.90076,0.95566 4.33852,1.26595 0.56776,0.12254 1.15271,0.15022 1.72905,0.22533 4.24081,0.26157 8.45317,-0.38489 12.64789,-0.88455 2.03798,-0.76169 3.91256,-0.92428 6.06832,-0.78141 1.75468,0.86433 5.87165,-1.11909 7.94646,-0.94256 0.18523,0.0158 0.2883,0.25493 0.47009,0.29304 0.40534,0.085 1.01216,-0.15425 1.37281,-0.26385 0.47881,0.16333 0.90185,-0.21847 1.35928,-0.19594 0.28723,0.0142 0.54987,0.16475 0.8248,0.24713 0.35913,0.0635 0.71278,0.17454 1.07738,0.19044 0.75494,0.0329 1.5935,-0.17339 2.32385,-0.3143 1.0675,-0.27562 2.03774,-0.57615 3.15192,-0.48769 0.37813,0.03 0.74857,0.13213 1.1274,0.15224 4.49763,0.23885 -2.38057,-0.36526 2.29571,0.0786 0.41431,0.0567 0.82507,0.15033 1.24295,0.1701 0.40662,0.0192 0.81298,-0.0569 1.22006,-0.0536 1.76691,0.0144 3.552,0.31026 5.30904,0.47251 1.56383,0.12327 3.09975,0.3785 4.65546,0.57885 0.58506,0.0754 1.15677,0.2605 1.74645,0.2834 2.62129,0.10177 4.19675,-0.0716 6.67071,-0.25904 2.12921,0.7454 3.89537,-0.32999 5.90956,-0.75911 0.86951,-0.18525 1.27363,-0.19244 2.15893,-0.26892 2.06449,0.13213 3.98493,-0.34747 5.9444,-0.90543 0,0 -0.13627,-81.5035 -0.13627,-81.5035 v 0 c -2.60869,-0.63923 -5.18054,-1.03494 -7.88629,-0.79758 -2.00964,-0.0225 -4.02818,-0.0264 -6.02832,-0.24883 -1.6025,-0.1782 -2.47495,-0.51586 -4.11811,-0.32046 -0.71453,0.085 -1.39424,0.34995 -2.09137,0.52493 -0.299,0.0166 -0.598,0.0331 -0.89702,0.0497 0.15801,0.0406 0.62933,0.0723 0.47401,0.12179 -0.95522,0.30433 -2.39088,0.29047 -3.37843,0.43529 -0.52911,0.0776 -1.04221,0.24309 -1.57173,0.31799 -0.47796,0.0676 -0.96305,0.0725 -1.44459,0.10871 -1.74662,0.16153 -3.52199,0.45747 -5.2785,0.47054 -0.40382,0.003 -0.80682,-0.0735 -1.2102,-0.0547 -0.41368,0.0193 -0.82026,0.11249 -1.2304,0.16872 -4.5114,0.42475 2.08956,-0.14805 -2.29319,0.0751 -0.38619,0.0197 -0.76428,0.12155 -1.14986,0.15057 -1.21634,0.0915 -2.304,-0.23873 -3.48373,-0.4847 -1.03567,-0.15859 -1.87443,-0.33598 -2.93793,-0.2889 -6.24022,0.27626 3.02117,0.14916 -3.5093,0.51343 -1.19742,0.0668 -2.39838,-0.35312 -3.59804,-0.0228 -1.40429,-0.0539 -2.43544,-0.15728 -3.84633,0.0599 -0.60772,0.0936 -2.4818,0.71231 -3.38154,0.62684 -0.0788,-0.007 0.0671,-0.14003 0.10065,-0.21004 0.51256,-0.0477 1.02513,-0.0954 1.5377,-0.14312 -1.62337,0.0967 -3.266,0.23011 -4.89266,0.1064 -0.58272,-0.0443 -1.15609,-0.17652 -1.73884,-0.22048 -7.38794,-0.55724 3.46775,0.4861 -3.90489,-0.25374 -3.12378,0.078 -6.01388,0.13114 -7.60758,0.20963 -0.5735,0.0748 -1.15564,0.10216 -1.72051,0.22452 -1.42442,0.30857 -2.82793,1.16231 -4.30021,1.26183 -0.77732,0.0525 -1.54448,-0.36633 -2.3327,-0.14671 -1.13123,0.20371 -2.36692,0.53298 -3.52944,0.42745 -1.33271,-0.12099 -2.6142,-0.70994 -3.95176,-0.8192 -3.9647,-0.56058 -7.97676,-0.60255 -11.94876,-0.0222 -0.55541,0.10796 -1.10443,0.25415 -1.66622,0.32388 -1.54717,0.19201 1.28917,-0.83513 0.58261,0.18314 -0.14979,0.21586 -2.45589,0.57921 -2.75502,0.56171 -0.42396,-0.0248 -0.82132,-0.21158 -1.23197,-0.31738 -3.49733,-0.73117 0.86658,0.13161 -2.82976,-0.43324 -1.57393,-0.24052 -3.26312,-0.63039 -4.87502,-0.49654 -0.58852,0.0489 -1.15237,0.25355 -1.72854,0.38032 -2.75493,0.54505 -5.59097,0.61341 -8.389614,0.8396 -2.76771,-0.13054 -5.54161,-1.14977 -8.312424,-0.31871 -0.444739,0.16392 -1.978647,0.7756 -2.538433,0.82053 -0.349685,0.0281 -0.694097,-0.1023 -1.043027,-0.13818 -1.126144,-0.1158 -2.230284,0.0715 -3.339507,-0.19538 -1.182952,-0.0862 -2.389424,0.13248 -3.559808,-0.0404 -1.314151,-0.19412 -2.571579,-0.803 -3.93194,-0.76901 -1.467377,0.0752 -2.93036,0.16027 -4.391613,0.31609 -0.458087,0.0488 -0.911929,0.18417 -1.372256,0.16349 -0.921822,-0.0414 -1.774878,-0.59528 -2.727332,-0.4636 -0.141811,0.007 -2.799493,0.12681 -2.955052,0.16264 -0.500787,0.11534 -0.92522,0.46329 -1.426987,0.57448 -1.230226,0.27263 -2.437324,-0.39858 -3.667793,-0.28651 -1.243807,0.12466 -2.542938,0.32722 -3.796658,0.20427 -1.596958,-0.15661 -0.887944,-0.34173 -2.551236,-0.34485 -0.457792,-7.9e-4 -0.912176,0.077 -1.368262,0.11557 -0.813731,0.0583 -1.787252,0.1493 -2.60678,0.12545 -0.425452,-0.0124 -0.846739,-0.10655 -1.272377,-0.10506 -1.272521,0.004 -2.550784,0.34204 -3.8286,0.11058 -1.177561,0.15863 -2.428795,0.41871 -3.624811,0.33198 -2.490632,-0.18062 0.246821,-0.24002 -2.358072,-0.31476 -0.422727,-0.0121 -0.845122,0.0336 -1.267684,0.0503 -0.877064,-0.0584 -1.658525,-0.1818 -2.530687,0.0521 -1.351184,0.36239 -2.376314,1.25929 -3.946462,0.93775 -1.71122,-0.21299 -3.37973,-0.60771 -5.069745,-0.93466 -1.15064,-0.0505 -1.833575,-0.43677 -3.019824,-0.43937 -0.229643,-5.3e-4 -0.465895,-0.0935 -0.687928,-0.0363 -0.183166,0.0472 -0.303973,0.22075 -0.455959,0.33113 -0.887465,0.95374 -0.285209,0.54355 -2.505102,0.48131 -1.700958,-0.0477 -3.399075,-0.20988 -5.100723,-0.20341 -0.2992,0.001 -0.570622,0.18744 -0.867186,0.22613 -0.06199,0.008 -1.4999641,-0.0291 -1.5589399,-0.0305 -1.6825796,-0.0618 -3.3620072,-0.17954 -5.0298978,-0.41261 -2.0735705,-0.24584 -4.32323282,-0.6651 -5.8947159,0.99883 0,0 0,78.38776 0,78.38776 z" />
    <path
       style="fill:#ccd6f6;fill-opacity:1;stroke-width:0.267822"
       id="path905-1"
       d="m -1.0818552,186.31688 c 1.5714824,1.66394 3.821145,1.24468 5.8947152,0.99883 1.6678901,-0.23306 3.3473176,-0.35086 5.0298968,-0.41261 -1.0367384,-0.29215 3.4241752,0.11203 2.4261262,0.19559 -2.8543297,0.23899 -5.264912,-0.48062 -1.408937,0.96258 2.038127,0.61922 4.214119,0.82675 6.34392,0.88141 1.72643,0.0443 3.416048,-0.26253 5.145155,-0.24866 2.286434,-0.15128 4.532029,-0.61441 6.805703,-0.87494 0.93223,-0.16194 1.861962,0.0674 2.735777,0.39302 0.414875,0.15461 0.784832,0.42239 1.212763,0.53826 0.861428,0.23323 1.643579,0.10891 2.509939,0.0502 0.419742,0.0166 0.839331,0.062 1.259228,0.0498 2.600902,-0.0761 -0.140612,-0.13387 2.347829,-0.31539 1.193161,-0.087 2.442153,0.17331 3.616847,0.33171 1.277292,-0.23143 2.555028,0.10612 3.827029,0.11059 0.425609,0.002 0.846871,-0.0927 1.272295,-0.10504 0.819504,-0.0238 1.79316,0.0671 2.606864,0.12547 0.456111,0.0385 0.910519,0.11643 1.368335,0.11557 1.663356,-0.003 0.954324,-0.18823 2.551343,-0.34484 1.253759,-0.12294 2.552927,0.0796 3.796773,0.20428 1.230479,0.11208 2.43759,-0.55914 3.667828,-0.28651 0.50177,0.1112 0.926203,0.45914 1.426991,0.57449 0.15556,0.0358 2.813241,0.15585 2.955054,0.16264 0.952453,0.13167 1.80551,-0.4222 2.727332,-0.46361 0.460327,-0.0207 0.914166,0.11465 1.372256,0.16349 1.461251,0.15582 2.924236,0.24093 4.391613,0.31609 1.360358,0.034 2.617786,-0.57489 3.931936,-0.76901 1.170384,-0.17289 2.376856,0.0458 3.559808,-0.0404 1.109223,-0.26688 2.213362,-0.0796 3.339505,-0.19538 0.348931,-0.0359 0.693343,-0.16624 1.043028,-0.13818 0.559786,0.0449 2.093697,0.65661 2.538429,0.82053 2.770814,0.83106 5.544712,-0.18817 8.312431,-0.31871 2.798643,0.2262 5.634673,0.29455 8.389613,0.8396 0.57618,0.12678 1.14002,0.33146 1.72853,0.38032 1.6119,0.13385 3.3011,-0.25602 4.87503,-0.49654 3.69633,-0.56485 -0.66757,0.29793 2.82975,-0.43324 0.41066,-0.1058 0.80802,-0.29258 1.23198,-0.31738 1.55208,-0.0908 1.16186,0.43028 2.75502,0.56172 1.36261,0.11241 2.73535,0.11678 4.10184,0.0661 6.14107,-0.22783 -0.0624,-0.43729 4.0443,-0.24374 2.18704,0.12307 4.31327,-0.23091 6.40826,-0.79951 0.94852,-0.18254 1.83899,-0.75644 2.80335,-0.87545 1.00064,-0.12347 2.1547,0.24003 3.1218,0.42398 0.77659,0.21553 1.53312,-0.19611 2.29916,-0.14328 1.4852,0.10244 2.90075,0.95566 4.33851,1.26595 0.56776,0.12254 1.1527,0.15022 1.72905,0.22533 4.24081,0.26157 8.45317,-0.38489 12.64789,-0.88455 2.03798,-0.76169 3.91256,-0.92428 6.06832,-0.78141 1.75468,0.86433 5.87165,-1.11909 7.94646,-0.94256 0.18523,0.0158 0.2883,0.25493 0.47008,0.29304 0.40534,0.085 1.01217,-0.15425 1.37282,-0.26385 0.47881,0.16333 0.90186,-0.21847 1.35927,-0.19594 0.28724,0.0142 0.54988,0.16475 0.82481,0.24713 0.35912,0.0635 0.71278,0.17454 1.07738,0.19044 0.75493,0.0329 1.59349,-0.17339 2.32385,-0.3143 1.06751,-0.27562 2.03773,-0.57615 3.15192,-0.48769 0.37812,0.03 0.74857,0.13213 1.12739,0.15224 4.49763,0.23885 -2.38057,-0.36526 2.29571,0.0786 0.41432,0.0567 0.82508,0.15033 1.24295,0.1701 0.40663,0.0192 0.81298,-0.0569 1.22006,-0.0536 1.76691,0.0144 3.55201,0.31026 5.30904,0.47251 1.56383,0.12327 3.09976,0.3785 4.65546,0.57885 0.58507,0.0754 1.15677,0.2605 1.74646,0.2834 2.62128,0.10177 4.19675,-0.0716 6.6707,-0.25904 2.12921,0.7454 3.89537,-0.32999 5.90957,-0.75911 0.8695,-0.18525 1.27361,-0.19244 2.15892,-0.26892 2.06449,0.13213 3.98493,-0.34747 5.9444,-0.90543 0,0 -0.13628,-81.5035 -0.13628,-81.5035 v 0 c -2.60867,-0.63923 -5.18053,-1.03494 -7.88628,-0.79758 -2.00964,-0.0225 -4.02818,-0.0264 -6.02832,-0.24883 -1.60249,-0.1782 -2.47496,-0.51586 -4.11811,-0.32046 -0.71452,0.085 -1.39424,0.34995 -2.09137,0.52493 -0.299,0.0166 -0.598,0.0331 -0.897,0.0497 0.15799,0.0406 0.62931,0.0723 0.474,0.12179 -0.95523,0.30433 -2.39089,0.29047 -3.37843,0.43529 -0.52912,0.0776 -1.04221,0.24309 -1.57173,0.31799 -0.47796,0.0676 -0.96306,0.0725 -1.4446,0.10871 -1.74662,0.16153 -3.52198,0.45747 -5.27849,0.47054 -0.40382,0.003 -0.80683,-0.0735 -1.2102,-0.0547 -0.41368,0.0193 -0.82027,0.11249 -1.2304,0.16872 -4.5114,0.42475 2.08955,-0.14805 -2.29319,0.0751 -0.3862,0.0197 -0.76429,0.12155 -1.14986,0.15057 -1.21634,0.0915 -2.304,-0.23873 -3.48373,-0.4847 -1.03567,-0.15859 -1.87443,-0.33598 -2.93793,-0.2889 -6.24022,0.27626 3.02116,0.14916 -3.50931,0.51343 -1.19741,0.0668 -2.39837,-0.35312 -3.59804,-0.0228 -1.40429,-0.0539 -2.43543,-0.15728 -3.84633,0.0599 -0.6077,0.0936 -2.4818,0.71231 -3.38153,0.62684 -0.0788,-0.007 0.0671,-0.14003 0.10067,-0.21004 0.51256,-0.0477 1.02514,-0.0954 1.5377,-0.14312 -1.62337,0.0967 -3.26599,0.23011 -4.89266,0.1064 -0.58272,-0.0443 -1.15609,-0.17652 -1.73883,-0.22048 -7.38795,-0.55724 3.46774,0.4861 -3.90489,-0.25374 -3.12378,0.078 -6.01389,0.13114 -7.60759,0.20963 -0.5735,0.0748 -1.15564,0.10216 -1.7205,0.22452 -1.42443,0.30857 -2.82794,1.16231 -4.30022,1.26183 -0.77732,0.0525 -1.54448,-0.36633 -2.33269,-0.14671 -1.13124,0.20371 -2.36693,0.53298 -3.52944,0.42745 -1.33272,-0.12099 -2.61421,-0.70994 -3.95177,-0.8192 -3.9647,-0.56058 -7.97675,-0.60255 -11.94875,-0.0222 -0.55542,0.10796 -1.10443,0.25415 -1.66623,0.32388 -1.54716,0.19201 1.28917,-0.83513 0.58262,0.18314 -0.1498,0.21586 -2.4559,0.57921 -2.75502,0.56171 -0.42396,-0.0248 -0.82132,-0.21158 -1.23198,-0.31738 -3.49732,-0.73117 0.86658,0.13161 -2.82975,-0.43324 -1.57393,-0.24052 -3.26313,-0.63039 -4.87503,-0.49654 -0.58851,0.0489 -1.15235,0.25355 -1.72853,0.38032 -2.75494,0.54505 -5.59097,0.61341 -8.389614,0.8396 -2.767719,-0.13054 -5.541617,-1.14977 -8.31243,-0.31871 -0.444732,0.16392 -1.978643,0.7756 -2.53843,0.82053 -0.349684,0.0281 -0.694096,-0.1023 -1.043027,-0.13818 -1.126142,-0.1158 -2.230283,0.0715 -3.339506,-0.19538 -1.182951,-0.0862 -2.389423,0.13248 -3.559807,-0.0404 -1.31415,-0.19412 -2.571579,-0.803 -3.931939,-0.76901 -1.467377,0.0752 -2.93036,0.16027 -4.391613,0.31609 -0.458087,0.0488 -0.911929,0.18417 -1.372255,0.16349 -0.921822,-0.0414 -1.774879,-0.59528 -2.727333,-0.4636 -0.14181,0.007 -2.799491,0.12681 -2.955051,0.16264 -0.500787,0.11534 -0.925219,0.46329 -1.426987,0.57448 -1.230226,0.27263 -2.437324,-0.39858 -3.667791,-0.28651 -1.243808,0.12466 -2.542939,0.32722 -3.796658,0.20427 -1.596958,-0.15661 -0.887944,-0.34173 -2.551236,-0.34485 -0.457792,-7.9e-4 -0.912176,0.077 -1.368263,0.11557 -0.813731,0.0583 -1.787251,0.1493 -2.606779,0.12545 -0.425452,-0.0124 -0.84674,-0.10655 -1.272377,-0.10506 -1.27252,0.004 -2.550783,0.34204 -3.828599,0.11058 -1.177561,0.15863 -2.428794,0.41871 -3.62481,0.33198 -2.490632,-0.18062 0.246821,-0.24002 -2.358072,-0.31476 -0.422727,-0.0121 -0.845123,0.0336 -1.267684,0.0503 -0.877064,-0.0584 -1.658525,-0.1818 -2.530687,0.0521 -1.351182,0.36239 -2.376314,1.25929 -3.946461,0.93775 -1.71122,-0.21299 -3.37973,-0.60771 -5.069745,-0.93466 -1.15064,-0.0505 -1.833574,-0.43677 -3.019823,-0.43937 -0.229643,-5.3e-4 -0.465895,-0.0935 -0.687927,-0.0363 -0.183166,0.0472 -0.303973,0.22075 -0.45596,0.33113 -0.887465,0.95374 -0.285208,0.54355 -2.5051,0.48131 -1.700959,-0.0477 -3.399077,-0.20988 -5.100723,-0.20341 -0.2992,10e-4 -0.570623,0.18744 -0.867186,0.22613 -0.06199,0.008 -1.4999646,-0.0291 -1.5589404,-0.0305 -1.6825792,-0.0618 -3.3620068,-0.17954 -5.0298968,-0.41261 -2.0735702,-0.24584 -4.32323286,-0.6651 -5.8947152,0.99883 0,0 0,78.38776 0,78.38776 z" />
  </g>
</svg>
