<?xml version="1.0" encoding="UTF-8" standalone="no"?>
<svg
   xmlns:dc="http://purl.org/dc/elements/1.1/"
   xmlns:cc="http://creativecommons.org/ns#"
   xmlns:rdf="http://www.w3.org/1999/02/22-rdf-syntax-ns#"
   xmlns:svg="http://www.w3.org/2000/svg"
   xmlns="http://www.w3.org/2000/svg"
   xmlns:sodipodi="http://sodipodi.sourceforge.net/DTD/sodipodi-0.dtd"
   xmlns:inkscape="http://www.inkscape.org/namespaces/inkscape"
   width="219.38333mm"
   height="87.372787mm"
   viewBox="0 0 219.38333 87.372787"
   version="1.1"
   id="svg893"
   inkscape:version="1.0.2-2 (e86c870879, 2021-01-15)"
   sodipodi:docname="section_drawing_bottom.svg">
  <defs
     id="defs887" />
  <sodipodi:namedview
     id="base"
     pagecolor="#ffffff"
     bordercolor="#666666"
     borderopacity="1.0"
     inkscape:pageopacity="0.0"
     inkscape:pageshadow="2"
     inkscape:zoom="0.35"
     inkscape:cx="397.94953"
     inkscape:cy="188.0017"
     inkscape:document-units="mm"
     inkscape:current-layer="layer1"
     inkscape:document-rotation="0"
     showgrid="false"
     inkscape:window-width="1515"
     inkscape:window-height="1198"
     inkscape:window-x="156"
     inkscape:window-y="156"
     inkscape:window-maximized="0" />
  <metadata
     id="metadata890">
    <rdf:RDF>
      <cc:Work
         rdf:about="">
        <dc:format>image/svg+xml</dc:format>
        <dc:type
           rdf:resource="http://purl.org/dc/dcmitype/StillImage" />
        <dc:title />
      </cc:Work>
    </rdf:RDF>
  </metadata>
  <g
     inkscape:label="Layer 1"
     inkscape:groupmode="layer"
     id="layer1"
     transform="translate(-0.54251955,-98.42455)">
    <path
       style="fill:#00e696;fill-opacity:1;stroke-width:0.269239"
       id="path905-2"
       d="m -1.8330862,178.8138 c 1.58816323,1.66394 3.8617044,1.24468 5.9572849,0.99883 1.6855955,-0.23306 3.3828494,-0.35086 5.083289,-0.41261 -1.0477432,-0.29215 3.4605213,0.11203 2.4518793,0.19559 -2.8846278,0.23899 -5.3207992,-0.48062 -1.423893,0.96258 2.059761,0.61922 4.258851,0.82675 6.411259,0.88141 1.744756,0.0443 3.45231,-0.26253 5.19977,-0.24866 2.310704,-0.15128 4.580135,-0.61441 6.877943,-0.87494 0.942125,-0.16194 1.881727,0.0674 2.764817,0.39302 0.419278,0.15461 0.793163,0.42239 1.225636,0.53826 0.870571,0.23323 1.661025,0.10891 2.536581,0.0502 0.424198,0.0166 0.84824,0.062 1.272595,0.0498 2.62851,-0.0761 -0.142104,-0.13387 2.37275,-0.31539 1.205826,-0.087 2.468076,0.17331 3.655239,0.33171 1.29085,-0.23143 2.582149,0.10612 3.867652,0.11059 0.430127,0.002 0.85586,-0.0927 1.2858,-0.10504 0.828202,-0.0238 1.812194,0.0671 2.634534,0.12547 0.460954,0.0385 0.920185,0.11643 1.38286,0.11557 1.681013,-0.003 0.964454,-0.18823 2.578425,-0.34484 1.267068,-0.12294 2.580026,0.0796 3.837076,0.20428 1.243539,0.11208 2.463464,-0.55914 3.70676,-0.28651 0.507096,0.1112 0.936034,0.45914 1.442138,0.57449 0.157212,0.0358 2.843103,0.15585 2.986421,0.16264 0.962564,0.13167 1.824676,-0.4222 2.756283,-0.46361 0.465213,-0.0207 0.923869,0.11465 1.386822,0.16349 1.476761,0.15582 2.955275,0.24093 4.438224,0.31609 1.374805,0.034 2.645572,-0.57489 3.973675,-0.76901 1.182811,-0.17289 2.402082,0.0458 3.597599,-0.0404 1.120991,-0.26688 2.236856,-0.0796 3.374954,-0.19538 0.352632,-0.0359 0.700698,-0.16624 1.054097,-0.13818 0.56573,0.0449 2.115919,0.65661 2.565371,0.82053 2.800225,0.83106 5.603578,-0.18817 8.400665,-0.31871 2.82835,0.2262 5.69448,0.29455 8.47866,0.8396 0.58228,0.12678 1.15212,0.33146 1.74687,0.38032 1.62901,0.13385 3.33615,-0.25602 4.92678,-0.49654 3.73557,-0.56485 -0.67466,0.29793 2.85979,-0.43324 0.41502,-0.1058 0.81659,-0.29258 1.24506,-0.31738 1.56855,-0.0908 1.17419,0.43028 2.78425,0.56172 1.37707,0.11241 2.7644,0.11678 4.14538,0.0661 6.20626,-0.22783 -0.0631,-0.43729 4.08724,-0.24374 2.21025,0.12307 4.35906,-0.23091 6.47628,-0.79951 0.95858,-0.18254 1.85851,-0.75644 2.83312,-0.87545 1.01124,-0.12347 2.17755,0.24003 3.15492,0.42398 0.78484,0.21553 1.5494,-0.19611 2.32356,-0.14328 1.50098,0.10244 2.93155,0.95566 4.38458,1.26595 0.57377,0.12254 1.16494,0.15022 1.7474,0.22533 4.28582,0.26157 8.54289,-0.38489 12.78213,-0.88455 2.05962,-0.76169 3.9541,-0.92428 6.13274,-0.78141 1.7733,0.86433 5.93397,-1.11909 8.0308,-0.94256 0.1872,0.0158 0.29137,0.25493 0.47509,0.29304 0.40964,0.085 1.0229,-0.15425 1.38739,-0.26385 0.48389,0.16333 0.91142,-0.21847 1.37369,-0.19594 0.29029,0.0142 0.55572,0.16475 0.83357,0.24713 0.36293,0.0635 0.72034,0.17454 1.08881,0.19044 0.76295,0.0329 1.6104,-0.17339 2.34852,-0.3143 1.07883,-0.27562 2.05936,-0.57615 3.18537,-0.48769 0.38215,0.03 0.75653,0.13213 1.13937,0.15224 4.54537,0.23885 -2.40585,-0.36526 2.32008,0.0786 0.41871,0.0567 0.83382,0.15033 1.25614,0.1701 0.41094,0.0192 0.8216,-0.0569 1.23301,-0.0536 1.78567,0.0144 3.5897,0.31026 5.36539,0.47251 1.58043,0.12327 3.13266,0.3785 4.70488,0.57885 0.59128,0.0754 1.16904,0.2605 1.76499,0.2834 2.64911,0.10177 4.2413,-0.0716 6.74151,-0.25904 2.15181,0.7454 3.93672,-0.32999 5.9723,-0.75911 0.87873,-0.18525 1.28713,-0.19244 2.18184,-0.26892 2.08641,0.13213 4.02723,-0.34747 6.0075,-0.90543 0,0 -0.13773,-81.50351 -0.13773,-81.50351 v 0 c -2.63636,-0.63923 -5.23552,-1.03494 -7.97,-0.79758 -2.03096,-0.0225 -4.07092,-0.0264 -6.0923,-0.24883 -1.61951,-0.1782 -2.50123,-0.51586 -4.16182,-0.32046 -0.72211,0.085 -1.40905,0.34995 -2.11356,0.52493 -0.30219,0.0166 -0.60436,0.0331 -0.90654,0.0497 0.15967,0.0406 0.636,0.0723 0.47903,0.12179 -0.96536,0.30433 -2.41627,0.29047 -3.41429,0.43529 -0.53472,0.0776 -1.05327,0.24309 -1.58841,0.31799 -0.48304,0.0676 -0.97329,0.0725 -1.45993,0.10871 -1.76516,0.16153 -3.55937,0.45747 -5.33452,0.47054 -0.40811,0.003 -0.81539,-0.0735 -1.22304,-0.0547 -0.41808,0.0193 -0.82898,0.11249 -1.24346,0.16872 -4.5593,0.42475 2.11173,-0.14805 -2.31754,0.0751 -0.39029,0.0197 -0.7724,0.12155 -1.16207,0.15057 -1.22924,0.0915 -2.32846,-0.23873 -3.5207,-0.4847 -1.04667,-0.15859 -1.89433,-0.33598 -2.96912,-0.2889 -6.30645,0.27626 3.05324,0.14916 -3.54656,0.51343 -1.21012,0.0668 -2.42382,-0.35312 -3.63622,-0.0228 -1.41921,-0.0539 -2.4613,-0.15728 -3.88717,0.0599 -0.61416,0.0936 -2.50813,0.71231 -3.41743,0.62684 -0.0796,-0.007 0.0678,-0.14003 0.10169,-0.21004 0.518,-0.0477 1.03601,-0.0954 1.55403,-0.14312 -1.64061,0.0967 -3.30066,0.23011 -4.9446,0.1064 -0.5889,-0.0443 -1.16836,-0.17652 -1.75729,-0.22048 -7.46636,-0.55724 3.50455,0.4861 -3.94634,-0.25374 -3.15694,0.078 -6.07772,0.13114 -7.68833,0.20963 -0.57959,0.0748 -1.16791,0.10216 -1.73877,0.22452 -1.43955,0.30857 -2.85796,1.16231 -4.34587,1.26183 -0.78557,0.0525 -1.56087,-0.36633 -2.35745,-0.14671 -1.14325,0.20371 -2.39205,0.53298 -3.56691,0.42745 -1.34685,-0.12099 -2.64195,-0.70994 -3.9937,-0.8192 -4.00679,-0.56058 -8.06143,-0.60255 -12.07559,-0.0222 -0.56131,0.10796 -1.11616,0.25415 -1.68392,0.32388 -1.56358,0.19201 1.30285,-0.83513 0.5888,0.18314 -0.15138,0.21586 -2.48196,0.57921 -2.78426,0.56171 -0.42846,-0.0248 -0.83003,-0.21158 -1.24505,-0.31738 -3.53445,-0.73117 0.87578,0.13161 -2.85979,-0.43324 -1.59063,-0.24052 -3.29777,-0.63039 -4.92678,-0.49654 -0.59475,0.0489 -1.16459,0.25355 -1.74687,0.38032 -2.78418,0.54505 -5.65031,0.61341 -8.478661,0.8396 -2.797087,-0.13054 -5.600439,-1.14977 -8.400665,-0.31871 -0.449452,0.16392 -1.999641,0.7756 -2.565371,0.82053 -0.353399,0.0281 -0.701465,-0.1023 -1.054098,-0.13818 -1.138097,-0.1158 -2.253963,0.0715 -3.374953,-0.19538 -1.195506,-0.0862 -2.414788,0.13248 -3.597599,-0.0404 -1.328093,-0.19412 -2.59887,-0.803 -3.973674,-0.76901 -1.482952,0.0752 -2.961464,0.16027 -4.438228,0.31609 -0.46295,0.0488 -0.921609,0.18417 -1.386822,0.16349 -0.931607,-0.0414 -1.793718,-0.59528 -2.756282,-0.4636 -0.143316,0.007 -2.829208,0.12681 -2.986419,0.16264 -0.506102,0.11534 -0.93504,0.46329 -1.442133,0.57448 -1.243284,0.27263 -2.463196,-0.39858 -3.706725,-0.28651 -1.25701,0.12466 -2.56993,0.32722 -3.836958,0.20427 -1.613909,-0.15661 -0.89737,-0.34173 -2.578317,-0.34485 -0.46265,-7.9e-4 -0.921857,0.077 -1.382785,0.11557 -0.82237,0.0583 -1.806224,0.1493 -2.63445,0.12545 -0.429968,-0.0124 -0.855727,-0.10655 -1.285882,-0.10506 -1.286029,0.004 -2.57786,0.34204 -3.86924,0.11058 -1.190061,0.15863 -2.454576,0.41871 -3.663287,0.33198 -2.517069,-0.18062 0.249441,-0.24002 -2.383102,-0.31476 -0.427214,-0.0121 -0.854093,0.0336 -1.28114,0.0503 -0.886373,-0.0584 -1.676129,-0.1818 -2.557549,0.0521 -1.365525,0.36239 -2.401538,1.25929 -3.988352,0.93775 -1.729385,-0.21299 -3.415604,-0.60771 -5.123558,-0.93466 -1.162853,-0.0505 -1.853037,-0.43677 -3.051878,-0.43937 -0.232081,-5.3e-4 -0.470841,-0.0935 -0.69523,-0.0363 -0.185111,0.0472 -0.307199,0.22075 -0.460799,0.33113 -0.896886,0.95374 -0.288237,0.54355 -2.531692,0.48131 -1.719013,-0.0477 -3.435156,-0.20988 -5.154866,-0.20341 -0.302376,10e-4 -0.576679,0.18744 -0.876391,0.22613 -0.06265,0.008 -1.5158851,-0.0291 -1.5754877,-0.0305 C 7.5070177,99.778 5.809763,99.66026 4.1241677,99.42719 c -2.0955805,-0.24584 -4.3691217,-0.6651 -5.9572849,0.99883 0,0 0,78.38777 0,78.38777 z" />
    <path
       style="fill:#ccd6f6;stroke-width:0.269176;fill-opacity:1"
       id="path905"
       d="m -2.6037397,173.21388 c 1.5874072,1.66394 3.8598658,1.24468 5.9544481,0.99883 1.6847917,-0.23306 3.3812357,-0.35086 5.0808661,-0.41261 -1.0472441,-0.29215 3.4588725,0.11203 2.4507105,0.19559 -2.8832532,0.23899 -5.3182624,-0.48062 -1.4232136,0.96258 2.0587796,0.61922 4.2568216,0.82675 6.4082046,0.88141 1.743925,0.0443 3.450665,-0.26253 5.197292,-0.24866 2.309604,-0.15128 4.577954,-0.61441 6.874668,-0.87494 0.941676,-0.16194 1.880829,0.0674 2.763499,0.39302 0.419079,0.15461 0.792785,0.42239 1.225053,0.53826 0.870157,0.23323 1.660233,0.10891 2.535372,0.0502 0.423996,0.0166 0.847836,0.062 1.271989,0.0498 2.627257,-0.0761 -0.142037,-0.13387 2.37162,-0.31539 1.205252,-0.087 2.4669,0.17331 3.653498,0.33171 1.290235,-0.23143 2.580919,0.10612 3.865809,0.11059 0.429922,0.002 0.855452,-0.0927 1.285188,-0.10504 0.827808,-0.0238 1.811331,0.0671 2.63328,0.12547 0.460733,0.0385 0.919746,0.11643 1.382201,0.11557 1.680211,-0.003 0.963994,-0.18823 2.577195,-0.34484 1.266465,-0.12294 2.578797,0.0796 3.835249,0.20428 1.242947,0.11208 2.46229,-0.55914 3.704993,-0.28651 0.506856,0.1112 0.935589,0.45914 1.441453,0.57449 0.157136,0.0358 2.841748,0.15585 2.984999,0.16264 0.962104,0.13167 1.823806,-0.4222 2.754968,-0.46361 0.464992,-0.0207 0.92343,0.11465 1.386162,0.16349 1.476057,0.15582 2.953867,0.24093 4.436114,0.31609 1.374143,0.034 2.644312,-0.57489 3.971781,-0.76901 1.182242,-0.17289 2.40094,0.0458 3.595879,-0.0404 1.120463,-0.26688 2.235791,-0.0796 3.373346,-0.19538 0.352466,-0.0359 0.700369,-0.16624 1.053597,-0.13818 0.565458,0.0449 2.11491,0.65661 2.564155,0.82053 2.798892,0.83106 5.6009,-0.18817 8.396656,-0.31871 2.827012,0.2262 5.691778,0.29455 8.474638,0.8396 0.58201,0.12678 1.15157,0.33146 1.74605,0.38032 1.62823,0.13385 3.33455,-0.25602 4.92442,-0.49654 3.73379,-0.56485 -0.67432,0.29793 2.85843,-0.43324 0.41483,-0.1058 0.81621,-0.29258 1.24447,-0.31738 1.56781,-0.0908 1.17363,0.43028 2.78292,0.56172 1.37642,0.11241 2.76309,0.11678 4.14342,0.0661 6.20329,-0.22783 -0.063,-0.43729 4.08528,-0.24374 2.20918,0.12307 4.35697,-0.23091 6.47318,-0.79951 0.95813,-0.18254 1.85764,-0.75644 2.83177,-0.87545 1.01078,-0.12347 2.17652,0.24003 3.15342,0.42398 0.78447,0.21553 1.54866,-0.19611 2.32245,-0.14328 1.50028,0.10244 2.93016,0.95566 4.38249,1.26595 0.5735,0.12254 1.16439,0.15022 1.74657,0.22533 4.28378,0.26157 8.53883,-0.38489 12.77605,-0.88455 2.05864,-0.76169 3.95221,-0.92428 6.12981,-0.78141 1.77246,0.86433 5.93115,-1.11909 8.02699,-0.94256 0.18711,0.0158 0.29122,0.25493 0.47485,0.29304 0.40945,0.085 1.02242,-0.15425 1.38672,-0.26385 0.48367,0.16333 0.911,-0.21847 1.37305,-0.19594 0.29015,0.0142 0.55546,0.16475 0.83317,0.24713 0.36276,0.0635 0.71999,0.17454 1.0883,0.19044 0.76258,0.0329 1.60963,-0.17339 2.34739,-0.3143 1.07832,-0.27562 2.05838,-0.57615 3.18386,-0.48769 0.38196,0.03 0.75616,0.13213 1.13882,0.15224 4.54321,0.23885 -2.4047,-0.36526 2.31897,0.0786 0.41853,0.0567 0.83344,0.15033 1.25555,0.1701 0.41075,0.0192 0.82121,-0.0569 1.23242,-0.0536 1.78481,0.0144 3.588,0.31026 5.36283,0.47251 1.57968,0.12327 3.13117,0.3785 4.70264,0.57885 0.591,0.0754 1.1685,0.2605 1.76415,0.2834 2.64785,0.10177 4.23928,-0.0716 6.73831,-0.25904 2.15078,0.7454 3.93484,-0.32999 5.96945,-0.75911 0.87831,-0.18525 1.28652,-0.19244 2.1808,-0.26892 2.08541,0.13213 4.0253,-0.34747 6.00463,-0.90543 0,0 -0.13766,-81.503495 -0.13766,-81.503495 v 0 c -2.6351,-0.639233 -5.23303,-1.034949 -7.9662,-0.797583 -2.03,-0.02254 -4.06899,-0.02641 -6.0894,-0.248836 -1.61874,-0.178199 -2.50002,-0.515858 -4.15984,-0.320455 -0.72176,0.08497 -1.40837,0.349951 -2.11255,0.524928 -0.30204,0.01656 -0.60408,0.03312 -0.90612,0.04967 0.15961,0.04059 0.63571,0.07231 0.47881,0.121788 -0.9649,0.304334 -2.4151,0.290475 -3.41266,0.43529 -0.53447,0.07759 -1.05276,0.243091 -1.58765,0.317997 -0.4828,0.06762 -0.97282,0.07247 -1.45924,0.108706 -1.76431,0.16153 -3.55767,0.45747 -5.33198,0.47054 -0.40791,0.003 -0.81501,-0.0735 -1.22246,-0.0547 -0.41787,0.0193 -0.82857,0.11249 -1.24286,0.16872 -4.55714,0.42475 2.11073,-0.14805 -2.31643,0.0751 -0.3901,0.0197 -0.77203,0.12155 -1.16151,0.15057 -1.22867,0.0915 -2.32736,-0.23873 -3.51903,-0.4847 -1.04617,-0.15859 -1.89343,-0.33598 -2.9677,-0.2889 -6.30346,0.27626 3.05178,0.14916 -3.54487,0.51343 -1.20955,0.0668 -2.42267,-0.35312 -3.6345,-0.0228 -1.41852,-0.0539 -2.46012,-0.15728 -3.8853,0.0599 -0.61387,0.0936 -2.50695,0.71231 -3.4158,0.62684 -0.0796,-0.007 0.0678,-0.14003 0.10159,-0.21004 0.51776,-0.0477 1.03552,-0.0954 1.55328,-0.14312 -1.63981,0.0967 -3.29908,0.23011 -4.94224,0.1064 -0.58861,-0.0443 -1.16781,-0.17652 -1.75644,-0.22048 -7.46282,-0.55724 3.50288,0.4861 -3.94446,-0.25374 -3.15544,0.078 -6.07485,0.13114 -7.68468,0.20963 -0.57931,0.0748 -1.16736,0.10216 -1.73793,0.22452 -1.43887,0.30857 -2.85661,1.16231 -4.3438,1.26183 -0.7852,0.0525 -1.56013,-0.36633 -2.35634,-0.14671 -1.1427,0.20371 -2.39092,0.53298 -3.5652,0.42745 -1.34622,-0.12099 -2.6407,-0.70994 -3.99181,-0.8192 -4.00489,-0.56058 -8.05759,-0.60255 -12.06984,-0.0222 -0.56105,0.10796 -1.11562,0.25415 -1.6831,0.32388 -1.56285,0.19201 1.30223,-0.83513 0.58851,0.18314 -0.15131,0.21586 -2.48077,0.57921 -2.78293,0.56171 -0.42826,-0.0248 -0.82963,-0.21158 -1.24446,-0.31738 -3.53275,-0.73117 0.87536,0.13161 -2.85843,-0.43324 -1.58988,-0.24052 -3.29619,-0.63039 -4.92443,-0.49654 -0.59447,0.0489 -1.16403,0.25355 -1.74604,0.38032 -2.78286,0.54505 -5.647629,0.61341 -8.474639,0.8396 -2.795757,-0.13054 -5.597765,-1.14977 -8.396657,-0.31871 -0.449245,0.16392 -1.998696,0.7756 -2.564155,0.82053 -0.353229,0.0281 -0.70113,-0.1023 -1.053597,-0.13818 -1.137554,-0.1158 -2.252883,0.0715 -3.373346,-0.19538 -1.194938,-0.0862 -2.413636,0.13248 -3.59588,-0.0404 -1.327467,-0.19412 -2.597637,-0.803 -3.971783,-0.76901 -1.482245,0.0752 -2.960053,0.16027 -4.436114,0.31609 -0.462729,0.0488 -0.92117,0.18417 -1.386161,0.16349 -0.931163,-0.0414 -1.792864,-0.59528 -2.75497,-0.4636 -0.143247,0.007 -2.827858,0.12681 -2.984995,0.16264 -0.505861,0.11534 -0.934595,0.46329 -1.441447,0.57448 -1.242692,0.27263 -2.462022,-0.39858 -3.704959,-0.28651 -1.256411,0.12466 -2.568705,0.32722 -3.83513,0.20427 -1.61314,-0.15661 -0.896942,-0.34173 -2.577088,-0.34485 -0.462431,-7.9e-4 -0.92142,0.077 -1.382128,0.11557 -0.821976,0.0583 -1.805362,0.1493 -2.633194,0.12545 -0.429764,-0.0124 -0.85532,-0.10655 -1.28527,-0.10506 -1.285416,0.004 -2.576632,0.34204 -3.867396,0.11058 -1.189495,0.15863 -2.453407,0.41871 -3.661542,0.33198 -2.51587,-0.18062 0.249322,-0.24002 -2.381967,-0.31476 -0.42701,-0.0121 -0.853686,0.0336 -1.280529,0.0503 -0.885952,-0.0584 -1.675332,-0.1818 -2.556331,0.0521 -1.364875,0.36239 -2.400394,1.25929 -3.986453,0.93775 -1.72856,-0.21299 -3.413977,-0.60771 -5.121117,-0.93466 -1.1623,-0.0505 -1.852154,-0.43677 -3.050424,-0.43937 -0.23197,-5.3e-4 -0.470617,-0.0935 -0.694899,-0.0363 -0.185022,0.0472 -0.307053,0.22075 -0.46058,0.33113 -0.896458,0.95374 -0.288099,0.54355 -2.530486,0.48131 -1.718194,-0.0477 -3.43352,-0.20988 -5.15241,-0.20341 -0.302232,0.001 -0.576405,0.18744 -0.875973,0.22613 -0.062619,0.008 -1.5151638,-0.0291 -1.5747373,-0.0305 -1.6996304,-0.0618 -3.3960747,-0.17954 -5.0808669,-0.41261 -2.0945823,-0.24584 -4.3670405,-0.6651 -5.954448,0.99883 0,0 0,78.38776 0,78.38776 z" />
  </g>
</svg>
