<?xml version="1.0" standalone="no"?>
<!DOCTYPE svg PUBLIC "-//W3C//DTD SVG 20010904//EN"
"http://www.w3.org/TR/2001/REC-SVG-20010904/DTD/svg10.dtd">
<svg version="1.0" xmlns="http://www.w3.org/2000/svg"
width="960.000000pt" height="960.000000pt" viewBox="0 0 960.000000 960.000000"
preserveAspectRatio="xMidYMid meet">
<metadata>
Created by potrace 1.11, written by Peter Selinger 2001-2013
</metadata>
<g transform="translate(0.000000,960.000000) scale(0.100000,-0.100000)"
fill="#000000" stroke="none">
<path d="M5030 7603 c-19 -9 -69 -19 -110 -23 -63 -7 -89 -16 -160 -56 -47
-26 -87 -51 -88 -56 -2 -5 -18 -16 -35 -25 -48 -24 -106 -74 -113 -95 -3 -11
-30 -45 -59 -76 -83 -89 -84 -90 -91 -119 -4 -16 -18 -41 -31 -56 -12 -16 -23
-39 -23 -52 0 -14 -9 -41 -19 -62 -44 -85 -45 -129 -48 -1321 -1 -760 -5
-1150 -12 -1183 -6 -28 -11 -69 -11 -93 0 -28 -7 -52 -20 -69 -11 -14 -25 -49
-30 -78 -6 -29 -19 -62 -29 -73 -10 -12 -31 -43 -46 -71 -16 -27 -36 -59 -45
-70 -27 -33 -224 -225 -231 -225 -3 0 -22 -13 -42 -29 -20 -15 -54 -31 -75
-35 -22 -3 -45 -12 -51 -20 -7 -8 -38 -20 -69 -27 -31 -7 -68 -20 -82 -28 -36
-24 -401 -23 -445 1 -17 9 -49 20 -70 24 -41 7 -142 55 -184 86 -13 10 -30 18
-39 18 -14 0 -52 33 -182 160 -66 64 -130 154 -145 201 -4 13 -16 34 -26 47
-10 13 -21 37 -25 55 -3 18 -15 43 -25 56 -11 14 -19 40 -19 64 0 22 -5 79
-12 128 -15 114 5 367 32 402 9 12 21 33 25 47 11 38 56 130 67 136 5 4 18 25
28 49 23 54 212 242 252 250 15 4 28 10 28 15 0 5 8 11 18 14 9 3 29 17 45 30
15 13 46 27 69 30 24 4 50 14 60 23 42 38 386 58 543 32 60 -10 226 -77 295
-120 8 -5 26 -15 40 -21 25 -12 67 -49 193 -171 63 -62 71 -67 81 -50 11 19
23 1046 12 1088 -6 23 -89 69 -146 80 -19 4 -42 14 -52 22 -9 8 -40 18 -70 22
-29 4 -64 15 -79 24 -14 9 -59 21 -100 26 -40 6 -101 16 -134 23 -90 19 -487
14 -517 -7 -15 -10 -45 -15 -88 -15 -41 0 -95 -10 -145 -25 -44 -14 -87 -25
-96 -25 -9 0 -27 -8 -40 -19 -13 -10 -40 -22 -59 -26 -45 -9 -157 -62 -162
-76 -2 -5 -22 -14 -46 -20 -23 -5 -68 -27 -100 -49 -31 -22 -79 -55 -107 -74
-65 -43 -115 -87 -248 -221 -132 -131 -207 -220 -207 -243 0 -9 -9 -25 -20
-37 -39 -39 -67 -80 -79 -114 -6 -19 -17 -42 -25 -50 -7 -9 -16 -28 -20 -43
-3 -15 -12 -33 -20 -41 -8 -8 -19 -32 -25 -55 -6 -22 -20 -60 -31 -84 -11 -24
-20 -54 -20 -68 0 -14 -9 -44 -21 -65 -14 -26 -23 -66 -26 -115 -4 -49 -11
-81 -22 -94 -24 -27 -24 -521 0 -581 10 -22 20 -67 24 -100 4 -33 16 -76 26
-95 11 -19 19 -48 19 -65 0 -16 11 -54 25 -83 14 -30 25 -60 25 -67 0 -7 9
-23 19 -37 11 -13 24 -43 30 -66 7 -23 16 -42 21 -42 6 0 16 -21 22 -46 7 -25
21 -50 30 -55 10 -5 18 -15 18 -22 0 -19 56 -96 123 -171 34 -38 79 -91 100
-119 65 -86 82 -103 138 -141 30 -20 77 -56 104 -81 86 -77 96 -84 126 -90 16
-4 32 -12 36 -18 12 -18 78 -58 158 -96 135 -63 150 -70 185 -76 19 -4 49 -16
66 -26 17 -10 43 -19 57 -19 15 0 50 -10 79 -21 45 -18 89 -23 293 -33 132 -7
256 -9 275 -4 19 4 69 8 110 8 42 0 100 7 130 15 30 8 86 22 123 30 38 9 78
22 90 29 12 8 40 17 62 21 22 4 54 15 70 25 17 9 43 20 59 24 15 4 40 15 55
25 14 9 40 27 57 39 18 11 44 24 58 28 15 3 31 14 36 24 5 10 22 21 37 25 25
6 114 73 153 114 8 9 35 30 59 46 61 41 181 154 181 170 0 13 19 38 75 101 68
75 110 131 119 161 4 11 15 28 26 38 11 10 20 28 20 40 0 11 11 36 25 55 14
19 25 41 25 51 0 9 9 27 19 41 11 13 23 38 27 54 3 16 15 43 24 59 10 17 21
50 25 75 4 25 15 61 25 80 9 19 20 67 24 105 4 39 15 84 24 100 16 28 17 147
20 1641 l3 1611 -35 27 c-39 29 -65 31 -116 9z"/>
<path d="M6928 6427 c-32 -32 -58 -66 -58 -76 0 -10 -8 -29 -18 -42 -23 -30
-42 -83 -42 -119 0 -15 -7 -33 -15 -40 -8 -7 -15 -18 -15 -25 0 -7 -11 -28
-23 -47 -13 -19 -27 -47 -31 -63 -4 -16 -16 -40 -27 -53 -10 -14 -19 -32 -19
-41 0 -10 -11 -32 -25 -51 -17 -23 -25 -47 -25 -76 0 -24 -7 -51 -18 -65 -25
-34 -82 -147 -82 -163 0 -7 -8 -24 -19 -37 -10 -13 -22 -35 -26 -49 -4 -14
-16 -36 -26 -49 -11 -13 -19 -40 -19 -61 0 -23 -8 -48 -21 -64 -11 -14 -25
-43 -31 -64 -5 -20 -18 -46 -28 -57 -9 -11 -20 -33 -24 -49 -4 -16 -16 -41
-27 -54 -10 -14 -19 -31 -19 -39 0 -7 -9 -26 -19 -41 -10 -15 -22 -49 -25 -76
-3 -28 -15 -59 -25 -70 -10 -12 -22 -35 -25 -52 -4 -18 -15 -39 -26 -49 -10
-9 -21 -31 -24 -49 -4 -18 -15 -41 -26 -51 -11 -10 -20 -25 -20 -33 0 -8 -8
-29 -19 -46 -10 -17 -22 -52 -25 -78 -4 -26 -15 -57 -25 -70 -10 -13 -23 -40
-30 -60 -7 -20 -19 -42 -27 -48 -7 -7 -14 -20 -14 -30 0 -9 -11 -34 -25 -54
-14 -20 -25 -43 -25 -50 0 -6 -11 -27 -25 -46 -17 -23 -25 -47 -25 -76 0 -26
-7 -51 -20 -67 -11 -14 -20 -28 -20 -31 0 -4 -7 -23 -15 -43 -12 -29 -18 -33
-29 -24 -8 7 -17 27 -20 45 -4 19 -13 39 -21 46 -8 6 -19 28 -26 48 -6 20 -28
55 -49 77 -21 22 -43 57 -49 77 -7 20 -18 42 -26 48 -7 6 -17 24 -20 40 -3 16
-13 34 -20 40 -8 6 -19 28 -26 48 -7 20 -20 48 -30 61 -11 13 -19 31 -19 40 0
10 -11 32 -25 51 -14 19 -25 40 -25 47 0 8 -16 30 -35 49 l-36 35 -28 -30
c-36 -38 -51 -80 -51 -140 0 -25 -7 -55 -15 -65 -10 -13 -15 -44 -15 -93 0
-77 -14 -151 -36 -195 -8 -14 -14 -41 -14 -60 0 -18 -11 -51 -25 -73 -13 -22
-25 -56 -25 -76 0 -21 -10 -48 -25 -69 -14 -19 -25 -41 -25 -51 0 -9 -8 -27
-19 -40 -10 -13 -22 -35 -26 -49 -4 -14 -15 -36 -25 -50 -10 -14 -21 -39 -24
-56 -4 -18 -16 -40 -27 -50 -10 -9 -19 -23 -19 -29 0 -7 -11 -20 -25 -29 -32
-21 -32 -53 0 -96 14 -19 25 -41 25 -50 0 -9 11 -31 25 -50 14 -19 25 -42 25
-52 0 -9 9 -22 20 -28 12 -6 26 -21 31 -33 6 -12 19 -38 30 -57 10 -19 19 -47
19 -62 0 -15 6 -31 14 -35 21 -12 65 -79 72 -111 4 -15 15 -36 25 -47 9 -11
21 -33 25 -50 4 -16 32 -56 62 -87 l55 -58 432 0 c286 0 442 4 461 11 43 16
85 72 91 121 3 24 14 54 24 67 11 13 19 31 19 40 0 10 11 32 25 51 14 19 25
41 25 51 0 9 8 27 18 40 11 13 24 39 31 58 6 19 17 42 25 50 7 9 16 38 19 64
2 26 12 56 21 66 9 9 21 33 27 52 7 19 20 45 31 58 10 13 18 31 18 40 0 10 11
32 25 51 14 19 25 41 25 51 0 9 8 27 18 40 11 13 22 46 26 73 3 27 12 57 19
65 17 21 137 264 137 278 0 6 6 16 14 22 7 6 16 33 20 60 3 27 15 60 26 74 11
14 23 39 26 56 4 16 15 38 25 47 11 9 19 24 19 33 0 9 11 33 25 53 14 21 28
59 32 85 3 26 14 59 25 72 10 13 18 31 18 41 0 10 8 28 18 41 17 22 50 86 87
169 8 19 22 46 30 60 8 14 15 40 15 58 0 19 9 45 20 59 11 14 20 33 20 42 0
10 11 32 25 51 14 19 25 41 25 50 0 9 11 31 25 50 14 19 25 41 25 51 0 9 8 27
19 40 10 13 22 35 26 49 4 14 16 36 26 49 11 13 19 40 19 60 0 20 7 47 15 61
8 14 24 43 35 65 11 22 27 51 35 65 8 14 15 41 15 61 0 22 10 48 25 69 14 19
25 41 25 51 0 9 8 27 19 40 10 13 22 35 26 48 4 14 18 45 31 69 13 25 24 50
24 57 0 7 9 20 20 30 12 11 20 31 20 52 0 23 8 40 25 55 15 13 25 32 25 48 0
16 10 35 25 48 19 16 25 32 25 61 0 22 8 48 18 62 35 45 42 83 22 117 -10 17
-28 33 -40 37 -11 3 -215 7 -453 8 l-432 2 -57 -58z"/>
</g>
</svg>
