<?xml version="1.0" standalone="no"?>
<!DOCTYPE svg PUBLIC "-//W3C//DTD SVG 20010904//EN"
 "http://www.w3.org/TR/2001/REC-SVG-20010904/DTD/svg10.dtd">
<svg version="1.0" xmlns="http://www.w3.org/2000/svg"
 width="866.000000pt" height="866.000000pt" viewBox="0 0 866.000000 866.000000"
 preserveAspectRatio="xMidYMid meet">
<metadata>
Created by potrace 1.11, written by Peter Selinger 2001-2013
</metadata>
<g transform="translate(0.000000,866.000000) scale(0.100000,-0.100000)"
fill="#000000" stroke="none">
<path d="M5070 8249 c-30 -16 -56 -30 -58 -29 -1 1 -40 -17 -85 -38 -115 -56
-386 -186 -487 -235 -47 -23 -88 -40 -92 -39 -5 1 -8 -2 -8 -8 0 -5 -6 -10
-12 -11 -7 0 -51 -19 -98 -42 -89 -45 -91 -47 -76 -109 3 -16 8 -40 11 -55 3
-16 10 -48 15 -73 10 -46 18 -98 26 -160 2 -19 7 -51 10 -70 4 -32 7 -59 19
-205 2 -27 6 -75 9 -105 5 -49 8 -99 21 -310 2 -30 6 -118 10 -195 3 -77 8
-167 10 -200 5 -71 5 -717 1 -860 -4 -119 -16 -336 -22 -420 -3 -33 -6 -82 -8
-110 -2 -27 -7 -84 -11 -125 -4 -41 -9 -88 -11 -105 -1 -16 -3 -30 -4 -30 -1
0 -3 -16 -4 -35 -3 -41 -16 -134 -22 -164 -3 -12 -7 -34 -10 -51 -9 -56 -25
-95 -39 -95 -13 0 -84 37 -95 50 -3 3 -16 11 -30 18 -30 14 -54 29 -97 60 -18
13 -33 20 -33 17 0 -4 -13 3 -28 13 -32 24 -276 146 -311 157 -13 4 -40 14
-60 23 -20 9 -39 17 -43 18 -5 1 -10 3 -13 4 -3 1 -8 3 -12 5 -5 1 -15 4 -23
8 -21 8 -161 48 -185 53 -11 2 -31 6 -45 9 -14 3 -36 7 -50 10 -61 13 -290 26
-478 26 -86 0 -159 0 -162 -1 -3 0 -39 -3 -80 -5 -41 -3 -100 -7 -130 -11 -30
-3 -71 -7 -90 -10 -49 -5 -150 -18 -210 -27 -51 -8 -87 -21 -165 -57 -133 -62
-226 -106 -310 -146 -44 -21 -82 -38 -85 -39 -3 0 -39 -17 -80 -37 -41 -19
-115 -55 -165 -78 -595 -283 -610 -292 -700 -402 -22 -27 -50 -61 -62 -76 -13
-15 -23 -33 -23 -39 0 -7 -4 -13 -10 -13 -5 0 -10 -4 -10 -9 0 -5 -16 -33 -35
-62 -19 -30 -35 -59 -35 -65 0 -7 -3 -14 -7 -16 -14 -6 -91 -162 -131 -264
-35 -89 -89 -271 -98 -329 -2 -11 -8 -45 -14 -75 -5 -30 -12 -71 -15 -90 -3
-19 -7 -48 -10 -65 -13 -86 -20 -221 -19 -405 1 -169 7 -315 14 -315 1 0 3
-13 5 -30 2 -16 6 -50 10 -75 4 -25 7 -53 8 -62 1 -10 5 -18 10 -18 4 0 6 -4
3 -8 -7 -12 44 -203 84 -317 46 -132 207 -454 231 -463 5 -2 9 -8 9 -13 0 -14
98 -152 155 -219 54 -63 219 -225 275 -271 56 -44 67 -54 94 -77 8 -6 18 -12
21 -12 3 0 31 -17 63 -38 137 -90 267 -149 427 -194 102 -29 104 -29 291 -35
l171 -5 74 30 c41 16 100 41 131 56 55 25 108 48 118 51 3 0 25 10 50 22 25
11 79 35 120 53 41 18 104 46 140 63 36 17 67 31 70 31 3 1 85 40 182 89 169
83 389 205 448 247 16 11 33 20 38 20 6 0 12 3 14 8 2 4 26 22 54 40 28 18 62
41 74 52 13 11 26 20 30 20 3 0 15 8 26 17 11 10 49 40 84 68 36 27 67 53 68
57 2 5 8 8 12 8 5 0 20 10 33 23 12 12 52 47 87 77 145 124 405 395 494 515
17 22 33 42 36 45 24 21 240 339 253 373 3 9 12 17 19 17 14 0 138 -161 138
-179 0 -6 5 -11 10 -11 6 0 10 -7 10 -15 0 -8 4 -15 9 -15 5 0 11 -8 15 -17 3
-10 23 -45 45 -78 22 -33 82 -132 135 -220 52 -88 99 -164 104 -170 4 -5 11
-17 15 -25 19 -42 147 -240 174 -270 13 -14 23 -27 23 -31 0 -6 105 -163 197
-294 35 -49 64 -93 66 -98 3 -9 90 17 169 51 25 11 49 18 52 15 3 -4 6 -1 6 5
0 7 3 11 8 10 7 -1 21 4 87 32 22 10 117 50 210 91 94 40 173 77 176 82 3 5 9
8 13 7 6 -1 42 14 121 50 22 10 83 37 135 60 52 23 119 53 148 66 29 13 56 24
61 24 12 0 27 36 71 175 22 72 44 137 47 145 3 8 7 20 8 25 0 6 4 17 7 25 10
24 48 144 49 155 1 6 9 30 19 55 10 25 18 49 18 53 0 4 7 27 15 50 18 51 72
219 122 382 20 66 42 139 50 162 7 23 11 44 7 47 -3 3 0 6 7 6 7 0 9 5 6 10
-3 5 -3 16 2 22 4 7 9 19 10 25 7 31 12 48 13 48 1 0 3 9 6 20 2 11 17 67 34
125 17 58 32 112 34 120 2 8 10 35 17 60 7 25 14 50 15 55 28 98 113 384 136
460 18 55 33 105 34 110 1 6 14 47 29 93 15 46 28 89 29 95 2 7 6 19 9 27 6
14 70 209 73 220 0 3 3 12 6 20 4 8 43 121 88 250 74 213 137 382 160 435 5
11 45 108 89 215 188 464 334 735 547 1023 40 53 70 97 66 97 -3 0 -70 -31
-148 -70 -141 -68 -224 -100 -179 -68 11 8 39 25 63 38 23 13 42 27 42 30 0 4
11 12 25 18 13 6 76 45 138 87 63 41 119 75 125 75 5 0 13 7 16 16 3 8 10 12
16 9 5 -3 10 -2 10 2 0 5 16 17 35 27 29 16 35 25 35 53 0 37 4 35 -110 35
-137 -1 -265 -25 -413 -79 -68 -24 -189 -80 -232 -106 -95 -59 -186 -118 -205
-133 -220 -179 -346 -312 -481 -509 -37 -54 -37 -54 -88 -142 -19 -32 -38 -59
-43 -61 -4 -2 -8 -12 -8 -22 0 -10 -4 -20 -8 -22 -11 -4 -152 -276 -152 -293
0 -7 -4 -15 -8 -17 -9 -4 -121 -261 -132 -303 -2 -5 -11 -26 -21 -45 -11 -19
-19 -43 -19 -52 0 -10 -4 -18 -8 -18 -5 0 -9 -6 -9 -12 0 -7 -7 -29 -15 -48
-14 -31 -31 -70 -83 -195 -7 -16 -25 -61 -39 -100 -15 -38 -33 -83 -41 -100
-7 -16 -19 -48 -26 -70 -7 -22 -17 -44 -21 -50 -4 -5 -8 -15 -8 -21 0 -7 -5
-25 -12 -41 -6 -15 -12 -32 -14 -38 -2 -5 -19 -57 -39 -115 -20 -58 -38 -109
-39 -115 -1 -5 -9 -30 -16 -55 -8 -25 -14 -47 -15 -50 -1 -3 -7 -25 -15 -50
-14 -48 -17 -59 -24 -87 -3 -10 -5 -19 -6 -20 -2 -2 -3 -6 -4 -10 -1 -5 -7
-24 -13 -43 -6 -19 -28 -93 -48 -165 -20 -71 -39 -137 -42 -145 -3 -8 -7 -19
-8 -25 -2 -5 -15 -50 -29 -100 -15 -49 -29 -97 -31 -105 -10 -40 -116 -401
-130 -442 l-17 -48 -40 48 c-21 26 -60 80 -86 121 -48 75 -184 278 -228 341
-29 40 -91 116 -116 142 -10 10 -15 18 -12 18 3 0 -1 6 -8 13 -7 8 -38 42 -68
76 -30 35 -80 88 -110 120 -243 254 -252 265 -245 296 4 17 9 41 11 55 6 32
22 96 34 140 9 31 47 190 55 230 6 27 46 225 49 240 2 8 6 31 10 50 3 19 8 45
10 56 2 12 7 39 10 60 4 22 11 64 16 94 5 30 12 78 15 105 4 28 8 57 10 65 3
8 7 32 10 53 3 20 8 54 11 75 3 20 7 53 9 72 2 19 7 53 10 75 4 22 8 56 10 75
2 19 6 62 9 95 3 33 9 85 12 115 10 81 12 105 19 215 4 55 8 116 10 135 19
184 25 964 11 1300 -15 352 -37 693 -51 815 -3 22 -7 60 -10 85 -2 25 -7 59
-9 75 -9 55 -18 120 -21 145 -2 14 -4 25 -5 25 -1 0 -3 9 -4 20 -2 11 -7 36
-11 55 -5 19 -9 40 -10 45 -1 9 -8 37 -22 88 -4 14 -16 17 -71 17 -56 0 -76
-6 -122 -31z m-3015 -4102 c28 -3 66 -8 85 -11 19 -3 51 -8 70 -10 54 -6 174
-40 182 -51 4 -5 8 -7 8 -2 0 4 16 1 35 -7 20 -9 37 -15 40 -16 52 -8 409
-180 465 -225 8 -6 38 -24 65 -40 28 -16 74 -46 103 -67 28 -21 52 -35 52 -31
0 4 4 3 8 -2 4 -6 29 -26 55 -45 64 -47 289 -223 329 -258 84 -73 229 -206
294 -269 53 -52 57 -61 40 -108 -59 -157 -82 -216 -95 -245 -8 -19 -15 -37
-15 -40 -2 -15 -41 -108 -52 -125 -7 -11 -14 -24 -15 -30 -5 -30 -114 -259
-143 -300 -11 -16 -20 -32 -19 -35 2 -5 -77 -152 -86 -160 -3 -3 -17 -25 -30
-50 -60 -111 -226 -350 -365 -524 -46 -57 -315 -328 -360 -362 -21 -16 -44
-34 -50 -40 -24 -23 -72 -41 -101 -38 -88 9 -192 35 -260 64 -11 5 -46 18 -78
29 -108 39 -257 125 -355 204 -40 33 -252 244 -252 252 0 3 -13 20 -30 38 -16
18 -30 35 -30 39 0 4 -6 13 -13 20 -30 31 -136 201 -188 303 -70 138 -159 365
-142 365 3 0 0 7 -7 15 -7 8 -10 15 -7 15 3 0 -1 24 -8 53 -8 28 -16 70 -20
92 -3 23 -8 52 -10 65 -24 120 -25 587 -1 725 2 17 8 55 11 85 7 53 18 118 30
170 4 14 9 39 11 55 8 44 94 299 103 305 4 3 11 17 15 33 3 15 11 27 16 27 6
0 10 6 10 14 0 17 48 103 62 112 6 4 67 9 137 11 69 3 127 6 128 7 4 4 322 -3
378 -7z"/>
<path d="M8608 6303 c7 -3 16 -2 19 1 4 3 -2 6 -13 5 -11 0 -14 -3 -6 -6z"/>
<path d="M8535 6275 c-16 -13 -27 -24 -24 -25 11 0 68 31 74 41 12 18 -21 8
-50 -16z"/>
</g>
</svg>
